<svg width="48" height="48" viewBox="0 0 48 48" fill="none" xmlns="http://www.w3.org/2000/svg">
<rect x="0.5" y="0.5" width="47" height="47" rx="23.5" stroke="#444444"/>
<path fill-rule="evenodd" clip-rule="evenodd" d="M23.9998 14.1836C24.3188 14.1836 24.5774 14.4422 24.5774 14.7611V23.4242H33.2405C33.5594 23.4242 33.818 23.6828 33.818 24.0018C33.818 24.3207 33.5594 24.5793 33.2405 24.5793H24.5774V33.2424C24.5774 33.5614 24.3188 33.82 23.9998 33.82C23.6809 33.82 23.4223 33.5614 23.4223 33.2424V24.5793H14.7592C14.4402 24.5793 14.1816 24.3207 14.1816 24.0018C14.1816 23.6828 14.4402 23.4242 14.7592 23.4242H23.4223V14.7611C23.4223 14.4422 23.6809 14.1836 23.9998 14.1836Z" fill="#444444"/>
</svg>
