<svg width="158" height="158" viewBox="0 0 158 158" fill="#444444" xmlns="http://www.w3.org/2000/svg">
<path fill-rule="evenodd" clip-rule="evenodd" d="M78.9982 155.225C121.096 155.225 155.223 121.098 155.223 79.0002C155.223 36.9025 121.096 2.77555 78.9982 2.77555C36.9005 2.77555 2.7736 36.9025 2.7736 79.0002C2.7736 121.098 36.9005 155.225 78.9982 155.225ZM78.9982 157.342C122.265 157.342 157.34 122.267 157.34 79.0002C157.34 35.7331 122.265 0.658203 78.9982 0.658203C35.7311 0.658203 0.65625 35.7331 0.65625 79.0002C0.65625 122.267 35.7311 157.342 78.9982 157.342Z" fill="#444444"/>
<path fill-rule="evenodd" clip-rule="evenodd" d="M57.8247 79.0005C57.8247 78.2388 58.4172 77.6213 59.1481 77.6213H98.8484C99.5792 77.6213 100.172 78.2388 100.172 79.0005C100.172 79.7622 99.5792 80.3797 98.8484 80.3797H59.1481C58.4172 80.3797 57.8247 79.7622 57.8247 79.0005Z" fill="#444444"/>
<path fill-rule="evenodd" clip-rule="evenodd" d="M81.6702 61.7278C82.017 61.0573 82.8196 60.8067 83.463 61.1681L82.8351 62.3822C83.463 61.1681 83.463 61.1681 83.463 61.1681L83.4779 61.1765L83.5156 61.1979L83.6564 61.2787C83.7785 61.3492 83.9556 61.4526 84.1799 61.5862C84.6283 61.8533 85.2662 62.242 86.0304 62.732C87.5564 63.7102 89.5983 65.0997 91.6469 66.738C93.6877 68.3699 95.7781 70.2826 97.3704 72.3135C98.937 74.3117 100.171 76.6128 100.171 78.9964C100.171 81.381 98.9373 83.6832 97.3706 85.6826C95.7783 87.7146 93.6879 89.6281 91.6471 91.2608C89.5985 92.8997 87.5565 94.2898 86.0306 95.2684C85.2663 95.7585 84.6285 96.1473 84.18 96.4146C83.9558 96.5483 83.7787 96.6516 83.6566 96.7222L83.5157 96.803L83.478 96.8244L83.4677 96.8303L83.4647 96.832C83.4647 96.832 83.4632 96.8328 82.8351 95.6188L83.4647 96.832C82.8214 97.1935 82.0172 96.9439 81.6703 96.2734C81.3235 95.603 81.5637 94.7665 82.2069 94.4049L82.2154 94.4001L82.2464 94.3825L82.3733 94.3096C82.4858 94.2446 82.6527 94.1472 82.8663 94.02C83.2935 93.7654 83.9066 93.3917 84.6436 92.9191C86.1199 91.9723 88.0811 90.6363 90.0356 89.0727C91.9979 87.5028 93.9106 85.7372 95.3207 83.9377C96.7563 82.1056 97.5242 80.4239 97.5242 78.9964C97.5242 77.5705 96.7566 75.8901 95.3209 74.0589C93.9108 72.2604 91.9981 70.4957 90.0358 68.9264C88.0813 67.3635 86.1201 66.028 84.6437 65.0815C83.9068 64.6091 83.2937 64.2355 82.8664 63.981C82.6529 63.8538 82.486 63.7564 82.3735 63.6914L82.2465 63.6186L82.2156 63.601L82.2085 63.597C81.5653 63.2355 81.3235 62.3982 81.6702 61.7278Z" fill="#444444"/>
</svg>
