<svg width="76" height="76" viewBox="0 0 76 76" fill="none" xmlns="http://www.w3.org/2000/svg">
	<path d="M19.2097 24.7093C20.0444 25.2538 20.5334 25.9376 20.7367 26.8972C20.9892 28.0888 20.6917 29.2744 20.4368 30.4365C20.2777 29.9481 20.1284 29.457 19.989 28.9632C20.01 29.2816 20.0644 29.6158 19.9674 29.9238L19.8818 30.0033C19.5965 29.7016 19.5232 28.9887 19.4378 28.5978C19.4035 29.2599 19.405 29.9441 19.2724 30.5949C19.23 30.1332 19.2279 28.804 18.8843 28.5163L18.7731 28.7294C18.7377 28.577 18.7165 28.4356 18.7012 28.28C18.6881 28.1444 18.6851 28.0702 18.5905 27.9619L18.5555 28.144L18.5313 28.0727C18.4172 28.4127 18.2367 29.2362 17.9312 29.4364C17.9165 29.4462 17.8992 29.4517 17.8831 29.4593C17.8843 29.2975 17.8752 29.1559 17.8421 28.9969C17.7468 29.2751 17.7348 29.57 17.7096 29.8605C17.5662 29.2558 17.4148 28.6523 17.311 28.0401C17.0387 28.4756 16.7822 28.9579 16.4354 29.3413L16.352 29.3428C16.22 28.738 16.5373 28.0697 16.5502 27.4536C16.317 27.6989 15.7787 28.4531 15.4537 28.472C15.4127 28.3391 15.4002 28.3106 15.4723 28.18C15.5488 28.0416 15.6618 27.9852 15.6811 27.8148C15.4433 27.8664 15.2319 27.9564 15.0093 28.0487C14.9779 27.6365 15.6117 26.9849 15.8214 26.613C15.5068 26.9032 14.8832 27.5234 14.3959 27.4851C14.2874 27.4766 14.2714 27.4328 14.1959 27.3642C14.1323 27.0334 14.2974 26.7401 14.4869 26.4761C15.1396 25.5663 16.4679 24.6809 17.6098 24.5024C17.9511 24.4489 18.3224 24.4484 18.6602 24.5288C18.8417 24.6062 19.0185 24.6594 19.2097 24.7093Z" fill="#D08D61" />
	<path d="M27.8135 33.1109C28.1375 35.8427 28.3679 38.896 26.4558 41.176C25.8919 41.8483 24.7158 42.9168 23.7834 43.0357C23.7025 43.0461 23.6319 43.0339 23.5522 43.0206C23.4224 42.9018 23.3873 42.8421 23.3878 42.6644C23.3894 42.1737 23.7067 41.5978 23.8258 41.114C24.0717 40.1158 24.2296 39.0978 24.521 38.11C24.9124 36.7822 25.5246 35.5666 26.1083 34.3137C26.4369 33.6082 26.7272 32.8814 27.1035 32.1984C27.2111 32.2656 27.2224 32.2951 27.2492 32.4229C27.3993 33.1416 27.084 34.6435 26.9743 35.4043C27.3362 35.0882 27.2138 33.258 27.5777 32.5483C27.6805 32.7358 27.7643 32.9035 27.8135 33.1109Z" fill="#9C9C7B" />
	<path d="M32.1589 40.0505L31.9777 39.8052L31.9888 39.8841L31.9359 39.7567C31.9173 39.7791 31.9353 39.8145 31.9381 39.8432C31.9869 40.3331 32.7199 41.8739 32.9057 42.5486C33.7569 45.6379 33.3421 49.7315 31.278 52.2823C30.9918 52.636 30.6685 52.9632 30.3391 53.2792C30.1985 50.8326 29.8518 48.3439 30.1592 45.9011C30.3218 44.6082 30.668 43.3568 31.0111 42.1013C31.2446 41.2468 31.4275 40.2105 31.9286 39.4622C32.0531 39.6474 32.0997 39.8403 32.1589 40.0505Z" fill="#9C9C7B" />
	<path d="M24.8071 26.1534C25.4584 28.583 25.1567 31.4721 23.8312 33.642C23.0072 34.991 21.8274 35.9771 20.3524 36.6093C20.3998 35.7113 20.6232 34.8008 20.7784 33.9148C21.3523 30.6384 21.7576 29.0981 23.2603 26.0854C23.5492 25.5063 23.8243 24.8453 24.2325 24.3384C24.2309 24.3216 24.2296 24.3047 24.2278 24.288C24.2097 24.1219 24.0065 23.4748 24.0503 23.392C24.1344 23.5952 24.2101 23.8079 24.3121 24.0033C24.4847 24.5113 24.5991 25.0423 24.7307 25.5614L24.8071 26.1534ZM24.8071 26.1534L24.7307 25.5614C24.5991 25.0423 24.4847 24.5113 24.3121 24.0033C24.2101 23.8079 24.1344 23.5952 24.0503 23.392C24.0065 23.4748 24.2097 24.1219 24.2278 24.288C24.2296 24.3047 24.2309 24.3216 24.2325 24.3384C24.4024 25.2377 24.2116 26.1935 24.1636 27.1C24.2656 26.7347 24.2804 26.2023 24.4925 25.8994L24.604 25.8813L24.8071 26.1534Z" fill="#9C9C7B" />
	<path d="M41.0497 56.5944C39.0681 55.3115 37.2962 53.1123 36.8312 50.8222C36.6735 50.0449 36.7137 49.3023 36.8105 48.5234C36.8422 48.2688 36.9305 47.9163 36.8975 47.6658C36.8781 47.519 36.7477 47.3677 36.6617 47.2491C36.8336 47.3285 36.944 47.3737 37.1355 47.3689C38.2507 47.1362 39.3171 47.3947 40.271 47.9953C42.4584 49.3727 43.3204 51.8544 44.4479 53.9903C42.4153 53.094 40.9456 52.1206 39.3683 50.5865C40.2238 52.6068 40.7617 54.4319 41.0497 56.5944Z" fill="#9C9C7B" />
	<path d="M67.2066 43.2431C66.3496 45.0977 64.9179 46.3256 62.9558 47.0432C59.5535 48.2876 54.7315 48.4399 51.1648 47.7471C50.6189 47.641 48.3759 47.0192 47.9961 47.0831C47.9648 47.0884 47.9402 47.112 47.9122 47.1266C48.4876 47.39 49.111 47.5373 49.7118 47.7357C50.6167 48.0347 51.5106 48.4026 52.4287 48.6576C53.4281 48.9353 54.4706 49.0987 55.4808 49.3416C57.126 49.7372 58.7549 50.2027 60.4043 50.5794C61.4395 50.8157 62.4917 50.9801 63.5327 51.1888C64.1801 51.3187 66.5958 51.6353 66.8561 52.0896C66.1099 52.4496 57.3682 50.335 56.1471 50.0156C55.269 49.7858 54.2518 49.3111 53.3601 49.2309C54.0857 49.5676 54.8382 49.8273 55.5464 50.2022C58.9398 51.9983 62.7659 54.9555 64.1279 58.5926C64.1813 58.7377 64.23 58.8843 64.2741 59.0324C64.3181 59.1804 64.3574 59.3295 64.3919 59.4798C64.4265 59.6301 64.4563 59.7812 64.4811 59.9333C64.5061 60.0853 64.5261 60.2378 64.5413 60.391C64.5564 60.5441 64.5667 60.6976 64.5721 60.8513C64.5775 61.005 64.578 61.1587 64.5736 61.3124C64.5691 61.4661 64.5598 61.6194 64.5456 61.7724C64.5313 61.9255 64.5122 62.078 64.4882 62.2298C62.6957 58.988 61.0142 56.1739 58.1463 53.6845C57.025 52.7113 55.8093 51.8446 54.6522 50.9128C56.0205 52.7575 56.9289 54.6754 57.5554 56.8607C57.7161 57.4212 57.9185 58.0432 57.899 58.6272C57.4858 57.9023 57.1413 56.2532 56.7989 55.3563C55.9152 53.0415 54.8712 51.7256 53.0687 50.0136C52.6221 49.5895 52.1685 49.0876 51.6338 48.7735C51.0317 48.4196 49.2164 47.8075 48.5038 47.5967C48.4912 47.5929 48.4777 47.5915 48.4648 47.5889L48.4165 47.6955L48.3004 47.5957C48.3229 47.6905 48.3933 47.7495 48.4805 47.7962C48.677 47.9014 48.903 47.9357 49.0985 48.0583C50.7257 49.0782 51.9776 50.8284 52.7055 52.5453C53.8547 55.2554 53.6477 57.9219 52.5413 60.5696C51.5756 55.9904 51.7628 52.7637 48.461 48.9986C47.9365 48.4005 47.3103 47.6414 46.6387 47.2017C46.1405 46.8755 45.4869 46.774 44.942 46.532C46.9098 48.9045 48.3154 51.2989 47.9418 54.4754C47.9148 54.6858 47.8815 54.8952 47.8417 55.1037L47.7931 55.0103C46.4457 52.3919 45.7083 49.4842 44.0739 46.9844C43.7692 46.5182 43.3833 46.122 42.8924 45.8371C41.6395 45.1097 40.1604 44.8123 38.8531 44.193C36.5746 43.1137 34.7585 41.582 32.7487 40.127C33.3027 41.423 33.8945 42.626 34.6285 43.8382C34.9987 44.313 35.317 44.8306 35.6725 45.317C36.1625 45.9871 36.7222 46.653 37.1355 47.3689C36.944 47.3737 36.8336 47.3285 36.6617 47.2491C35.9074 46.1835 35.1252 45.1292 34.4397 44.0206C34.0259 43.4029 32.2639 40.65 32.1589 40.0505C32.0997 39.8403 32.0531 39.6474 31.9286 39.4622C31.4735 38.5823 30.7269 37.8851 30.1552 37.0778C29.266 35.8223 28.5307 34.4623 27.8135 33.1109C27.7643 32.9035 27.6805 32.7358 27.5777 32.5483C27.2713 31.9822 27.0461 31.3758 26.7932 30.7865C26.0505 29.0562 25.4309 27.3034 24.7307 25.5614C24.5991 25.0423 24.4847 24.5113 24.3121 24.0033C23.7334 21.7114 23.2101 19.3947 22.9918 17.0433C22.8742 15.7748 22.927 14.4953 22.8042 13.2309C22.2158 15.0847 21.7118 16.9593 21.1379 18.8162C20.5074 20.7844 19.8646 22.7487 19.2097 24.7093C19.0185 24.6594 18.8417 24.6062 18.6602 24.5288C19.0854 22.6772 19.9516 20.8605 20.5247 19.0376C21.187 16.9309 21.5859 14.7433 22.3714 12.6758C19.8083 15.1928 17.9962 16.3111 15.0063 18.2183C16.3204 14.724 17.8167 13.18 21.3472 11.5971C21.8394 11.3763 22.7005 11.1682 22.9083 10.6422C23.016 10.3694 23.1129 9.79926 23.0797 9.5092C23.0952 9.48975 23.111 9.47065 23.1261 9.45107C23.3757 9.12823 23.4264 8.79881 23.3678 8.39781C23.3042 7.96266 23.215 7.60324 23.2352 7.15778L23.2711 7.16151C23.3705 7.69021 23.3022 8.77193 23.6523 9.16792C23.7871 9.19391 23.8069 9.21284 23.924 9.13027C24.011 9.0691 24.0714 8.97372 24.132 8.8891C23.3603 13.0521 23.7724 17.5047 24.6372 21.6361C25.8739 27.543 28.3934 34.3822 32.6307 38.9268C34.1281 40.5328 35.9136 41.884 37.7654 43.0838C37.8343 43.0837 37.9017 43.086 37.9706 43.0882C38.8967 43.1186 40.0425 43.8258 40.8973 44.1811C41.9973 44.6382 43.2348 45.1601 44.4 45.4137C44.5452 45.495 44.6782 45.5542 44.8356 45.6102C46.0634 46.0808 47.5085 46.2752 48.8096 46.4772C53.5396 47.2118 58.3454 47.3758 62.8139 45.5117C64.3565 44.8682 65.7896 44.1114 67.2066 43.2431Z" fill="#9C9C7B" />
	<path d="M61.4793 38.6135C61.319 38.7212 60.4856 40.5431 60.225 40.9063C57.7572 44.3475 53.7002 45.3443 49.6004 45.4184C48.0575 45.4463 46.4455 45.3224 44.9249 45.5939L44.8356 45.6102C44.6782 45.5542 44.5452 45.495 44.4 45.4137C45.7849 45.2208 47.2014 45.0701 48.5677 44.7819C53.1892 43.8068 57.6487 41.6816 60.5113 37.9448C61.1388 37.1258 61.7235 36.2728 62.3171 35.4304C62.3558 36.4947 61.9043 37.6453 61.4793 38.6135Z" fill="#9C9C7B" />
	<path d="M28.57 30.7772C28.3923 30.8006 28.2166 30.8228 28.0491 30.8882C27.9566 30.9244 27.8592 30.9893 27.7638 31.0113C27.6617 30.8501 27.5684 30.6853 27.4908 30.5116C27.3021 30.0894 27.1101 29.4202 27.2225 28.9715C27.241 28.8978 27.2733 28.816 27.3429 28.7745C27.3924 28.745 27.455 28.744 27.5099 28.7594C27.6297 28.7932 27.7473 28.9048 27.8181 29.0008C27.8756 29.0952 27.9452 29.183 28.0006 29.2786C28.1625 29.5577 28.283 29.865 28.3853 30.1682C28.4532 30.3693 28.4871 30.5809 28.57 30.7772Z" fill="#EABB8D" />
	<path d="M27.7519 31.0139C27.7171 31.0643 27.561 31.1504 27.5024 31.2053C27.4642 31.2412 27.2488 31.5139 27.2424 31.517C26.6813 31.2359 26.03 30.5837 25.8375 29.9996C25.8007 29.8877 25.7701 29.7347 25.8318 29.6275C25.859 29.5801 25.9027 29.5462 25.9569 29.5317C26.1208 29.4877 26.3176 29.578 26.4542 29.6577C26.9583 29.9518 27.4233 30.5523 27.7519 31.0139Z" fill="#EABB8D" />
	<path d="M28.723 33.8294C28.7173 33.9964 28.7284 34.1641 28.7189 34.3309C28.6889 34.8601 28.5371 35.8697 28.1228 36.246C28.0599 36.3031 27.9778 36.3565 27.8877 36.3525C27.83 36.35 27.7801 36.3252 27.7422 36.2832C27.5733 36.0959 27.6014 35.6533 27.6238 35.416C27.6628 35.0039 27.7727 34.5987 27.9018 34.2058C27.9393 34.0915 28.0522 33.8531 28.0632 33.756L28.0711 33.7417C28.105 33.7363 28.2486 33.7901 28.2935 33.8003C28.3286 33.8083 28.364 33.8149 28.3997 33.8201C28.4353 33.8253 28.4711 33.8292 28.5071 33.8316C28.5431 33.8341 28.5791 33.8351 28.6151 33.8347C28.6512 33.8344 28.6871 33.8326 28.723 33.8294Z" fill="#EABB8D" />
	<path d="M29.9042 33.2276C30.3727 33.596 30.8361 34.0132 31.1521 34.516C31.2792 34.7182 31.4472 35.0472 31.3803 35.291C31.3643 35.3492 31.3315 35.4059 31.2754 35.4357C31.1946 35.4784 31.0763 35.4544 30.9926 35.427C30.3397 35.2134 29.7275 34.2873 29.4358 33.7176C29.4231 33.6901 29.4104 33.6651 29.3932 33.64C29.5692 33.5183 29.7493 33.3984 29.876 33.2247C29.8908 33.2224 29.8893 33.2209 29.9042 33.2276Z" fill="#EABB8D" />
	<path d="M29.4294 33.7225C29.5163 33.9208 29.6245 34.109 29.7087 34.3091C29.8937 34.7488 30.1621 35.627 29.9701 36.0754C29.9416 36.1418 29.8905 36.2169 29.8189 36.2448C29.7571 36.269 29.684 36.2538 29.6259 36.2264C29.3615 36.1018 29.1191 35.5877 29.0302 35.3233C28.9033 34.946 28.8346 34.5605 28.7836 34.1684C28.7696 34.0611 28.7516 33.9525 28.7436 33.8447L28.7457 33.8371C28.7761 33.8132 28.8835 33.8069 28.9255 33.7982C29.0377 33.7747 29.1498 33.738 29.2575 33.6997C29.294 33.6867 29.3352 33.6546 29.3726 33.6517C29.4025 33.6676 29.4122 33.6946 29.4294 33.7225Z" fill="#EABB8D" />
	<path d="M30.6856 31.9417C30.8093 31.9201 30.9463 31.92 31.072 31.9153C31.3309 31.9055 31.5929 31.897 31.8517 31.9144C32.1344 31.9334 32.6076 31.9909 32.7976 32.2093C32.8377 32.2553 32.8703 32.3132 32.8633 32.3749C32.8567 32.4338 32.8194 32.4812 32.7731 32.5173C32.3586 32.8397 31.5156 32.8658 31.0015 32.8254C30.9226 32.8192 30.8419 32.8132 30.7637 32.8006C30.709 32.7918 30.6545 32.7774 30.5995 32.7713L30.5985 32.7772C30.7067 32.809 30.8173 32.8332 30.9251 32.866C31.0868 32.9148 31.2458 32.971 31.4021 33.0346C31.5583 33.0982 31.7111 33.1689 31.8603 33.2466C32.0883 33.3653 32.4713 33.5954 32.5442 33.8459C32.5593 33.8977 32.5582 33.9517 32.5281 33.9982C32.4881 34.0601 32.4088 34.0897 32.3383 34.106C31.728 34.2473 30.8373 33.8101 30.3276 33.5027C30.1838 33.4159 30.0488 33.3044 29.9105 33.2238L29.9047 33.2205L29.8956 33.2029C29.9245 33.1338 29.9848 33.0703 30.0221 33.0029C30.1458 32.7797 30.2019 32.5083 30.1834 32.2554C30.1799 32.1976 30.1769 32.1397 30.1695 32.0821C30.2461 32.0477 30.3304 32.0349 30.4117 32.014C30.5032 31.9905 30.5932 31.9616 30.6856 31.9417Z" fill="#EABB8D" />
	<path d="M30.6488 31.9299C30.4937 31.988 30.333 32.0308 30.1712 32.0678C30.1352 31.9257 30.1046 31.7677 30.0404 31.6346C30.0009 31.5527 29.9326 31.4771 29.9026 31.393C29.9103 31.3841 29.9182 31.3758 29.9247 31.366C29.9098 31.3635 29.8993 31.3646 29.8845 31.3661C29.824 31.3259 29.7665 31.2448 29.7107 31.1951C29.5224 31.0271 29.2781 30.8954 29.0314 30.8304C28.9523 30.8099 28.8721 30.7963 28.7907 30.7894C28.7312 30.7842 28.6465 30.7916 28.5918 30.7732C28.5858 30.6853 28.5971 30.5928 28.6022 30.5049C28.6222 30.1633 28.6622 29.818 28.749 29.486C28.8116 29.2465 28.9706 28.7641 29.1961 28.6426C29.2438 28.6169 29.2969 28.6105 29.3494 28.6266C29.4531 28.6585 29.5081 28.742 29.5533 28.8311C29.7581 29.235 29.6828 30.0407 29.5632 30.4702C29.5391 30.5567 29.5031 30.6113 29.4757 30.6892L29.481 30.6895C29.6333 30.4247 29.8312 30.1662 30.0332 29.9348C30.2369 29.7016 30.5694 29.3334 30.9031 29.3127C30.9675 29.3087 31.0365 29.3118 31.0863 29.3568C31.1379 29.4036 31.1502 29.4746 31.1527 29.5397C31.1713 30.0225 30.6754 30.725 30.3415 31.0683C30.5909 30.9313 30.8223 30.7867 31.0877 30.6774C31.3696 30.5614 31.8329 30.3997 32.1289 30.5215C32.1802 30.5426 32.2265 30.5771 32.247 30.6288C32.2769 30.704 32.2515 30.7913 32.2184 30.8613C31.9853 31.3538 31.1532 31.7525 30.6488 31.9299Z" fill="#EABB8D" />
	<path d="M29.4294 33.7225C29.4122 33.6946 29.4025 33.6676 29.3726 33.6517C29.3352 33.6546 29.294 33.6867 29.2575 33.6997C29.1498 33.738 29.0377 33.7747 28.9255 33.7982C28.8835 33.8069 28.7761 33.8132 28.7457 33.8371L28.7436 33.8447L28.723 33.8294C28.6871 33.8326 28.6512 33.8344 28.6151 33.8347C28.5791 33.8351 28.5431 33.8341 28.5071 33.8316C28.4711 33.8292 28.4353 33.8253 28.3997 33.8201C28.364 33.8149 28.3286 33.8083 28.2935 33.8003C28.2486 33.7901 28.105 33.7363 28.0711 33.7417L28.0632 33.756L28.0574 33.7499C28.0491 33.7349 28.0401 33.7293 28.0254 33.721C27.9467 33.6764 27.8621 33.6422 27.7828 33.5987C27.5819 33.4885 27.4058 33.3119 27.2803 33.1261C27.2518 33.0838 27.163 32.8861 27.1578 32.8806C27.0757 32.6207 27.0321 32.4433 27.0402 32.1662C27.0132 32.164 26.9854 32.1632 26.9588 32.1583L26.9611 32.1519L26.9723 32.1498C26.9953 32.1453 27.0155 32.1445 27.0315 32.1264C27.061 32.015 27.0842 31.8977 27.1235 31.7894C27.1431 31.7353 27.2324 31.574 27.2341 31.5368L27.2263 31.5252L27.2424 31.517C27.2488 31.5139 27.4642 31.2412 27.5024 31.2053C27.561 31.1504 27.7171 31.0643 27.7519 31.0139L27.7638 31.0113C27.8592 30.9893 27.9566 30.9244 28.0491 30.8882C28.2166 30.8228 28.3923 30.8006 28.57 30.7772L28.5704 30.7464L28.5822 30.7712L28.5918 30.7732C28.6465 30.7916 28.7312 30.7842 28.7907 30.7894C28.8721 30.7963 28.9523 30.8099 29.0314 30.8304C29.2781 30.8954 29.5224 31.0271 29.7107 31.1951C29.7665 31.2448 29.824 31.3259 29.8845 31.3661C29.8993 31.3646 29.9098 31.3635 29.9247 31.366C29.9182 31.3758 29.9103 31.3841 29.9026 31.393C29.9326 31.4771 30.0009 31.5527 30.0404 31.6346C30.1046 31.7677 30.1352 31.9257 30.1712 32.0678C30.333 32.0308 30.4937 31.988 30.6488 31.9299L30.6548 31.9379L30.6856 31.9417C30.5932 31.9616 30.5032 31.9905 30.4117 32.014C30.3304 32.0349 30.2461 32.0477 30.1695 32.0821C30.1769 32.1397 30.1799 32.1976 30.1834 32.2554C30.2019 32.5083 30.1458 32.7797 30.0221 33.0029C29.9848 33.0703 29.9245 33.1338 29.8956 33.2029L29.9047 33.2205L29.9042 33.2276C29.8893 33.2209 29.8908 33.2224 29.876 33.2247C29.7493 33.3984 29.5692 33.5183 29.3932 33.64C29.4104 33.6651 29.4231 33.6901 29.4358 33.7176L29.4294 33.7225Z" fill="#F0DDC8" />
	<path d="M30.1834 32.2554C30.1821 32.2532 30.1807 32.251 30.1795 32.2487C30.1299 32.161 30.1163 32.0529 30.0695 31.9604C29.8991 31.6229 29.5507 31.3708 29.1844 31.2611C28.7773 31.1393 28.3165 31.1984 27.9453 31.3918C27.9342 31.3976 27.9232 31.4036 27.9123 31.4096C27.9014 31.4157 27.8905 31.4219 27.8798 31.4283C27.869 31.4346 27.8583 31.4411 27.8477 31.4476C27.8372 31.4542 27.8266 31.461 27.8162 31.4678C27.8058 31.4746 27.7955 31.4816 27.7852 31.4887C27.775 31.4958 27.7649 31.503 27.7548 31.5103C27.7448 31.5177 27.7348 31.5251 27.7249 31.5327C27.7151 31.5402 27.7053 31.5479 27.6957 31.5557C27.686 31.5635 27.6764 31.5714 27.667 31.5795C27.6575 31.5875 27.6482 31.5957 27.6389 31.6039C27.6297 31.6122 27.6205 31.6205 27.6115 31.629C27.6025 31.6375 27.5935 31.6461 27.5847 31.6548C27.5759 31.6635 27.5672 31.6722 27.5586 31.6811C27.55 31.6901 27.5415 31.6991 27.5332 31.7082C27.5248 31.7173 27.5166 31.7265 27.5085 31.7358C27.5004 31.7451 27.4924 31.7545 27.4845 31.7639C27.4766 31.7734 27.4688 31.783 27.4612 31.7927C27.4536 31.8024 27.4461 31.8121 27.4387 31.822C27.4313 31.8319 27.424 31.8418 27.4169 31.8518C27.4098 31.8619 27.4028 31.872 27.3959 31.8822C27.389 31.8924 27.3823 31.9027 27.3757 31.9131C27.3691 31.9234 27.3626 31.9338 27.3563 31.9444C27.3499 31.9549 27.3438 31.9655 27.3377 31.9762C27.3316 31.9868 27.3257 31.9976 27.3199 32.0084C27.3141 32.0192 27.3085 32.0301 27.3029 32.041C27.2974 32.052 27.2921 32.063 27.2868 32.0741C27.2816 32.0851 27.2765 32.0963 27.2716 32.1075C27.2666 32.1187 27.2618 32.1299 27.2572 32.1412C27.2525 32.1525 27.248 32.1639 27.2436 32.1753C27.2393 32.1868 27.2351 32.1982 27.231 32.2098C27.2269 32.2213 27.223 32.2329 27.2192 32.2445C27.2154 32.2561 27.2118 32.2678 27.2083 32.2795C27.1933 32.3299 27.1813 32.3811 27.1724 32.4329C27.1635 32.4846 27.1576 32.5368 27.1549 32.5893C27.1507 32.6686 27.1861 32.8148 27.1578 32.8806C27.0757 32.6207 27.0321 32.4433 27.0402 32.1662C27.0132 32.164 26.9854 32.1632 26.9588 32.1583L26.9611 32.1519L26.9723 32.1498C26.9953 32.1453 27.0155 32.1445 27.0315 32.1264C27.061 32.015 27.0842 31.8977 27.1235 31.7894C27.1431 31.7353 27.2324 31.574 27.2341 31.5368L27.2263 31.5252L27.2424 31.517C27.2488 31.5139 27.4642 31.2412 27.5024 31.2053C27.561 31.1504 27.7171 31.0643 27.7519 31.0139L27.7638 31.0113C27.8592 30.9893 27.9566 30.9244 28.0491 30.8882C28.2166 30.8228 28.3923 30.8006 28.57 30.7772L28.5704 30.7464L28.5822 30.7712L28.5918 30.7732C28.6465 30.7916 28.7312 30.7842 28.7907 30.7894C28.8721 30.7963 28.9523 30.8099 29.0314 30.8304C29.2781 30.8954 29.5224 31.0271 29.7107 31.1951C29.7665 31.2448 29.8762 31.2989 29.8845 31.3661C29.8837 31.3693 29.8837 31.3693 29.8935 31.3748C29.8935 31.3748 29.8987 31.3821 29.9026 31.393C29.9326 31.4771 30.0009 31.5527 30.0404 31.6346C30.1046 31.7677 30.1352 31.9257 30.1712 32.0678C30.333 32.0308 30.4937 31.988 30.6488 31.9299L30.6548 31.9379L30.6856 31.9417C30.5932 31.9616 30.5032 31.9905 30.4117 32.014C30.3304 32.0349 30.2461 32.0477 30.1695 32.0821C30.1769 32.1397 30.1799 32.1976 30.1834 32.2554Z" fill="#F0DDC8" />
	<path d="M28.0574 33.7499C27.9804 33.9704 27.8655 34.1735 27.7446 34.3739C27.4711 34.8272 27.0405 35.4262 26.5378 35.6622C26.4476 35.7046 26.3089 35.7569 26.2095 35.722C26.162 35.7053 26.129 35.6694 26.1086 35.6256C26.0289 35.4548 26.1063 35.2269 26.1744 35.0657C26.336 34.6834 26.6178 34.3236 26.8967 34.0144C27.0044 33.8951 27.1257 33.781 27.2253 33.6557C26.7364 34.0253 26.2124 34.3944 25.5845 34.4997C25.4581 34.5209 25.3277 34.536 25.1995 34.5212C25.1121 34.5111 24.9936 34.4872 24.9364 34.4168C24.9083 34.3822 24.9077 34.34 24.9143 34.2983C24.9551 34.0416 25.3608 33.7646 25.5733 33.6233C25.9843 33.3499 26.4278 33.1309 26.8891 32.9488L26.8964 32.9548L26.8905 32.9482L26.9116 32.9386C26.8566 32.9447 26.8033 32.9702 26.7489 32.9827C26.6114 33.0142 26.4709 33.0431 26.3316 33.0669C25.8962 33.1416 24.9114 33.1971 24.5532 32.9132C24.5134 32.8816 24.4794 32.8412 24.4745 32.7901C24.469 32.7333 24.504 32.6829 24.5411 32.6426C24.6019 32.5766 24.6857 32.5261 24.7642 32.4824C25.2904 32.1894 25.9833 32.1667 26.5777 32.1481L26.5906 32.1478C26.0656 32.0228 25.5313 31.8768 25.0935 31.5545C24.9911 31.479 24.8849 31.3902 24.8166 31.2832C24.7848 31.2333 24.7593 31.1731 24.7741 31.1137C24.7903 31.0482 24.8554 31 24.9129 30.9679C25.1844 30.8163 25.6441 30.9077 25.9327 30.988C26.3789 31.112 26.8249 31.299 27.2263 31.5252L27.2341 31.5368C27.2324 31.574 27.1431 31.7353 27.1235 31.7894C27.0842 31.8977 27.061 32.015 27.0315 32.1264C27.0155 32.1445 26.9953 32.1453 26.9723 32.1498L26.9611 32.1519L26.9588 32.1583C26.9854 32.1632 27.0132 32.164 27.0402 32.1662C27.0321 32.4433 27.0757 32.6207 27.1578 32.8806C27.163 32.8861 27.2518 33.0838 27.2803 33.1261C27.4058 33.3119 27.5819 33.4885 27.7828 33.5987C27.8621 33.6422 27.9467 33.6764 28.0254 33.721C28.0401 33.7293 28.0491 33.7349 28.0574 33.7499Z" fill="#EABB8D" />
	<path d="M45.1136 41.6225C44.8746 41.654 44.6384 41.6839 44.4132 41.7718C44.2888 41.8204 44.1579 41.9077 44.0295 41.9373C43.8923 41.7205 43.7669 41.499 43.6626 41.2655C43.4088 40.6978 43.1507 39.7982 43.3019 39.195C43.3268 39.096 43.3702 38.9859 43.4638 38.9301C43.5304 38.8904 43.6144 38.8891 43.6883 38.9099C43.8494 38.9552 44.0075 39.1053 44.1027 39.2343C44.18 39.3613 44.2736 39.4793 44.3481 39.6078C44.5657 39.983 44.7277 40.3962 44.8653 40.8037C44.9565 41.0741 45.0021 41.3585 45.1136 41.6225Z" fill="#EABB8D" />
	<path d="M44.0136 41.9407C43.9668 42.0085 43.7569 42.1242 43.6781 42.1981C43.6268 42.2463 43.3371 42.613 43.3285 42.6172C42.5741 42.2392 41.6983 41.3625 41.4397 40.5772C41.3901 40.4268 41.349 40.2212 41.4319 40.0769C41.4685 40.0133 41.5273 39.9677 41.6001 39.9481C41.8206 39.889 42.0852 40.0104 42.2688 40.1175C42.9465 40.513 43.5717 41.3202 44.0136 41.9407Z" fill="#EABB8D" />
	<path d="M45.3192 45.7259C45.3114 45.9503 45.3264 46.1757 45.3136 46.4C45.2732 47.1115 45.0691 48.4687 44.5121 48.9747C44.4275 49.0515 44.317 49.1232 44.1958 49.1179C44.1183 49.1145 44.0512 49.0813 44.0003 49.0248C43.7731 48.7729 43.811 48.1779 43.8412 47.8589C43.8936 47.3049 44.0413 46.7602 44.2149 46.2319C44.2654 46.0782 44.4172 45.7577 44.432 45.6272L44.4426 45.608C44.4882 45.6007 44.6813 45.673 44.7416 45.6867C44.7889 45.6974 44.8364 45.7063 44.8844 45.7133C44.9323 45.7204 44.9805 45.7256 45.0289 45.7288C45.0772 45.7321 45.1256 45.7335 45.1741 45.733C45.2226 45.7325 45.2709 45.7301 45.3192 45.7259Z" fill="#EABB8D" />
	<path d="M46.9073 44.9167C47.5373 45.412 48.1603 45.9729 48.5852 46.6488C48.7561 46.9207 48.982 47.3628 48.8919 47.6907C48.8705 47.7688 48.8264 47.8452 48.7509 47.8852C48.6424 47.9426 48.4832 47.9103 48.3707 47.8735C47.4928 47.5864 46.6698 46.3414 46.2776 45.5755C46.2605 45.5385 46.2434 45.5049 46.2202 45.4711C46.457 45.3076 46.6991 45.1463 46.8695 44.9128C46.8893 44.9098 46.8874 44.9077 46.9073 44.9167Z" fill="#EABB8D" />
	<path d="M46.2689 45.5821C46.3858 45.8487 46.5313 46.1017 46.6445 46.3707C46.8932 46.9618 47.254 48.1424 46.9958 48.7453C46.9576 48.8345 46.8888 48.9355 46.7925 48.9731C46.7094 49.0055 46.6112 48.9851 46.533 48.9483C46.1776 48.7808 45.8516 48.0897 45.7321 47.7342C45.5615 47.227 45.4691 46.7087 45.4006 46.1816C45.3818 46.0373 45.3576 45.8914 45.3468 45.7463L45.3496 45.7362C45.3905 45.7041 45.5349 45.6956 45.5914 45.6838C45.7423 45.6523 45.8931 45.603 46.0378 45.5515C46.0869 45.534 46.1423 45.4908 46.1926 45.4869C46.2327 45.5082 46.2459 45.5446 46.2689 45.5821Z" fill="#EABB8D" />
	<path d="M47.9581 43.1879C48.1245 43.1589 48.3086 43.1588 48.4777 43.1524C48.8257 43.1393 49.1781 43.1278 49.526 43.1511C49.9062 43.1766 50.5423 43.254 50.7978 43.5475C50.8517 43.6094 50.8956 43.6872 50.8862 43.7702C50.8773 43.8494 50.8272 43.9132 50.7648 43.9617C50.2075 44.3951 49.074 44.4303 48.3829 44.3759C48.2767 44.3676 48.1682 44.3595 48.063 44.3427C47.9895 44.3308 47.9162 44.3115 47.8423 44.3033L47.8409 44.3111C47.9864 44.3539 48.1351 44.3864 48.28 44.4306C48.4975 44.4962 48.7113 44.5717 48.9214 44.6572C49.1315 44.7426 49.3368 44.8377 49.5375 44.9422C49.844 45.1018 50.359 45.4111 50.457 45.7478C50.4773 45.8175 50.4758 45.8901 50.4354 45.9526C50.3816 46.0358 50.275 46.0755 50.1802 46.0975C49.3595 46.2876 48.1619 45.6998 47.4767 45.2866C47.2833 45.1699 47.1018 45.02 46.9158 44.9116L46.9081 44.9072L46.8958 44.8835C46.9347 44.7906 47.0158 44.7052 47.0659 44.6147C47.2323 44.3146 47.3077 43.9496 47.2829 43.6097C47.2781 43.532 47.2741 43.4541 47.2641 43.3768C47.3672 43.3305 47.4805 43.3133 47.5898 43.2852C47.7128 43.2536 47.8338 43.2147 47.9581 43.1879Z" fill="#EABB8D" />
	<path d="M47.9086 43.172C47.7001 43.2501 47.4841 43.3078 47.2664 43.3575C47.218 43.1664 47.1769 42.9541 47.0906 42.7751C47.0375 42.6651 46.9457 42.5633 46.9053 42.4503C46.9157 42.4384 46.9263 42.4272 46.935 42.414C46.915 42.4106 46.9009 42.4121 46.881 42.4141C46.7996 42.3601 46.7223 42.251 46.6474 42.1842C46.3941 41.9584 46.0657 41.7813 45.7339 41.694C45.6277 41.6665 45.5198 41.6481 45.4103 41.6388C45.3303 41.6318 45.2164 41.6418 45.1429 41.6171C45.1348 41.4989 45.1501 41.3746 45.1569 41.2564C45.1837 40.7972 45.2376 40.3329 45.3543 39.8866C45.4385 39.5646 45.6524 38.9161 45.9556 38.7527C46.0196 38.7182 46.0911 38.7095 46.1616 38.7312C46.3011 38.774 46.375 38.8863 46.4358 39.0061C46.7111 39.5491 46.6099 40.6323 46.449 41.2097C46.4166 41.326 46.3682 41.3994 46.3314 41.5041L46.3386 41.5046C46.5433 41.1485 46.8093 40.801 47.081 40.4899C47.3549 40.1763 47.802 39.6813 48.2507 39.6535C48.3372 39.6482 48.4301 39.6522 48.4969 39.7129C48.5663 39.7758 48.5829 39.8711 48.5863 39.9587C48.6113 40.6077 47.9445 41.5523 47.4955 42.0138C47.8309 41.8296 48.142 41.6352 48.4988 41.4882C48.8778 41.3322 49.5008 41.1149 49.8988 41.2786C49.9678 41.3069 50.03 41.3533 50.0576 41.4227C50.0978 41.5239 50.0636 41.6412 50.0191 41.7354C49.7056 42.3974 48.5869 42.9335 47.9086 43.172Z" fill="#EABB8D" />
	<path d="M46.2689 45.5821C46.2459 45.5446 46.2327 45.5082 46.1926 45.4869C46.1423 45.4908 46.0869 45.534 46.0378 45.5515C45.8931 45.603 45.7423 45.6523 45.5914 45.6838C45.5349 45.6956 45.3905 45.7041 45.3496 45.7362L45.3468 45.7463L45.3192 45.7259C45.2709 45.7301 45.2226 45.7325 45.1741 45.733C45.1256 45.7335 45.0772 45.7321 45.0289 45.7288C44.9805 45.7256 44.9323 45.7204 44.8844 45.7133C44.8364 45.7063 44.7889 45.6974 44.7416 45.6867C44.6813 45.673 44.4882 45.6007 44.4426 45.608L44.432 45.6272L44.4241 45.6189C44.4131 45.5988 44.401 45.5913 44.3811 45.5801C44.2753 45.5201 44.1616 45.4742 44.055 45.4157C43.7848 45.2676 43.5481 45.0302 43.3793 44.7803C43.341 44.7235 43.2217 44.4577 43.2147 44.4503C43.1044 44.1009 43.0457 43.8624 43.0566 43.4899C43.0203 43.487 42.9829 43.4859 42.9471 43.4793L42.9502 43.4707L42.9653 43.4679C42.9963 43.4619 43.0233 43.4607 43.0449 43.4364C43.0846 43.2867 43.1158 43.129 43.1686 42.9833C43.195 42.9107 43.3151 42.6937 43.3174 42.6437L43.3069 42.6282L43.3285 42.6172C43.3371 42.613 43.6268 42.2463 43.6781 42.1981C43.7569 42.1242 43.9668 42.0085 44.0136 41.9407L44.0295 41.9373C44.1579 41.9077 44.2888 41.8204 44.4132 41.7718C44.6384 41.6839 44.8746 41.654 45.1136 41.6225L45.1142 41.5811L45.13 41.6144L45.1429 41.6171C45.2164 41.6418 45.3303 41.6318 45.4103 41.6388C45.5198 41.6481 45.6277 41.6665 45.7339 41.694C46.0657 41.7813 46.3941 41.9584 46.6474 42.1842C46.7223 42.251 46.7996 42.3601 46.881 42.4141C46.9009 42.4121 46.915 42.4106 46.935 42.414C46.9263 42.4272 46.9157 42.4384 46.9053 42.4503C46.9457 42.5633 47.0375 42.6651 47.0906 42.7751C47.1769 42.9541 47.218 43.1664 47.2664 43.3575C47.4841 43.3078 47.7001 43.2501 47.9086 43.172L47.9167 43.1828L47.9581 43.1879C47.8338 43.2147 47.7128 43.2536 47.5898 43.2852C47.4805 43.3133 47.3672 43.3305 47.2641 43.3768C47.2741 43.4541 47.2781 43.532 47.2829 43.6097C47.3077 43.9496 47.2323 44.3146 47.0659 44.6147C47.0158 44.7052 46.9347 44.7906 46.8958 44.8835L46.9081 44.9072L46.9073 44.9167C46.8874 44.9077 46.8893 44.9098 46.8695 44.9128C46.6991 45.1463 46.457 45.3076 46.2202 45.4711C46.2434 45.5049 46.2605 45.5385 46.2776 45.5755L46.2689 45.5821Z" fill="#F0DDC8" />
	<path d="M47.2829 43.6097C47.2811 43.6067 47.2793 43.6037 47.2775 43.6007C47.2109 43.4828 47.1926 43.3374 47.1298 43.2131C46.9006 42.7594 46.4322 42.4204 45.9396 42.2731C45.3923 42.1093 44.7727 42.1888 44.2735 42.4488C44.2586 42.4566 44.2439 42.4646 44.2292 42.4728C44.2145 42.4809 44.1999 42.4893 44.1855 42.4978C44.171 42.5063 44.1567 42.515 44.1424 42.5239C44.1282 42.5327 44.1141 42.5418 44.1 42.551C44.086 42.5601 44.0722 42.5695 44.0584 42.579C44.0446 42.5886 44.031 42.5983 44.0175 42.6081C44.004 42.618 43.9906 42.628 43.9773 42.6382C43.9641 42.6484 43.9509 42.6587 43.9379 42.6692C43.9249 42.6797 43.9121 42.6903 43.8994 42.7011C43.8866 42.7119 43.8741 42.7229 43.8616 42.734C43.8492 42.7451 43.8369 42.7563 43.8247 42.7677C43.8126 42.7791 43.8006 42.7907 43.7888 42.8023C43.7769 42.814 43.7652 42.8258 43.7536 42.8378C43.7421 42.8498 43.7307 42.8619 43.7195 42.8741C43.7082 42.8864 43.6972 42.8987 43.6862 42.9112C43.6753 42.9237 43.6646 42.9364 43.654 42.9491C43.6434 42.9619 43.6329 42.9748 43.6227 42.9878C43.6124 43.0008 43.6023 43.0139 43.5924 43.0272C43.5825 43.0404 43.5727 43.0538 43.5631 43.0673C43.5535 43.0808 43.5441 43.0944 43.5349 43.1081C43.5256 43.1218 43.5166 43.1356 43.5077 43.1496C43.4988 43.1635 43.4901 43.1775 43.4816 43.1917C43.4731 43.2058 43.4647 43.2201 43.4566 43.2344C43.4484 43.2488 43.4405 43.2632 43.4327 43.2777C43.4249 43.2923 43.4173 43.3069 43.4099 43.3216C43.4025 43.3363 43.3952 43.3511 43.3882 43.366C43.3812 43.3809 43.3743 43.3959 43.3677 43.4109C43.361 43.426 43.3546 43.4411 43.3483 43.4564C43.3421 43.4716 43.336 43.4868 43.3301 43.5022C43.3242 43.5176 43.3186 43.533 43.3131 43.5485C43.3076 43.564 43.3024 43.5796 43.2973 43.5952C43.2922 43.6108 43.2873 43.6265 43.2827 43.6422C43.2625 43.71 43.2464 43.7788 43.2343 43.8484C43.2223 43.918 43.2144 43.9881 43.2107 44.0587C43.2052 44.1654 43.2528 44.3619 43.2147 44.4503C43.1044 44.1009 43.0457 43.8624 43.0566 43.4899C43.0203 43.487 42.9829 43.4859 42.9471 43.4793L42.9502 43.4707L42.9653 43.4679C42.9963 43.4619 43.0233 43.4607 43.0449 43.4364C43.0846 43.2867 43.1158 43.129 43.1686 42.9833C43.195 42.9107 43.3151 42.6937 43.3174 42.6437L43.3069 42.6282L43.3285 42.6172C43.3371 42.613 43.6268 42.2463 43.6781 42.1981C43.7569 42.1242 43.9668 42.0085 44.0136 41.9407L44.0295 41.9373C44.1579 41.9077 44.2888 41.8204 44.4132 41.7718C44.6384 41.6839 44.8746 41.654 45.1136 41.6225L45.1142 41.5811L45.13 41.6144L45.1429 41.6171C45.2164 41.6418 45.3303 41.6318 45.4103 41.6388C45.5198 41.6481 45.6277 41.6665 45.7339 41.694C46.0657 41.7813 46.3941 41.9584 46.6474 42.1842C46.7223 42.251 46.8699 42.3237 46.881 42.4141C46.8799 42.4185 46.8799 42.4185 46.8931 42.4258C46.8931 42.4258 46.9001 42.4357 46.9053 42.4503C46.9457 42.5633 47.0375 42.6651 47.0906 42.7751C47.1769 42.9541 47.218 43.1664 47.2664 43.3575C47.4841 43.3078 47.7001 43.2501 47.9086 43.172L47.9167 43.1828L47.9581 43.1879C47.8338 43.2147 47.7128 43.2536 47.5898 43.2852C47.4805 43.3133 47.3672 43.3305 47.2641 43.3768C47.2741 43.4541 47.2781 43.532 47.2829 43.6097Z" fill="#F0DDC8" />
	<path d="M44.4241 45.6189C44.3207 45.9154 44.1661 46.1885 44.0036 46.4579C43.6359 47.0674 43.0568 47.8727 42.3809 48.19C42.2596 48.2469 42.0731 48.3172 41.9395 48.2703C41.8756 48.2479 41.8312 48.1996 41.8038 48.1407C41.6966 47.9111 41.8007 47.6047 41.8923 47.388C42.1096 46.8741 42.4885 46.3903 42.8636 45.9747C43.0084 45.8142 43.1715 45.6608 43.3054 45.4924C42.648 45.9893 41.9435 46.4855 41.0991 46.6271C40.9292 46.6556 40.7538 46.676 40.5815 46.656C40.464 46.6424 40.3047 46.6103 40.2278 46.5157C40.19 46.4692 40.1892 46.4124 40.1981 46.3564C40.2529 46.0113 40.7985 45.6389 41.0842 45.4489C41.6368 45.0814 42.2331 44.7869 42.8534 44.5421L42.8632 44.5502L42.8553 44.5413L42.8836 44.5284C42.8097 44.5366 42.738 44.5709 42.6649 44.5876C42.4799 44.63 42.2911 44.6688 42.1038 44.7009C41.5184 44.8012 40.1943 44.8759 39.7126 44.4943C39.6591 44.4519 39.6134 44.3975 39.6068 44.3288C39.5994 44.2524 39.6465 44.1847 39.6964 44.1305C39.7781 44.0418 39.8908 43.9739 39.9964 43.9151C40.7039 43.5212 41.6355 43.4907 42.4348 43.4656L42.452 43.4652C41.7461 43.2972 41.0278 43.1009 40.4391 42.6676C40.3014 42.5662 40.1587 42.4468 40.0669 42.3029C40.024 42.2358 39.9898 42.1549 40.0097 42.0751C40.0315 41.987 40.119 41.9222 40.1964 41.879C40.5615 41.6753 41.1795 41.7981 41.5675 41.906C42.1675 42.0728 42.7672 42.324 43.3069 42.6282L43.3174 42.6437C43.3151 42.6937 43.195 42.9107 43.1686 42.9833C43.1158 43.129 43.0846 43.2867 43.0449 43.4364C43.0233 43.4607 42.9963 43.4619 42.9653 43.4679L42.9502 43.4707L42.9471 43.4793C42.9829 43.4859 43.0203 43.487 43.0566 43.4899C43.0457 43.8624 43.1044 44.1009 43.2147 44.4503C43.2217 44.4577 43.341 44.7235 43.3793 44.7803C43.5481 45.0302 43.7848 45.2676 44.055 45.4157C44.1616 45.4742 44.2753 45.5201 44.3811 45.5801C44.401 45.5913 44.4131 45.5988 44.4241 45.6189Z" fill="#EABB8D" />
	<path d="M70.4171 72.7024C70.4247 72.9905 70.4422 73.2608 70.5034 73.5431C70.6794 74.3588 71.1543 75.0845 71.8631 75.5034C71.9467 75.5522 72.0326 75.5963 72.1208 75.6356C72.2091 75.6749 72.2991 75.7093 72.3907 75.7389C72.4823 75.7684 72.5752 75.793 72.6695 75.8124C72.7635 75.8318 72.8584 75.8461 72.9541 75.8552C73.0498 75.8643 73.1456 75.8682 73.2414 75.8669C73.3375 75.8656 73.4332 75.8591 73.5285 75.8472C73.624 75.8354 73.7186 75.8185 73.8122 75.7965C73.9058 75.7744 73.9981 75.7472 74.0888 75.7151C75.0501 75.3859 75.5507 74.6773 76 73.7843C75.9957 73.4886 75.9893 73.1888 75.9443 72.8963C75.8234 72.1105 75.424 71.3623 74.7792 70.9123C74.1516 70.4744 73.4061 70.391 72.6808 70.5812C71.5307 70.8822 70.9618 71.6982 70.4171 72.7024Z" fill="#F1DCA8" />
	<path d="M0 2.35143C0.0227737 2.59765 0.0450821 2.83562 0.0971375 3.07742C0.301506 4.02523 0.681129 4.88116 1.50836 5.40245C2.11475 5.78462 2.81516 5.85623 3.4929 5.65532C4.60933 5.32481 5.17387 4.441 5.68179 3.44501C5.67281 3.11006 5.66351 2.77068 5.61546 2.43889C5.50012 1.64254 5.14121 0.899742 4.49595 0.429482C3.92581 0.0140381 3.29855 -0.0784988 2.62103 0.0599823C1.34579 0.321098 0.640862 1.2816 0 2.35143Z" fill="#EFB567" />
	<path d="M2.30781 68.0511C2.27856 68.7838 2.23779 69.5164 2.44847 70.2275C2.76561 71.2977 3.51804 72.2471 4.49247 72.7408C5.4572 73.2298 6.54987 73.2659 7.55151 72.8761C8.85207 72.37 9.51763 71.4007 10.1006 70.1705C10.0999 69.5237 10.1158 68.8494 9.96404 68.2184C9.68347 67.052 8.88256 65.9894 7.85394 65.4308C7.73836 65.367 7.61981 65.3098 7.49829 65.2593C7.37678 65.2088 7.253 65.1653 7.12695 65.1288C7.00092 65.092 6.87334 65.0623 6.74423 65.0397C6.61511 65.0173 6.48521 65.0021 6.35451 64.9941C6.22382 64.986 6.09308 64.9853 5.9623 64.9919C5.83152 64.9984 5.70146 65.0122 5.57211 65.0334C5.44278 65.0545 5.31491 65.0827 5.18851 65.118C5.0621 65.1533 4.93787 65.1955 4.81585 65.2447C3.49016 65.7768 2.89187 66.8019 2.30781 68.0511Z" fill="#EFB567" />
	<path d="M4.23122 13.0325C4.02459 25.7649 4.37169 38.533 4.26926 51.2736C7.93455 51.6802 11.3718 52.4208 14.4416 54.6536C20.1104 58.7767 22.5447 64.8654 23.7073 71.6887C26.8738 71.8126 30.0681 71.652 33.2383 71.6403L51.9214 71.6174C54.915 71.6139 57.9138 71.5423 60.9068 71.5889C62.9388 71.6206 65.1214 71.8792 67.1308 71.6269C68.0859 71.5068 68.9012 71.3097 69.5105 70.483C69.7339 70.18 69.7682 70.2298 69.7094 69.839L68.8412 69.6923C62.5085 69.5266 56.1554 69.6708 49.8199 69.6549C41.6567 69.5533 33.4935 69.5525 25.3305 69.6524C25.1838 68.8335 25.0016 68.0234 24.7839 67.2218C24.5662 66.4201 24.314 65.6303 24.0271 64.8524C23.7403 64.0746 23.4199 63.3117 23.0659 62.5638C22.7121 61.8162 22.3263 61.0866 21.9085 60.3751C17.9901 53.7853 13.2554 51.2974 6.23155 49.5311C6.18069 37.2604 6.63658 24.8909 6.24502 12.6351C6.21282 11.6274 6.19878 10.523 5.45702 9.80051C5.01549 9.84457 4.89622 10.0204 4.55693 10.3047C4.16815 11.0995 4.25971 12.1541 4.23122 13.0325Z" fill="#D08D61" />
	<path d="M0.366119 47.7801C0.229599 51.0099 0.26519 54.2574 0.239426 57.4903C4.98978 57.5014 8.80321 58.3592 12.3394 61.8171C16.247 65.6379 17.4902 70.442 17.6204 75.8516C23.5325 75.857 67.381 76.2854 69.0829 75.6612L69.224 75.3091C69.1083 75.1148 69.0003 74.9203 68.8335 74.7663C68.5366 74.4922 68.0623 74.2136 67.6632 74.1597C65.1776 73.8245 60.3485 74.1255 57.6144 74.11L33.6563 73.9934L19.5454 73.9874C19.045 69.8174 17.6937 65.5314 15.1465 62.2088C11.7689 57.8028 7.34476 56.3112 2.13103 55.6989C2.16772 50.204 2.97193 12.3561 2.03374 10.1835C1.56539 9.94334 1.57736 9.90372 1.08067 10.0473C0.657799 10.6237 0.536552 11.2081 0.46476 11.9179C0.0924377 15.5983 0.371658 19.5648 0.382797 23.2699C0.407402 31.4349 0.532295 39.617 0.366119 47.7801Z" fill="#D08D61" />
</svg>
