<svg width="24" height="24" viewBox="0 0 24 24" fill="none" xmlns="http://www.w3.org/2000/svg">
<path fill-rule="evenodd" clip-rule="evenodd" d="M1.09082 2.93689C1.09082 2.51978 1.37812 2.18164 1.73253 2.18164H22.2673C22.6217 2.18164 22.909 2.51978 22.909 2.93689C22.909 3.354 22.6217 3.69213 22.2673 3.69213H1.73253C1.37812 3.69213 1.09082 3.354 1.09082 2.93689ZM1.09082 8.97884C1.09082 8.56173 1.37812 8.2236 1.73253 8.2236H17.7753C18.1297 8.2236 18.417 8.56173 18.417 8.97884C18.417 9.39595 18.1297 9.73409 17.7753 9.73409H1.73253C1.37812 9.73409 1.09082 9.39595 1.09082 8.97884ZM1.09082 15.0208C1.09082 14.6037 1.37812 14.2656 1.73253 14.2656H22.2673C22.6217 14.2656 22.909 14.6037 22.909 15.0208C22.909 15.4379 22.6217 15.776 22.2673 15.776H1.73253C1.37812 15.776 1.09082 15.4379 1.09082 15.0208ZM1.09082 21.0628C1.09082 20.6457 1.37812 20.3075 1.73253 20.3075H13.925C14.2795 20.3075 14.5668 20.6457 14.5668 21.0628C14.5668 21.4799 14.2795 21.818 13.925 21.818H1.73253C1.37812 21.818 1.09082 21.4799 1.09082 21.0628Z" fill="#444444"/>
</svg>
