<svg width="44" height="44" viewBox="0 0 44 44" fill="none" xmlns="http://www.w3.org/2000/svg">
<path d="M30.0043 17.7853C30.3755 17.4142 30.3755 16.8123 30.0043 16.4411C29.6331 16.0699 29.0313 16.0699 28.6601 16.4411L19.5581 25.5431L15.3412 21.328C14.9699 20.9569 14.3681 20.957 13.997 21.3283C13.6259 21.6995 13.626 22.3013 13.9973 22.6725L18.8863 27.5594C19.2575 27.9305 19.8592 27.9304 20.2304 27.5593L30.0043 17.7853Z" fill="#FFFFFF"/>
<path fill-rule="evenodd" clip-rule="evenodd" d="M22 2C14.8042 2 9.70433 3.18739 6.44586 6.44586C3.18739 9.70433 2 14.8042 2 22C2 29.1958 3.18739 34.2957 6.44586 37.5541C9.70433 40.8126 14.8042 42 22 42C29.1958 42 34.2957 40.8126 37.5541 37.5541C40.8126 34.2957 42 29.1958 42 22C42 14.8042 40.8126 9.70433 37.5541 6.44586C34.2957 3.18739 29.1958 2 22 2ZM3.90099 22C3.90099 14.9097 5.0953 10.4848 7.79006 7.79006C10.4848 5.0953 14.9097 3.90099 22 3.90099C29.0903 3.90099 33.5152 5.0953 36.2099 7.79006C38.9047 10.4848 40.099 14.9097 40.099 22C40.099 29.0903 38.9047 33.5152 36.2099 36.2099C33.5152 38.9047 29.0903 40.099 22 40.099C14.9097 40.099 10.4848 38.9047 7.79006 36.2099C5.0953 33.5152 3.90099 29.0903 3.90099 22Z" fill="#FFFFFF"/>
</svg>
