<svg width="20" height="20" viewBox="0 0 37 37" fill="none" xmlns="http://www.w3.org/2000/svg">
<path fill-rule="evenodd" clip-rule="evenodd" d="M0.640534 0.831941C1.10916 0.363311 1.86896 0.363311 2.33759 0.831941L18.2891 16.7834L34.2405 0.831941C34.7092 0.363311 35.469 0.363311 35.9376 0.831941C36.4062 1.30057 36.4062 2.06037 35.9376 2.529L19.9861 18.4805L35.9376 34.4319C36.4062 34.9006 36.4062 35.6604 35.9376 36.129C35.469 36.5976 34.7092 36.5976 34.2405 36.129L18.2891 20.1775L2.33759 36.129C1.86896 36.5976 1.10916 36.5976 0.640534 36.129C0.171905 35.6604 0.171905 34.9006 0.640534 34.4319L16.592 18.4805L0.640534 2.529C0.171905 2.06037 0.171905 1.30057 0.640534 0.831941Z" fill="#BD9268"/>
</svg>
