<svg width="20" height="20" viewBox="0 0 20 20" fill="none" xmlns="http://www.w3.org/2000/svg">
<path fill-rule="evenodd" clip-rule="evenodd" d="M0.371399 0.373353C0.627015 0.117737 1.04145 0.117737 1.29707 0.373353L9.99787 9.07416L18.6987 0.373353C18.9543 0.117737 19.3687 0.117737 19.6243 0.373353C19.88 0.628968 19.88 1.0434 19.6243 1.29902L10.9235 9.99982L19.6243 18.7006C19.88 18.9562 19.88 19.3707 19.6243 19.6263C19.3687 19.8819 18.9543 19.8819 18.6987 19.6263L9.99787 10.9255L1.29707 19.6263C1.04145 19.8819 0.627015 19.8819 0.371399 19.6263C0.115784 19.3707 0.115784 18.9562 0.371399 18.7006L9.0722 9.99982L0.371399 1.29902C0.115784 1.0434 0.115784 0.628968 0.371399 0.373353Z" fill="#444444"/>
</svg>
