<svg width="24" height="24" viewBox="0 0 24 24" fill="none" xmlns="http://www.w3.org/2000/svg">
<path opacity="0.15" d="M5.75 22.25C5.75 22.4489 6.40848 22.6397 7.58058 22.7803C8.75269 22.921 10.3424 23 12 23C13.6576 23 15.2473 22.921 16.4194 22.7803C17.5915 22.6397 18.25 22.4489 18.25 22.25C18.25 22.0511 17.5915 21.8603 16.4194 21.7197C15.2473 21.579 13.6576 21.5 12 21.5C10.3424 21.5 8.75269 21.579 7.58058 21.7197C6.40848 21.8603 5.75 22.0511 5.75 22.25Z" fill="#45413C"/>
<path d="M11.9981 2.5C11.0397 2.5 10.0907 2.68886 9.2053 3.05578C8.3199 3.4227 7.51548 3.96049 6.83801 4.63842C6.16055 5.31636 5.6233 6.12114 5.25699 7.00679C4.89068 7.89244 4.70247 8.84159 4.70313 9.8V13.62H19.2931V9.8C19.2938 8.84159 19.1056 7.89244 18.7393 7.00679C18.3729 6.12114 17.8357 5.31636 17.1582 4.63842C16.4808 3.96049 15.6764 3.4227 14.791 3.05578C13.9056 2.68886 12.9565 2.5 11.9981 2.5Z" fill="#A86C4D" stroke="#45413C" stroke-width="0.5" stroke-linecap="round" stroke-linejoin="round"/>
<path d="M20.0751 13.0631C20.0392 12.7892 19.921 12.5327 19.7362 12.3273C19.5515 12.122 19.3087 11.9776 19.0401 11.9131L18.6051 11.7931C18.2847 11.7057 18.0024 11.5144 17.8024 11.2493C17.6025 10.9842 17.4961 10.6602 17.5001 10.3281V8.79313C17.4998 8.48609 17.3975 8.18785 17.2092 7.94529C17.021 7.70273 16.7574 7.52961 16.4601 7.45312C15.0415 8.01464 13.5254 8.28829 12.0001 8.25813C10.4781 8.28696 8.96552 8.01334 7.55008 7.45312C7.25086 7.52771 6.9851 7.70003 6.7949 7.94276C6.6047 8.18549 6.50094 8.48475 6.50008 8.79313V10.3281C6.50347 10.6615 6.39569 10.9865 6.19377 11.2518C5.99186 11.5171 5.70731 11.7076 5.38508 11.7931L4.95008 11.9131C4.68146 11.9776 4.43871 12.122 4.25392 12.3273C4.06912 12.5327 3.95097 12.7892 3.91508 13.0631C3.89915 13.2488 3.92196 13.4357 3.98207 13.612C4.04217 13.7884 4.13826 13.9503 4.26425 14.0876C4.39023 14.2249 4.54336 14.3344 4.71392 14.4094C4.88449 14.4844 5.06877 14.5231 5.25508 14.5231H5.34008C5.57986 16.1152 6.38287 17.5684 7.60316 18.6187C8.82346 19.6689 10.3801 20.2466 11.9901 20.2466C13.6001 20.2466 15.1567 19.6689 16.377 18.6187C17.5973 17.5684 18.4003 16.1152 18.6401 14.5231H18.7251C18.9122 14.5245 19.0976 14.4868 19.2694 14.4125C19.4411 14.3381 19.5955 14.2287 19.7225 14.0913C19.8496 13.9539 19.9466 13.7914 20.0073 13.6144C20.068 13.4374 20.0911 13.2496 20.0751 13.0631Z" fill="#FFCEBF" stroke="#45413C" stroke-width="0.5" stroke-linecap="round" stroke-linejoin="round"/>
<path d="M7.96484 12.9031C7.96485 13.0171 7.9987 13.1284 8.06211 13.2231C8.12551 13.3178 8.21561 13.3915 8.32097 13.4348C8.42633 13.4782 8.5422 13.4893 8.65387 13.4667C8.76555 13.4441 8.86799 13.3888 8.9482 13.3079C9.02841 13.227 9.08278 13.1241 9.1044 13.0122C9.12602 12.9004 9.11391 12.7846 9.06963 12.6796C9.02534 12.5746 8.95086 12.4852 8.85565 12.4226C8.76043 12.36 8.64878 12.3272 8.53484 12.3281C8.38321 12.3295 8.23824 12.3906 8.13149 12.4983C8.02473 12.606 7.96484 12.7515 7.96484 12.9031Z" fill="#45413C" stroke="#45413C" stroke-width="0.5" stroke-linecap="round" stroke-linejoin="round"/>
<path d="M16.0367 12.9031C16.0367 13.0171 16.0029 13.1284 15.9395 13.2231C15.876 13.3178 15.786 13.3915 15.6806 13.4348C15.5752 13.4782 15.4594 13.4893 15.3477 13.4667C15.236 13.4441 15.1336 13.3888 15.0534 13.3079C14.9731 13.227 14.9188 13.1241 14.8972 13.0122C14.8755 12.9004 14.8876 12.7846 14.9319 12.6796C14.9762 12.5746 15.0507 12.4852 15.1459 12.4226C15.2411 12.36 15.3528 12.3272 15.4667 12.3281C15.6184 12.3295 15.7633 12.3906 15.8701 12.4983C15.9768 12.606 16.0367 12.7515 16.0367 12.9031Z" fill="#45413C" stroke="#45413C" stroke-width="0.5" stroke-linecap="round" stroke-linejoin="round"/>
<path d="M10.1564 16.5469C10.1149 16.5477 10.0739 16.557 10.0361 16.5742C9.99824 16.5914 9.96432 16.6161 9.9364 16.6469C9.90886 16.6788 9.88874 16.7164 9.8775 16.7571C9.86626 16.7977 9.86418 16.8403 9.8714 16.8819C9.95622 17.3855 10.2167 17.8427 10.6066 18.1724C10.9966 18.5022 11.4907 18.6831 12.0014 18.6831C12.5121 18.6831 13.0062 18.5022 13.3962 18.1724C13.7861 17.8427 14.0466 17.3855 14.1314 16.8819C14.1386 16.8403 14.1365 16.7977 14.1253 16.7571C14.1141 16.7164 14.0939 16.6788 14.0664 16.6469C14.0385 16.6161 14.0046 16.5914 13.9667 16.5742C13.9289 16.557 13.8879 16.5477 13.8464 16.5469H10.1564Z" fill="#FF6242"/>
<path d="M12.0005 17.4392C11.4118 17.4184 10.833 17.5943 10.3555 17.9392C10.561 18.173 10.814 18.3604 11.0977 18.4887C11.3814 18.6171 11.6891 18.6834 12.0005 18.6834C12.3118 18.6834 12.6196 18.6171 12.9032 18.4887C13.1869 18.3604 13.4399 18.173 13.6455 17.9392C13.1679 17.5943 12.5891 17.4184 12.0005 17.4392Z" fill="#FFA694"/>
<path d="M10.1564 16.5469C10.1149 16.5477 10.0739 16.557 10.0361 16.5742C9.99824 16.5914 9.96432 16.6161 9.9364 16.6469C9.90886 16.6788 9.88874 16.7164 9.8775 16.7571C9.86626 16.7977 9.86418 16.8403 9.8714 16.8819C9.95622 17.3855 10.2167 17.8427 10.6066 18.1724C10.9966 18.5022 11.4907 18.6831 12.0014 18.6831C12.5121 18.6831 13.0062 18.5022 13.3962 18.1724C13.7861 17.8427 14.0466 17.3855 14.1314 16.8819C14.1386 16.8403 14.1365 16.7977 14.1253 16.7571C14.1141 16.7164 14.0939 16.6788 14.0664 16.6469C14.0385 16.6161 14.0046 16.5914 13.9667 16.5742C13.9289 16.557 13.8879 16.5477 13.8464 16.5469H10.1564Z" stroke="#45413C" stroke-width="0.5" stroke-linecap="round" stroke-linejoin="round"/>
<path d="M6.84375 15.3513C6.84375 15.4693 6.92224 15.5825 7.06196 15.6659C7.20167 15.7494 7.39116 15.7963 7.58875 15.7963C7.78634 15.7963 7.97583 15.7494 8.11554 15.6659C8.25526 15.5825 8.33375 15.4693 8.33375 15.3513C8.33375 15.2332 8.25526 15.12 8.11554 15.0366C7.97583 14.9531 7.78634 14.9062 7.58875 14.9062C7.39116 14.9062 7.20167 14.9531 7.06196 15.0366C6.92224 15.12 6.84375 15.2332 6.84375 15.3513Z" fill="#FFB59E"/>
<path d="M15.6641 15.3513C15.6641 15.4693 15.7426 15.5825 15.8823 15.6659C16.022 15.7494 16.2115 15.7963 16.4091 15.7963C16.6066 15.7963 16.7961 15.7494 16.9359 15.6659C17.0756 15.5825 17.1541 15.4693 17.1541 15.3513C17.1541 15.2332 17.0756 15.12 16.9359 15.0366C16.7961 14.9531 16.6066 14.9062 16.4091 14.9062C16.2115 14.9062 16.022 14.9531 15.8823 15.0366C15.7426 15.12 15.6641 15.2332 15.6641 15.3513Z" fill="#FFB59E"/>
<path d="M21.75 7.64188C21.75 9.33688 17.385 10.8769 12 10.8769C6.615 10.8769 2.25 9.33688 2.25 7.64188C2.25 5.94688 6.615 5.29688 12 5.29688C17.385 5.29688 21.75 5.94688 21.75 7.64188Z" fill="#B89558"/>
<path d="M12 6.79688C16.54 6.79688 20.345 7.26188 21.43 8.42188C21.6214 8.20526 21.7341 7.93046 21.75 7.64188C21.75 5.94688 17.385 5.29688 12 5.29688C6.615 5.29688 2.25 5.94688 2.25 7.64188C2.26591 7.93046 2.37865 8.20526 2.57 8.42188C3.655 7.26188 7.46 6.79688 12 6.79688Z" fill="#DEBB7E"/>
<path d="M21.75 7.64188C21.75 9.33688 17.385 10.8769 12 10.8769C6.615 10.8769 2.25 9.33688 2.25 7.64188C2.25 5.94688 6.615 5.29688 12 5.29688C17.385 5.29688 21.75 5.94688 21.75 7.64188Z" stroke="#45413C" stroke-width="0.5" stroke-linecap="round" stroke-linejoin="round"/>
<path d="M18.4167 7.49869C18.4167 7.49869 18.1117 3.42869 15.4167 1.80369C15.132 1.65768 14.8151 1.58572 14.4953 1.59446C14.1755 1.6032 13.863 1.69235 13.5867 1.85369C13.0994 2.08564 12.5664 2.20599 12.0267 2.20599C11.487 2.20599 10.9541 2.08564 10.4667 1.85369C10.1904 1.69235 9.87795 1.6032 9.55812 1.59446C9.23829 1.58572 8.92141 1.65768 8.63672 1.80369C5.91672 3.42869 5.63672 7.49869 5.63672 7.49869C5.63672 7.49869 7.37672 8.99869 12.0017 8.99869C16.6267 8.99869 18.4167 7.49869 18.4167 7.49869Z" fill="#B89558"/>
<path d="M8.61172 3.22369C8.89559 3.07557 9.21243 3.00199 9.53253 3.00986C9.85262 3.01773 10.1655 3.10679 10.4417 3.26869C10.9291 3.50064 11.462 3.621 12.0017 3.621C12.5414 3.621 13.0744 3.50064 13.5617 3.26869C13.838 3.10679 14.1508 3.01773 14.4709 3.00986C14.791 3.00199 15.1079 3.07557 15.3917 3.22369C17.1417 4.26869 17.8917 6.31369 18.2017 7.64869C18.2767 7.60368 18.3486 7.55356 18.4167 7.49869C18.4167 7.49869 18.1117 3.42869 15.4167 1.80369C15.132 1.65768 14.8151 1.58572 14.4953 1.59446C14.1755 1.6032 13.863 1.69235 13.5867 1.85369C13.0994 2.08564 12.5664 2.206 12.0267 2.206C11.487 2.206 10.9541 2.08564 10.4667 1.85369C10.1904 1.69235 9.87795 1.6032 9.55812 1.59446C9.23829 1.58572 8.92141 1.65768 8.63672 1.80369C5.91672 3.42869 5.63672 7.49869 5.63672 7.49869C5.70487 7.55356 5.7767 7.60368 5.85172 7.64869C6.11672 6.31369 6.86172 4.26869 8.61172 3.22369Z" fill="#DEBB7E"/>
<path d="M18.4167 7.49869C18.4167 7.49869 18.1117 3.42869 15.4167 1.80369C15.132 1.65768 14.8151 1.58572 14.4953 1.59446C14.1755 1.6032 13.863 1.69235 13.5867 1.85369C13.0994 2.08564 12.5664 2.20599 12.0267 2.20599C11.487 2.20599 10.9541 2.08564 10.4667 1.85369C10.1904 1.69235 9.87795 1.6032 9.55812 1.59446C9.23829 1.58572 8.92141 1.65768 8.63672 1.80369C5.91672 3.42869 5.63672 7.49869 5.63672 7.49869C5.63672 7.49869 7.37672 8.99869 12.0017 8.99869C16.6267 8.99869 18.4167 7.49869 18.4167 7.49869Z" stroke="#45413C" stroke-width="0.5" stroke-linecap="round" stroke-linejoin="round"/>
<path d="M12.0009 6.82437C9.92669 6.85048 7.86651 6.48053 5.93094 5.73438C5.76018 6.31042 5.64466 6.90143 5.58594 7.49937C5.58594 7.49937 7.37594 8.99937 12.0009 8.99937C16.6259 8.99937 18.4159 7.49937 18.4159 7.49937C18.3569 6.90311 18.2414 6.3138 18.0709 5.73937C16.1344 6.48147 14.0747 6.84964 12.0009 6.82437Z" fill="#656769" stroke="#45413C" stroke-width="0.5" stroke-linecap="round" stroke-linejoin="round"/>
<path d="M16.7812 15.6719L17.5335 15.0835L18.6609 16.525L17.9087 17.1133L16.7812 15.6719Z" fill="#DAEDF7" stroke="#45413C" stroke-width="0.5" stroke-linecap="round" stroke-linejoin="round"/>
<path d="M17.5352 17L18.6419 16.1344L20.5702 18.5999L19.4635 19.4655L17.5352 17Z" fill="#DEBB7E"/>
<path d="M20.3039 18.262L18.9039 16.502C18.8696 16.4574 18.8269 16.4201 18.7781 16.3921C18.7293 16.3642 18.6754 16.3462 18.6196 16.3392C18.5638 16.3322 18.5071 16.3364 18.4529 16.3515C18.3987 16.3666 18.3481 16.3922 18.3039 16.427L17.8739 16.762C17.82 16.8054 17.7786 16.8624 17.7539 16.927C17.8428 16.8583 17.9554 16.8277 18.0669 16.8417C18.1784 16.8558 18.2798 16.9134 18.3489 17.002L19.7489 18.787C19.7961 18.8492 19.8252 18.9231 19.8332 19.0007C19.8411 19.0783 19.8275 19.1566 19.7939 19.2271L20.2239 18.892C20.2721 18.8572 20.3127 18.8127 20.3431 18.7615C20.3734 18.7103 20.393 18.6535 20.4005 18.5944C20.408 18.5353 20.4033 18.4754 20.3867 18.4182C20.3701 18.361 20.3419 18.3079 20.3039 18.262Z" fill="#F0D5A8"/>
<path d="M17.5352 17L18.6419 16.1344L20.5702 18.5999L19.4635 19.4655L17.5352 17Z" stroke="#45413C" stroke-width="0.5" stroke-linecap="round" stroke-linejoin="round"/>
<path d="M12.0586 13.0206C12.0586 13.8839 12.4015 14.7118 13.012 15.3223C13.6224 15.9327 14.4503 16.2756 15.3136 16.2756C16.1769 16.2756 17.0048 15.9327 17.6152 15.3223C18.2257 14.7118 18.5686 13.8839 18.5686 13.0206C18.5686 12.1573 18.2257 11.3294 17.6152 10.719C17.0048 10.1086 16.1769 9.76562 15.3136 9.76563C14.4503 9.76562 13.6224 10.1086 13.012 10.719C12.4015 11.3294 12.0586 12.1573 12.0586 13.0206Z" fill="#DAEDF7"/>
<path d="M13.3086 11.2909C13.7608 10.9344 14.2997 10.7047 14.87 10.6253C15.4403 10.5459 16.0214 10.6196 16.5538 10.839C17.0862 11.0584 17.5506 11.4154 17.8994 11.8736C18.2482 12.3317 18.4688 12.8744 18.5386 13.4459C18.6015 12.9855 18.5652 12.5169 18.4319 12.0717C18.2987 11.6266 18.0717 11.2151 17.7662 10.8649C17.4606 10.5148 17.0837 10.2341 16.6606 10.0418C16.2376 9.8495 15.7783 9.75 15.3136 9.75C14.8489 9.75 14.3896 9.8495 13.9665 10.0418C13.5435 10.2341 13.1666 10.5148 12.861 10.8649C12.5555 11.2151 12.3285 11.6266 12.1953 12.0717C12.062 12.5169 12.0256 12.9855 12.0886 13.4459C12.1397 13.024 12.2738 12.6163 12.4831 12.2464C12.6925 11.8766 12.9731 11.5518 13.3086 11.2909Z" fill="white"/>
<path d="M12.0586 13.0206C12.0586 13.8839 12.4015 14.7118 13.012 15.3223C13.6224 15.9327 14.4503 16.2756 15.3136 16.2756C16.1769 16.2756 17.0048 15.9327 17.6152 15.3223C18.2257 14.7118 18.5686 13.8839 18.5686 13.0206C18.5686 12.1573 18.2257 11.3294 17.6152 10.719C17.0048 10.1086 16.1769 9.76562 15.3136 9.76563C14.4503 9.76562 13.6224 10.1086 13.012 10.719C12.4015 11.3294 12.0586 12.1573 12.0586 13.0206V13.0206Z" stroke="#45413C" stroke-width="0.5" stroke-linecap="round" stroke-linejoin="round"/>
<path d="M13.0117 13.0238C13.0117 13.6351 13.2546 14.2214 13.6868 14.6536C14.1191 15.0859 14.7054 15.3287 15.3167 15.3287C15.928 15.3287 16.5143 15.0859 16.9466 14.6536C17.3789 14.2214 17.6217 13.6351 17.6217 13.0238C17.6217 12.4124 17.3789 11.8261 16.9466 11.3939C16.5143 10.9616 15.928 10.7187 15.3167 10.7188C14.7054 10.7187 14.1191 10.9616 13.6868 11.3939C13.2546 11.8261 13.0117 12.4124 13.0117 13.0238Z" fill="#00B8F0"/>
<path d="M13.6846 14.6568L16.9446 11.3918C16.5292 10.9776 15.9716 10.7372 15.3853 10.7198C14.7989 10.7023 14.228 10.9091 13.7888 11.2979C13.3496 11.6868 13.0752 12.2285 13.0214 12.8126C12.9677 13.3967 13.1387 13.9794 13.4996 14.4418C13.5571 14.5169 13.6189 14.5887 13.6846 14.6568Z" fill="#4ACFFF"/>
<path d="M13.0117 13.0238C13.0117 13.6351 13.2546 14.2214 13.6868 14.6536C14.1191 15.0859 14.7054 15.3287 15.3167 15.3287C15.928 15.3287 16.5143 15.0859 16.9466 14.6536C17.3789 14.2214 17.6217 13.6351 17.6217 13.0238C17.6217 12.4124 17.3789 11.8261 16.9466 11.3939C16.5143 10.9616 15.928 10.7187 15.3167 10.7188C14.7054 10.7187 14.1191 10.9616 13.6868 11.3939C13.2546 11.8261 13.0117 12.4124 13.0117 13.0238V13.0238Z" stroke="#45413C" stroke-width="0.5" stroke-linecap="round" stroke-linejoin="round"/>
</svg>
