<svg width="40" height="40" viewBox="0 0 32 32" fill="none" xmlns="http://www.w3.org/2000/svg">
	<rect x="1" y="1" width="30" height="30" rx="15" stroke="#444444" stroke-width="2" />
	<path fill-rule="evenodd" clip-rule="evenodd" d="M10.5 7C10.5119 7 10.5238 7 10.5357 7L16.0296 7C16.3787 6.99999 16.6877 6.99998 16.945 7.01753C17.2182 7.03617 17.5029 7.07779 17.7876 7.19574C18.4177 7.45672 18.9183 7.95731 19.1793 8.58739C19.2972 8.87214 19.3388 9.15678 19.3575 9.43C19.375 9.68731 19.375 9.9963 19.375 10.3454V10.375C19.375 10.9076 18.9433 11.3393 18.4107 11.3393C17.8782 11.3393 17.4464 10.9076 17.4464 10.375C17.4464 9.98739 17.4459 9.74498 17.4334 9.56128C17.4214 9.38625 17.4019 9.33601 17.3975 9.32542C17.3322 9.1679 17.2071 9.04275 17.0496 8.97751C17.039 8.97312 16.9887 8.95357 16.8137 8.94163C16.63 8.9291 16.3876 8.92857 16 8.92857H10.5357C10.0698 8.92857 9.77829 8.92932 9.55867 8.94727C9.35031 8.96429 9.29288 8.99186 9.27958 8.99864C9.15862 9.06027 9.06027 9.15862 8.99864 9.27958C8.99186 9.29288 8.96429 9.35031 8.94727 9.55867C8.92932 9.77829 8.92857 10.0698 8.92857 10.5357V16C8.92857 16.3876 8.9291 16.63 8.94163 16.8137C8.95357 16.9887 8.97312 17.039 8.97751 17.0496C9.04275 17.2071 9.1679 17.3322 9.32542 17.3975C9.33601 17.4019 9.38625 17.4214 9.56128 17.4334C9.74498 17.4459 9.98739 17.4464 10.375 17.4464C10.9076 17.4464 11.3393 17.8782 11.3393 18.4107C11.3393 18.9433 10.9076 19.375 10.375 19.375H10.3454C9.9963 19.375 9.68731 19.375 9.43 19.3575C9.15678 19.3388 8.87214 19.2972 8.58739 19.1793C7.95731 18.9183 7.45672 18.4177 7.19574 17.7876C7.07779 17.5029 7.03617 17.2182 7.01753 16.945C6.99998 16.6877 6.99999 16.3787 7 16.0296L7 10.5357C7 10.5238 7 10.5119 7 10.5C6.99998 10.0805 6.99996 9.70929 7.0251 9.40162C7.05187 9.074 7.11188 8.73451 7.28027 8.40403C7.5268 7.92018 7.92018 7.5268 8.40403 7.28027C8.73451 7.11188 9.074 7.05187 9.40162 7.0251C9.70929 6.99996 10.0805 6.99998 10.5 7ZM16.125 12.625H21.5C21.9195 12.625 22.2907 12.625 22.5984 12.6501C22.926 12.6769 23.2655 12.7369 23.596 12.9053C24.0798 13.1518 24.4732 13.5452 24.7197 14.029C24.8881 14.3595 24.9481 14.699 24.9749 15.0266C25 15.3343 25 15.7056 25 16.1251V21.4999C25 21.9194 25 22.2907 24.9749 22.5984C24.9481 22.926 24.8881 23.2655 24.7197 23.596C24.4732 24.0798 24.0798 24.4732 23.596 24.7197C23.2655 24.8881 22.926 24.9481 22.5984 24.9749C22.2907 25 21.9194 25 21.4999 25H16.1251C15.7056 25 15.3343 25 15.0266 24.9749C14.699 24.9481 14.3595 24.8881 14.029 24.7197C13.5452 24.4732 13.1518 24.0798 12.9053 23.596C12.7369 23.2655 12.6769 22.926 12.6501 22.5984C12.625 22.2907 12.625 21.9195 12.625 21.5V16.125C12.625 15.7055 12.625 15.3343 12.6501 15.0266C12.6769 14.699 12.7369 14.3595 12.9053 14.029C13.1518 13.5452 13.5452 13.1518 14.029 12.9053C14.3595 12.7369 14.699 12.6769 15.0266 12.6501C15.3343 12.625 15.7055 12.625 16.125 12.625ZM15.1837 14.5723C14.9753 14.5893 14.9179 14.6169 14.9046 14.6236C14.7836 14.6853 14.6853 14.7836 14.6236 14.9046C14.6169 14.9179 14.5893 14.9753 14.5723 15.1837C14.5543 15.4033 14.5536 15.6948 14.5536 16.1607V21.4643C14.5536 21.9302 14.5543 22.2217 14.5723 22.4413C14.5893 22.6497 14.6169 22.7071 14.6236 22.7204C14.6853 22.8414 14.7836 22.9397 14.9046 23.0014C14.9179 23.0081 14.9753 23.0357 15.1837 23.0527C15.4033 23.0707 15.6948 23.0714 16.1607 23.0714H21.4643C21.9302 23.0714 22.2217 23.0707 22.4413 23.0527C22.6497 23.0357 22.7071 23.0081 22.7204 23.0014C22.8414 22.9397 22.9397 22.8414 23.0014 22.7204C23.0081 22.7071 23.0357 22.6497 23.0527 22.4413C23.0707 22.2217 23.0714 21.9302 23.0714 21.4643V16.1607C23.0714 15.6948 23.0707 15.4033 23.0527 15.1837C23.0357 14.9753 23.0081 14.9179 23.0014 14.9046C22.9397 14.7836 22.8414 14.6853 22.7204 14.6236C22.7071 14.6169 22.6497 14.5893 22.4413 14.5723C22.2217 14.5543 21.9302 14.5536 21.4643 14.5536H16.1607C15.6948 14.5536 15.4033 14.5543 15.1837 14.5723Z" fill="#444444" />
</svg>
