<svg width="24" height="24" viewBox="0 0 24 24" fill="none" xmlns="http://www.w3.org/2000/svg">
<path opacity="0.15" d="M3.25977 22.75C3.25977 22.9489 4.12896 23.1397 5.67613 23.2803C7.22331 23.421 9.32173 23.5 11.5098 23.5C13.6978 23.5 15.7962 23.421 17.3434 23.2803C18.8906 23.1397 19.7598 22.9489 19.7598 22.75C19.7598 22.5511 18.8906 22.3603 17.3434 22.2197C15.7962 22.079 13.6978 22 11.5098 22C9.32173 22 7.22331 22.079 5.67613 22.2197C4.12896 22.3603 3.25977 22.5511 3.25977 22.75Z" fill="#45413C"/>
<path d="M10.3507 8.95312L17.7357 12.4231L17.1607 18.0081L15.9007 18.6431C15.3722 18.9173 14.7922 19.0776 14.198 19.1137C13.6037 19.1499 13.0085 19.0611 12.4507 18.8531L11.7007 18.5731C10.9988 18.311 10.2421 18.2302 9.5007 18.3381L8.3057 18.5081C8.03687 18.546 7.76281 18.5102 7.51273 18.4045C7.26265 18.2988 7.04594 18.1273 6.8857 17.9081C6.84371 17.8485 6.81526 17.7805 6.80234 17.7087C6.78943 17.6369 6.79237 17.5632 6.81094 17.4927C6.82952 17.4222 6.86329 17.3566 6.90989 17.3006C6.95649 17.2445 7.01479 17.1993 7.0807 17.1681L9.6957 15.9531L6.4707 13.5331L10.3507 8.95312Z" fill="#FFB59E" stroke="#45413C" stroke-width="0.5" stroke-linecap="round" stroke-linejoin="round"/>
<path d="M5.17058 19.3026L3.00058 20.8526C2.95813 20.8811 2.90797 20.8958 2.85687 20.8949C2.80576 20.894 2.75617 20.8774 2.71476 20.8475C2.67335 20.8175 2.64213 20.7756 2.62529 20.7273C2.60845 20.6791 2.6068 20.6268 2.62058 20.5776L3.33058 18.0076C3.34537 17.9531 3.37086 17.9021 3.40558 17.8576L13.5906 3.50758C13.667 3.39979 13.7831 3.32665 13.9133 3.30417C14.0435 3.28168 14.1774 3.31167 14.2856 3.38758L15.3556 4.14758C15.4646 4.22005 15.5409 4.33238 15.568 4.46047C15.5951 4.58855 15.5709 4.72215 15.5006 4.83258L5.29058 19.1876C5.25727 19.2323 5.21671 19.2712 5.17058 19.3026Z" fill="#009FD9"/>
<path d="M4.15519 19.0021C4.17366 18.9435 4.20062 18.8879 4.23519 18.8371L14.9052 3.80712L14.2852 3.36712C14.2307 3.33027 14.1695 3.30452 14.1051 3.29136C14.0406 3.2782 13.9742 3.27788 13.9097 3.29042C13.8451 3.30296 13.7837 3.32812 13.7288 3.36444C13.674 3.40077 13.6269 3.44755 13.5902 3.50212L3.40519 17.8421C3.37047 17.8866 3.34498 17.9376 3.33019 17.9921L2.59519 20.5721C2.58141 20.6213 2.58306 20.6736 2.5999 20.7219C2.61674 20.7701 2.64796 20.8121 2.68937 20.842C2.73078 20.872 2.78037 20.8885 2.83148 20.8894C2.88258 20.8904 2.93274 20.8756 2.97519 20.8471L3.74519 20.3021L4.15519 19.0021Z" fill="#00B8F0"/>
<path d="M5.17058 19.3026L3.00058 20.8526C2.95813 20.8811 2.90797 20.8958 2.85687 20.8949C2.80576 20.894 2.75617 20.8774 2.71476 20.8475C2.67335 20.8175 2.64213 20.7756 2.62529 20.7273C2.60845 20.6791 2.6068 20.6268 2.62058 20.5776L3.33058 18.0076C3.34537 17.9531 3.37086 17.9021 3.40558 17.8576L13.5906 3.50758C13.667 3.39979 13.7831 3.32665 13.9133 3.30417C14.0435 3.28168 14.1774 3.31167 14.2856 3.38758L15.3556 4.14758C15.4646 4.22005 15.5409 4.33238 15.568 4.46047C15.5951 4.58855 15.5709 4.72215 15.5006 4.83258L5.29058 19.1876C5.25727 19.2323 5.21671 19.2712 5.17058 19.3026Z" stroke="#45413C" stroke-width="0.5" stroke-linecap="round" stroke-linejoin="round"/>
<path d="M6.60445 13.3294L5.92445 16.2094C5.83468 16.5882 5.60341 16.9184 5.27803 17.1322C4.95265 17.346 4.55782 17.4273 4.17445 17.3594C4.07397 17.3476 3.9768 17.3161 3.88849 17.2668C3.80018 17.2174 3.72247 17.1511 3.65978 17.0717C3.59709 16.9923 3.55067 16.9014 3.52316 16.804C3.49565 16.7067 3.48759 16.6048 3.49945 16.5044L3.83445 13.2844C3.88123 12.8357 4.04418 12.4069 4.30723 12.0404C4.57027 11.6739 4.92432 11.3823 5.33445 11.1944L9.39445 9.35938L6.60445 13.3294Z" fill="#FFB59E"/>
<path d="M5.06547 12.76L7.67547 11.825L9.41547 9.375L5.35547 11.21C4.94534 11.3979 4.5913 11.6895 4.32825 12.056C4.06521 12.4225 3.90225 12.8513 3.85547 13.3V13.535C4.19859 13.1929 4.61125 12.9286 5.06547 12.76Z" fill="#FFCEBF"/>
<path d="M6.60445 13.3294L5.92445 16.2094C5.83468 16.5882 5.60341 16.9184 5.27803 17.1322C4.95265 17.346 4.55782 17.4273 4.17445 17.3594C4.07397 17.3476 3.9768 17.3161 3.88849 17.2668C3.80018 17.2174 3.72247 17.1511 3.65978 17.0717C3.59709 16.9923 3.55067 16.9014 3.52316 16.804C3.49565 16.7067 3.48759 16.6048 3.49945 16.5044L3.83445 13.2844C3.88123 12.8357 4.04418 12.4069 4.30723 12.0404C4.57027 11.6739 4.92432 11.3823 5.33445 11.1944L9.39445 9.35938L6.60445 13.3294Z" stroke="#45413C" stroke-width="0.5" stroke-linecap="round" stroke-linejoin="round"/>
<path d="M9.39554 13.3888L5.67554 15.2238C5.43997 15.341 5.2601 15.5464 5.17493 15.7953C5.08976 16.0443 5.10615 16.3168 5.22054 16.5538C5.44868 17.0172 5.84728 17.3744 6.33286 17.5505C6.81843 17.7267 7.35333 17.7081 7.82554 17.4987L9.19054 16.8787C9.45174 16.7577 9.73854 16.7021 10.0261 16.7169C10.3136 16.7317 10.5932 16.8165 10.8405 16.9637L11.2405 17.1988C12.8988 18.1717 14.8645 18.479 16.7405 18.0587C17.3936 17.9144 18.0746 17.9631 18.7005 18.1988L21.0305 19.0837C21.1066 19.1131 21.1886 19.1234 21.2695 19.1138C21.3505 19.1042 21.4278 19.0749 21.4948 19.0286C21.5619 18.9823 21.6166 18.9202 21.6542 18.8479C21.6918 18.7756 21.7111 18.6952 21.7105 18.6137V13.6137C21.7105 13.4811 21.6579 13.354 21.5641 13.2602C21.4703 13.1664 21.3431 13.1137 21.2105 13.1137H20.7905C19.7294 13.1132 18.6813 12.8793 17.7205 12.4288L12.0005 9.71875L9.39554 13.3888Z" fill="#FFCEBF"/>
<path d="M21.2243 13.0988H20.8043C19.7431 13.0982 18.6951 12.8643 17.7343 12.4137L11.9993 9.71875L10.7793 11.4338L17.2043 14.1037C18.3146 14.5599 19.5039 14.7927 20.7043 14.7887H21.2043C21.3454 14.7805 21.4841 14.8285 21.5899 14.9222C21.6958 15.0159 21.7603 15.1477 21.7693 15.2887V13.5988C21.7696 13.5291 21.7553 13.4602 21.7274 13.3964C21.6995 13.3326 21.6586 13.2754 21.6073 13.2283C21.556 13.1812 21.4954 13.1454 21.4295 13.1231C21.3635 13.1008 21.2936 13.0925 21.2243 13.0988Z" fill="#FFDCD1"/>
<path d="M6.28998 15.725C7.26499 15.3083 8.12327 14.6595 8.78998 13.835L8.95998 13.625L5.69998 15.23C5.51725 15.3207 5.36663 15.4651 5.26832 15.6438C5.17001 15.8226 5.12871 16.0271 5.14998 16.23L6.28998 15.725Z" fill="#FFDCD1"/>
<path d="M9.39554 13.3888L5.67554 15.2238C5.43997 15.341 5.2601 15.5464 5.17493 15.7953C5.08976 16.0443 5.10615 16.3168 5.22054 16.5538V16.5538C5.44868 17.0172 5.84728 17.3744 6.33286 17.5505C6.81843 17.7267 7.35333 17.7081 7.82554 17.4987L9.19054 16.8787C9.45174 16.7577 9.73854 16.7021 10.0261 16.7169C10.3136 16.7317 10.5932 16.8165 10.8405 16.9637L11.2405 17.1988C12.8988 18.1717 14.8645 18.479 16.7405 18.0587V18.0587C17.3936 17.9144 18.0746 17.9631 18.7005 18.1988L21.0305 19.0837C21.1066 19.1131 21.1886 19.1234 21.2695 19.1138C21.3505 19.1042 21.4278 19.0749 21.4948 19.0286C21.5619 18.9823 21.6166 18.9202 21.6542 18.8479C21.6918 18.7756 21.7111 18.6952 21.7105 18.6137V13.6137C21.7105 13.4811 21.6579 13.354 21.5641 13.2602C21.4703 13.1664 21.3431 13.1137 21.2105 13.1137H20.7905C19.7294 13.1132 18.6813 12.8793 17.7205 12.4288L12.0005 9.71875L9.39554 13.3888Z" stroke="#45413C" stroke-width="0.5" stroke-linecap="round" stroke-linejoin="round"/>
</svg>
