<svg width="24" height="24" viewBox="0 0 24 24" fill="none" xmlns="http://www.w3.org/2000/svg">
<path opacity="0.15" d="M3.16992 22.75C3.16992 22.9489 4.06545 23.1397 5.65951 23.2803C7.25357 23.421 9.41558 23.5 11.6699 23.5C13.9243 23.5 16.0863 23.421 17.6803 23.2803C19.2744 23.1397 20.1699 22.9489 20.1699 22.75C20.1699 22.5511 19.2744 22.3603 17.6803 22.2197C16.0863 22.079 13.9243 22 11.6699 22C9.41558 22 7.25357 22.079 5.65951 22.2197C4.06545 22.3603 3.16992 22.5511 3.16992 22.75Z" fill="#45413C"/>
<path d="M11.9986 15.6094C13.574 15.6094 15.0848 16.2352 16.1988 17.3492C17.3128 18.4631 17.9386 19.974 17.9386 21.5494V22.4994H6.05859V21.5494C6.05859 19.974 6.68441 18.4631 7.79838 17.3492C8.91235 16.2352 10.4232 15.6094 11.9986 15.6094Z" fill="white"/>
<path d="M11.9986 15.6094C10.4232 15.6094 8.91235 16.2352 7.79838 17.3492C6.68441 18.4631 6.05859 19.974 6.05859 21.5494V22.4994H6.11359C6.30851 21.077 7.012 19.7733 8.0939 18.8296C9.17581 17.8858 10.5629 17.3658 11.9986 17.3658C13.4343 17.3658 14.8214 17.8858 15.9033 18.8296C16.9852 19.7733 17.6887 21.077 17.8836 22.4994H17.9386V21.5494C17.9386 19.974 17.3128 18.4631 16.1988 17.3492C15.0848 16.2352 13.574 15.6094 11.9986 15.6094Z" fill="#F0F0F0"/>
<path d="M11.9986 15.6094C13.574 15.6094 15.0848 16.2352 16.1988 17.3492C17.3128 18.4631 17.9386 19.974 17.9386 21.5494V22.4994H6.05859V21.5494C6.05859 19.974 6.68441 18.4631 7.79838 17.3492C8.91235 16.2352 10.4232 15.6094 11.9986 15.6094V15.6094Z" stroke="#45413C" stroke-width="0.5" stroke-linecap="round" stroke-linejoin="round"/>
<path d="M9.64453 16.8247C9.64453 17.2941 9.89265 17.7443 10.3343 18.0763C10.7759 18.4082 11.3749 18.5947 11.9995 18.5947C12.6241 18.5947 13.2231 18.4082 13.6648 18.0763C14.1064 17.7443 14.3545 17.2941 14.3545 16.8247C14.3545 16.3553 14.1064 15.905 13.6648 15.5731C13.2231 15.2412 12.6241 15.0547 11.9995 15.0547C11.3749 15.0547 10.7759 15.2412 10.3343 15.5731C9.89265 15.905 9.64453 16.3553 9.64453 16.8247Z" fill="#00DBA8"/>
<path d="M12 15.0522C11.545 15.0218 11.0909 15.123 10.6919 15.3438C10.2929 15.5646 9.96594 15.8955 9.75 16.2971C9.96476 16.7001 10.2914 17.0325 10.6905 17.2542C11.0897 17.476 11.5444 17.5777 12 17.5471C12.4556 17.5777 12.9103 17.476 13.3095 17.2542C13.7086 17.0325 14.0352 16.7001 14.25 16.2971C14.0341 15.8955 13.7071 15.5646 13.3081 15.3438C12.9091 15.123 12.455 15.0218 12 15.0522Z" fill="#00AD85"/>
<path d="M9.64453 16.8247C9.64453 17.2941 9.89265 17.7443 10.3343 18.0763C10.7759 18.4082 11.3749 18.5947 11.9995 18.5947C12.6241 18.5947 13.2231 18.4082 13.6648 18.0763C14.1064 17.7443 14.3545 17.2941 14.3545 16.8247C14.3545 16.3553 14.1064 15.905 13.6648 15.5731C13.2231 15.2412 12.6241 15.0547 11.9995 15.0547C11.3749 15.0547 10.7759 15.2412 10.3343 15.5731C9.89265 15.905 9.64453 16.3553 9.64453 16.8247V16.8247Z" stroke="#45413C" stroke-width="0.5" stroke-linecap="round" stroke-linejoin="round"/>
<path d="M11.9985 13.5781C11.8313 13.5781 11.6658 13.6111 11.5114 13.6753C11.357 13.7394 11.2167 13.8334 11.0987 13.9519C10.9807 14.0703 10.8873 14.2109 10.8238 14.3656C10.7602 14.5202 10.7279 14.6859 10.7285 14.8531V16.2731C10.7285 16.6099 10.8623 16.933 11.1005 17.1712C11.3387 17.4093 11.6617 17.5431 11.9985 17.5431C12.3354 17.5431 12.6584 17.4093 12.8966 17.1712C13.1347 16.933 13.2685 16.6099 13.2685 16.2731V14.8531C13.2692 14.6859 13.2368 14.5202 13.1733 14.3656C13.1098 14.2109 13.0163 14.0703 12.8983 13.9519C12.7803 13.8334 12.6401 13.7394 12.4857 13.6753C12.3313 13.6111 12.1657 13.5781 11.9985 13.5781Z" fill="#FFCEBF"/>
<path d="M11.9985 13.5781C11.6617 13.5781 11.3387 13.7119 11.1005 13.9501C10.8623 14.1883 10.7285 14.5113 10.7285 14.8481V15.1481C10.7285 15.4849 10.8623 15.808 11.1005 16.0462C11.3387 16.2843 11.6617 16.4181 11.9985 16.4181C12.3353 16.4181 12.6584 16.2843 12.8965 16.0462C13.1347 15.808 13.2685 15.4849 13.2685 15.1481V14.8531C13.2692 14.6859 13.2368 14.5202 13.1733 14.3656C13.1098 14.2109 13.0163 14.0703 12.8983 13.9519C12.7803 13.8334 12.6401 13.7394 12.4857 13.6753C12.3313 13.6111 12.1657 13.5781 11.9985 13.5781Z" fill="#FFB59E"/>
<path d="M11.9985 13.5781C11.8313 13.5781 11.6658 13.6111 11.5114 13.6753C11.357 13.7394 11.2167 13.8334 11.0987 13.9519C10.9807 14.0703 10.8873 14.2109 10.8238 14.3656C10.7602 14.5202 10.7279 14.6859 10.7285 14.8531V16.2731C10.7285 16.6099 10.8623 16.933 11.1005 17.1712C11.3387 17.4093 11.6617 17.5431 11.9985 17.5431C12.3354 17.5431 12.6584 17.4093 12.8966 17.1712C13.1347 16.933 13.2685 16.6099 13.2685 16.2731V14.8531C13.2692 14.6859 13.2368 14.5202 13.1733 14.3656C13.1098 14.2109 13.0163 14.0703 12.8983 13.9519C12.7803 13.8334 12.6401 13.7394 12.4857 13.6753C12.3313 13.6111 12.1657 13.5781 11.9985 13.5781V13.5781Z" stroke="#45413C" stroke-width="0.5" stroke-linecap="round" stroke-linejoin="round"/>
<path d="M8.5293 22.4941V21.2891" stroke="#45413C" stroke-width="0.5" stroke-linecap="round" stroke-linejoin="round"/>
<path d="M15.4688 22.4991V21.2891" stroke="#45413C" stroke-width="0.5" stroke-linecap="round" stroke-linejoin="round"/>
<path d="M13.0487 18.5403C13.298 18.8795 13.6479 19.1315 14.0487 19.2603C14.6987 19.4403 15.1187 19.1703 15.3987 19.3453C14.9887 18.2153 14.0187 17.6303 13.3987 17.9153C12.7787 18.2003 13.0487 18.5403 13.0487 18.5403Z" fill="#00DBA8" stroke="#45413C" stroke-width="0.5" stroke-linecap="round" stroke-linejoin="round"/>
<path d="M12.5002 18.558C12.2851 19.0055 12.2168 19.5095 12.3052 19.998C12.4852 20.763 12.9902 21.043 12.9702 21.428C13.9002 20.378 13.9702 19.058 13.3202 18.578C12.6702 18.098 12.5002 18.558 12.5002 18.558Z" fill="#00DBA8" stroke="#45413C" stroke-width="0.5" stroke-linecap="round" stroke-linejoin="round"/>
<path d="M12 17.5513C12.1775 17.6405 12.3201 17.7866 12.405 17.9663C12.4665 18.1587 12.4986 18.3593 12.5 18.5613C12.6457 18.6256 12.8032 18.6588 12.9625 18.6588C13.1218 18.6588 13.2793 18.6256 13.425 18.5613C13.5278 18.4955 13.616 18.4092 13.684 18.3079C13.7521 18.2066 13.7986 18.0924 13.8206 17.9723C13.8427 17.8523 13.8398 17.729 13.8122 17.6101C13.7845 17.4912 13.7327 17.3793 13.66 17.2813C13.32 16.8413 12.585 16.7413 12 17.5513Z" fill="#00DBA8" stroke="#45413C" stroke-width="0.5" stroke-linecap="round" stroke-linejoin="round"/>
<path d="M11.9998 3.45312C11.5883 3.45351 11.1784 3.50558 10.7798 3.60812C9.84984 3.81812 8.63985 4.16813 7.54485 3.95813C7.50218 4.24015 7.51742 4.52791 7.58963 4.80386C7.66184 5.0798 7.78951 5.33815 7.96485 5.56313C7.39437 6.38534 7.08905 7.36238 7.08985 8.36312V10.9331H16.9098V8.36312C16.9098 7.06091 16.3925 5.81203 15.4717 4.89123C14.5509 3.97043 13.3021 3.45312 11.9998 3.45312Z" fill="#A86C4D" stroke="#45413C" stroke-width="0.5" stroke-linecap="round" stroke-linejoin="round"/>
<path d="M17.4347 10.5563C17.4104 10.3726 17.3309 10.2007 17.2068 10.0633C17.0827 9.92577 16.9199 9.82918 16.7397 9.78625L16.4447 9.70625C16.2273 9.64486 16.0362 9.51372 15.9007 9.33303C15.7651 9.15234 15.6928 8.93211 15.6947 8.70625V7.68625C15.6941 7.48006 15.6258 7.27977 15.5002 7.11623C15.3746 6.9527 15.1988 6.83499 14.9997 6.78125C14.0462 7.16186 13.0261 7.34719 11.9997 7.32625C10.9733 7.34719 9.95314 7.16186 8.99969 6.78125C8.79969 6.83406 8.6227 6.95137 8.49614 7.11499C8.36959 7.27861 8.30054 7.4794 8.29969 7.68625V8.71625C8.30161 8.94211 8.22925 9.16234 8.09373 9.34303C7.95821 9.52372 7.76705 9.65486 7.54969 9.71625L7.25469 9.79625C7.07453 9.83918 6.91163 9.93577 6.78754 10.0733C6.66345 10.2107 6.58399 10.3826 6.55969 10.5662C6.54633 10.6928 6.55981 10.8208 6.59927 10.9418C6.63873 11.0628 6.70327 11.1742 6.78868 11.2685C6.87409 11.3629 6.97844 11.4382 7.09493 11.4895C7.21141 11.5408 7.33741 11.567 7.46469 11.5662H7.51969C7.63668 12.6715 8.15859 13.6944 8.98484 14.4378C9.81109 15.1812 10.8832 15.5926 11.9947 15.5926C13.1062 15.5926 14.1783 15.1812 15.0045 14.4378C15.8308 13.6944 16.3527 12.6715 16.4697 11.5662H16.5247C16.6533 11.5678 16.7808 11.542 16.8987 11.4904C17.0165 11.4388 17.122 11.3627 17.2082 11.2671C17.2943 11.1715 17.359 11.0587 17.3981 10.9361C17.4371 10.8135 17.4496 10.684 17.4347 10.5563Z" fill="#FFCEBF" stroke="#45413C" stroke-width="0.5" stroke-linecap="round" stroke-linejoin="round"/>
<path d="M9.28519 10.4553C9.28519 10.5315 9.30777 10.6059 9.35007 10.6692C9.39238 10.7326 9.45251 10.7819 9.52286 10.811C9.59321 10.8402 9.67062 10.8478 9.7453 10.8329C9.81998 10.8181 9.88858 10.7814 9.94243 10.7276C9.99627 10.6737 10.0329 10.6051 10.0478 10.5305C10.0626 10.4558 10.055 10.3784 10.0259 10.308C9.99674 10.2377 9.9474 10.1775 9.88408 10.1352C9.82077 10.0929 9.74634 10.0703 9.67019 10.0703C9.61944 10.0697 9.56908 10.0792 9.52207 10.0983C9.47505 10.1174 9.43234 10.1457 9.39646 10.1816C9.36057 10.2175 9.33224 10.2602 9.31313 10.3072C9.29402 10.3542 9.28452 10.4046 9.28519 10.4553Z" fill="#45413C" stroke="#45413C" stroke-width="0.5" stroke-linecap="round" stroke-linejoin="round"/>
<path d="M14.7153 10.4553C14.7153 10.5315 14.6927 10.6059 14.6504 10.6692C14.6081 10.7326 14.548 10.7819 14.4776 10.811C14.4073 10.8402 14.3299 10.8478 14.2552 10.8329C14.1805 10.8181 14.1119 10.7814 14.0581 10.7276C14.0042 10.6737 13.9676 10.6051 13.9527 10.5305C13.9379 10.4558 13.9455 10.3784 13.9746 10.308C14.0038 10.2377 14.0531 10.1775 14.1164 10.1352C14.1797 10.0929 14.2542 10.0703 14.3303 10.0703C14.3811 10.0697 14.4314 10.0792 14.4784 10.0983C14.5255 10.1174 14.5682 10.1457 14.604 10.1816C14.6399 10.2175 14.6683 10.2602 14.6874 10.3072C14.7065 10.3542 14.716 10.4046 14.7153 10.4553Z" fill="#45413C" stroke="#45413C" stroke-width="0.5" stroke-linecap="round" stroke-linejoin="round"/>
<path d="M10.5794 12.7969C10.5477 12.7976 10.5166 12.8051 10.4881 12.8189C10.4596 12.8327 10.4345 12.8525 10.4144 12.8769C10.3934 12.9004 10.3781 12.9284 10.3694 12.9587C10.3608 12.989 10.359 13.0208 10.3644 13.0519C10.4319 13.4365 10.6328 13.785 10.9318 14.0361C11.2309 14.2872 11.6089 14.4249 11.9994 14.4249C12.3898 14.4249 12.7678 14.2872 13.0669 14.0361C13.3659 13.785 13.5668 13.4365 13.6344 13.0519C13.6397 13.0208 13.638 12.989 13.6293 12.9587C13.6206 12.9284 13.6053 12.9004 13.5844 12.8769C13.5642 12.8525 13.5391 12.8327 13.5106 12.8189C13.4821 12.8051 13.451 12.7976 13.4194 12.7969H10.5794Z" fill="#FF6242"/>
<path d="M12.0002 13.5015C11.5488 13.4839 11.1047 13.6196 10.7402 13.8865C10.8978 14.062 11.0905 14.2023 11.3059 14.2984C11.5212 14.3944 11.7544 14.4441 11.9902 14.4441C12.2261 14.4441 12.4592 14.3944 12.6746 14.2984C12.89 14.2023 13.0827 14.062 13.2402 13.8865C12.8812 13.6239 12.4449 13.4884 12.0002 13.5015Z" fill="#FFA694"/>
<path d="M10.5794 12.7969C10.5477 12.7976 10.5166 12.8051 10.4881 12.8189C10.4596 12.8327 10.4345 12.8525 10.4144 12.8769C10.3934 12.9004 10.3781 12.9284 10.3694 12.9587C10.3608 12.989 10.359 13.0208 10.3644 13.0519C10.4319 13.4365 10.6328 13.785 10.9318 14.0361C11.2309 14.2872 11.6089 14.4249 11.9994 14.4249C12.3898 14.4249 12.7678 14.2872 13.0669 14.0361C13.3659 13.785 13.5668 13.4365 13.6344 13.0519C13.6397 13.0208 13.638 12.989 13.6293 12.9587C13.6206 12.9284 13.6053 12.9004 13.5844 12.8769C13.5642 12.8525 13.5391 12.8327 13.5106 12.8189C13.4821 12.8051 13.451 12.7976 13.4194 12.7969H10.5794Z" stroke="#45413C" stroke-width="0.5" stroke-linecap="round" stroke-linejoin="round"/>
<path d="M8.5293 12.0891C8.5293 12.1686 8.58198 12.2449 8.67574 12.3012C8.76951 12.3575 8.89669 12.3891 9.0293 12.3891C9.16191 12.3891 9.28908 12.3575 9.38285 12.3012C9.47662 12.2449 9.5293 12.1686 9.5293 12.0891C9.5293 12.0095 9.47662 11.9332 9.38285 11.8769C9.28908 11.8207 9.16191 11.7891 9.0293 11.7891C8.89669 11.7891 8.76951 11.8207 8.67574 11.8769C8.58198 11.9332 8.5293 12.0095 8.5293 12.0891Z" fill="#FFB59E"/>
<path d="M14.4688 12.0969C14.4688 12.1764 14.5214 12.2527 14.6152 12.309C14.709 12.3653 14.8361 12.3969 14.9688 12.3969C15.1014 12.3969 15.2285 12.3653 15.3223 12.309C15.4161 12.2527 15.4688 12.1764 15.4688 12.0969C15.4688 12.0173 15.4161 11.941 15.3223 11.8847C15.2285 11.8285 15.1014 11.7969 14.9688 11.7969C14.8361 11.7969 14.709 11.8285 14.6152 11.8847C14.5214 11.941 14.4688 12.0173 14.4688 12.0969Z" fill="#FFB59E"/>
<path d="M6.83398 8.82812C6.83398 8.29813 9.14398 7.86812 11.999 7.86812C14.854 7.86812 17.164 8.29813 17.164 8.82812L16.999 6.90812C16.999 6.37812 14.759 5.95312 11.999 5.95312C9.23898 5.95312 6.99898 6.37812 6.99898 6.90812L6.83398 8.82812Z" fill="#8CA4B8"/>
<path d="M11.999 5.95411C9.23898 5.95411 6.99898 6.37911 6.99898 6.90911L6.83398 8.79911C6.91898 8.29911 9.19898 7.86911 11.999 7.86911H12.804C13.786 7.47358 14.6964 6.91954 15.499 6.22911C14.3427 6.03446 13.1715 5.94243 11.999 5.95411Z" fill="#627B8C"/>
<path d="M6.83398 8.82812C6.83398 8.29813 9.14398 7.86812 11.999 7.86812C14.854 7.86812 17.164 8.29813 17.164 8.82812L16.999 6.90812C16.999 6.37812 14.759 5.95312 11.999 5.95312C9.23898 5.95312 6.99898 6.37812 6.99898 6.90812L6.83398 8.82812Z" stroke="#45413C" stroke-width="0.5" stroke-linecap="round" stroke-linejoin="round"/>
<path d="M17.6452 4.50082C16.5852 2.80082 13.9052 2.36082 12.0002 2.50082C9.76572 2.7636 7.63165 3.57805 5.79023 4.87082C4.92023 5.50082 4.61523 6.17082 4.87023 6.56582C5.40523 7.56582 8.24523 7.80082 12.5952 5.96082C15.0952 6.01582 17.0002 6.42082 17.0002 6.91082C17.0002 6.91082 18.5852 5.95582 17.6452 4.50082Z" fill="#8CA4B8"/>
<path d="M5.06023 6.80582C5.26839 6.53838 5.51429 6.30258 5.79023 6.10582C7.63311 4.81838 9.76707 4.00912 12.0002 3.75082C13.9052 3.59582 16.5852 4.03582 17.6452 5.71082C17.7082 5.80539 17.7618 5.90587 17.8052 6.01082C17.9153 5.76766 17.9585 5.49952 17.9304 5.23408C17.9023 4.96864 17.8038 4.71551 17.6452 4.50082C16.5852 2.80082 13.9052 2.36082 12.0002 2.50082C9.76572 2.7636 7.63165 3.57805 5.79023 4.87082C4.92023 5.50082 4.61523 6.17082 4.87023 6.56582C4.92156 6.65463 4.98557 6.73549 5.06023 6.80582Z" fill="#ADC4D9"/>
<path d="M17.6452 4.50082C16.5852 2.80082 13.9052 2.36082 12.0002 2.50082C9.76572 2.7636 7.63165 3.57805 5.79023 4.87082C4.92023 5.50082 4.61523 6.17082 4.87023 6.56582C5.40523 7.56582 8.24523 7.80082 12.5952 5.96082C15.0952 6.01582 17.0002 6.42082 17.0002 6.91082C17.0002 6.91082 18.5852 5.95582 17.6452 4.50082Z" stroke="#45413C" stroke-width="0.5" stroke-linecap="round" stroke-linejoin="round"/>
<path d="M12.5938 5.96094C13.2638 5.67594 13.9737 5.34094 14.7137 4.96094" stroke="#45413C" stroke-width="0.5" stroke-linecap="round" stroke-linejoin="round"/>
<path d="M11.1742 2.61144C11.1827 2.68251 11.2124 2.75032 11.2617 2.81101C11.311 2.87171 11.3789 2.92409 11.4614 2.96517C11.5439 3.00626 11.6396 3.03523 11.7428 3.05045C11.846 3.06567 11.9549 3.06683 12.0631 3.05387C12.1713 3.04091 12.2768 3.01408 12.3736 2.97491C12.4703 2.93574 12.5564 2.88499 12.6269 2.82558C12.6974 2.76617 12.7509 2.69924 12.7845 2.62863C12.818 2.55801 12.8309 2.48509 12.8224 2.41403C12.8139 2.34297 12.7842 2.27516 12.7349 2.21446C12.6856 2.15377 12.6177 2.10139 12.5352 2.0603C12.4527 2.01922 12.357 1.99024 12.2538 1.97502C12.1505 1.9598 12.0417 1.95864 11.9335 1.97161C11.8253 1.98457 11.7198 2.0114 11.623 2.05057C11.5263 2.08974 11.4402 2.14048 11.3697 2.1999C11.2992 2.25931 11.2457 2.32624 11.2121 2.39685C11.1786 2.46746 11.1657 2.54038 11.1742 2.61144Z" fill="#627B8C" stroke="#45413C" stroke-width="0.5" stroke-linecap="round" stroke-linejoin="round"/>
<path d="M3.62412 22.4996C3.62412 22.4996 0.299117 18.7096 3.16412 18.2746C6.26912 17.8096 9.66412 22.4996 9.66412 22.4996H3.62412Z" fill="#DEBB7E"/>
<path d="M3.16448 19.6996C5.12448 19.4046 7.18948 21.1596 8.44948 22.4996H9.64448C9.64448 22.4996 6.26948 17.8096 3.14448 18.2746C1.87448 18.4696 1.81948 19.3146 2.14448 20.2046C2.26815 20.052 2.4233 19.9279 2.59934 19.8407C2.77537 19.7536 2.96814 19.7054 3.16448 19.6996Z" fill="#F0D5A8"/>
<path d="M3.62412 22.4996C3.62412 22.4996 0.299117 18.7096 3.16412 18.2746C6.26912 17.8096 9.66412 22.4996 9.66412 22.4996H3.62412Z" stroke="#45413C" stroke-width="0.5" stroke-linecap="round" stroke-linejoin="round"/>
<path d="M4.2436 20.0291C4.33561 20.0935 4.43331 20.1477 4.53114 20.1889C4.62896 20.23 4.72498 20.2572 4.81373 20.2688C4.90247 20.2805 4.98219 20.2764 5.04835 20.2567C5.1145 20.2371 5.16579 20.2024 5.19928 20.1545C5.23278 20.1066 5.24782 20.0465 5.24356 19.9776C5.23929 19.9088 5.2158 19.8325 5.17442 19.7531C5.13305 19.6737 5.0746 19.5929 5.00241 19.5151C4.93022 19.4373 4.84571 19.3641 4.7537 19.2998C4.66169 19.2354 4.56399 19.1811 4.46617 19.14C4.36834 19.0989 4.27232 19.0717 4.18358 19.0601C4.09483 19.0484 4.01511 19.0525 3.94896 19.0722C3.8828 19.0918 3.83151 19.1265 3.79802 19.1744C3.76453 19.2223 3.74948 19.2824 3.75375 19.3513C3.75801 19.4201 3.78151 19.4964 3.82288 19.5758C3.86426 19.6552 3.92271 19.736 3.99489 19.8138C4.06708 19.8916 4.15159 19.9648 4.2436 20.0291Z" fill="#FF6242" stroke="#45413C" stroke-width="0.5" stroke-linecap="round" stroke-linejoin="round"/>
<path d="M6.55219 21.2557C6.73801 21.3856 6.94309 21.4719 7.12232 21.4954C7.30154 21.5189 7.44023 21.4778 7.50788 21.3811C7.57552 21.2843 7.56658 21.14 7.48301 20.9797C7.39945 20.8194 7.24811 20.6563 7.06229 20.5264C6.87648 20.3964 6.6714 20.3102 6.49217 20.2866C6.31295 20.2631 6.17426 20.3043 6.10661 20.401C6.03897 20.4977 6.04791 20.6421 6.13147 20.8023C6.21504 20.9626 6.36637 21.1257 6.55219 21.2557Z" fill="#FFE500" stroke="#45413C" stroke-width="0.5" stroke-linecap="round" stroke-linejoin="round"/>
<path d="M19.5188 18.1675L18.4688 17.9075L19.1938 14.4375L20.4888 14.7575L19.5188 18.1675Z" fill="#DAEDF7" stroke="#45413C" stroke-width="0.5" stroke-linecap="round" stroke-linejoin="round"/>
<path d="M18.4688 17.9062L19.5224 18.1652L18.5377 22.171L17.4841 21.912L18.4688 17.9062Z" fill="#BF8256" stroke="#45413C" stroke-width="0.5" stroke-linecap="round" stroke-linejoin="round"/>
<path d="M19.1938 14.44C18.8688 13.82 19.2838 13.06 19.7588 12.67C20.0614 12.4382 20.2821 12.1159 20.3888 11.75C20.6851 11.9562 20.9149 12.2443 21.0499 12.5792C21.1849 12.914 21.2192 13.2809 21.1488 13.635C21.12 13.8561 21.0477 14.0694 20.9362 14.2625C20.8246 14.4555 20.676 14.6246 20.4988 14.76L19.1938 14.44Z" fill="#FFF5E3" stroke="#45413C" stroke-width="0.5" stroke-linecap="round" stroke-linejoin="round"/>
<path d="M19.3652 13.105C19.6216 13.2521 19.8977 13.3615 20.1852 13.43C20.5118 13.512 20.8495 13.5407 21.1852 13.515C21.2269 13.1773 21.1758 12.8346 21.0375 12.5236C20.8992 12.2127 20.6789 11.9453 20.4002 11.75C20.2935 12.1159 20.0728 12.4382 19.7702 12.67C19.6139 12.7935 19.4773 12.9402 19.3652 13.105Z" fill="#FF6242" stroke="#45413C" stroke-width="0.5" stroke-linecap="round" stroke-linejoin="round"/>
<path d="M17.6095 18.1335C17.8078 18.1822 17.9786 18.3078 18.0844 18.4825C18.1901 18.6572 18.2222 18.8667 18.1734 19.065L17.3702 22.3328C17.0688 22.2587 16.8093 22.0679 16.6486 21.8025C16.4879 21.537 16.4392 21.2186 16.5133 20.9173L17.1303 18.407C17.1553 18.3053 17.2197 18.2177 17.3093 18.1634C17.399 18.1092 17.5065 18.0927 17.6082 18.1177L17.6095 18.1335Z" fill="#FFCEBF"/>
<path d="M17.6089 18.1357C17.557 18.1191 17.5023 18.1136 17.4481 18.1195C17.394 18.1254 17.3417 18.1425 17.2946 18.1698C17.2475 18.1971 17.2067 18.234 17.1747 18.2781C17.1427 18.3221 17.1203 18.3724 17.1089 18.4257L16.8789 19.3557C16.891 19.3028 16.9138 19.253 16.946 19.2093C16.9781 19.1657 17.0189 19.1291 17.0658 19.1019C17.1127 19.0747 17.1647 19.0574 17.2186 19.0512C17.2725 19.045 17.327 19.0499 17.3789 19.0657C17.4779 19.0891 17.5712 19.132 17.6535 19.1919C17.7357 19.2518 17.8051 19.3275 17.8577 19.4145C17.9104 19.5016 17.9451 19.5983 17.9599 19.6989C17.9747 19.7996 17.9692 19.9021 17.9439 20.0007L18.1739 19.0707C18.1985 18.9722 18.2035 18.8698 18.1884 18.7694C18.1733 18.6689 18.1384 18.5725 18.0859 18.4856C18.0334 18.3987 17.9642 18.3231 17.8824 18.263C17.8005 18.2029 17.7076 18.1597 17.6089 18.1357Z" fill="#FFDCD1"/>
<path d="M17.6095 18.1335C17.8078 18.1822 17.9786 18.3078 18.0844 18.4825C18.1901 18.6572 18.2222 18.8667 18.1734 19.065L17.3702 22.3328C17.0688 22.2587 16.8093 22.0679 16.6486 21.8025C16.4879 21.537 16.4392 21.2186 16.5133 20.9173L17.1303 18.407C17.1553 18.3053 17.2197 18.2177 17.3093 18.1634C17.399 18.1092 17.5065 18.0927 17.6082 18.1177L17.6095 18.1335Z" stroke="#45413C" stroke-width="0.5" stroke-linecap="round" stroke-linejoin="round"/>
<path d="M19.4494 19.2965L18.4994 19.0565C18.3532 19.0197 18.1983 19.0418 18.0683 19.118C17.9382 19.1942 17.8433 19.3185 17.8039 19.464C17.7646 19.6096 17.784 19.7648 17.858 19.8961C17.9319 20.0275 18.0545 20.1246 18.1994 20.1665C18.056 20.1467 17.9105 20.1817 17.7918 20.2645C17.6731 20.3473 17.59 20.4718 17.559 20.6132C17.5281 20.7546 17.5516 20.9024 17.6249 21.0272C17.6982 21.152 17.8158 21.2446 17.9544 21.2865C17.8808 21.2684 17.8045 21.265 17.7296 21.2765C17.6547 21.2879 17.5829 21.314 17.5181 21.3532C17.4533 21.3925 17.3969 21.4441 17.3521 21.5051C17.3073 21.5662 17.2749 21.6354 17.2569 21.709C17.2388 21.7825 17.2354 21.8589 17.2469 21.9337C17.2583 22.0086 17.2844 22.0804 17.3237 22.1452C17.3629 22.21 17.4145 22.2664 17.4755 22.3112C17.5366 22.356 17.6058 22.3884 17.6794 22.4065L18.6444 22.6415C18.9262 22.7109 19.224 22.6657 19.4724 22.5157C19.7209 22.3657 19.8996 22.1232 19.9694 21.8415L20.2694 20.6215C20.3388 20.3397 20.2936 20.0418 20.1436 19.7934C19.9936 19.5449 19.7511 19.3662 19.4694 19.2965H19.4494Z" fill="#FFCEBF"/>
<path d="M19.4489 19.2953L18.4989 19.0553C18.4254 19.0375 18.349 19.0343 18.2743 19.046C18.1995 19.0577 18.1278 19.084 18.0632 19.1235C17.9986 19.163 17.9425 19.2148 17.898 19.2761C17.8535 19.3373 17.8215 19.4067 17.8039 19.4803C17.7763 19.5767 17.7763 19.6789 17.8039 19.7753C17.8726 19.7029 17.959 19.6496 18.0546 19.6206C18.1501 19.5917 18.2516 19.5881 18.3489 19.6103L19.3189 19.8503C19.4582 19.8843 19.5895 19.9454 19.7051 20.0302C19.8207 20.115 19.9185 20.2217 19.9928 20.3443C20.0671 20.4669 20.1165 20.603 20.1382 20.7448C20.1598 20.8865 20.1533 21.0311 20.1189 21.1703L20.2539 20.6203C20.2883 20.4805 20.2946 20.3352 20.2727 20.1929C20.2508 20.0505 20.2011 19.9139 20.1263 19.7908C20.0515 19.6677 19.9532 19.5606 19.837 19.4756C19.7207 19.3906 19.5889 19.3293 19.4489 19.2953Z" fill="#FFDCD1"/>
<path d="M19.4494 19.2965L18.4994 19.0565C18.3532 19.0197 18.1983 19.0418 18.0683 19.118C17.9382 19.1942 17.8433 19.3185 17.8039 19.464C17.7646 19.6096 17.784 19.7648 17.858 19.8961C17.9319 20.0275 18.0545 20.1246 18.1994 20.1665C18.056 20.1467 17.9105 20.1817 17.7918 20.2645C17.6731 20.3473 17.59 20.4718 17.559 20.6132C17.5281 20.7546 17.5516 20.9024 17.6249 21.0272C17.6982 21.152 17.8158 21.2446 17.9544 21.2865C17.8808 21.2684 17.8045 21.265 17.7296 21.2765C17.6547 21.2879 17.5829 21.314 17.5181 21.3532C17.4533 21.3925 17.3969 21.4441 17.3521 21.5051C17.3073 21.5662 17.2749 21.6354 17.2569 21.709C17.2388 21.7825 17.2354 21.8589 17.2469 21.9337C17.2583 22.0086 17.2844 22.0804 17.3237 22.1452C17.3629 22.21 17.4145 22.2664 17.4755 22.3112C17.5366 22.356 17.6058 22.3884 17.6794 22.4065L18.6444 22.6415C18.9262 22.7109 19.224 22.6657 19.4724 22.5157C19.7209 22.3657 19.8996 22.1232 19.9694 21.8415L20.2694 20.6215C20.3388 20.3397 20.2936 20.0418 20.1436 19.7934C19.9936 19.5449 19.7511 19.3662 19.4694 19.2965H19.4494Z" stroke="#45413C" stroke-width="0.5" stroke-linecap="round" stroke-linejoin="round"/>
</svg>
