<svg width="22" height="20" viewBox="0 0 22 20" fill="none" xmlns="http://www.w3.org/2000/svg">
<path opacity="0.15" d="M2.5 18.75C2.5 18.9489 3.39553 19.1397 4.98959 19.2803C6.58365 19.421 8.74566 19.5 11 19.5C13.2543 19.5 15.4163 19.421 17.0104 19.2803C18.6045 19.1397 19.5 18.9489 19.5 18.75C19.5 18.5511 18.6045 18.3603 17.0104 18.2197C15.4163 18.079 13.2543 18 11 18C8.74566 18 6.58365 18.079 4.98959 18.2197C3.39553 18.3603 2.5 18.5511 2.5 18.75Z" fill="#45413C"/>
<path d="M8.5 9.24959C7.6 8.38459 6.825 6.11459 6.235 4.41959C6.21748 4.37133 6.18553 4.32963 6.14349 4.30016C6.10144 4.27069 6.05134 4.25488 6 4.25488C5.94866 4.25488 5.89856 4.27069 5.85651 4.30016C5.81447 4.32963 5.78252 4.37133 5.765 4.41959C5.175 6.11459 4.4 8.38459 3.5 9.24959H8.5Z" fill="#EBCB00" stroke="#45413C" stroke-width="0.5" stroke-linecap="round" stroke-linejoin="round"/>
<path d="M13.5 9.24959C14.4 8.38459 15.175 6.11459 15.765 4.41959C15.7825 4.37133 15.8145 4.32963 15.8565 4.30016C15.8986 4.27069 15.9487 4.25488 16 4.25488C16.0513 4.25488 16.1014 4.27069 16.1435 4.30016C16.1855 4.32963 16.2175 4.37133 16.235 4.41959C16.825 6.11459 17.6 8.38459 18.5 9.24959H13.5Z" fill="#EBCB00" stroke="#45413C" stroke-width="0.5" stroke-linecap="round" stroke-linejoin="round"/>
<path d="M10.7695 2.85981C10.7868 2.81271 10.8181 2.77206 10.8593 2.74334C10.9004 2.71462 10.9493 2.69922 10.9995 2.69922C11.0497 2.69922 11.0986 2.71462 11.1398 2.74334C11.1809 2.77206 11.2122 2.81271 11.2295 2.85981C11.8995 4.56481 13.9095 9.24981 15.7295 9.24981C17.3145 9.24981 18.9045 7.00981 19.6995 5.68981C19.7306 5.64461 19.7755 5.61065 19.8274 5.59297C19.8794 5.5753 19.9356 5.57485 19.9879 5.59169C20.0401 5.60854 20.0855 5.64178 20.1173 5.68648C20.1491 5.73118 20.1657 5.78495 20.1645 5.83981L19.7495 12.9998C19.7495 14.7948 15.8295 16.2498 10.9995 16.2498C6.16951 16.2498 2.24951 14.7948 2.24951 12.9998L1.81451 5.83981C1.81334 5.78495 1.8299 5.73118 1.86173 5.68648C1.89355 5.64178 1.93895 5.60854 1.99117 5.59169C2.04339 5.57485 2.09965 5.5753 2.1516 5.59297C2.20354 5.61065 2.2484 5.64461 2.27951 5.68981C3.07451 6.99981 4.66451 9.24981 6.24951 9.24981C8.08951 9.24981 10.0995 4.56481 10.7695 2.85981Z" fill="#FFE500"/>
<path d="M5.19404 15.4298L13.389 7.23481C12.5349 5.84661 11.8118 4.38197 11.229 2.85981C11.2118 2.81271 11.1804 2.77206 11.1393 2.74334C11.0982 2.71462 11.0492 2.69922 10.999 2.69922C10.9489 2.69922 10.8999 2.71462 10.8588 2.74334C10.8177 2.77206 10.7863 2.81271 10.769 2.85981C10.099 4.56481 8.08904 9.24981 6.26904 9.24981C4.68404 9.24981 3.09404 7.00981 2.29904 5.68981C2.26793 5.64461 2.22307 5.61065 2.17113 5.59297C2.11918 5.5753 2.06292 5.57485 2.0107 5.59169C1.95848 5.60854 1.91308 5.64178 1.88126 5.68648C1.84943 5.73118 1.83287 5.78495 1.83404 5.83981L2.24904 12.9998C2.24904 13.9648 3.39404 14.8298 5.19404 15.4298Z" fill="#FFF48C"/>
<path d="M10.7695 2.85981C10.7868 2.81271 10.8181 2.77206 10.8593 2.74334C10.9004 2.71462 10.9493 2.69922 10.9995 2.69922C11.0497 2.69922 11.0986 2.71462 11.1398 2.74334C11.1809 2.77206 11.2122 2.81271 11.2295 2.85981C11.8995 4.56481 13.9095 9.24981 15.7295 9.24981C17.3145 9.24981 18.9045 7.00981 19.6995 5.68981C19.7306 5.64461 19.7755 5.61065 19.8274 5.59297C19.8794 5.5753 19.9356 5.57485 19.9879 5.59169C20.0401 5.60854 20.0855 5.64178 20.1173 5.68648C20.1491 5.73118 20.1657 5.78495 20.1645 5.83981L19.7495 12.9998C19.7495 14.7948 15.8295 16.2498 10.9995 16.2498C6.16951 16.2498 2.24951 14.7948 2.24951 12.9998L1.81451 5.83981C1.81334 5.78495 1.8299 5.73118 1.86173 5.68648C1.89355 5.64178 1.93895 5.60854 1.99117 5.59169C2.04339 5.57485 2.09965 5.5753 2.1516 5.59297C2.20354 5.61065 2.2484 5.64461 2.27951 5.68981C3.07451 6.99981 4.66451 9.24981 6.24951 9.24981C8.08951 9.24981 10.0995 4.56481 10.7695 2.85981Z" stroke="#45413C" stroke-width="0.5" stroke-linecap="round" stroke-linejoin="round"/>
<path d="M12.75 11C12.75 10.5359 12.5656 10.0908 12.2374 9.76256C11.9092 9.43437 11.4641 9.25 11 9.25C10.5359 9.25 10.0908 9.43437 9.76256 9.76256C9.43437 10.0908 9.25 10.5359 9.25 11V12C9.25 12.4641 9.43437 12.9092 9.76256 13.2374C10.0908 13.5656 10.5359 13.75 11 13.75C11.4641 13.75 11.9092 13.5656 12.2374 13.2374C12.5656 12.9092 12.75 12.4641 12.75 12V11Z" fill="#FF6242"/>
<path d="M11 13C10.5359 13 10.0908 12.8156 9.76256 12.4874C9.43437 12.1592 9.25 11.7141 9.25 11.25V12C9.25 12.4641 9.43437 12.9092 9.76256 13.2374C10.0908 13.5656 10.5359 13.75 11 13.75C11.4641 13.75 11.9092 13.5656 12.2374 13.2374C12.5656 12.9092 12.75 12.4641 12.75 12V11.25C12.75 11.7141 12.5656 12.1592 12.2374 12.4874C11.9092 12.8156 11.4641 13 11 13Z" fill="#E04122"/>
<path d="M11.0001 9.25C10.536 9.25 10.0909 9.43437 9.76267 9.76256C9.43448 10.0908 9.25011 10.5359 9.25011 11V12C9.24736 12.0416 9.24736 12.0834 9.25011 12.125C9.28334 11.6876 9.48055 11.2789 9.80226 10.9807C10.124 10.6825 10.5464 10.5168 10.9851 10.5168C11.4238 10.5168 11.8462 10.6825 12.1679 10.9807C12.4897 11.2789 12.6869 11.6876 12.7201 12.125C12.7228 12.0834 12.7228 12.0416 12.7201 12V11C12.7202 10.541 12.5399 10.1004 12.2182 9.77305C11.8965 9.44571 11.459 9.25787 11.0001 9.25Z" fill="#FF866E"/>
<path d="M12.75 11C12.75 10.5359 12.5656 10.0908 12.2374 9.76256C11.9092 9.43437 11.4641 9.25 11 9.25C10.5359 9.25 10.0908 9.43437 9.76256 9.76256C9.43437 10.0908 9.25 10.5359 9.25 11V12C9.25 12.4641 9.43437 12.9092 9.76256 13.2374C10.0908 13.5656 10.5359 13.75 11 13.75C11.4641 13.75 11.9092 13.5656 12.2374 13.2374C12.5656 12.9092 12.75 12.4641 12.75 12V11Z" stroke="#45413C" stroke-width="0.5" stroke-linecap="round" stroke-linejoin="round"/>
<path d="M15.75 11.75C15.75 12.0152 15.8554 12.2696 16.0429 12.4571C16.2304 12.6446 16.4848 12.75 16.75 12.75C17.0152 12.75 17.2696 12.6446 17.4571 12.4571C17.6446 12.2696 17.75 12.0152 17.75 11.75C17.75 11.4848 17.6446 11.2304 17.4571 11.0429C17.2696 10.8554 17.0152 10.75 16.75 10.75C16.4848 10.75 16.2304 10.8554 16.0429 11.0429C15.8554 11.2304 15.75 11.4848 15.75 11.75Z" fill="#FF6242" stroke="#45413C" stroke-width="0.5" stroke-linecap="round" stroke-linejoin="round"/>
<path d="M4.25 11.75C4.25 12.0152 4.35536 12.2696 4.54289 12.4571C4.73043 12.6446 4.98478 12.75 5.25 12.75C5.51522 12.75 5.76957 12.6446 5.95711 12.4571C6.14464 12.2696 6.25 12.0152 6.25 11.75C6.25 11.4848 6.14464 11.2304 5.95711 11.0429C5.76957 10.8554 5.51522 10.75 5.25 10.75C4.98478 10.75 4.73043 10.8554 4.54289 11.0429C4.35536 11.2304 4.25 11.4848 4.25 11.75Z" fill="#FF6242" stroke="#45413C" stroke-width="0.5" stroke-linecap="round" stroke-linejoin="round"/>
<path d="M2.25 15.5C2.25 17.295 6.17 18.75 11 18.75C15.83 18.75 19.75 17.295 19.75 15.5V13C19.75 14.795 15.83 16.25 11 16.25C6.17 16.25 2.25 14.795 2.25 13V15.5Z" fill="#C0DCEB"/>
<path d="M11 16.25C6.17 16.25 2.25 14.795 2.25 13V14.25C2.25 16.045 6.17 17.5 11 17.5C15.83 17.5 19.75 16.045 19.75 14.25V13C19.75 14.795 15.83 16.25 11 16.25Z" fill="#E8F4FA"/>
<path d="M2.25 15.5C2.25 17.295 6.17 18.75 11 18.75C15.83 18.75 19.75 17.295 19.75 15.5V13C19.75 14.795 15.83 16.25 11 16.25C6.17 16.25 2.25 14.795 2.25 13V15.5Z" stroke="#45413C" stroke-width="0.5" stroke-linecap="round" stroke-linejoin="round"/>
<path d="M4.75 3.25C4.75 3.58152 4.8817 3.89946 5.11612 4.13388C5.35054 4.3683 5.66848 4.5 6 4.5C6.33152 4.5 6.64946 4.3683 6.88388 4.13388C7.1183 3.89946 7.25 3.58152 7.25 3.25C7.25 2.91848 7.1183 2.60054 6.88388 2.36612C6.64946 2.1317 6.33152 2 6 2C5.66848 2 5.35054 2.1317 5.11612 2.36612C4.8817 2.60054 4.75 2.91848 4.75 3.25Z" fill="#FF6242"/>
<path d="M5.11463 4.13463C4.87991 3.89991 4.74805 3.58157 4.74805 3.24963C4.74805 2.91769 4.87991 2.59934 5.11463 2.36463C5.34934 2.12991 5.66769 1.99805 5.99963 1.99805C6.33157 1.99805 6.64991 2.12991 6.88463 2.36463L5.11463 4.13463Z" fill="#FF866E"/>
<path d="M4.75 3.25C4.75 3.58152 4.8817 3.89946 5.11612 4.13388C5.35054 4.3683 5.66848 4.5 6 4.5C6.33152 4.5 6.64946 4.3683 6.88388 4.13388C7.1183 3.89946 7.25 3.58152 7.25 3.25C7.25 2.91848 7.1183 2.60054 6.88388 2.36612C6.64946 2.1317 6.33152 2 6 2C5.66848 2 5.35054 2.1317 5.11612 2.36612C4.8817 2.60054 4.75 2.91848 4.75 3.25V3.25Z" stroke="#45413C" stroke-width="0.5" stroke-linecap="round" stroke-linejoin="round"/>
<path d="M14.75 3.25C14.75 3.58152 14.8817 3.89946 15.1161 4.13388C15.3505 4.3683 15.6685 4.5 16 4.5C16.3315 4.5 16.6495 4.3683 16.8839 4.13388C17.1183 3.89946 17.25 3.58152 17.25 3.25C17.25 2.91848 17.1183 2.60054 16.8839 2.36612C16.6495 2.1317 16.3315 2 16 2C15.6685 2 15.3505 2.1317 15.1161 2.36612C14.8817 2.60054 14.75 2.91848 14.75 3.25Z" fill="#FF6242"/>
<path d="M15.1146 4.13463C14.8799 3.89991 14.748 3.58157 14.748 3.24963C14.748 3.08527 14.7804 2.92252 14.8433 2.77067C14.9062 2.61882 14.9984 2.48085 15.1146 2.36463C15.2308 2.24841 15.3688 2.15622 15.5207 2.09332C15.6725 2.03042 15.8353 1.99805 15.9996 1.99805C16.3316 1.99805 16.6499 2.12991 16.8846 2.36463L15.1146 4.13463Z" fill="#FF866E"/>
<path d="M14.75 3.25C14.75 3.58152 14.8817 3.89946 15.1161 4.13388C15.3505 4.3683 15.6685 4.5 16 4.5C16.3315 4.5 16.6495 4.3683 16.8839 4.13388C17.1183 3.89946 17.25 3.58152 17.25 3.25C17.25 2.91848 17.1183 2.60054 16.8839 2.36612C16.6495 2.1317 16.3315 2 16 2C15.6685 2 15.3505 2.1317 15.1161 2.36612C14.8817 2.60054 14.75 2.91848 14.75 3.25Z" stroke="#45413C" stroke-width="0.5" stroke-linecap="round" stroke-linejoin="round"/>
<path d="M0.25 4.25C0.25 4.44698 0.288799 4.64204 0.364181 4.82403C0.439563 5.00601 0.550052 5.17137 0.68934 5.31066C0.828628 5.44995 0.993986 5.56044 1.17597 5.63582C1.35796 5.7112 1.55302 5.75 1.75 5.75C1.94698 5.75 2.14204 5.7112 2.32403 5.63582C2.50601 5.56044 2.67137 5.44995 2.81066 5.31066C2.94995 5.17137 3.06044 5.00601 3.13582 4.82403C3.2112 4.64204 3.25 4.44698 3.25 4.25C3.25 4.05302 3.2112 3.85796 3.13582 3.67597C3.06044 3.49399 2.94995 3.32863 2.81066 3.18934C2.67137 3.05005 2.50601 2.93956 2.32403 2.86418C2.14204 2.7888 1.94698 2.75 1.75 2.75C1.55302 2.75 1.35796 2.7888 1.17597 2.86418C0.993986 2.93956 0.828628 3.05005 0.68934 3.18934C0.550052 3.32863 0.439563 3.49399 0.364181 3.67597C0.288799 3.85796 0.25 4.05302 0.25 4.25Z" fill="#FF6242"/>
<path d="M0.689693 5.30969C0.424733 5.02534 0.280487 4.64925 0.287343 4.26065C0.2942 3.87205 0.451623 3.50128 0.72645 3.22645C1.00128 2.95162 1.37205 2.7942 1.76065 2.78734C2.14925 2.78049 2.52534 2.92473 2.80969 3.18969L0.689693 5.30969Z" fill="#FF866E"/>
<path d="M0.25 4.25C0.25 4.44698 0.288799 4.64204 0.364181 4.82403C0.439563 5.00601 0.550052 5.17137 0.68934 5.31066C0.828628 5.44995 0.993986 5.56044 1.17597 5.63582C1.35796 5.7112 1.55302 5.75 1.75 5.75C1.94698 5.75 2.14204 5.7112 2.32403 5.63582C2.50601 5.56044 2.67137 5.44995 2.81066 5.31066C2.94995 5.17137 3.06044 5.00601 3.13582 4.82403C3.2112 4.64204 3.25 4.44698 3.25 4.25C3.25 4.05302 3.2112 3.85796 3.13582 3.67597C3.06044 3.49399 2.94995 3.32863 2.81066 3.18934C2.67137 3.05005 2.50601 2.93956 2.32403 2.86418C2.14204 2.7888 1.94698 2.75 1.75 2.75C1.55302 2.75 1.35796 2.7888 1.17597 2.86418C0.993986 2.93956 0.828628 3.05005 0.68934 3.18934C0.550052 3.32863 0.439563 3.49399 0.364181 3.67597C0.288799 3.85796 0.25 4.05302 0.25 4.25V4.25Z" stroke="#45413C" stroke-width="0.5" stroke-linecap="round" stroke-linejoin="round"/>
<path d="M9.5 1.75C9.5 2.14782 9.65804 2.52936 9.93934 2.81066C10.2206 3.09196 10.6022 3.25 11 3.25C11.3978 3.25 11.7794 3.09196 12.0607 2.81066C12.342 2.52936 12.5 2.14782 12.5 1.75C12.5 1.35218 12.342 0.970644 12.0607 0.68934C11.7794 0.408035 11.3978 0.25 11 0.25C10.6022 0.25 10.2206 0.408035 9.93934 0.68934C9.65804 0.970644 9.5 1.35218 9.5 1.75Z" fill="#FF6242"/>
<path d="M9.93969 2.80969C9.67473 2.52534 9.53049 2.14925 9.53734 1.76065C9.5442 1.37205 9.70162 1.00128 9.97645 0.726449C10.2513 0.451623 10.622 0.2942 11.0106 0.287343C11.3993 0.280487 11.7753 0.424733 12.0597 0.689693L9.93969 2.80969Z" fill="#FF866E"/>
<path d="M9.5 1.75C9.5 2.14782 9.65804 2.52936 9.93934 2.81066C10.2206 3.09196 10.6022 3.25 11 3.25C11.3978 3.25 11.7794 3.09196 12.0607 2.81066C12.342 2.52936 12.5 2.14782 12.5 1.75C12.5 1.35218 12.342 0.970644 12.0607 0.68934C11.7794 0.408035 11.3978 0.25 11 0.25C10.6022 0.25 10.2206 0.408035 9.93934 0.68934C9.65804 0.970644 9.5 1.35218 9.5 1.75V1.75Z" stroke="#45413C" stroke-width="0.5" stroke-linecap="round" stroke-linejoin="round"/>
<path d="M18.75 4.25C18.75 4.64782 18.908 5.02936 19.1893 5.31066C19.4706 5.59196 19.8522 5.75 20.25 5.75C20.6478 5.75 21.0294 5.59196 21.3107 5.31066C21.592 5.02936 21.75 4.64782 21.75 4.25C21.75 3.85218 21.592 3.47064 21.3107 3.18934C21.0294 2.90804 20.6478 2.75 20.25 2.75C19.8522 2.75 19.4706 2.90804 19.1893 3.18934C18.908 3.47064 18.75 3.85218 18.75 4.25Z" fill="#FF6242"/>
<path d="M19.1903 5.31031C19.0429 5.17298 18.9247 5.00738 18.8427 4.82338C18.7608 4.63938 18.7167 4.44076 18.7131 4.23935C18.7096 4.03795 18.7466 3.83789 18.8221 3.65111C18.8975 3.46434 19.0098 3.29467 19.1522 3.15223C19.2947 3.00979 19.4643 2.8975 19.6511 2.82206C19.8379 2.74662 20.0379 2.70957 20.2394 2.71312C20.4408 2.71668 20.6394 2.76076 20.8234 2.84275C21.0074 2.92473 21.173 3.04293 21.3103 3.19031L19.1903 5.31031Z" fill="#FF866E"/>
<path d="M18.75 4.25C18.75 4.64782 18.908 5.02936 19.1893 5.31066C19.4706 5.59196 19.8522 5.75 20.25 5.75C20.6478 5.75 21.0294 5.59196 21.3107 5.31066C21.592 5.02936 21.75 4.64782 21.75 4.25C21.75 3.85218 21.592 3.47064 21.3107 3.18934C21.0294 2.90804 20.6478 2.75 20.25 2.75C19.8522 2.75 19.4706 2.90804 19.1893 3.18934C18.908 3.47064 18.75 3.85218 18.75 4.25Z" stroke="#45413C" stroke-width="0.5" stroke-linecap="round" stroke-linejoin="round"/>
</svg>
