<svg width="40" height="40" viewBox="0 0 40 40" fill="none" xmlns="http://www.w3.org/2000/svg">
<path d="M1 20C1 9.50659 9.50659 1 20 1C30.4934 1 39 9.50659 39 20C39 30.4934 30.4934 39 20 39C9.50659 39 1 30.4934 1 20Z" stroke="#444444" stroke-width="2"/>
<path d="M21.9286 21.9286C20.3571 23.55 20.2429 25.5714 20.1071 30C24.2357 30 27.0857 29.9857 28.5571 28.5571C29.9857 27.0857 30 24.1 30 20.1071C25.5714 20.25 23.55 20.3571 21.9286 21.9286ZM10 20.1071C10 24.1 10.0143 27.0857 11.4429 28.5571C12.9143 29.9857 15.7643 30 19.8929 30C19.75 25.5714 19.6429 23.55 18.0714 21.9286C16.45 20.3571 14.4286 20.2429 10 20.1071ZM19.8929 10C15.7714 10 12.9143 10.0143 11.4429 11.4429C10.0143 12.9143 10 15.9 10 19.8929C14.4286 19.75 16.45 19.6429 18.0714 18.0714C19.6429 16.45 19.7571 14.4286 19.8929 10ZM21.9286 18.0714C20.3571 16.45 20.2429 14.4286 20.1071 10C24.2357 10 27.0857 10.0143 28.5571 11.4429C29.9857 12.9143 30 15.9 30 19.8929C25.5714 19.75 23.55 19.6429 21.9286 18.0714Z" fill="#444444"/>
</svg>
