<svg width="40" height="40" viewBox="0 0 40 41" fill="none" xmlns="http://www.w3.org/2000/svg">
<path fill-rule="evenodd" clip-rule="evenodd" d="M2 20.7188C2 30.6599 10.0589 38.7188 20 38.7188C29.9411 38.7188 38 30.6599 38 20.7188C38 10.7776 29.9411 2.71875 20 2.71875C10.0589 2.71875 2 10.7776 2 20.7188ZM20 0.71875C8.95431 0.71875 0 9.67306 0 20.7188C0 31.7644 8.95431 40.7188 20 40.7188C31.0457 40.7188 40 31.7644 40 20.7188C40 9.67306 31.0457 0.71875 20 0.71875Z" fill="#BD9268"/>
<path d="M21.9286 22.6473C20.3571 24.2688 20.2429 26.2902 20.1071 30.7188C24.2357 30.7188 27.0857 30.7045 28.5571 29.2759C29.9857 27.8045 30 24.8188 30 20.8259C25.5714 20.9688 23.55 21.0759 21.9286 22.6473ZM10 20.8259C10 24.8188 10.0143 27.8045 11.4429 29.2759C12.9143 30.7045 15.7643 30.7188 19.8929 30.7188C19.75 26.2902 19.6429 24.2688 18.0714 22.6473C16.45 21.0759 14.4286 20.9616 10 20.8259ZM19.8929 10.7188C15.7714 10.7188 12.9143 10.733 11.4429 12.1616C10.0143 13.633 10 16.6187 10 20.6116C14.4286 20.4688 16.45 20.3616 18.0714 18.7902C19.6429 17.1688 19.7571 15.1473 19.8929 10.7188ZM21.9286 18.7902C20.3571 17.1688 20.2429 15.1473 20.1071 10.7188C24.2357 10.7188 27.0857 10.733 28.5571 12.1616C29.9857 13.633 30 16.6187 30 20.6116C25.5714 20.4688 23.55 20.3616 21.9286 18.7902Z" fill="#BD9268"/>
</svg>
