<svg width="24" height="24" viewBox="0 0 24 24" fill="none" xmlns="http://www.w3.org/2000/svg">
<path opacity="0.15" d="M16.8906 22.6345C16.8906 22.7481 16.7641 22.8606 16.5184 22.9656C16.2727 23.0705 15.9125 23.1659 15.4584 23.2462C15.0043 23.3265 14.4652 23.3902 13.8719 23.4337C13.2787 23.4772 12.6428 23.4995 12.0006 23.4995C11.3585 23.4995 10.7226 23.4772 10.1293 23.4337C9.53602 23.3902 8.99695 23.3265 8.54287 23.2462C8.08879 23.1659 7.7286 23.0705 7.48285 22.9656C7.23711 22.8606 7.11063 22.7481 7.11063 22.6345C7.11063 22.5209 7.23711 22.4085 7.48285 22.3035C7.7286 22.1986 8.08879 22.1032 8.54287 22.0229C8.99695 21.9426 9.53602 21.8788 10.1293 21.8354C10.7226 21.7919 11.3585 21.7695 12.0006 21.7695C12.6428 21.7695 13.2787 21.7919 13.8719 21.8354C14.4652 21.8788 15.0043 21.9426 15.4584 22.0229C15.9125 22.1032 16.2727 22.1986 16.5184 22.3035C16.7641 22.4085 16.8906 22.5209 16.8906 22.6345Z" fill="#45413C"/>
<path d="M8.75691 16.751L11.4077 17.8642C11.4786 17.8939 11.5584 17.8943 11.6296 17.8652C11.7008 17.8362 11.7575 17.78 11.7873 17.7091L13.1231 14.5282L9.94224 13.1924L8.60255 16.3825C8.57614 16.452 8.57742 16.529 8.60615 16.5975C8.63488 16.6661 8.68885 16.721 8.75691 16.751Z" fill="#C0DCEB"/>
<path d="M13.1211 14.5293L11.7861 17.7143L13.1211 14.5293Z" fill="#E8F4FA"/>
<path d="M8.60141 16.3793L9.94141 13.1943L10.9414 13.6093L9.58641 16.8293C9.56274 16.8892 9.56305 16.9558 9.58726 17.0154C9.61147 17.075 9.65773 17.123 9.71641 17.1493L8.77641 16.7543C8.74008 16.7415 8.70668 16.7216 8.67815 16.6957C8.64962 16.6698 8.62654 16.6385 8.61024 16.6035C8.59395 16.5686 8.58478 16.5308 8.58326 16.4923C8.58175 16.4538 8.58791 16.4154 8.60141 16.3793Z" fill="#E8F4FA"/>
<path d="M8.75691 16.751L11.4077 17.8642C11.4786 17.8939 11.5584 17.8943 11.6296 17.8652C11.7008 17.8362 11.7575 17.78 11.7873 17.7091L13.1231 14.5282L9.94224 13.1924L8.60255 16.3825C8.57614 16.452 8.57742 16.529 8.60615 16.5975C8.63488 16.6661 8.68885 16.721 8.75691 16.751V16.751Z" stroke="#45413C" stroke-width="0.5" stroke-linecap="round" stroke-linejoin="round"/>
<path d="M7.39031 20.145C7.72923 20.7929 7.85188 21.5323 7.74031 22.255L8.19531 22.445C8.60609 21.8984 9.17255 21.4888 9.82031 21.27C9.9684 21.2353 10.1066 21.1672 10.2245 21.0711C10.3423 20.9749 10.4366 20.8531 10.5003 20.715C10.6123 20.4469 10.6993 20.169 10.7603 19.885L11.1953 17.79L8.92031 16.835L7.72531 18.61C7.57055 18.8479 7.43672 19.0989 7.32531 19.36C7.2777 19.4875 7.25884 19.624 7.27008 19.7597C7.28131 19.8954 7.32237 20.027 7.39031 20.145Z" fill="#E8F4FA"/>
<path d="M7.35133 19.36C7.46273 19.0989 7.59657 18.8479 7.75133 18.61L8.94633 16.835L9.86133 17.22L8.69133 18.965C8.53106 19.2005 8.39536 19.4518 8.28633 19.715C8.23704 19.8414 8.21554 19.9769 8.22331 20.1124C8.23107 20.2478 8.26791 20.38 8.33133 20.5C8.55161 20.9346 8.68252 21.4089 8.71633 21.895C8.52889 22.0583 8.3611 22.2429 8.21633 22.445L7.76133 22.255C7.87289 21.5323 7.75024 20.7929 7.41133 20.145C7.3442 20.0266 7.30401 19.8949 7.29364 19.7592C7.28327 19.6235 7.30297 19.4872 7.35133 19.36Z" fill="white"/>
<path d="M7.39031 20.145C7.72923 20.7929 7.85188 21.5323 7.74031 22.255L8.19531 22.445C8.60609 21.8984 9.17255 21.4888 9.82031 21.27C9.9684 21.2353 10.1066 21.1672 10.2245 21.0711C10.3423 20.9749 10.4366 20.8531 10.5003 20.715C10.6123 20.4469 10.6993 20.169 10.7603 19.885L11.1953 17.79L8.92031 16.835L7.72531 18.61C7.57055 18.8479 7.43672 19.0989 7.32531 19.36C7.2777 19.4875 7.25884 19.624 7.27008 19.7597C7.28131 19.8954 7.32237 20.027 7.39031 20.145V20.145Z" stroke="#45413C" stroke-width="0.5" stroke-linecap="round" stroke-linejoin="round"/>
<path d="M7.96508 22.3492L9.08008 19.6992" stroke="#45413C" stroke-width="0.5" stroke-linecap="round" stroke-linejoin="round"/>
<path d="M9.61066 19.9197C9.65405 19.8148 9.6654 19.6994 9.64328 19.588C9.62117 19.4766 9.56658 19.3743 9.48639 19.2939C9.4062 19.2135 9.30401 19.1587 9.1927 19.1363C9.08138 19.1139 8.96593 19.125 8.8609 19.1681C8.75586 19.2112 8.66595 19.2845 8.60249 19.3786C8.53903 19.4728 8.50486 19.5836 8.5043 19.6972C8.50374 19.8107 8.53681 19.9219 8.59934 20.0166C8.66187 20.1114 8.75105 20.1856 8.85566 20.2297C8.92555 20.2592 9.00059 20.2746 9.07646 20.275C9.15232 20.2754 9.22752 20.2607 9.2977 20.2319C9.36788 20.2031 9.43166 20.1607 9.48538 20.1071C9.53909 20.0535 9.58167 19.9898 9.61066 19.9197Z" fill="#45413C"/>
<path d="M9.63096 12.4397L13.531 3.15966C13.6482 2.88126 13.8191 2.62867 14.0339 2.41631C14.2487 2.20395 14.5033 2.03599 14.783 1.922C15.0627 1.80802 15.3622 1.75025 15.6642 1.75199C15.9663 1.75373 16.2651 1.81496 16.5435 1.93216C16.8219 2.04937 17.0745 2.22026 17.2868 2.43508C17.4992 2.6499 17.6671 2.90445 17.7811 3.18419C17.8951 3.46392 17.9529 3.76337 17.9511 4.06543C17.9494 4.3675 17.8882 4.66626 17.771 4.94466L13.876 14.2247C13.8465 14.2943 13.8036 14.3575 13.7497 14.4106C13.6957 14.4636 13.6319 14.5055 13.5618 14.5338C13.4916 14.5622 13.4166 14.5764 13.3409 14.5757C13.2653 14.5749 13.1906 14.5593 13.121 14.5297L9.94096 13.1947C9.80024 13.135 9.68874 13.0223 9.63069 12.8809C9.57265 12.7395 9.57274 12.581 9.63096 12.4397Z" fill="#87898C"/>
<path d="M17.7715 4.93945L13.8765 14.2245L17.7715 4.93945Z" fill="#BDBEC0"/>
<path d="M9.63188 12.4394L13.5319 3.15936C13.7681 2.59972 14.2162 2.15627 14.7783 1.92583C15.3403 1.69538 15.9707 1.69665 16.5319 1.92936C16.6234 1.97169 16.7119 2.02013 16.7969 2.07436C16.4083 1.98815 16.0018 2.04103 15.6482 2.22377C15.2946 2.4065 15.0163 2.70752 14.8619 3.07436L10.6719 13.0744C10.6288 13.1785 10.6289 13.2954 10.672 13.3995C10.7151 13.5035 10.7978 13.5862 10.9019 13.6294L12.4369 14.2794L9.93688 13.2244C9.86391 13.1946 9.79779 13.1502 9.74254 13.094C9.68729 13.0378 9.64407 12.9709 9.61553 12.8975C9.58699 12.824 9.57372 12.7455 9.57653 12.6667C9.57934 12.588 9.59817 12.5106 9.63188 12.4394Z" fill="#BDBEC0"/>
<path d="M9.63096 12.4397L13.531 3.15966C13.6482 2.88126 13.8191 2.62867 14.0339 2.41631C14.2487 2.20395 14.5033 2.03599 14.783 1.922C15.0627 1.80802 15.3622 1.75025 15.6642 1.75199C15.9663 1.75373 16.2651 1.81496 16.5435 1.93216C16.8219 2.04937 17.0745 2.22026 17.2868 2.43508C17.4992 2.6499 17.6671 2.90445 17.7811 3.18419C17.8951 3.46392 17.9529 3.76337 17.9511 4.06543C17.9494 4.3675 17.8882 4.66626 17.771 4.94466L13.876 14.2247C13.8465 14.2943 13.8036 14.3575 13.7497 14.4106C13.6957 14.4636 13.6319 14.5055 13.5618 14.5338C13.4916 14.5622 13.4166 14.5764 13.3409 14.5757C13.2653 14.5749 13.1906 14.5593 13.121 14.5297L9.94096 13.1947C9.80024 13.135 9.68874 13.0223 9.63069 12.8809C9.57265 12.7395 9.57274 12.581 9.63096 12.4397V12.4397Z" stroke="#45413C" stroke-width="0.5" stroke-linecap="round" stroke-linejoin="round"/>
<path d="M8.67172 15.4697L12.3867 17.0297" stroke="#45413C" stroke-width="0.5" stroke-linecap="round" stroke-linejoin="round"/>
<path d="M15.7364 5.33457C15.7679 5.26459 15.7851 5.189 15.7869 5.11227C15.7888 5.03554 15.7753 4.95921 15.7471 4.88779C15.719 4.81638 15.6769 4.75131 15.6232 4.69643C15.5696 4.64155 15.5055 4.59797 15.4347 4.56826C15.3639 4.53855 15.2879 4.52331 15.2112 4.52344C15.1344 4.52357 15.0584 4.53906 14.9878 4.569C14.9171 4.59895 14.8531 4.64274 14.7997 4.6978C14.7462 4.75286 14.7043 4.81806 14.6764 4.88957L12.6764 9.66457C12.6219 9.80427 12.6242 9.95972 12.6827 10.0978C12.7412 10.2358 12.8513 10.3456 12.9895 10.4036C13.1278 10.4617 13.2832 10.4634 13.4228 10.4085C13.5623 10.3535 13.6748 10.2463 13.7364 10.1096L15.7364 5.33457Z" fill="#DAEDF7" stroke="#45413C" stroke-width="0.5" stroke-linecap="round" stroke-linejoin="round"/>
</svg>
