<svg width="12" height="13" viewBox="0 0 12 13" fill="none" xmlns="http://www.w3.org/2000/svg">
<path d="M12 6.5C12 9.81371 9.31371 12.5 6 12.5C2.68629 12.5 0 9.81371 0 6.5C0 3.18629 2.68629 0.5 6 0.5C9.31371 0.5 12 3.18629 12 6.5Z" fill="#E33030"/>
<path d="M6 3.5C6.27612 3.5 6.5 3.7442 6.5 4.04545V7.31818C6.5 7.61943 6.27612 7.86364 6 7.86364C5.72388 7.86364 5.5 7.61943 5.5 7.31818V4.04545C5.5 3.7442 5.72388 3.5 6 3.5Z" fill="white"/>
<path d="M6 9.5C6.27612 9.5 6.5 9.2558 6.5 8.95455C6.5 8.6533 6.27612 8.40909 6 8.40909C5.72388 8.40909 5.5 8.6533 5.5 8.95455C5.5 9.2558 5.72388 9.5 6 9.5Z" fill="white"/>
</svg>
