<svg width="27" height="26" viewBox="0 0 27 26" fill="none" xmlns="http://www.w3.org/2000/svg">
<path d="M12.2985 18.4646C12.8491 18.5342 13.3926 18.6058 13.9476 18.5353C14.2543 18.4964 14.5995 18.371 14.9032 18.3788C15.0733 18.9668 15.214 19.5587 15.3006 20.166C15.5112 21.6427 15.525 23.8966 14.8138 25.2137C14.697 25.43 14.532 25.6607 14.2892 25.735C14.1167 25.7878 13.9291 25.7406 13.7779 25.6479C13.4482 25.4456 13.1901 25.0008 13.059 24.6427C12.9662 24.3002 12.8316 23.9688 12.7459 23.6244C12.4959 22.6186 12.3929 21.5574 12.3409 20.524C12.3064 19.8385 12.3819 19.1474 12.2985 18.4646Z" fill="white"/>
<path d="M14.9408 18.3803C15.0868 18.25 15.6252 18.1057 15.8462 17.9804C15.9904 17.8987 16.8621 17.2162 16.8839 17.2117C18.325 18.545 19.7255 21.115 19.8117 23.1025C19.8282 23.4831 19.7917 23.9877 19.5176 24.2746C19.3967 24.4012 19.2377 24.4725 19.0638 24.4745C18.5371 24.4806 18.0248 24.039 17.6834 23.6791C16.4235 22.3507 15.5364 20.0928 14.9408 18.3803Z" fill="white"/>
<path d="M14.3946 8.76585C14.5514 8.24667 14.6585 7.7117 14.8264 7.19594C15.3587 5.55987 16.6567 2.51461 18.2093 1.66722C18.445 1.53857 18.735 1.43733 19.001 1.52226C19.1712 1.57663 19.2996 1.69431 19.3776 1.85659C19.7256 2.58028 19.2712 3.94627 19.0058 4.6725C18.5447 5.93404 17.8775 7.11679 17.1631 8.24567C16.9552 8.57425 16.4186 9.23125 16.3045 9.52693L16.2691 9.5655C16.1632 9.55532 15.7792 9.27088 15.6536 9.20292C15.5553 9.14958 15.4551 9.10036 15.3529 9.05525C15.2507 9.01011 15.1469 8.96925 15.0415 8.93267C14.9361 8.89606 14.8294 8.86382 14.7214 8.83597C14.6134 8.80815 14.5045 8.78477 14.3946 8.76585Z" fill="white"/>
<path d="M10.3623 9.70394C9.27069 8.17109 8.23521 6.48923 7.71162 4.65755C7.50107 3.921 7.27432 2.75393 7.6783 2.04276C7.77461 1.87317 7.9201 1.72137 8.11263 1.67329C8.38963 1.60413 8.72321 1.77484 8.9502 1.92797C10.7222 3.12344 11.7765 6.52128 12.1714 8.54331C12.1864 8.63981 12.2034 8.72839 12.2339 8.82113C11.6062 9.06108 10.9679 9.29265 10.4439 9.73559C10.3979 9.73077 10.401 9.73664 10.3623 9.70394Z" fill="white"/>
<path d="M12.1949 8.53301C12.1009 7.84085 11.9351 7.16353 11.8509 6.468C11.666 4.93982 11.5988 1.96867 12.5477 0.716271C12.6881 0.530971 12.9038 0.336558 13.141 0.306434C13.346 0.280403 13.5515 0.386841 13.7023 0.519566C14.3878 1.12301 14.6822 2.93092 14.7266 3.83216C14.79 5.11778 14.6729 6.38253 14.4973 7.65361C14.4492 8.0017 14.4121 8.35666 14.3459 8.70154L14.3334 8.72356C14.2225 8.77406 13.8965 8.7073 13.7636 8.70104C13.4087 8.68428 13.043 8.70921 12.6893 8.74282C12.5693 8.75425 12.4195 8.82181 12.3051 8.80095C12.2293 8.72712 12.2227 8.63428 12.1949 8.53301Z" fill="white"/>
<path d="M6.95193 13.1094C6.5642 13.0776 6.15489 12.9676 5.77536 12.8813C4.99382 12.7037 4.2037 12.5197 3.44516 12.257C2.61633 11.97 1.25083 11.4088 0.865815 10.5709C0.784655 10.3943 0.735535 10.1864 0.807907 9.99846C0.877071 9.81889 1.02809 9.70002 1.19682 9.62413C2.7049 8.94626 5.24535 9.54233 6.7472 10.0829C6.978 10.1659 7.21402 10.2495 7.43716 10.3519C7.59331 10.4234 7.74398 10.5125 7.90319 10.5758L7.91114 10.5584C7.61449 10.3715 7.30431 10.2066 7.00969 10.0168C6.56719 9.73363 6.13914 9.42944 5.72554 9.10426C5.31198 8.77911 4.91477 8.43446 4.53391 8.07033C3.95207 7.51464 3.00022 6.48451 2.99197 5.64007C2.99024 5.46533 3.03872 5.29695 3.16742 5.17527C3.33873 5.01326 3.60028 4.98427 3.8247 4.98979C5.76647 5.03734 8.06181 7.12552 9.32729 8.49997C9.68447 8.88793 9.99434 9.34642 10.3403 9.71071L10.3547 9.7256L10.3673 9.78825C10.223 9.9817 9.98975 10.1324 9.82195 10.3137C9.26573 10.9144 8.87094 11.721 8.71464 12.5291C8.67698 12.7134 8.63743 12.8974 8.61152 13.084C8.35372 13.1303 8.09123 13.1026 7.83082 13.1028C7.53782 13.103 7.24478 13.1214 6.95193 13.1094Z" fill="white"/>
<path d="M7.05207 13.1761C7.56401 13.1186 8.07985 13.1133 8.59436 13.1274C8.583 13.6024 8.54227 14.1225 8.62264 14.5918C8.67211 14.8804 8.81285 15.1727 8.83235 15.4608C8.80175 15.4823 8.77134 15.5021 8.74384 15.5276C8.78605 15.5475 8.81833 15.5525 8.86385 15.5598C9.01106 15.7345 9.11503 16.0353 9.23993 16.236C9.66217 16.9145 10.2818 17.5243 10.9646 17.9267C11.1836 18.0544 11.4119 18.1618 11.6494 18.249C11.8228 18.3132 12.082 18.358 12.2301 18.4598C12.1745 18.7404 12.0633 19.0213 11.9744 19.293C11.6292 20.3486 11.2206 21.3999 10.6837 22.3716C10.2963 23.0726 9.41756 24.458 8.64219 24.6578C8.47844 24.7001 8.31429 24.6777 8.17103 24.5849C7.88781 24.4014 7.79327 24.0951 7.73284 23.7791C7.45885 22.3472 8.35769 19.8801 9.07435 18.6289C9.21875 18.3767 9.37189 18.2345 9.51891 18.0122L9.50326 18.0069C8.82683 18.7153 8.01947 19.367 7.22229 19.9304C6.41868 20.4983 5.11711 21.386 4.10286 21.1823C3.90731 21.1431 3.70347 21.0779 3.59264 20.8965C3.47757 20.7081 3.50013 20.4757 3.54708 20.2694C3.89527 18.7397 5.9646 16.9345 7.24949 16.1262C6.38955 16.3553 5.57731 16.6229 4.69295 16.7523C3.75378 16.8896 2.2343 17.024 1.45183 16.4038C1.31621 16.2964 1.20677 16.1508 1.18865 15.9723C1.16219 15.7121 1.31118 15.4589 1.46881 15.2658C2.57721 13.9084 5.39653 13.3268 7.05207 13.1761Z" fill="white"/>
<path d="M12.1949 8.53301C12.2227 8.63428 12.2293 8.72712 12.3051 8.80095C12.4195 8.82181 12.5693 8.75425 12.6893 8.74282C13.043 8.70921 13.4087 8.68428 13.7636 8.70104C13.8965 8.7073 14.2225 8.77406 14.3334 8.72356L14.3459 8.70154L14.3946 8.76585C14.5045 8.78477 14.6134 8.80815 14.7214 8.83597C14.8294 8.86382 14.9361 8.89606 15.0415 8.93267C15.1469 8.96925 15.2507 9.01011 15.3529 9.05525C15.4551 9.10036 15.5553 9.14958 15.6536 9.20292C15.7792 9.27088 16.1632 9.55532 16.2691 9.5655L16.3045 9.52693L16.3168 9.551C16.3289 9.60462 16.3511 9.62925 16.3883 9.66742C16.5861 9.8706 16.8101 10.046 17.0106 10.2462C17.5188 10.7534 17.8971 11.4492 18.1167 12.1332C18.1665 12.2887 18.2663 12.9804 18.2771 13.0018C18.305 13.8832 18.287 14.475 18.031 15.3379C18.1098 15.3663 18.1923 15.3912 18.2676 15.428L18.2554 15.4461L18.2201 15.4437C18.1476 15.4393 18.0867 15.4258 18.0238 15.4696C17.8423 15.7953 17.6749 16.1446 17.4669 16.4528C17.3631 16.6067 16.9613 17.041 16.9251 17.1563L16.9387 17.1989L16.8839 17.2117C16.8621 17.2162 15.9904 17.8987 15.8462 17.9804C15.6252 18.1057 15.0868 18.25 14.9408 18.3803L14.9032 18.3788C14.5995 18.371 14.2543 18.4964 13.9476 18.5353C13.3926 18.6058 12.8491 18.5342 12.2985 18.4646L12.2715 18.561L12.257 18.4738L12.2301 18.4598C12.082 18.358 11.8228 18.3132 11.6494 18.249C11.4119 18.1618 11.1836 18.0544 10.9646 17.9267C10.2818 17.5243 9.66217 16.9145 9.23993 16.236C9.11503 16.0353 9.01106 15.7345 8.86385 15.5598C8.81833 15.5525 8.78605 15.5475 8.74384 15.5276C8.77134 15.5021 8.80175 15.4823 8.83235 15.4608C8.81285 15.1727 8.67211 14.8804 8.62264 14.5918C8.54227 14.1225 8.583 13.6024 8.59436 13.1274C8.07985 13.1133 7.56401 13.1186 7.05207 13.1761L7.04069 13.1461L6.95193 13.1094C7.24478 13.1214 7.53782 13.103 7.83082 13.1028C8.09123 13.1026 8.35372 13.1303 8.61152 13.084C8.63743 12.8974 8.67698 12.7134 8.71464 12.5291C8.87094 11.721 9.26573 10.9144 9.82195 10.3137C9.98975 10.1324 10.223 9.9817 10.3673 9.78825L10.3547 9.7256L10.3623 9.70394C10.401 9.73664 10.3979 9.73077 10.4439 9.73559C10.9679 9.29265 11.6062 9.06108 12.2339 8.82113C12.2034 8.72839 12.1864 8.63981 12.1714 8.54331L12.1949 8.53301Z" fill="#EABB8D"/>
<path d="M8.71464 12.5291C8.71677 12.5372 8.71903 12.5453 8.72096 12.5534C8.79575 12.8684 8.74594 13.2187 8.80814 13.5463C9.03523 14.7422 9.86505 15.8136 10.8678 16.4522C11.9821 17.1619 13.4082 17.3471 14.6792 17.0391C14.7172 17.0297 14.755 17.0199 14.7927 17.0097C14.8304 16.9994 14.8679 16.9886 14.9054 16.9774C14.9428 16.9662 14.9801 16.9545 15.0172 16.9424C15.0544 16.9302 15.0914 16.9176 15.1283 16.9045C15.1651 16.8914 15.2018 16.8779 15.2383 16.8639C15.2748 16.8499 15.3112 16.8354 15.3473 16.8205C15.3835 16.8056 15.4195 16.7902 15.4553 16.7744C15.491 16.7586 15.5266 16.7423 15.562 16.7256C15.5974 16.7089 15.6326 16.6918 15.6676 16.6742C15.7026 16.6566 15.7373 16.6385 15.7719 16.6201C15.8064 16.6016 15.8407 16.5827 15.8748 16.5634C15.9089 16.5441 15.9427 16.5243 15.9763 16.5041C16.0099 16.484 16.0433 16.4634 16.0764 16.4424C16.1095 16.4214 16.1424 16.3999 16.1749 16.3781C16.2075 16.3563 16.2398 16.334 16.2719 16.3114C16.3039 16.2888 16.3357 16.2657 16.3672 16.2423C16.3986 16.2188 16.4298 16.195 16.4607 16.1708C16.4916 16.1466 16.5222 16.1219 16.5526 16.097C16.5829 16.072 16.6129 16.0466 16.6426 16.0209C16.6722 15.9951 16.7016 15.969 16.7307 15.9425C16.7597 15.9161 16.7885 15.8892 16.8169 15.862C16.8453 15.8348 16.8733 15.8073 16.9011 15.7794C16.9288 15.7515 16.9562 15.7232 16.9832 15.6946C17.0103 15.666 17.037 15.6371 17.0633 15.6078C17.0897 15.5786 17.1157 15.549 17.1413 15.5191C17.1669 15.4892 17.1922 15.4589 17.217 15.4284C17.242 15.3979 17.2665 15.367 17.2906 15.3358C17.3148 15.3047 17.3385 15.2732 17.3619 15.2414C17.3853 15.2097 17.4082 15.1777 17.4309 15.1453C17.4535 15.113 17.4757 15.0804 17.4974 15.0475C17.5193 15.0146 17.5407 14.9814 17.5617 14.948C17.5827 14.9146 17.6033 14.8809 17.6234 14.847C17.7105 14.7008 17.789 14.5501 17.8591 14.3947C17.9291 14.2395 17.9902 14.0806 18.0423 13.9182C18.121 13.6725 18.1375 13.1854 18.2771 13.0018C18.305 13.8832 18.287 14.475 18.031 15.3379C18.1098 15.3663 18.1923 15.3912 18.2676 15.428L18.2554 15.4461L18.2201 15.4437C18.1476 15.4393 18.0867 15.4258 18.0238 15.4696C17.8423 15.7953 17.6749 16.1446 17.4669 16.4528C17.3631 16.6067 16.9613 17.041 16.9251 17.1563L16.9387 17.1989L16.8839 17.2117C16.8621 17.2162 15.9904 17.8987 15.8462 17.9804C15.6252 18.1057 15.0868 18.25 14.9408 18.3803L14.9032 18.3788C14.5995 18.371 14.2543 18.4964 13.9476 18.5353C13.3926 18.6058 12.8491 18.5342 12.2985 18.4646L12.2715 18.561L12.257 18.4738L12.2301 18.4598C12.082 18.358 11.8228 18.3132 11.6494 18.249C11.4119 18.1618 11.1836 18.0544 10.9646 17.9267C10.2818 17.5243 9.66217 16.9145 9.23993 16.236C9.11503 16.0353 8.83235 15.7773 8.86385 15.5598C8.86904 15.5502 8.86896 15.5502 8.84428 15.5251C8.84428 15.5251 8.83486 15.4979 8.83235 15.4608C8.81285 15.1727 8.67211 14.8804 8.62264 14.5918C8.54227 14.1225 8.583 13.6024 8.59436 13.1274C8.07985 13.1133 7.56401 13.1186 7.05207 13.1761L7.04069 13.1461L6.95193 13.1094C7.24478 13.1214 7.53782 13.103 7.83082 13.1028C8.09123 13.1026 8.35372 13.1303 8.61152 13.084C8.63743 12.8974 8.67698 12.7134 8.71464 12.5291Z" fill="#EABB8D"/>
<path d="M16.3168 9.551C16.7312 8.92098 17.2445 8.37618 17.7732 7.84477C18.9695 6.64251 20.7571 5.10977 22.4565 4.77387C22.7615 4.71358 23.2197 4.66106 23.4873 4.85041C23.6153 4.94094 23.6838 5.08022 23.7083 5.23406C23.8034 5.83408 23.3816 6.48682 23.0432 6.93768C22.2407 8.00698 21.0976 8.9092 20.0058 9.65468C19.5842 9.94248 19.1263 10.2029 18.7239 10.5157C20.4938 9.74943 22.368 9.01307 24.3322 9.18797C24.7277 9.22313 25.1299 9.28056 25.5004 9.43028C25.7531 9.53235 26.087 9.70258 26.1991 9.96942C26.2542 10.1005 26.2205 10.2335 26.1659 10.3589C25.8294 11.1315 24.3855 11.674 23.6323 11.9465C22.1758 12.4733 20.6676 12.8038 19.1372 13.0039L19.1204 12.9792L19.1324 13.0047L19.0615 13.0178C19.2308 13.0429 19.4115 13.0059 19.5842 13.0105C20.0216 13.0223 20.4654 13.0447 20.9014 13.0819C22.2648 13.198 25.2534 13.8161 26.0861 14.9949C26.1787 15.1259 26.2464 15.2801 26.2183 15.4445C26.1872 15.6271 26.0405 15.7569 25.8959 15.8535C25.6592 16.0116 25.3664 16.1027 25.0953 16.1766C23.2781 16.6725 21.1891 16.1862 19.3976 15.7664L19.359 15.7571C20.8229 16.5717 22.2969 17.4595 23.3354 18.823C23.5783 19.142 23.8212 19.506 23.9357 19.8968C23.9891 20.079 24.0147 20.2884 23.921 20.4627C23.8177 20.6551 23.583 20.754 23.3842 20.8085C22.4462 21.0655 21.1494 20.409 20.3543 19.9251C19.1249 19.1769 17.9488 18.2317 16.9387 17.1989L16.9251 17.1563C16.9613 17.041 17.3631 16.6067 17.4669 16.4528C17.6749 16.1446 17.8423 15.7953 18.0238 15.4696C18.0867 15.4258 18.1476 15.4393 18.2201 15.4437L18.2554 15.4461L18.2676 15.428C18.1923 15.3912 18.1098 15.3663 18.031 15.3379C18.287 14.475 18.305 13.8832 18.2771 13.0018C18.2663 12.9804 18.1665 12.2887 18.1167 12.1332C17.8971 11.4492 17.5188 10.7534 17.0106 10.2462C16.8101 10.046 16.5861 9.8706 16.3883 9.66742C16.3511 9.62925 16.3289 9.60462 16.3168 9.551Z" fill="white"/>
</svg>
