<svg width="40" height="40" viewBox="0 0 40 40" fill="none" xmlns="http://www.w3.org/2000/svg">
<rect x="0.5" y="0.5" width="39" height="39" rx="19.5" transform="matrix(0 1 1 0 0 0)" stroke="#444444"/>
<path fill-rule="evenodd" clip-rule="evenodd" d="M19.6814 28.3066C19.4126 28.3066 19.1948 28.0955 19.1948 27.835V13.6871C19.1948 13.4267 19.4126 13.2155 19.6814 13.2155C19.9501 13.2155 20.1679 13.4267 20.1679 13.6871V27.835C20.1679 28.0955 19.9501 28.3066 19.6814 28.3066Z" fill="#444444"/>
<path fill-rule="evenodd" clip-rule="evenodd" d="M13.5878 19.8089C13.3513 19.6853 13.2629 19.3993 13.3904 19.17L13.8187 19.3937C13.3904 19.17 13.3904 19.17 13.3904 19.17L13.3933 19.1647L13.4009 19.1513L13.4294 19.101C13.4543 19.0576 13.4907 18.9944 13.5379 18.9145C13.6321 18.7547 13.7693 18.5274 13.9421 18.2551C14.2872 17.7112 14.7774 16.9836 15.3553 16.2535C15.9311 15.5262 16.6058 14.7813 17.3223 14.2138C18.0272 13.6556 18.839 13.2158 19.6799 13.2158C20.5211 13.2158 21.3333 13.6555 22.0387 14.2138C22.7555 14.7812 23.4306 15.5262 24.0066 16.2534C24.5848 16.9835 25.0752 17.7112 25.4204 18.255C25.5933 18.5273 25.7305 18.7546 25.8248 18.9145C25.8719 18.9944 25.9084 19.0575 25.9333 19.101L25.9618 19.1512L25.9693 19.1646L25.9714 19.1683L25.972 19.1694C25.972 19.1694 25.9723 19.1699 25.544 19.3937L25.972 19.1694C26.0995 19.3986 26.0115 19.6852 25.7749 19.8088C25.5384 19.9324 25.2433 19.8468 25.1158 19.6176L25.1141 19.6146L25.1079 19.6035L25.0822 19.5583C25.0592 19.5182 25.0249 19.4587 24.98 19.3826C24.8902 19.2304 24.7583 19.0119 24.5916 18.7493C24.2576 18.2231 23.7863 17.5243 23.2346 16.8277C22.6808 16.1284 22.058 15.4468 21.4231 14.9443C20.7768 14.4327 20.1835 14.159 19.6799 14.159C19.1769 14.159 18.5841 14.4326 17.938 14.9442C17.3036 15.4467 16.681 16.1283 16.1274 16.8277C15.576 17.5242 15.1049 18.2231 14.771 18.7492C14.6043 19.0118 14.4725 19.2303 14.3827 19.3826C14.3378 19.4587 14.3035 19.5182 14.2806 19.5583L14.2549 19.6035L14.2487 19.6145L14.2473 19.617C14.1197 19.8463 13.8244 19.9324 13.5878 19.8089Z" fill="#444444"/>
</svg>
