<svg width="24" height="24" viewBox="0 0 24 24" fill="none" xmlns="http://www.w3.org/2000/svg">
<path opacity="0.15" d="M6.5 22.75C6.5 22.9489 7.07946 23.1397 8.11091 23.2803C9.14236 23.421 10.5413 23.5 12 23.5C13.4587 23.5 14.8576 23.421 15.8891 23.2803C16.9205 23.1397 17.5 22.9489 17.5 22.75C17.5 22.5511 16.9205 22.3603 15.8891 22.2197C14.8576 22.079 13.4587 22 12 22C10.5413 22 9.14236 22.079 8.11091 22.2197C7.07946 22.3603 6.5 22.5511 6.5 22.75Z" fill="#45413C"/>
<path d="M5.01953 13.48C5.01953 15.3312 5.75492 17.1066 7.06393 18.4156C8.37293 19.7246 10.1483 20.46 11.9995 20.46C13.8507 20.46 15.6261 19.7246 16.9351 18.4156C18.2441 17.1066 18.9795 15.3312 18.9795 13.48C18.9795 11.6288 18.2441 9.8534 16.9351 8.54439C15.6261 7.23539 13.8507 6.5 11.9995 6.5C10.1483 6.5 8.37293 7.23539 7.06393 8.54439C5.75492 9.8534 5.01953 11.6288 5.01953 13.48Z" fill="#FFE500"/>
<path d="M12 6.5C10.6155 6.5 9.26216 6.91054 8.11101 7.67971C6.95987 8.44888 6.06266 9.54213 5.53285 10.8212C5.00303 12.1003 4.86441 13.5078 5.13451 14.8656C5.4046 16.2235 6.07129 17.4708 7.05026 18.4497C8.02922 19.4287 9.2765 20.0954 10.6344 20.3655C11.9922 20.6356 13.3997 20.497 14.6788 19.9672C15.9579 19.4373 17.0511 18.5401 17.8203 17.389C18.5895 16.2378 19 14.8845 19 13.5C19 11.6435 18.2625 9.86301 16.9497 8.55025C15.637 7.2375 13.8565 6.5 12 6.5ZM12 19.415C10.7401 19.415 9.50856 19.0414 8.46102 18.3415C7.41348 17.6415 6.59702 16.6467 6.11489 15.4827C5.63276 14.3187 5.50661 13.0379 5.7524 11.8023C5.99819 10.5666 6.60487 9.43159 7.49573 8.54073C8.38659 7.64987 9.52162 7.04319 10.7573 6.7974C11.9929 6.55161 13.2737 6.67776 14.4377 7.15989C15.6017 7.64202 16.5965 8.45848 17.2965 9.50602C17.9964 10.5536 18.37 11.7851 18.37 13.045C18.37 14.7344 17.6989 16.3547 16.5043 17.5493C15.3097 18.7439 13.6894 19.415 12 19.415Z" fill="#EBCB00"/>
<path d="M9.90625 7.9C9.90625 8.03924 10.127 8.17278 10.5199 8.27123C10.9128 8.36969 11.4456 8.425 12.0013 8.425C12.5569 8.425 13.0898 8.36969 13.4826 8.27123C13.8755 8.17278 14.0963 8.03924 14.0963 7.9C14.0963 7.76076 13.8755 7.62723 13.4826 7.52877C13.0898 7.43031 12.5569 7.375 12.0013 7.375C11.4456 7.375 10.9128 7.43031 10.5199 7.52877C10.127 7.62723 9.90625 7.76076 9.90625 7.9Z" fill="#FFF48C"/>
<path d="M5.01953 13.48C5.01953 15.3312 5.75492 17.1066 7.06393 18.4156C8.37293 19.7246 10.1483 20.46 11.9995 20.46C13.8507 20.46 15.6261 19.7246 16.9351 18.4156C18.2441 17.1066 18.9795 15.3312 18.9795 13.48C18.9795 11.6288 18.2441 9.8534 16.9351 8.54439C15.6261 7.23539 13.8507 6.5 11.9995 6.5C10.1483 6.5 8.37293 7.23539 7.06393 8.54439C5.75492 9.8534 5.01953 11.6288 5.01953 13.48V13.48Z" stroke="#45413C" stroke-width="0.5" stroke-linecap="round" stroke-linejoin="round"/>
<path d="M17.0614 15.2266C17.0614 15.5166 16.6714 15.7516 16.1914 15.7516C15.7114 15.7516 15.3164 15.5166 15.3164 15.2266C15.3164 14.9366 15.7064 14.7266 16.1914 14.7266C16.6764 14.7266 17.0614 14.9416 17.0614 15.2266Z" fill="#FFAA54"/>
<path d="M6.94141 15.2266C6.94141 15.5166 7.33141 15.7516 7.81141 15.7516C8.29141 15.7516 8.68641 15.5166 8.68641 15.2266C8.68641 14.9366 8.29641 14.7266 7.81141 14.7266C7.32641 14.7266 6.94141 14.9416 6.94141 15.2266Z" fill="#FFAA54"/>
<path d="M12 0.75C8.415 0.75 5.5 1.69 5.5 2.845C5.5 4 8.41 4.94 12 4.94C15.59 4.94 18.5 4 18.5 2.845C18.5 1.69 15.585 0.75 12 0.75ZM12 3.68C9.455 3.68 7.39 3.305 7.39 2.845C7.39 2.385 9.455 2 12 2C14.545 2 16.61 2.375 16.61 2.84C16.61 3.305 14.545 3.68 12 3.68Z" fill="#FFF48C"/>
<path d="M7.11328 13.9225C7.11328 13.7607 7.17755 13.6056 7.29195 13.4912C7.40634 13.3768 7.5615 13.3125 7.72328 13.3125C7.88506 13.3125 8.04022 13.3768 8.15462 13.4912C8.26901 13.6056 8.33328 13.7607 8.33328 13.9225" stroke="#45413C" stroke-width="0.5" stroke-linecap="round" stroke-linejoin="round"/>
<path d="M15.6641 13.9225C15.6641 13.8424 15.6798 13.7631 15.7105 13.6891C15.7412 13.6151 15.7861 13.5478 15.8427 13.4912C15.8994 13.4345 15.9666 13.3896 16.0406 13.3589C16.1146 13.3283 16.194 13.3125 16.2741 13.3125C16.3542 13.3125 16.4335 13.3283 16.5075 13.3589C16.5815 13.3896 16.6488 13.4345 16.7054 13.4912C16.762 13.5478 16.807 13.6151 16.8376 13.6891C16.8683 13.7631 16.8841 13.8424 16.8841 13.9225" stroke="#45413C" stroke-width="0.5" stroke-linecap="round" stroke-linejoin="round"/>
<path d="M9.88334 16.1719C9.83585 16.1719 9.78893 16.1822 9.74578 16.2021C9.70264 16.2219 9.66428 16.2508 9.63334 16.2869C9.60277 16.3232 9.58028 16.3656 9.56735 16.4113C9.55442 16.457 9.55135 16.5049 9.55834 16.5519C9.64979 17.1333 9.94586 17.6629 10.3932 18.0454C10.8406 18.4279 11.4098 18.6381 11.9983 18.6381C12.5869 18.6381 13.1561 18.4279 13.6035 18.0454C14.0508 17.6629 14.3469 17.1333 14.4383 16.5519C14.4453 16.5049 14.4423 16.457 14.4293 16.4113C14.4164 16.3656 14.3939 16.3232 14.3633 16.2869C14.3324 16.2508 14.294 16.2219 14.2509 16.2021C14.2078 16.1822 14.1608 16.1719 14.1133 16.1719H9.88334Z" fill="#FFB0CA" stroke="#45413C" stroke-width="0.5" stroke-linecap="round" stroke-linejoin="round"/>
<path d="M13.9447 17.6906C13.3458 17.3754 12.6762 17.2188 11.9997 17.2356C11.3231 17.2188 10.6536 17.3754 10.0547 17.6906C10.2846 17.9875 10.5794 18.2278 10.9165 18.3931C11.2537 18.5585 11.6242 18.6444 11.9997 18.6444C12.3752 18.6444 12.7457 18.5585 13.0828 18.3931C13.42 18.2278 13.7148 17.9875 13.9447 17.6906Z" fill="#FF87AF" stroke="#45413C" stroke-width="0.5" stroke-linecap="round" stroke-linejoin="round"/>
<path d="M12.0006 3.67875C9.45563 3.67875 7.39062 3.30375 7.39062 2.84375C7.39062 3.65875 9.45563 4.34375 12.0006 4.34375C14.5456 4.34375 16.6106 3.67875 16.6106 2.84375C16.6106 3.30375 14.5456 3.67875 12.0006 3.67875Z" fill="#FFFACF"/>
<path d="M12.0006 1.35938C9.45563 1.35938 7.39062 2.02438 7.39062 2.85938C7.39062 2.37437 9.45563 1.99437 12.0006 1.99437C14.5456 1.99437 16.6106 2.36937 16.6106 2.83437C16.6106 2.02437 14.5456 1.35938 12.0006 1.35938Z" fill="#FFE500"/>
<path d="M12 0.75C8.415 0.75 5.5 1.69 5.5 2.845C5.5 4 8.41 4.94 12 4.94C15.59 4.94 18.5 4 18.5 2.845C18.5 1.69 15.585 0.75 12 0.75ZM12 3.68C9.455 3.68 7.39 3.305 7.39 2.845C7.39 2.385 9.455 2 12 2C14.545 2 16.61 2.375 16.61 2.84C16.61 3.305 14.545 3.68 12 3.68Z" stroke="#45413C" stroke-width="0.5" stroke-linecap="round" stroke-linejoin="round"/>
</svg>
