<svg width="44" height="44" viewBox="0 0 44 44" fill="none" xmlns="http://www.w3.org/2000/svg">
<path d="M28.1167 8.17338L28.3533 9.16852L28.5848 10.165L28.5829 10.1655C28.5819 10.1657 28.5823 10.1656 28.5829 10.1655" fill="#BD9268"/>
<path d="M28.5829 10.1655C28.0612 10.2977 27.5347 9.96389 27.4046 9.41676C27.2739 8.86716 27.5927 8.31048 28.1167 8.17338" fill="#BD9268"/>
<path d="M28.5848 10.165C28.5899 10.1639 28.6015 10.1613 28.6191 10.1579C28.6543 10.151 28.7126 10.1409 28.7897 10.1319C28.9451 10.1138 29.1685 10.1014 29.4266 10.126C29.9416 10.175 30.558 10.3654 31.0864 10.9184C31.7005 11.5611 31.9926 12.1863 32.1335 12.629C32.2046 12.8521 32.2379 13.0313 32.2535 13.1452C32.2613 13.2021 32.2645 13.2424 32.2659 13.2632L32.2666 13.2775C32.2736 13.8377 32.7087 14.2895 33.2443 14.2895C33.7843 14.2895 34.2221 13.8303 34.2221 13.2638H33.2443C34.2221 13.2638 34.2221 13.2643 34.2221 13.2638L34.2221 13.2595L34.2221 13.2546L34.2219 13.243L34.2212 13.2131C34.2205 13.19 34.2193 13.161 34.217 13.1265C34.2126 13.0573 34.2045 12.9656 34.1893 12.8545C34.159 12.6325 34.1007 12.3318 33.9883 11.979C33.7624 11.2698 33.3209 10.3594 32.4676 9.46631C31.5287 8.48359 30.4333 8.16207 29.6033 8.08309C29.1889 8.04367 28.8314 8.06323 28.5742 8.09314C28.4449 8.10818 28.3389 8.12606 28.2614 8.14119C28.2226 8.14876 28.1907 8.15568 28.1664 8.16126L28.1357 8.16856L28.1247 8.17131L28.1203 8.17244L28.1184 8.17293C28.118 8.17304 28.1167 8.17338 28.3533 9.16852L28.5892 10.1639L28.587 10.1644L28.5848 10.165Z" fill="#BD9268"/>
<path fill-rule="evenodd" clip-rule="evenodd" d="M26.4624 3.20174C28.3035 2.26142 30.805 1.81009 32.8794 2.07498C34.4761 2.27887 35.9066 2.94117 37.1865 3.76514C40.0133 5.58501 41.8735 8.3224 42.9756 11.5045C45.1463 17.7719 43.7505 25.3383 39.892 30.5245C35.3577 36.619 29.0191 39.5944 22.3193 41.9436C22.2388 41.9728 22.1545 41.9911 22.0684 41.9975C22.0141 42.0015 21.96 42.0007 21.9068 41.9953C21.83 41.9875 21.7547 41.9703 21.6826 41.9442C14.9595 39.602 8.63345 36.3876 4.10886 30.3456C0.250029 25.1927 -1.14692 17.6728 1.02487 11.4429C2.12748 8.27999 3.98819 5.56027 6.81424 3.75269C8.09382 2.93426 9.52347 2.2768 11.1187 2.07443C13.1913 1.81149 15.691 2.25948 17.5311 3.19318C18.5335 3.70182 19.8212 4.63441 20.8158 5.39913C21.2764 5.75324 21.6884 6.08258 22.001 6.3366C22.3129 6.08398 22.7237 5.75666 23.1827 5.40453C24.1764 4.64229 25.4617 3.71281 26.4624 3.20174ZM22.4168 8.56896C22.4911 8.53235 22.5615 8.48558 22.6262 8.42886L22.6447 8.41337C22.6666 8.39506 22.6993 8.36773 22.7419 8.33242C22.827 8.26179 22.9512 8.15929 23.1063 8.03314C23.4168 7.78062 23.8492 7.43454 24.3371 7.06031C25.3317 6.29737 26.4916 5.46832 27.3185 5.04602C28.8235 4.27736 30.9458 3.8945 32.643 4.11122C33.8716 4.2681 35.0324 4.78516 36.1636 5.5134C38.5444 7.04616 40.1562 9.37133 41.1376 12.205C43.0605 17.7571 41.8275 24.5889 38.3504 29.2624C34.2487 34.7754 28.4935 37.5921 21.9993 39.8924C15.5303 37.6084 9.75552 34.5653 5.64668 29.0785C2.17185 24.4383 0.940701 17.6572 2.86146 12.1474C3.84183 9.33513 5.4521 7.02647 7.83231 5.50406C8.96317 4.78075 10.1242 4.26682 11.3535 4.11086C13.0515 3.89544 15.1744 4.27601 16.6795 5.03975C17.5041 5.45817 18.6638 6.28782 19.6598 7.05357C20.148 7.42899 20.5809 7.77648 20.8917 8.03012C21.047 8.15681 21.1714 8.25979 21.2566 8.33076C21.2992 8.36623 21.332 8.39368 21.3539 8.41208L21.3725 8.4277C21.437 8.48452 21.5074 8.53142 21.5816 8.56816C21.8425 8.69749 22.1501 8.70108 22.4168 8.56896Z" fill="#BD9268"/>
</svg>
