<svg width="24" height="24" viewBox="0 0 24 24" fill="none" xmlns="http://www.w3.org/2000/svg">
<path opacity="0.15" d="M5.24219 22.75C5.24219 22.8485 5.41678 22.946 5.756 23.037C6.09522 23.128 6.59242 23.2107 7.21922 23.2803C7.84601 23.35 8.59013 23.4052 9.40907 23.4429C10.228 23.4806 11.1058 23.5 11.9922 23.5C12.8786 23.5 13.7564 23.4806 14.5753 23.4429C15.3942 23.4052 16.1384 23.35 16.7652 23.2803C17.392 23.2107 17.8892 23.128 18.2284 23.037C18.5676 22.946 18.7422 22.8485 18.7422 22.75C18.7422 22.6515 18.5676 22.554 18.2284 22.463C17.8892 22.372 17.392 22.2893 16.7652 22.2197C16.1384 22.15 15.3942 22.0948 14.5753 22.0571C13.7564 22.0194 12.8786 22 11.9922 22C11.1058 22 10.228 22.0194 9.40907 22.0571C8.59013 22.0948 7.84601 22.15 7.21922 22.2197C6.59242 22.2893 6.09522 22.372 5.756 22.463C5.41678 22.554 5.24219 22.6515 5.24219 22.75Z" fill="#45413C"/>
<path d="M12.0005 13.5859C11.8333 13.5859 11.6677 13.619 11.5133 13.6831C11.3589 13.7472 11.2187 13.8412 11.1007 13.9597C10.9827 14.0781 10.8892 14.2187 10.8257 14.3734C10.7622 14.5281 10.7298 14.6937 10.7305 14.8609V16.2859C10.7305 16.9859 12.0005 18.0809 12.0005 18.0809C12.0005 18.0809 13.2705 16.9859 13.2705 16.2859V14.8609C13.2711 14.6937 13.2388 14.5281 13.1752 14.3734C13.1117 14.2187 13.0183 14.0781 12.9003 13.9597C12.7823 13.8412 12.6421 13.7472 12.4876 13.6831C12.3332 13.619 12.1677 13.5859 12.0005 13.5859Z" fill="#FFCEBF"/>
<path d="M12.0005 13.5859C11.6636 13.5859 11.3406 13.7197 11.1024 13.9579C10.8643 14.1961 10.7305 14.5191 10.7305 14.8559V15.1559C10.7305 15.4928 10.8643 15.8158 11.1024 16.054C11.3406 16.2921 11.6636 16.4259 12.0005 16.4259C12.3373 16.4259 12.6603 16.2921 12.8985 16.054C13.1367 15.8158 13.2705 15.4928 13.2705 15.1559V14.8609C13.2711 14.6937 13.2388 14.5281 13.1752 14.3734C13.1117 14.2187 13.0183 14.0781 12.9003 13.9597C12.7823 13.8412 12.642 13.7472 12.4876 13.6831C12.3332 13.619 12.1677 13.5859 12.0005 13.5859Z" fill="#FFB59E"/>
<path d="M12.0005 13.5859C11.8333 13.5859 11.6677 13.619 11.5133 13.6831C11.3589 13.7472 11.2187 13.8412 11.1007 13.9597C10.9827 14.0781 10.8892 14.2187 10.8257 14.3734C10.7622 14.5281 10.7298 14.6937 10.7305 14.8609V16.2859C10.7305 16.9859 12.0005 18.0809 12.0005 18.0809C12.0005 18.0809 13.2705 16.9859 13.2705 16.2859V14.8609C13.2711 14.6937 13.2388 14.5281 13.1752 14.3734C13.1117 14.2187 13.0183 14.0781 12.9003 13.9597C12.7823 13.8412 12.6421 13.7472 12.4876 13.6831C12.3332 13.619 12.1677 13.5859 12.0005 13.5859V13.5859Z" stroke="#45413C" stroke-width="0.5" stroke-linecap="round" stroke-linejoin="round"/>
<path d="M15.7697 16.42L11.9997 15L8.22969 16.435C7.59041 16.6789 7.04023 17.1111 6.65187 17.6745C6.26351 18.2378 6.05528 18.9058 6.05469 19.59V22.5H17.9447V19.575C17.9441 18.8908 17.7359 18.2228 17.3475 17.6595C16.9591 17.0961 16.409 16.6639 15.7697 16.42Z" fill="#656769"/>
<path d="M15.7697 16.42L11.9997 15L8.22969 16.435C7.59041 16.6789 7.04023 17.1111 6.65187 17.6745C6.26351 18.2378 6.05528 18.9058 6.05469 19.59V21.09C6.05528 20.4058 6.26351 19.7378 6.65187 19.1745C7.04023 18.6111 7.59041 18.1789 8.22969 17.935L11.9997 16.5L15.7697 17.935C16.409 18.1789 16.9591 18.6111 17.3475 19.1745C17.7359 19.7378 17.9441 20.4058 17.9447 21.09V19.59C17.9471 18.9032 17.7403 18.232 17.3518 17.6657C16.9632 17.0994 16.4114 16.6648 15.7697 16.42Z" fill="#525252"/>
<path d="M15.7697 16.42L11.9997 15L8.22969 16.435C7.59041 16.6789 7.04023 17.1111 6.65187 17.6745C6.26351 18.2378 6.05528 18.9058 6.05469 19.59V22.5H17.9447V19.575C17.9441 18.8908 17.7359 18.2228 17.3475 17.6595C16.9591 17.0961 16.409 16.6639 15.7697 16.42V16.42Z" stroke="#45413C" stroke-width="0.5" stroke-linecap="round" stroke-linejoin="round"/>
<path d="M8.71563 16.2378L7.76562 18.4228L8.98062 18.8928L8.23062 19.5478L9.48062 22.5028H10.6406L9.31562 16.0078L8.71563 16.2378Z" fill="#525252" stroke="#45413C" stroke-width="0.5" stroke-linecap="round" stroke-linejoin="round"/>
<path d="M15.2844 16.2378L16.2344 18.4228L15.0194 18.8928L15.7694 19.5478L14.5194 22.5028H13.3594L14.6844 16.0078L15.2844 16.2378Z" fill="#525252" stroke="#45413C" stroke-width="0.5" stroke-linecap="round" stroke-linejoin="round"/>
<path d="M12.0014 14.9844L9.31641 16.0044L10.6414 22.4994H13.3614L14.6864 16.0044L12.0014 14.9844Z" fill="white" stroke="#45413C" stroke-width="0.5" stroke-linecap="round" stroke-linejoin="round"/>
<path d="M11.9998 3.45312C11.5883 3.45351 11.1784 3.50558 10.7798 3.60812C9.84984 3.81812 8.63985 4.16813 7.54485 3.95813C7.50218 4.24015 7.51742 4.52791 7.58963 4.80386C7.66184 5.0798 7.78951 5.33815 7.96485 5.56313C7.39437 6.38534 7.08905 7.36238 7.08985 8.36312V10.9331H16.9098V8.36312C16.9098 7.06091 16.3925 5.81203 15.4717 4.89123C14.5509 3.97043 13.3021 3.45312 11.9998 3.45312Z" fill="#A86C4D"/>
<path d="M12.0007 3.45312C11.5892 3.45351 11.1793 3.50558 10.7807 3.60812C9.85074 3.81812 8.64074 4.16813 7.54574 3.95813C7.47804 4.4826 7.59851 5.0141 7.88574 5.45813C8.86514 5.47339 9.84121 5.34021 10.7807 5.06313C11.5059 4.87608 12.2644 4.85759 12.9978 5.00907C13.7313 5.16055 14.4203 5.47797 15.0121 5.93701C15.6039 6.39604 16.0827 6.9845 16.4118 7.65725C16.7409 8.33 16.9116 9.06919 16.9107 9.81812V8.36312C16.9107 7.06091 16.3934 5.81203 15.4726 4.89123C14.5518 3.97043 13.3029 3.45312 12.0007 3.45312Z" fill="#DE926A"/>
<path d="M11.9998 3.45312C11.5883 3.45351 11.1784 3.50558 10.7798 3.60812C9.84984 3.81812 8.63985 4.16813 7.54485 3.95813C7.50218 4.24015 7.51742 4.52791 7.58963 4.80386C7.66184 5.0798 7.78951 5.33815 7.96485 5.56313C7.39437 6.38534 7.08905 7.36238 7.08985 8.36312V10.9331H16.9098V8.36312C16.9098 7.06091 16.3925 5.81203 15.4717 4.89123C14.5509 3.97043 13.3021 3.45312 11.9998 3.45312V3.45312Z" stroke="#45413C" stroke-width="0.5" stroke-linecap="round" stroke-linejoin="round"/>
<path d="M17.4347 10.5563C17.4104 10.3726 17.3309 10.2007 17.2068 10.0633C17.0827 9.92577 16.9199 9.82918 16.7397 9.78625L16.4447 9.70625C16.2273 9.64486 16.0362 9.51372 15.9007 9.33303C15.7651 9.15234 15.6928 8.93211 15.6947 8.70625V7.68625C15.6941 7.48006 15.6258 7.27977 15.5002 7.11623C15.3746 6.9527 15.1988 6.83499 14.9997 6.78125C14.0462 7.16186 13.0261 7.34719 11.9997 7.32625C10.9733 7.34719 9.95314 7.16186 8.99969 6.78125C8.79969 6.83406 8.6227 6.95137 8.49614 7.11499C8.36959 7.27861 8.30054 7.4794 8.29969 7.68625V8.71625C8.30161 8.94211 8.22925 9.16234 8.09373 9.34303C7.95821 9.52372 7.76705 9.65486 7.54969 9.71625L7.25469 9.79625C7.07453 9.83918 6.91163 9.93577 6.78754 10.0733C6.66345 10.2107 6.58399 10.3826 6.55969 10.5662C6.54633 10.6928 6.55981 10.8208 6.59927 10.9418C6.63873 11.0628 6.70327 11.1742 6.78868 11.2685C6.87409 11.3629 6.97844 11.4382 7.09493 11.4895C7.21141 11.5408 7.33741 11.567 7.46469 11.5662H7.51969C7.63668 12.6715 8.15859 13.6944 8.98484 14.4378C9.81109 15.1812 10.8832 15.5926 11.9947 15.5926C13.1062 15.5926 14.1783 15.1812 15.0045 14.4378C15.8308 13.6944 16.3527 12.6715 16.4697 11.5662H16.5247C16.6533 11.5678 16.7808 11.542 16.8987 11.4904C17.0165 11.4388 17.122 11.3627 17.2082 11.2671C17.2943 11.1715 17.359 11.0587 17.3981 10.9361C17.4371 10.8135 17.4496 10.684 17.4347 10.5563Z" fill="#FFCEBF" stroke="#45413C" stroke-width="0.5" stroke-linecap="round" stroke-linejoin="round"/>
<path d="M9.28519 10.4553C9.28519 10.5315 9.30777 10.6059 9.35007 10.6692C9.39238 10.7326 9.45251 10.7819 9.52286 10.811C9.59321 10.8402 9.67062 10.8478 9.7453 10.8329C9.81998 10.8181 9.88858 10.7814 9.94243 10.7276C9.99627 10.6737 10.0329 10.6051 10.0478 10.5305C10.0626 10.4558 10.055 10.3784 10.0259 10.308C9.99674 10.2377 9.9474 10.1775 9.88408 10.1352C9.82077 10.0929 9.74634 10.0703 9.67019 10.0703C9.61944 10.0697 9.56908 10.0792 9.52207 10.0983C9.47505 10.1174 9.43234 10.1457 9.39646 10.1816C9.36057 10.2175 9.33224 10.2602 9.31313 10.3072C9.29402 10.3542 9.28452 10.4046 9.28519 10.4553Z" fill="#45413C" stroke="#45413C" stroke-width="0.5" stroke-linecap="round" stroke-linejoin="round"/>
<path d="M14.7153 10.4553C14.7153 10.5315 14.6927 10.6059 14.6504 10.6692C14.6081 10.7326 14.548 10.7819 14.4776 10.811C14.4073 10.8402 14.3299 10.8478 14.2552 10.8329C14.1805 10.8181 14.1119 10.7814 14.0581 10.7276C14.0042 10.6737 13.9676 10.6051 13.9527 10.5305C13.9379 10.4558 13.9455 10.3784 13.9746 10.308C14.0038 10.2377 14.0531 10.1775 14.1164 10.1352C14.1797 10.0929 14.2542 10.0703 14.3303 10.0703C14.3811 10.0697 14.4314 10.0792 14.4784 10.0983C14.5255 10.1174 14.5682 10.1457 14.604 10.1816C14.6399 10.2175 14.6683 10.2602 14.6874 10.3072C14.7065 10.3542 14.716 10.4046 14.7153 10.4553Z" fill="#45413C" stroke="#45413C" stroke-width="0.5" stroke-linecap="round" stroke-linejoin="round"/>
<path d="M10.5813 12.7969C10.5495 12.7969 10.5182 12.8041 10.4896 12.8179C10.461 12.8318 10.436 12.8519 10.4163 12.8769C10.3954 12.9004 10.38 12.9284 10.3714 12.9587C10.3627 12.989 10.361 13.0208 10.3663 13.0519C10.4338 13.4365 10.6348 13.785 10.9338 14.0361C11.2328 14.2872 11.6108 14.4249 12.0013 14.4249C12.3918 14.4249 12.7698 14.2872 13.0688 14.0361C13.3679 13.785 13.5688 13.4365 13.6363 13.0519C13.6416 13.0208 13.6399 12.989 13.6312 12.9587C13.6226 12.9284 13.6072 12.9004 13.5863 12.8769C13.5662 12.8525 13.541 12.8327 13.5125 12.8189C13.4841 12.8051 13.4529 12.7976 13.4213 12.7969H10.5813Z" fill="#FF6242"/>
<path d="M12.0022 13.5015C11.5508 13.4839 11.1066 13.6196 10.7422 13.8865C10.8997 14.062 11.0925 14.2023 11.3078 14.2984C11.5232 14.3944 11.7564 14.4441 11.9922 14.4441C12.228 14.4441 12.4612 14.3944 12.6765 14.2984C12.8919 14.2023 13.0846 14.062 13.2422 13.8865C12.8832 13.6239 12.4468 13.4884 12.0022 13.5015Z" fill="#FFA694"/>
<path d="M10.5813 12.7969C10.5495 12.7969 10.5182 12.8041 10.4896 12.8179C10.461 12.8318 10.436 12.8519 10.4163 12.8769C10.3954 12.9004 10.38 12.9284 10.3714 12.9587C10.3627 12.989 10.361 13.0208 10.3663 13.0519C10.4338 13.4365 10.6348 13.785 10.9338 14.0361C11.2328 14.2872 11.6108 14.4249 12.0013 14.4249C12.3918 14.4249 12.7698 14.2872 13.0688 14.0361C13.3679 13.785 13.5688 13.4365 13.6363 13.0519C13.6416 13.0208 13.6399 12.989 13.6312 12.9587C13.6226 12.9284 13.6072 12.9004 13.5863 12.8769C13.5662 12.8525 13.541 12.8327 13.5125 12.8189C13.4841 12.8051 13.4529 12.7976 13.4213 12.7969H10.5813Z" stroke="#45413C" stroke-width="0.5" stroke-linecap="round" stroke-linejoin="round"/>
<path d="M8.53125 12.0969C8.53125 12.1764 8.58393 12.2527 8.6777 12.309C8.77147 12.3653 8.89864 12.3969 9.03125 12.3969C9.16386 12.3969 9.29104 12.3653 9.3848 12.309C9.47857 12.2527 9.53125 12.1764 9.53125 12.0969C9.53125 12.0173 9.47857 11.941 9.3848 11.8847C9.29104 11.8285 9.16386 11.7969 9.03125 11.7969C8.89864 11.7969 8.77147 11.8285 8.6777 11.8847C8.58393 11.941 8.53125 12.0173 8.53125 12.0969Z" fill="#FFB59E"/>
<path d="M14.4688 12.0969C14.4688 12.1764 14.5214 12.2527 14.6152 12.309C14.709 12.3653 14.8361 12.3969 14.9688 12.3969C15.1014 12.3969 15.2285 12.3653 15.3223 12.309C15.4161 12.2527 15.4688 12.1764 15.4688 12.0969C15.4688 12.0173 15.4161 11.941 15.3223 11.8847C15.2285 11.8285 15.1014 11.7969 14.9688 11.7969C14.8361 11.7969 14.709 11.8285 14.6152 11.8847C14.5214 11.941 14.4688 12.0173 14.4688 12.0969Z" fill="#FFB59E"/>
<path d="M10.5469 15.2266H13.4519V19.2916H10.5469V15.2266Z" fill="#DAEDF7"/>
<path d="M12.6019 15.2266H11.4019C11.176 15.2266 10.9593 15.316 10.7991 15.4752C10.6389 15.6345 10.5482 15.8507 10.5469 16.0766V16.9366C10.5482 16.7107 10.6389 16.4945 10.7991 16.3352C10.9593 16.176 11.176 16.0866 11.4019 16.0866H12.6019C12.8278 16.0866 13.0445 16.176 13.2047 16.3352C13.3649 16.4945 13.4556 16.7107 13.4569 16.9366V16.0766C13.4556 15.8507 13.3649 15.6345 13.2047 15.4752C13.0445 15.316 12.8278 15.2266 12.6019 15.2266Z" fill="#E8F4FA"/>
<path d="M10.5469 15.2266H13.4519V19.2916H10.5469V15.2266Z" stroke="#45413C" stroke-width="0.5" stroke-linecap="round" stroke-linejoin="round"/>
<path d="M12.6602 16.3203H13.4552" stroke="#45413C" stroke-width="0.5" stroke-linecap="round" stroke-linejoin="round"/>
<path d="M12.6602 17.2578H13.4552" stroke="#45413C" stroke-width="0.5" stroke-linecap="round" stroke-linejoin="round"/>
<path d="M12.6602 18.1953H13.4552" stroke="#45413C" stroke-width="0.5" stroke-linecap="round" stroke-linejoin="round"/>
<path d="M10.5469 16.3203H11.3419" stroke="#45413C" stroke-width="0.5" stroke-linecap="round" stroke-linejoin="round"/>
<path d="M10.5469 17.2578H11.3419" stroke="#45413C" stroke-width="0.5" stroke-linecap="round" stroke-linejoin="round"/>
<path d="M10.5469 18.1953H11.3419" stroke="#45413C" stroke-width="0.5" stroke-linecap="round" stroke-linejoin="round"/>
<path d="M11.0859 19.2812H12.9209V19.8312C12.9209 19.9214 12.8851 20.0079 12.8214 20.0717C12.7576 20.1354 12.6711 20.1712 12.5809 20.1712H11.4259C11.3358 20.1712 11.2493 20.1354 11.1855 20.0717C11.1218 20.0079 11.0859 19.9214 11.0859 19.8312V19.2812Z" fill="#C0DCEB" stroke="#45413C" stroke-width="0.5" stroke-linecap="round" stroke-linejoin="round"/>
<path d="M11.5352 20.1797H12.4652V22.4997H11.5352V20.1797Z" fill="#87898C" stroke="#45413C" stroke-width="0.5" stroke-linecap="round" stroke-linejoin="round"/>
<path d="M19.0695 15.1713C19.0714 15.3002 19.035 15.4269 18.9648 15.5351C18.8946 15.6433 18.7938 15.7281 18.6752 15.7789C18.5566 15.8296 18.4256 15.8439 18.2989 15.82C18.1721 15.796 18.0554 15.7349 17.9635 15.6444C17.8716 15.5539 17.8087 15.4381 17.7828 15.3118C17.7569 15.1854 17.7691 15.0542 17.818 14.9349C17.8669 14.8155 17.9502 14.7134 18.0573 14.6415C18.1644 14.5697 18.2905 14.5313 18.4195 14.5313C18.5901 14.5312 18.754 14.5983 18.8756 14.7181C18.9972 14.8378 19.0668 15.0006 19.0695 15.1713Z" stroke="#48CF3E" stroke-width="0.5" stroke-linecap="round" stroke-linejoin="round"/>
<path d="M22.305 14.4989C22.305 14.672 22.2363 14.8379 22.1139 14.9603C21.9915 15.0827 21.8256 15.1514 21.6525 15.1514C21.4795 15.1514 21.3135 15.0827 21.1911 14.9603C21.0688 14.8379 21 14.672 21 14.4989C20.9994 14.4136 21.0155 14.3289 21.0476 14.2498C21.0796 14.1707 21.127 14.0987 21.1869 14.0378C21.2468 13.977 21.318 13.9286 21.3967 13.8953C21.4753 13.862 21.5597 13.8446 21.645 13.8439C21.7318 13.8419 21.8181 13.8574 21.8988 13.8895C21.9795 13.9217 22.0528 13.9698 22.1144 14.0309C22.1761 14.0921 22.2247 14.1651 22.2575 14.2455C22.2902 14.3259 22.3064 14.4121 22.305 14.4989Z" stroke="#48CF3E" stroke-width="0.5" stroke-linecap="round" stroke-linejoin="round"/>
<path d="M19.0708 15.1697L19.0508 12.2547L22.2808 10.9297L22.3108 14.4997" stroke="#48CF3E" stroke-width="0.5" stroke-linecap="round" stroke-linejoin="round"/>
<path d="M3.08525 11.9663C3.08723 12.1287 3.04095 12.288 2.95228 12.424C2.86361 12.5601 2.73654 12.6667 2.58718 12.7305C2.43783 12.7942 2.2729 12.8122 2.11333 12.7821C1.95375 12.752 1.8067 12.6752 1.69083 12.5614C1.57495 12.4476 1.49547 12.302 1.46244 12.143C1.42942 11.984 1.44436 11.8188 1.50535 11.6683C1.56634 11.5178 1.67064 11.3888 1.80504 11.2977C1.93943 11.2065 2.09786 11.1573 2.26025 11.1563C2.3677 11.155 2.47435 11.1749 2.57406 11.215C2.67377 11.255 2.76457 11.3144 2.84125 11.3897C2.91792 11.465 2.97896 11.5547 3.02083 11.6536C3.06271 11.7526 3.0846 11.8589 3.08525 11.9663V11.9663Z" stroke="#FF4064" stroke-width="0.5" stroke-linecap="round" stroke-linejoin="round"/>
<path d="M3.08469 11.9663L3.05469 8.28125L4.28969 9.09125" stroke="#FF4064" stroke-width="0.5" stroke-linecap="round" stroke-linejoin="round"/>
<path d="M18.5886 4.66125C18.5893 4.7453 18.5734 4.82865 18.5418 4.90655C18.5102 4.98445 18.4636 5.05537 18.4047 5.11527C18.3457 5.17516 18.2755 5.22286 18.1981 5.25562C18.1207 5.28839 18.0376 5.3056 17.9536 5.30625C17.7846 5.30499 17.6228 5.238 17.5024 5.11946C17.382 5.00093 17.3125 4.84017 17.3086 4.67125C17.3086 4.50151 17.376 4.33872 17.496 4.2187C17.6161 4.09868 17.7789 4.03125 17.9486 4.03125C18.1183 4.03125 18.2811 4.09868 18.4011 4.2187C18.5212 4.33872 18.5886 4.50151 18.5886 4.67125V4.66125Z" stroke="#FFB700" stroke-width="0.5" stroke-linecap="round" stroke-linejoin="round"/>
<path d="M18.5903 4.66125L18.5703 1.78125L19.5353 2.41125" stroke="#FFB700" stroke-width="0.5" stroke-linecap="round" stroke-linejoin="round"/>
</svg>
