<svg width="24" height="24" viewBox="0 0 24 24" fill="none" xmlns="http://www.w3.org/2000/svg">
	<path fill-rule="evenodd" clip-rule="evenodd" d="M6.51254 8.34615C6.30434 8.54881 5.96679 8.54881 5.7586 8.34615C5.55041 8.14348 5.55041 7.8149 5.7586 7.61223L10.8689 2.63764C11.4935 2.02964 12.5061 2.02964 13.1307 2.63764L18.241 7.61223C18.4492 7.8149 18.4492 8.14348 18.241 8.34615C18.0329 8.54881 17.6953 8.54881 17.4871 8.34615L12.5329 3.52355V15.5905C12.5329 15.8771 12.2943 16.1095 11.9998 16.1095C11.7054 16.1095 11.4667 15.8771 11.4667 15.5905V3.52355L6.51254 8.34615Z" fill="#BD9268" />
	<path fill-rule="evenodd" clip-rule="evenodd" d="M2.71475 14.1202C3.00919 14.1202 3.24787 14.3525 3.24787 14.6391V17.9777C3.24787 18.5676 3.24828 18.9788 3.27515 19.2989C3.30151 19.6129 3.35065 19.7934 3.42219 19.93C3.57552 20.223 3.82019 20.4611 4.12112 20.6104C4.26152 20.68 4.44688 20.7279 4.7695 20.7535C5.09835 20.7797 5.52074 20.7801 6.12668 20.7801H17.873C18.4789 20.7801 18.9013 20.7797 19.2301 20.7535C19.5528 20.7279 19.7381 20.68 19.8785 20.6104C20.1795 20.4611 20.4241 20.223 20.5775 19.93C20.649 19.7934 20.6981 19.6129 20.7245 19.2989C20.7514 18.9788 20.7518 18.5676 20.7518 17.9777V14.6391C20.7518 14.3525 20.9905 14.1202 21.2849 14.1202C21.5793 14.1202 21.818 14.3525 21.818 14.6391V18C21.818 18.5624 21.818 19.016 21.7872 19.3834C21.7554 19.7616 21.6884 20.0939 21.5275 20.4012C21.2719 20.8895 20.8641 21.2864 20.3626 21.5352C20.0468 21.6918 19.7055 21.7571 19.317 21.788C18.9396 21.818 18.4736 21.818 17.8958 21.818H6.10388C5.52609 21.818 5.06006 21.818 4.68268 21.788C4.29412 21.7571 3.95283 21.6918 3.63707 21.5352C3.13551 21.2864 2.72773 20.8895 2.47217 20.4012C2.31128 20.0939 2.24421 19.7616 2.21246 19.3834C2.18163 19.016 2.18164 18.5624 2.18164 17.9999L2.18164 14.6391C2.18164 14.3525 2.42032 14.1202 2.71475 14.1202Z" fill="#BD9268" />
</svg>
