<svg width="24" height="24" viewBox="0 0 24 24" fill="none" xmlns="http://www.w3.org/2000/svg">
<g clip-path="url(#clip0_8096_8148)">
<path opacity="0.15" d="M7 22.9844C7 23.1833 7.52678 23.3741 8.46447 23.5147C9.40215 23.6554 10.6739 23.7344 12 23.7344C13.3261 23.7344 14.5979 23.6554 15.5355 23.5147C16.4732 23.3741 17 23.1833 17 22.9844C17 22.7855 16.4732 22.5947 15.5355 22.454C14.5979 22.3134 13.3261 22.2344 12 22.2344C10.6739 22.2344 9.40215 22.3134 8.46447 22.454C7.52678 22.5947 7 22.7855 7 22.9844Z" fill="#45413C"/>
<path d="M11.2836 5.49994C11.38 5.72324 11.4309 5.96346 11.4336 6.20664C11.4363 6.44982 11.3906 6.6911 11.2992 6.91646C11.2078 7.14182 11.0725 7.34677 10.9012 7.51938C10.7299 7.69199 10.5259 7.82883 10.3013 7.92195C10.0766 8.01506 9.8357 8.06258 9.59251 8.06176C9.34932 8.06094 9.10871 8.01178 8.88469 7.91715C8.66066 7.82252 8.45768 7.68431 8.28754 7.51054C8.11741 7.33677 7.98351 7.13091 7.89363 6.90494C7.58863 6.16494 7.61863 3.24994 7.64363 2.05494C7.64327 2.01018 7.65627 1.96632 7.68097 1.92899C7.70566 1.89165 7.74094 1.86253 7.78228 1.84535C7.82361 1.82817 7.86914 1.82372 7.91302 1.83255C7.9569 1.84138 7.99716 1.86311 8.02863 1.89494C8.89363 2.69994 10.9986 4.73994 11.2836 5.49994Z" fill="#FFE500"/>
<path d="M6.88541 7.88972C7.12368 7.96918 7.3431 8.0967 7.53009 8.2644C7.71708 8.43209 7.86765 8.63639 7.97247 8.86464C8.0773 9.09289 8.13415 9.34022 8.13951 9.59134C8.14487 9.84245 8.09862 10.092 8.00363 10.3245C7.90863 10.557 7.76692 10.7675 7.58726 10.9431C7.40759 11.1186 7.19381 11.2554 6.95915 11.3449C6.72448 11.4345 6.47393 11.4749 6.22301 11.4637C5.9721 11.4524 5.72615 11.3898 5.50041 11.2797C4.74041 10.9947 2.70041 8.88972 1.87541 8.02472C1.84357 7.99325 1.82185 7.953 1.81302 7.90911C1.80418 7.86523 1.80864 7.81971 1.82582 7.77837C1.843 7.73703 1.87212 7.70176 1.90946 7.67706C1.94679 7.65236 1.99064 7.63936 2.03541 7.63972C3.23041 7.61472 6.14541 7.58472 6.88541 7.88972Z" fill="#FFE500"/>
<path d="M5.49994 12.7126C5.72324 12.6163 5.96346 12.5653 6.20664 12.5626C6.44982 12.5599 6.6911 12.6056 6.91646 12.697C7.14182 12.7884 7.34677 12.9237 7.51938 13.095C7.69199 13.2664 7.82883 13.4703 7.92195 13.6949C8.01506 13.9196 8.06258 14.1605 8.06176 14.4037C8.06094 14.6469 8.01178 14.8875 7.91715 15.1115C7.82252 15.3356 7.68431 15.5385 7.51054 15.7087C7.33677 15.8788 7.13091 16.0127 6.90494 16.1026C6.16494 16.4076 3.24994 16.3776 2.05494 16.3526C2.01018 16.3529 1.96632 16.3399 1.92899 16.3152C1.89165 16.2905 1.86253 16.2553 1.84535 16.2139C1.82817 16.1726 1.82372 16.1271 1.83255 16.0832C1.84138 16.0393 1.86311 15.9991 1.89494 15.9676C2.69994 15.1026 4.73994 12.9976 5.49994 12.7126Z" fill="#FFE500"/>
<path d="M7.89363 17.1139C7.97308 16.8756 8.10061 16.6562 8.2683 16.4692C8.436 16.2822 8.6403 16.1317 8.86855 16.0268C9.09679 15.922 9.34413 15.8652 9.59524 15.8598C9.84636 15.8544 10.0959 15.9007 10.3284 15.9957C10.5609 16.0907 10.7715 16.2324 10.947 16.412C11.1225 16.5917 11.2593 16.8055 11.3488 17.0402C11.4384 17.2748 11.4788 17.5254 11.4676 17.7763C11.4564 18.0272 11.3937 18.2732 11.2836 18.4989C10.9786 19.2389 8.89363 21.2789 8.02863 22.1039C7.99716 22.1357 7.9569 22.1575 7.91302 22.1663C7.86914 22.1751 7.82361 22.1707 7.78228 22.1535C7.74094 22.1363 7.70566 22.1072 7.68097 22.0699C7.65627 22.0325 7.64327 21.9887 7.64363 21.9439C7.61863 20.7689 7.58863 17.8539 7.89363 17.1139Z" fill="#FFE500"/>
<path d="M12.7126 18.4993C12.6163 18.276 12.5653 18.0358 12.5626 17.7926C12.5599 17.5495 12.6056 17.3082 12.697 17.0828C12.7884 16.8575 12.9237 16.6525 13.095 16.4799C13.2664 16.3073 13.4703 16.1704 13.6949 16.0773C13.9196 15.9842 14.1605 15.9367 14.4037 15.9375C14.6469 15.9383 14.8875 15.9875 15.1115 16.0821C15.3356 16.1767 15.5385 16.315 15.7087 16.4887C15.8788 16.6625 16.0127 16.8684 16.1026 17.0943C16.4076 17.8343 16.3776 20.7493 16.3526 21.9443C16.3529 21.9891 16.3399 22.033 16.3152 22.0703C16.2905 22.1076 16.2553 22.1367 16.2139 22.1539C16.1726 22.1711 16.1271 22.1756 16.0832 22.1667C16.0393 22.1579 15.9991 22.1362 15.9676 22.1043C15.1026 21.2993 12.9976 19.2593 12.7126 18.4993Z" fill="#FFE500"/>
<path d="M17.1139 16.0992C16.8756 16.0198 16.6562 15.8922 16.4692 15.7245C16.2822 15.5568 16.1317 15.3525 16.0268 15.1243C15.922 14.896 15.8652 14.6487 15.8598 14.3976C15.8544 14.1465 15.9007 13.8969 15.9957 13.6644C16.0907 13.4319 16.2324 13.2214 16.412 13.0459C16.5917 12.8703 16.8055 12.7336 17.0402 12.644C17.2748 12.5545 17.5254 12.5141 17.7763 12.5253C18.0272 12.5365 18.2732 12.5991 18.4989 12.7092C19.2389 13.0142 21.2789 15.0992 22.1039 15.9642C22.1357 15.9957 22.1575 16.0359 22.1663 16.0798C22.1751 16.1237 22.1707 16.1692 22.1535 16.2106C22.1363 16.2519 22.1072 16.2872 22.0699 16.3119C22.0325 16.3366 21.9887 16.3496 21.9439 16.3492C20.7689 16.3742 17.8539 16.4042 17.1139 16.0992Z" fill="#FFE500"/>
<path d="M18.4993 11.2797C18.276 11.376 18.0358 11.427 17.7926 11.4297C17.5495 11.4324 17.3082 11.3867 17.0828 11.2953C16.8575 11.2039 16.6525 11.0686 16.4799 10.8973C16.3073 10.726 16.1704 10.522 16.0773 10.2974C15.9842 10.0727 15.9367 9.83179 15.9375 9.5886C15.9383 9.34541 15.9875 9.10481 16.0821 8.88078C16.1767 8.65676 16.315 8.45377 16.4887 8.28364C16.6625 8.1135 16.8684 7.9796 17.0943 7.88972C17.8343 7.58472 20.7493 7.61472 21.9443 7.63972C21.9891 7.63936 22.033 7.65236 22.0703 7.67706C22.1076 7.70176 22.1367 7.73703 22.1539 7.77837C22.1711 7.81971 22.1756 7.86523 22.1667 7.90911C22.1579 7.953 22.1362 7.99325 22.1043 8.02472C21.2993 8.88972 19.2593 10.9947 18.4993 11.2797Z" fill="#FFE500"/>
<path d="M16.1031 6.8815C16.0237 7.11977 15.8961 7.3392 15.7284 7.52618C15.5607 7.71317 15.3564 7.86374 15.1282 7.96857C14.8999 8.07339 14.6526 8.13025 14.4015 8.13561C14.1504 8.14097 13.9008 8.09472 13.6683 7.99972C13.4358 7.90473 13.2253 7.76301 13.0498 7.58335C12.8742 7.40369 12.7375 7.18991 12.6479 6.95524C12.5584 6.72058 12.518 6.47003 12.5292 6.21911C12.5404 5.96819 12.603 5.72224 12.7131 5.4965C12.9981 4.7365 15.1031 2.6965 15.9681 1.8715C15.9996 1.83967 16.0398 1.81794 16.0837 1.80911C16.1276 1.80028 16.1731 1.80474 16.2145 1.82192C16.2558 1.83909 16.2911 1.86821 16.3158 1.90555C16.3405 1.94288 16.3535 1.98674 16.3531 2.0315C16.3781 3.2265 16.4081 6.1415 16.1031 6.8815Z" fill="#FFE500"/>
<path d="M10.2938 7.88063C10.5173 7.78907 10.7206 7.65429 10.8919 7.484C11.0632 7.31371 11.1992 7.11127 11.2921 6.88829C11.385 6.66531 11.433 6.42618 11.4333 6.18462C11.4336 5.94306 11.3861 5.70382 11.2938 5.48063C11.1593 5.2213 10.9912 4.98089 10.7938 4.76562C9.68368 4.94619 8.6309 5.38272 7.71875 6.04063C7.7374 6.32819 7.79285 6.61217 7.88375 6.88563C7.97627 7.10951 8.11208 7.31292 8.28341 7.48419C8.45473 7.65546 8.65819 7.79121 8.8821 7.88366C9.10601 7.9761 9.34598 8.02342 9.58823 8.0229C9.83047 8.02238 10.0702 7.97403 10.2938 7.88063Z" fill="#EBCB00"/>
<path d="M7.87781 10.2866C8.06148 9.83624 8.0594 9.33151 7.87201 8.88272C7.68462 8.43392 7.32718 8.07757 6.87781 7.89156C6.60436 7.80066 6.32037 7.74521 6.03281 7.72656C5.3749 8.63871 4.93838 9.6915 4.75781 10.8016C4.97308 10.999 5.21349 11.1671 5.47281 11.3016C5.6972 11.3943 5.93777 11.4416 6.18057 11.4407C6.42338 11.4398 6.66359 11.3907 6.88729 11.2963C7.11099 11.2019 7.31373 11.0641 7.48376 10.8907C7.65379 10.7174 7.78772 10.512 7.87781 10.2866Z" fill="#EBCB00"/>
<path d="M7.88063 13.702C7.78907 13.4785 7.65429 13.2752 7.484 13.1039C7.31371 12.9326 7.11127 12.7966 6.88829 12.7037C6.66531 12.6107 6.42618 12.5628 6.18462 12.5625C5.94306 12.5622 5.70382 12.6096 5.48063 12.702C5.2213 12.8365 4.98089 13.0046 4.76562 13.202C4.94619 14.3121 5.38272 15.3649 6.04063 16.277C6.32819 16.2584 6.61217 16.2029 6.88563 16.112C7.10951 16.0195 7.31292 15.8837 7.48419 15.7124C7.65546 15.5411 7.79121 15.3376 7.88366 15.1137C7.9761 14.8898 8.02342 14.6498 8.0229 14.4076C8.02238 14.1653 7.97403 13.9256 7.88063 13.702Z" fill="#EBCB00"/>
<path d="M10.2955 16.1146C9.84456 15.9293 9.33858 15.9306 8.8886 16.1181C8.43863 16.3056 8.08145 16.664 7.89547 17.1146C7.80457 17.388 7.74911 17.672 7.73047 17.9596C8.64261 18.6175 9.6954 19.054 10.8055 19.2346C11.0029 19.0193 11.171 18.7789 11.3055 18.5196C11.3984 18.2955 11.4459 18.0552 11.4453 17.8126C11.4448 17.5701 11.3961 17.33 11.3022 17.1064C11.2083 16.8827 11.0709 16.6799 10.8981 16.5097C10.7253 16.3394 10.5205 16.2051 10.2955 16.1146Z" fill="#EBCB00"/>
<path d="M13.706 16.111C13.4824 16.2026 13.2791 16.3374 13.1078 16.5077C12.9365 16.6779 12.8005 16.8804 12.7076 17.1034C12.6147 17.3263 12.5667 17.5655 12.5664 17.807C12.5661 18.0486 12.6136 18.2878 12.706 18.511C12.8404 18.7704 13.0085 19.0108 13.206 19.226C14.316 19.0455 15.3688 18.6089 16.281 17.951C16.2623 17.6635 16.2069 17.3795 16.1159 17.106C16.0234 16.8821 15.8876 16.6787 15.7163 16.5075C15.545 16.3362 15.3415 16.2004 15.1176 16.108C14.8937 16.0156 14.6537 15.9682 14.4115 15.9688C14.1692 15.9693 13.9295 16.0176 13.706 16.111Z" fill="#EBCB00"/>
<path d="M18.4993 12.7126C18.276 12.6163 18.0358 12.5653 17.7926 12.5626C17.5495 12.5599 17.3082 12.6056 17.0828 12.697C16.8575 12.7884 16.6525 12.9237 16.4799 13.095C16.3073 13.2664 16.1704 13.4703 16.0773 13.6949C15.9842 13.9196 15.9367 14.1605 15.9375 14.4037C15.9383 14.6469 15.9875 14.8875 16.0821 15.1115C16.1767 15.3356 16.315 15.5385 16.4887 15.7087C16.6625 15.8788 16.8684 16.0127 17.0943 16.1026C17.3678 16.1935 17.6518 16.2489 17.9393 16.2676C18.5972 15.3554 19.0338 14.3027 19.2143 13.1926C18.9979 13.0022 18.7575 12.8408 18.4993 12.7126Z" fill="#EBCB00"/>
<path d="M16.1188 10.2859C16.2104 10.5095 16.3452 10.7127 16.5155 10.8841C16.6858 11.0554 16.8882 11.1914 17.1112 11.2843C17.3342 11.3772 17.5733 11.4252 17.8149 11.4255C18.0564 11.4258 18.2957 11.3783 18.5188 11.2859C18.7782 11.1515 19.0186 10.9834 19.2338 10.7859C19.0533 9.67587 18.6168 8.62308 17.9588 7.71094C17.6713 7.72958 17.3873 7.78504 17.1138 7.87594C16.89 7.96845 16.6865 8.10427 16.5153 8.27559C16.344 8.44692 16.2083 8.65037 16.1158 8.87429C16.0234 9.0982 15.976 9.33817 15.9766 9.58041C15.9771 9.82266 16.0254 10.0624 16.1188 10.2859Z" fill="#EBCB00"/>
<path d="M13.7046 7.87C14.1555 8.05523 14.6615 8.05396 15.1114 7.86647C15.5614 7.67899 15.9186 7.3206 16.1046 6.87C16.1955 6.59655 16.2509 6.31256 16.2696 6.025C15.3574 5.36709 14.3046 4.93057 13.1946 4.75C12.9971 4.96526 12.829 5.20568 12.6946 5.465C12.6017 5.68908 12.5541 5.92936 12.5547 6.17193C12.5553 6.4145 12.6039 6.65456 12.6978 6.87821C12.7917 7.10186 12.9291 7.30467 13.1019 7.47491C13.2747 7.64515 13.4795 7.77943 13.7046 7.87Z" fill="#EBCB00"/>
<path d="M11.2836 5.49994C11.38 5.72324 11.4309 5.96346 11.4336 6.20664C11.4363 6.44982 11.3906 6.6911 11.2992 6.91646C11.2078 7.14182 11.0725 7.34677 10.9012 7.51938C10.7299 7.69199 10.5259 7.82883 10.3013 7.92195C10.0766 8.01506 9.8357 8.06258 9.59251 8.06176C9.34932 8.06094 9.10871 8.01178 8.88469 7.91715C8.66066 7.82252 8.45768 7.68431 8.28754 7.51054C8.11741 7.33677 7.98351 7.13091 7.89363 6.90494C7.58863 6.16494 7.61863 3.24994 7.64363 2.05494C7.64327 2.01018 7.65627 1.96632 7.68097 1.92899C7.70566 1.89165 7.74094 1.86253 7.78228 1.84535C7.82361 1.82817 7.86914 1.82372 7.91302 1.83255C7.9569 1.84138 7.99716 1.86311 8.02863 1.89494C8.89363 2.69994 10.9986 4.73994 11.2836 5.49994Z" stroke="#45413C" stroke-width="0.5" stroke-linecap="round" stroke-linejoin="round"/>
<path d="M6.88541 7.88972C7.12368 7.96918 7.3431 8.0967 7.53009 8.2644C7.71708 8.43209 7.86765 8.63639 7.97247 8.86464C8.0773 9.09289 8.13415 9.34022 8.13951 9.59134C8.14487 9.84245 8.09862 10.092 8.00363 10.3245C7.90863 10.557 7.76692 10.7675 7.58726 10.9431C7.40759 11.1186 7.19381 11.2554 6.95915 11.3449C6.72448 11.4345 6.47393 11.4749 6.22301 11.4637C5.9721 11.4524 5.72615 11.3898 5.50041 11.2797C4.74041 10.9947 2.70041 8.88972 1.87541 8.02472C1.84357 7.99325 1.82185 7.953 1.81302 7.90911C1.80418 7.86523 1.80864 7.81971 1.82582 7.77837C1.843 7.73703 1.87212 7.70176 1.90946 7.67706C1.94679 7.65236 1.99064 7.63936 2.03541 7.63972C3.23041 7.61472 6.14541 7.58472 6.88541 7.88972Z" stroke="#45413C" stroke-width="0.5" stroke-linecap="round" stroke-linejoin="round"/>
<path d="M5.49994 12.7126C5.72324 12.6163 5.96346 12.5653 6.20664 12.5626C6.44982 12.5599 6.6911 12.6056 6.91646 12.697C7.14182 12.7884 7.34677 12.9237 7.51938 13.095C7.69199 13.2664 7.82883 13.4703 7.92195 13.6949C8.01506 13.9196 8.06258 14.1605 8.06176 14.4037C8.06094 14.6469 8.01178 14.8875 7.91715 15.1115C7.82252 15.3356 7.68431 15.5385 7.51054 15.7087C7.33677 15.8788 7.13091 16.0127 6.90494 16.1026C6.16494 16.4076 3.24994 16.3776 2.05494 16.3526C2.01018 16.3529 1.96632 16.3399 1.92899 16.3152C1.89165 16.2905 1.86253 16.2553 1.84535 16.2139C1.82817 16.1726 1.82372 16.1271 1.83255 16.0832C1.84138 16.0393 1.86311 15.9991 1.89494 15.9676C2.69994 15.1026 4.73994 12.9976 5.49994 12.7126Z" stroke="#45413C" stroke-width="0.5" stroke-linecap="round" stroke-linejoin="round"/>
<path d="M7.89363 17.1139C7.97308 16.8756 8.10061 16.6562 8.2683 16.4692C8.436 16.2822 8.6403 16.1317 8.86855 16.0268C9.09679 15.922 9.34413 15.8652 9.59524 15.8598C9.84636 15.8544 10.0959 15.9007 10.3284 15.9957C10.5609 16.0907 10.7715 16.2324 10.947 16.412C11.1225 16.5917 11.2593 16.8055 11.3488 17.0402C11.4384 17.2748 11.4788 17.5254 11.4676 17.7763C11.4564 18.0272 11.3937 18.2732 11.2836 18.4989C10.9786 19.2389 8.89363 21.2789 8.02863 22.1039C7.99716 22.1357 7.9569 22.1575 7.91302 22.1663C7.86914 22.1751 7.82361 22.1707 7.78228 22.1535C7.74094 22.1363 7.70566 22.1072 7.68097 22.0699C7.65627 22.0325 7.64327 21.9887 7.64363 21.9439C7.61863 20.7689 7.58863 17.8539 7.89363 17.1139Z" stroke="#45413C" stroke-width="0.5" stroke-linecap="round" stroke-linejoin="round"/>
<path d="M12.7126 18.4993C12.6163 18.276 12.5653 18.0358 12.5626 17.7926C12.5599 17.5495 12.6056 17.3082 12.697 17.0828C12.7884 16.8575 12.9237 16.6525 13.095 16.4799C13.2664 16.3073 13.4703 16.1704 13.6949 16.0773C13.9196 15.9842 14.1605 15.9367 14.4037 15.9375C14.6469 15.9383 14.8875 15.9875 15.1115 16.0821C15.3356 16.1767 15.5385 16.315 15.7087 16.4887C15.8788 16.6625 16.0127 16.8684 16.1026 17.0943C16.4076 17.8343 16.3776 20.7493 16.3526 21.9443C16.3529 21.9891 16.3399 22.033 16.3152 22.0703C16.2905 22.1076 16.2553 22.1367 16.2139 22.1539C16.1726 22.1711 16.1271 22.1756 16.0832 22.1667C16.0393 22.1579 15.9991 22.1362 15.9676 22.1043C15.1026 21.2993 12.9976 19.2593 12.7126 18.4993Z" stroke="#45413C" stroke-width="0.5" stroke-linecap="round" stroke-linejoin="round"/>
<path d="M17.1139 16.0992C16.8756 16.0198 16.6562 15.8922 16.4692 15.7245C16.2822 15.5568 16.1317 15.3525 16.0268 15.1243C15.922 14.896 15.8652 14.6487 15.8598 14.3976C15.8544 14.1465 15.9007 13.8969 15.9957 13.6644C16.0907 13.4319 16.2324 13.2214 16.412 13.0459C16.5917 12.8703 16.8055 12.7336 17.0402 12.644C17.2748 12.5545 17.5254 12.5141 17.7763 12.5253C18.0272 12.5365 18.2732 12.5991 18.4989 12.7092C19.2389 13.0142 21.2789 15.0992 22.1039 15.9642C22.1357 15.9957 22.1575 16.0359 22.1663 16.0798C22.1751 16.1237 22.1707 16.1692 22.1535 16.2106C22.1363 16.2519 22.1072 16.2872 22.0699 16.3119C22.0325 16.3366 21.9887 16.3496 21.9439 16.3492C20.7689 16.3742 17.8539 16.4042 17.1139 16.0992Z" stroke="#45413C" stroke-width="0.5" stroke-linecap="round" stroke-linejoin="round"/>
<path d="M18.4993 11.2797C18.276 11.376 18.0358 11.427 17.7926 11.4297C17.5495 11.4324 17.3082 11.3867 17.0828 11.2953C16.8575 11.2039 16.6525 11.0686 16.4799 10.8973C16.3073 10.726 16.1704 10.522 16.0773 10.2974C15.9842 10.0727 15.9367 9.83179 15.9375 9.5886C15.9383 9.34541 15.9875 9.10481 16.0821 8.88078C16.1767 8.65676 16.315 8.45377 16.4887 8.28364C16.6625 8.1135 16.8684 7.9796 17.0943 7.88972C17.8343 7.58472 20.7493 7.61472 21.9443 7.63972C21.9891 7.63936 22.033 7.65236 22.0703 7.67706C22.1076 7.70176 22.1367 7.73703 22.1539 7.77837C22.1711 7.81971 22.1756 7.86523 22.1667 7.90911C22.1579 7.953 22.1362 7.99325 22.1043 8.02472C21.2993 8.88972 19.2593 10.9947 18.4993 11.2797Z" stroke="#45413C" stroke-width="0.5" stroke-linecap="round" stroke-linejoin="round"/>
<path d="M16.1031 6.8815C16.0237 7.11977 15.8961 7.3392 15.7284 7.52618C15.5607 7.71317 15.3564 7.86374 15.1282 7.96857C14.8999 8.07339 14.6526 8.13025 14.4015 8.13561C14.1504 8.14097 13.9008 8.09472 13.6683 7.99972C13.4358 7.90473 13.2253 7.76301 13.0498 7.58335C12.8742 7.40369 12.7375 7.18991 12.6479 6.95524C12.5584 6.72058 12.518 6.47003 12.5292 6.21911C12.5404 5.96819 12.603 5.72224 12.7131 5.4965C12.9981 4.7365 15.1031 2.6965 15.9681 1.8715C15.9996 1.83967 16.0398 1.81794 16.0837 1.80911C16.1276 1.80028 16.1731 1.80474 16.2145 1.82192C16.2558 1.83909 16.2911 1.86821 16.3158 1.90555C16.3405 1.94288 16.3535 1.98674 16.3531 2.0315C16.3781 3.2265 16.4081 6.1415 16.1031 6.8815Z" stroke="#45413C" stroke-width="0.5" stroke-linecap="round" stroke-linejoin="round"/>
<path d="M8.8463 6.24349C9.18592 6.58854 9.3754 7.05383 9.37348 7.53797C9.37156 8.02211 9.17838 8.48588 8.83604 8.82822C8.49369 9.17057 8.02993 9.36375 7.54578 9.36567C7.06164 9.36759 6.59636 9.1781 6.2513 8.83849C5.6863 8.27349 4.5963 5.56849 4.1663 4.45349C4.1488 4.41222 4.14402 4.36667 4.15258 4.32267C4.16114 4.27867 4.18264 4.23822 4.21434 4.20653C4.24604 4.17483 4.28648 4.15332 4.33048 4.14476C4.37448 4.13621 4.42004 4.14099 4.4613 4.15849C5.5763 4.58849 8.2813 5.67849 8.8463 6.24349Z" fill="#FFE500"/>
<path d="M5.70447 10.1562C6.19115 10.1563 6.65789 10.3496 7.00201 10.6937C7.34614 11.0378 7.53947 11.5046 7.53947 11.9913C7.53947 12.4779 7.34614 12.9447 7.00201 13.2888C6.65789 13.6329 6.19115 13.8263 5.70447 13.8263C4.90447 13.8263 2.20447 12.6813 1.12447 12.2013C1.08392 12.1831 1.04948 12.1537 1.02531 12.1164C1.00114 12.0791 0.988281 12.0357 0.988281 11.9913C0.988281 11.9468 1.00114 11.9034 1.02531 11.8661C1.04948 11.8288 1.08392 11.7994 1.12447 11.7812C2.21947 11.3012 4.90447 10.1562 5.70447 10.1562Z" fill="#FFE500"/>
<path d="M6.2513 15.1522C6.59636 14.8126 7.06164 14.6231 7.54578 14.625C8.02993 14.6269 8.49369 14.8201 8.83604 15.1625C9.17838 15.5048 9.37156 15.9686 9.37348 16.4527C9.3754 16.9369 9.18592 17.4021 8.8463 17.7472C8.2813 18.3122 5.5763 19.4022 4.4613 19.8322C4.42004 19.8497 4.37448 19.8545 4.33048 19.8459C4.28648 19.8374 4.24604 19.8159 4.21434 19.7842C4.18264 19.7525 4.16114 19.712 4.15258 19.668C4.14402 19.624 4.1488 19.5785 4.1663 19.5372C4.5963 18.4222 5.6863 15.7172 6.2513 15.1522Z" fill="#FFE500"/>
<path d="M10.1641 18.2881C10.1641 17.8015 10.3574 17.3347 10.7015 16.9906C11.0457 16.6465 11.5124 16.4531 11.9991 16.4531C12.4857 16.4531 12.9525 16.6465 13.2966 16.9906C13.6407 17.3347 13.8341 17.8015 13.8341 18.2881C13.8341 19.0881 12.6891 21.7881 12.2091 22.8681C12.1909 22.9087 12.1615 22.9431 12.1242 22.9673C12.0869 22.9915 12.0435 23.0043 11.9991 23.0043C11.9546 23.0043 11.9112 22.9915 11.8739 22.9673C11.8366 22.9431 11.8072 22.9087 11.7891 22.8681C11.3091 21.7731 10.1641 19.0881 10.1641 18.2881Z" fill="#FFE500"/>
<path d="M15.1561 17.7472C14.8165 17.4021 14.627 16.9369 14.6289 16.4527C14.6308 15.9686 14.824 15.5048 15.1664 15.1625C15.5087 14.8201 15.9725 14.6269 16.4566 14.625C16.9408 14.6231 17.406 14.8126 17.7511 15.1522C18.3161 15.7172 19.4061 18.4222 19.8361 19.5372C19.8536 19.5785 19.8584 19.624 19.8498 19.668C19.8413 19.712 19.8198 19.7525 19.7881 19.7842C19.7564 19.8159 19.7159 19.8374 19.6719 19.8459C19.6279 19.8545 19.5824 19.8497 19.5411 19.8322C18.4261 19.4022 15.7211 18.3122 15.1561 17.7472Z" fill="#FFE500"/>
<path d="M18.2959 13.8263C17.8093 13.8263 17.3425 13.6329 16.9984 13.2888C16.6543 12.9447 16.4609 12.4779 16.4609 11.9913C16.4609 11.5046 16.6543 11.0378 16.9984 10.6937C17.3425 10.3496 17.8093 10.1562 18.2959 10.1562C19.0959 10.1562 21.7959 11.3012 22.8759 11.7812C22.9165 11.7994 22.9509 11.8288 22.9751 11.8661C22.9993 11.9034 23.0121 11.9468 23.0121 11.9913C23.0121 12.0357 22.9993 12.0791 22.9751 12.1164C22.9509 12.1537 22.9165 12.1831 22.8759 12.2013C21.7809 12.6813 19.0959 13.8263 18.2959 13.8263Z" fill="#FFE500"/>
<path d="M17.7511 8.83849C17.406 9.1781 16.9408 9.36759 16.4566 9.36567C15.9725 9.36375 15.5087 9.17057 15.1664 8.82822C14.824 8.48588 14.6308 8.02211 14.6289 7.53797C14.627 7.05383 14.8165 6.58854 15.1561 6.24349C15.7211 5.67849 18.4261 4.58849 19.5411 4.15849C19.5824 4.14099 19.6279 4.13621 19.6719 4.14476C19.7159 4.15332 19.7564 4.17483 19.7881 4.20653C19.8198 4.23822 19.8413 4.27867 19.8498 4.32267C19.8584 4.36667 19.8536 4.41222 19.8361 4.45349C19.4061 5.56849 18.3161 8.27349 17.7511 8.83849Z" fill="#FFE500"/>
<path d="M13.8341 5.70057C13.8341 6.18724 13.6407 6.65398 13.2966 6.99811C12.9525 7.34224 12.4857 7.53557 11.9991 7.53557C11.5124 7.53557 11.0457 7.34224 10.7015 6.99811C10.3574 6.65398 10.1641 6.18724 10.1641 5.70057C10.1641 4.90057 11.3091 2.20057 11.7891 1.12057C11.8072 1.08001 11.8366 1.04557 11.8739 1.0214C11.9112 0.997236 11.9546 0.984375 11.9991 0.984375C12.0435 0.984375 12.0869 0.997236 12.1242 1.0214C12.1615 1.04557 12.1909 1.08001 12.2091 1.12057C12.6891 2.21557 13.8341 4.90057 13.8341 5.70057Z" fill="#FFE500"/>
<path d="M8.84344 8.83563C9.18632 8.49085 9.37879 8.02437 9.37879 7.53813C9.37879 7.05188 9.18632 6.5854 8.84344 6.24062C8.62539 6.05129 8.3833 5.89157 8.12344 5.76562C7.17261 6.36134 6.36915 7.16479 5.77344 8.11562C5.89939 8.37549 6.0591 8.61758 6.24844 8.83563C6.59321 9.17851 7.05969 9.37098 7.54594 9.37098C8.03219 9.37098 8.49867 9.17851 8.84344 8.83563Z" fill="#EBCB00"/>
<path d="M7.54018 11.9913C7.54018 11.7503 7.49271 11.5117 7.4005 11.289C7.30828 11.0664 7.17311 10.8641 7.00272 10.6937C6.83232 10.5233 6.63003 10.3881 6.4074 10.2959C6.18477 10.2037 5.94615 10.1562 5.70518 10.1562C5.41589 10.1775 5.13037 10.2346 4.85518 10.3263C4.59515 11.421 4.59515 12.5615 4.85518 13.6562C5.13037 13.7479 5.41589 13.805 5.70518 13.8263C5.94615 13.8263 6.18477 13.7788 6.4074 13.6866C6.63003 13.5944 6.83232 13.4592 7.00272 13.2888C7.17311 13.1184 7.30828 12.9161 7.4005 12.6935C7.49271 12.4708 7.54018 12.2322 7.54018 11.9913Z" fill="#EBCB00"/>
<path d="M8.84344 15.1447C8.49867 14.8018 8.03219 14.6094 7.54594 14.6094C7.05969 14.6094 6.59321 14.8018 6.24844 15.1447C6.0591 15.3628 5.89939 15.6049 5.77344 15.8647C6.36915 16.8156 7.17261 17.619 8.12344 18.2147C8.38473 18.081 8.62689 17.9129 8.84344 17.7147C9.17878 17.3711 9.36648 16.9099 9.36648 16.4297C9.36648 15.9496 9.17878 15.4884 8.84344 15.1447Z" fill="#EBCB00"/>
<path d="M11.9991 16.4531C11.5124 16.4531 11.0457 16.6465 10.7015 16.9906C10.3574 17.3347 10.1641 17.8015 10.1641 18.2881C10.1853 18.5774 10.2424 18.8629 10.3341 19.1381C11.4288 19.3982 12.5693 19.3982 13.6641 19.1381C13.7557 18.8629 13.8128 18.5774 13.8341 18.2881C13.8341 17.8015 13.6407 17.3347 13.2966 16.9906C12.9525 16.6465 12.4857 16.4531 11.9991 16.4531Z" fill="#EBCB00"/>
<path d="M15.1525 15.1513C14.8097 15.4961 14.6172 15.9625 14.6172 16.4488C14.6172 16.935 14.8097 17.4015 15.1525 17.7463C15.3691 17.9444 15.6113 18.1126 15.8725 18.2463C16.8234 17.6506 17.6268 16.8471 18.2225 15.8963C18.0888 15.635 17.9207 15.3928 17.7225 15.1763C17.3821 14.8376 16.9228 14.6454 16.4426 14.6407C15.9625 14.636 15.4995 14.8193 15.1525 15.1513Z" fill="#EBCB00"/>
<path d="M19.1459 10.3263C18.8707 10.2346 18.5852 10.1775 18.2959 10.1562C17.8093 10.1562 17.3425 10.3496 16.9984 10.6937C16.6543 11.0378 16.4609 11.5046 16.4609 11.9913C16.4609 12.4779 16.6543 12.9447 16.9984 13.2888C17.3425 13.6329 17.8093 13.8263 18.2959 13.8263C18.5852 13.805 18.8707 13.7479 19.1459 13.6562C19.406 12.5615 19.406 11.421 19.1459 10.3263Z" fill="#EBCB00"/>
<path d="M15.1558 8.83563C15.5006 9.17851 15.967 9.37098 16.4533 9.37098C16.9395 9.37098 17.406 9.17851 17.7508 8.83563C17.9489 8.61908 18.1171 8.37692 18.2508 8.11562C17.6551 7.16479 16.8516 6.36134 15.9008 5.76562C15.6409 5.89157 15.3988 6.05129 15.1808 6.24062C14.8346 6.58208 14.6376 7.04671 14.6329 7.53297C14.6282 8.01922 14.8162 8.48756 15.1558 8.83563Z" fill="#EBCB00"/>
<path d="M11.9991 7.53627C12.24 7.53627 12.4787 7.48881 12.7013 7.39659C12.9239 7.30437 13.1262 7.16921 13.2966 6.99881C13.467 6.82842 13.6022 6.62613 13.6944 6.4035C13.7866 6.18086 13.8341 5.94225 13.8341 5.70127C13.8128 5.41199 13.7557 5.12647 13.6641 4.85127C12.5693 4.59124 11.4288 4.59124 10.3341 4.85127C10.2424 5.12647 10.1853 5.41199 10.1641 5.70127C10.1641 5.94225 10.2115 6.18086 10.3037 6.4035C10.396 6.62613 10.5311 6.82842 10.7015 6.99881C11.0457 7.34294 11.5124 7.53627 11.9991 7.53627Z" fill="#EBCB00"/>
<path d="M8.8463 6.24349C9.18592 6.58854 9.3754 7.05383 9.37348 7.53797C9.37156 8.02211 9.17838 8.48588 8.83604 8.82822C8.49369 9.17057 8.02993 9.36375 7.54578 9.36567C7.06164 9.36759 6.59636 9.1781 6.2513 8.83849C5.6863 8.27349 4.5963 5.56849 4.1663 4.45349C4.1488 4.41222 4.14402 4.36667 4.15258 4.32267C4.16114 4.27867 4.18264 4.23822 4.21434 4.20653C4.24604 4.17483 4.28648 4.15332 4.33048 4.14476C4.37448 4.13621 4.42004 4.14099 4.4613 4.15849C5.5763 4.58849 8.2813 5.67849 8.8463 6.24349Z" stroke="#45413C" stroke-width="0.5" stroke-linecap="round" stroke-linejoin="round"/>
<path d="M5.70447 10.1562C6.19115 10.1563 6.65788 10.3496 7.00201 10.6937C7.34614 11.0378 7.53947 11.5046 7.53947 11.9913C7.53947 12.4779 7.34614 12.9447 7.00201 13.2888C6.65788 13.6329 6.19115 13.8263 5.70447 13.8263C4.90447 13.8263 2.20447 12.6813 1.12447 12.2013C1.08392 12.1831 1.04948 12.1537 1.02531 12.1164C1.00114 12.0791 0.988281 12.0357 0.988281 11.9913C0.988281 11.9468 1.00114 11.9034 1.02531 11.8661C1.04948 11.8288 1.08392 11.7994 1.12447 11.7812C2.21947 11.3013 4.90447 10.1562 5.70447 10.1562Z" stroke="#45413C" stroke-width="0.5" stroke-linecap="round" stroke-linejoin="round"/>
<path d="M6.2513 15.1522C6.59636 14.8126 7.06164 14.6231 7.54578 14.625C8.02993 14.6269 8.49369 14.8201 8.83604 15.1625C9.17838 15.5048 9.37156 15.9686 9.37348 16.4527C9.3754 16.9369 9.18592 17.4021 8.8463 17.7472C8.2813 18.3122 5.5763 19.4022 4.4613 19.8322C4.42004 19.8497 4.37448 19.8545 4.33048 19.8459C4.28648 19.8374 4.24604 19.8159 4.21434 19.7842C4.18264 19.7525 4.16114 19.712 4.15258 19.668C4.14402 19.624 4.1488 19.5785 4.1663 19.5372C4.5963 18.4222 5.6863 15.7172 6.2513 15.1522Z" stroke="#45413C" stroke-width="0.5" stroke-linecap="round" stroke-linejoin="round"/>
<path d="M10.1641 18.2881C10.1641 17.8015 10.3574 17.3347 10.7015 16.9906C11.0457 16.6465 11.5124 16.4531 11.9991 16.4531C12.4857 16.4531 12.9525 16.6465 13.2966 16.9906C13.6407 17.3347 13.8341 17.8015 13.8341 18.2881C13.8341 19.0881 12.6891 21.7881 12.2091 22.8681C12.1909 22.9087 12.1615 22.9431 12.1242 22.9673C12.0869 22.9915 12.0435 23.0043 11.9991 23.0043C11.9546 23.0043 11.9112 22.9915 11.8739 22.9673C11.8366 22.9431 11.8072 22.9087 11.7891 22.8681C11.3091 21.7731 10.1641 19.0881 10.1641 18.2881Z" stroke="#45413C" stroke-width="0.5" stroke-linecap="round" stroke-linejoin="round"/>
<path d="M15.1561 17.7472C14.8165 17.4021 14.627 16.9369 14.6289 16.4527C14.6308 15.9686 14.824 15.5048 15.1664 15.1625C15.5087 14.8201 15.9725 14.6269 16.4566 14.625C16.9408 14.6231 17.406 14.8126 17.7511 15.1522C18.3161 15.7172 19.4061 18.4222 19.8361 19.5372C19.8536 19.5785 19.8584 19.624 19.8498 19.668C19.8413 19.712 19.8198 19.7525 19.7881 19.7842C19.7564 19.8159 19.7159 19.8374 19.6719 19.8459C19.6279 19.8545 19.5824 19.8497 19.5411 19.8322C18.4261 19.4022 15.7211 18.3122 15.1561 17.7472Z" stroke="#45413C" stroke-width="0.5" stroke-linecap="round" stroke-linejoin="round"/>
<path d="M18.2959 13.8263C17.8093 13.8263 17.3425 13.6329 16.9984 13.2888C16.6543 12.9447 16.4609 12.4779 16.4609 11.9913C16.4609 11.5046 16.6543 11.0378 16.9984 10.6937C17.3425 10.3496 17.8093 10.1562 18.2959 10.1562C19.0959 10.1562 21.7959 11.3013 22.8759 11.7812C22.9165 11.7994 22.9509 11.8288 22.9751 11.8661C22.9993 11.9034 23.0121 11.9468 23.0121 11.9913C23.0121 12.0357 22.9993 12.0791 22.9751 12.1164C22.9509 12.1537 22.9165 12.1831 22.8759 12.2013C21.7809 12.6813 19.0959 13.8263 18.2959 13.8263Z" stroke="#45413C" stroke-width="0.5" stroke-linecap="round" stroke-linejoin="round"/>
<path d="M17.7511 8.83849C17.406 9.1781 16.9408 9.36759 16.4566 9.36567C15.9725 9.36375 15.5087 9.17057 15.1664 8.82822C14.824 8.48588 14.6308 8.02211 14.6289 7.53797C14.627 7.05383 14.8165 6.58854 15.1561 6.24349C15.7211 5.67849 18.4261 4.58849 19.5411 4.15849C19.5824 4.14099 19.6279 4.13621 19.6719 4.14476C19.7159 4.15332 19.7564 4.17483 19.7881 4.20653C19.8198 4.23822 19.8413 4.27867 19.8498 4.32267C19.8584 4.36667 19.8536 4.41222 19.8361 4.45349C19.4061 5.56849 18.3161 8.27349 17.7511 8.83849Z" stroke="#45413C" stroke-width="0.5" stroke-linecap="round" stroke-linejoin="round"/>
<path d="M13.8341 5.70057C13.8341 6.18724 13.6407 6.65398 13.2966 6.99811C12.9525 7.34224 12.4857 7.53557 11.9991 7.53557C11.5124 7.53557 11.0457 7.34224 10.7015 6.99811C10.3574 6.65398 10.1641 6.18724 10.1641 5.70057C10.1641 4.90057 11.3091 2.20057 11.7891 1.12057C11.8072 1.08001 11.8366 1.04557 11.8739 1.0214C11.9112 0.997236 11.9546 0.984375 11.9991 0.984375C12.0435 0.984375 12.0869 0.997236 12.1242 1.0214C12.1615 1.04557 12.1909 1.08001 12.2091 1.12057C12.6891 2.21557 13.8341 4.90057 13.8341 5.70057Z" stroke="#45413C" stroke-width="0.5" stroke-linecap="round" stroke-linejoin="round"/>
<path d="M5.625 12C5.625 13.6908 6.29665 15.3123 7.49219 16.5078C8.68774 17.7033 10.3092 18.375 12 18.375C13.6908 18.375 15.3123 17.7033 16.5078 16.5078C17.7033 15.3123 18.375 13.6908 18.375 12C18.375 10.3092 17.7033 8.68774 16.5078 7.49219C15.3123 6.29665 13.6908 5.625 12 5.625C10.3092 5.625 8.68774 6.29665 7.49219 7.49219C6.29665 8.68774 5.625 10.3092 5.625 12Z" fill="#FFAA54"/>
<path d="M12.595 5.65625C14.0725 5.80876 15.4351 6.52279 16.4013 7.65092C17.3675 8.77904 17.8637 10.2351 17.7873 11.7185C17.711 13.2019 17.0679 14.5994 15.991 15.6223C14.914 16.6453 13.4854 17.2156 12 17.2156C10.5146 17.2156 9.086 16.6453 8.00903 15.6223C6.93207 14.5994 6.28902 13.2019 6.21267 11.7185C6.13631 10.2351 6.63248 8.77904 7.59872 7.65092C8.56496 6.52279 9.9275 5.80876 11.405 5.65625C9.77297 5.80924 8.26258 6.58501 7.18752 7.82244C6.11247 9.05986 5.55539 10.6638 5.63197 12.3012C5.70855 13.9387 6.41291 15.4836 7.59876 16.6153C8.78461 17.747 10.3608 18.3784 12 18.3784C13.6392 18.3784 15.2154 17.747 16.4013 16.6153C17.5871 15.4836 18.2915 13.9387 18.368 12.3012C18.4446 10.6638 17.8875 9.05986 16.8125 7.82244C15.7374 6.58501 14.227 5.80924 12.595 5.65625Z" fill="#FF8A14"/>
<path d="M5.625 12C5.625 13.6908 6.29665 15.3123 7.49219 16.5078C8.68774 17.7033 10.3092 18.375 12 18.375C13.6908 18.375 15.3123 17.7033 16.5078 16.5078C17.7033 15.3123 18.375 13.6908 18.375 12C18.375 10.3092 17.7033 8.68774 16.5078 7.49219C15.3123 6.29665 13.6908 5.625 12 5.625C10.3092 5.625 8.68774 6.29665 7.49219 7.49219C6.29665 8.68774 5.625 10.3092 5.625 12V12Z" stroke="#45413C" stroke-width="0.5" stroke-linecap="round" stroke-linejoin="round"/>
<path d="M8.13281 13.1506C8.13281 13.3606 8.39281 13.5356 8.71281 13.5356C9.03281 13.5356 9.29281 13.3606 9.29281 13.1506C9.29281 12.9406 9.03281 12.7656 8.71281 12.7656C8.39281 12.7656 8.13281 12.9356 8.13281 13.1506Z" fill="#FF8A14"/>
<path d="M13.498 14.125C13.5587 14.1249 13.6186 14.1389 13.6729 14.166C13.7272 14.1931 13.7744 14.2325 13.8109 14.281C13.8473 14.3295 13.8718 14.3859 13.8826 14.4456C13.8934 14.5054 13.8901 14.5668 13.873 14.625C13.7634 15.0373 13.5206 15.4017 13.1824 15.6617C12.8442 15.9217 12.4296 16.0627 12.003 16.0627C11.5764 16.0627 11.1618 15.9217 10.8236 15.6617C10.4854 15.4017 10.2427 15.0373 10.133 14.625C10.1159 14.5668 10.1126 14.5054 10.1234 14.4456C10.1342 14.3859 10.1588 14.3295 10.1952 14.281C10.2316 14.2325 10.2788 14.1931 10.3331 14.166C10.3875 14.1389 10.4473 14.1249 10.508 14.125H13.498Z" fill="#FFB0CA" stroke="#45413C" stroke-width="0.5" stroke-linecap="round" stroke-linejoin="round"/>
<path d="M12.0009 16.0542C12.2914 16.0508 12.5773 15.9815 12.8372 15.8516C13.097 15.7217 13.3239 15.5345 13.5009 15.3042C13.0402 15.0334 12.5154 14.8906 11.9809 14.8906C11.4465 14.8906 10.9217 15.0334 10.4609 15.3042C10.6421 15.5399 10.8754 15.7303 11.1427 15.8605C11.4099 15.9906 11.7037 16.0569 12.0009 16.0542Z" fill="#FF87AF" stroke="#45413C" stroke-width="0.5" stroke-linecap="round" stroke-linejoin="round"/>
<path d="M8.52594 12.3838C8.51845 12.3034 8.52782 12.2224 8.55344 12.1459C8.57906 12.0694 8.62036 11.999 8.67472 11.9394C8.72907 11.8797 8.79528 11.8321 8.8691 11.7994C8.94292 11.7668 9.02274 11.75 9.10344 11.75C9.18414 11.75 9.26395 11.7668 9.33778 11.7994C9.4116 11.8321 9.4778 11.8797 9.53216 11.9394C9.58651 11.999 9.62782 12.0694 9.65344 12.1459C9.67906 12.2224 9.68842 12.3034 9.68094 12.3838" stroke="#45413C" stroke-width="0.5" stroke-linecap="round" stroke-linejoin="round"/>
<path d="M15.8631 13.1506C15.8631 13.3606 15.6031 13.5356 15.2831 13.5356C14.9631 13.5356 14.7031 13.3606 14.7031 13.1506C14.7031 12.9406 14.9631 12.7656 15.2831 12.7656C15.6031 12.7656 15.8631 12.9356 15.8631 13.1506Z" fill="#FF8A14"/>
<path d="M15.5012 12.3838C15.5087 12.3034 15.4994 12.2224 15.4737 12.1459C15.4481 12.0694 15.4068 11.999 15.3525 11.9394C15.2981 11.8797 15.2319 11.8321 15.1581 11.7994C15.0843 11.7668 15.0045 11.75 14.9237 11.75C14.843 11.75 14.7632 11.7668 14.6894 11.7994C14.6156 11.8321 14.5494 11.8797 14.495 11.9394C14.4407 11.999 14.3994 12.0694 14.3738 12.1459C14.3481 12.2224 14.3388 12.3034 14.3463 12.3838" stroke="#45413C" stroke-width="0.5" stroke-linecap="round" stroke-linejoin="round"/>
<path d="M10.4531 7.93969C10.4531 8.0418 10.6159 8.13972 10.9056 8.21192C11.1954 8.28413 11.5884 8.32469 11.9981 8.32469C12.4079 8.32469 12.8009 8.28413 13.0906 8.21192C13.3803 8.13972 13.5431 8.0418 13.5431 7.93969C13.5431 7.83758 13.3803 7.73965 13.0906 7.66745C12.8009 7.59525 12.4079 7.55469 11.9981 7.55469C11.5884 7.55469 11.1954 7.59525 10.9056 7.66745C10.6159 7.73965 10.4531 7.83758 10.4531 7.93969Z" fill="#FFCC99"/>
</g>
<defs>
<clipPath id="clip0_8096_8148">
<rect width="24" height="24" fill="white"/>
</clipPath>
</defs>
</svg>
