<svg width="40" height="40" viewBox="0 0 40 40" fill="none" xmlns="http://www.w3.org/2000/svg">
<path d="M40 20C40 31.0457 31.0457 40 20 40C8.9543 40 0 31.0457 0 20C0 8.9543 8.9543 0 20 0C31.0457 0 40 8.9543 40 20Z" fill="#BD9268"/>
<path d="M10.5 17.5C10.5 13.634 13.134 10.5 17 10.5H23C26.866 10.5 29 13.5 29.5 17V23C29.5 26.866 27.5 29 23.5 29.5H17C13.5 29 10.5 26.866 10.5 23V17.5Z" fill="white"/>
<path fill-rule="evenodd" clip-rule="evenodd" d="M12.3006 12.2705C14.6377 10.1194 17.2605 9.97816 20.2403 10.0022C23.1151 10.0253 25.8941 10.2279 27.9494 12.2842C29.0144 13.3498 29.5079 15.0891 29.7482 16.5613C29.9926 18.0591 29.9924 19.4 29.9922 19.7628C29.9922 19.808 29.9932 19.8726 29.9946 19.9545C30.0033 20.482 30.024 21.7248 29.8391 23.0993C29.6281 24.6676 29.1365 26.5292 27.9494 27.717C25.8934 29.7741 22.9795 29.9796 20.2398 29.999C17.4693 30.0186 14.8232 29.7654 12.5669 27.9928C11.1349 26.8679 10.5169 24.8644 10.2396 23.2533C10.0982 22.4315 10.0398 21.677 10.0166 21.1283C10.0049 20.8536 10.0021 20.6293 10.0022 20.4728C10.0022 20.3944 10.003 20.333 10.0038 20.2905C10.0042 20.2693 10.0046 20.2528 10.0049 20.2413L10.0049 20.2399L10.0049 20.2384C10.0045 20.2269 10.004 20.2102 10.0035 20.1888C10.0024 20.1459 10.0012 20.0837 10.0005 20.0044C9.99917 19.8458 9.99998 19.6183 10.0085 19.3391C10.0254 18.7815 10.0732 18.0137 10.1969 17.1742C10.4395 15.5283 10.9915 13.4755 12.3006 12.2705ZM10.9573 20.2552L10.9572 20.2572L10.9569 20.2669C10.9567 20.2758 10.9564 20.2897 10.956 20.3082C10.9553 20.3453 10.9546 20.401 10.9546 20.4733C10.9545 20.618 10.9571 20.8285 10.9681 21.0881C10.9901 21.6082 11.0455 22.3205 11.1782 23.0917C11.4492 24.6665 12.021 26.3529 13.1552 27.2439C15.1412 28.8042 17.5004 29.066 20.2331 29.0466C22.9965 29.0271 25.5249 28.7955 27.2758 27.0437C28.23 26.0889 28.6899 24.4987 28.8952 22.9723C29.0692 21.6787 29.0509 20.5187 29.0423 19.9775C29.0409 19.8882 29.0398 19.8157 29.0398 19.7623C29.04 19.4109 29.0397 18.1332 28.8082 16.7148C28.5726 15.2708 28.1142 13.7963 27.2758 12.9575C25.5242 11.2049 23.1274 10.9778 20.2326 10.9545C17.263 10.9306 14.9872 11.0921 12.9456 12.9712C11.8968 13.9366 11.3779 15.6927 11.1391 17.313C11.0221 18.1067 10.9766 18.8364 10.9604 19.368C10.9523 19.6335 10.9516 19.8485 10.9529 19.9963C10.9535 20.0701 10.9546 20.1271 10.9556 20.1651C10.956 20.184 10.9565 20.1983 10.9568 20.2075L10.9571 20.2175L10.9572 20.2196C10.9572 20.2196 10.9572 20.2197 10.4814 20.2386M10.9573 20.2552C10.9577 20.2435 10.9577 20.2313 10.9572 20.2196L10.9573 20.2552ZM13.1615 16.6625C13.2953 16.4361 13.5873 16.361 13.8137 16.4949L13.5714 16.9048L13.3291 17.3147C13.1027 17.1809 13.0277 16.8889 13.1615 16.6625ZM13.5714 16.9048C13.3291 17.3147 13.3291 17.3147 13.3291 17.3147L13.3449 17.3241L13.3898 17.3504C13.429 17.3734 13.4865 17.407 13.5601 17.4496C13.7072 17.5349 13.9185 17.6566 14.1764 17.8025C14.6919 18.0941 15.395 18.4835 16.1432 18.8734C16.89 19.2625 17.6889 19.6558 18.3944 19.953C18.7469 20.1015 19.083 20.229 19.382 20.32C19.6722 20.4084 19.962 20.4736 20.2096 20.4736C20.4416 20.4736 20.713 20.4039 20.9756 20.3161C21.2498 20.2244 21.5611 20.0965 21.8889 19.9479C22.5451 19.6505 23.297 19.2572 24.0031 18.8682C24.7106 18.4784 25.3791 18.089 25.8702 17.7975C26.1159 17.6516 26.3176 17.53 26.4581 17.4447C26.5283 17.4021 26.5832 17.3685 26.6207 17.3456L26.6636 17.3193L26.6784 17.3101C26.6784 17.3101 26.6787 17.3099 26.4285 16.9048L26.6784 17.3101C26.9021 17.172 26.9718 16.8783 26.8336 16.6546C26.6955 16.4308 26.402 16.3615 26.1783 16.4996L26.2323 16.5872C26.1783 16.4996 26.1783 16.4996 26.1783 16.4996L26.1646 16.5081L26.1232 16.5335C26.0867 16.5558 26.0329 16.5887 25.9638 16.6306C25.8257 16.7145 25.6267 16.8345 25.384 16.9785C24.8984 17.2668 24.2393 17.6507 23.5435 18.034C22.8462 18.4182 22.1191 18.798 21.4958 19.0804C21.1837 19.2218 20.9051 19.3355 20.6735 19.4129C20.4305 19.4942 20.2804 19.5212 20.2096 19.5212C20.1057 19.5212 19.9245 19.4897 19.6595 19.409C19.4031 19.3309 19.0998 19.2168 18.7641 19.0753C18.0931 18.7927 17.3203 18.4128 16.5833 18.0288C15.8478 17.6455 15.1549 17.2618 14.6454 16.9736C14.3908 16.8295 14.1824 16.7096 14.0379 16.6258C13.9656 16.5838 13.9093 16.551 13.8712 16.5287L13.828 16.5033L13.8137 16.4949L13.5714 16.9048Z" fill="#BD9268"/>
</svg>
