<svg width="24" height="24" viewBox="0 0 24 24" fill="none" xmlns="http://www.w3.org/2000/svg">
<path d="M11.9998 3.5C12.4114 3.50039 12.8213 3.55246 13.2198 3.655C14.1498 3.865 15.3598 4.215 16.4548 4.005C16.4975 4.28703 16.4823 4.57479 16.4101 4.85073C16.3378 5.12668 16.2102 5.38502 16.0348 5.61C16.6053 6.43222 16.9106 7.40926 16.9098 8.41V10.98H7.08984V8.395C7.09381 7.09539 7.61287 5.85036 8.53324 4.9328C9.45362 4.01524 10.7002 3.49999 11.9998 3.5Z" fill="#A86C4D"/>
<path d="M11.9998 3.5C12.4114 3.50039 12.8213 3.55246 13.2198 3.655C14.1498 3.865 15.3598 4.215 16.4548 4.005C16.5225 4.52948 16.4021 5.06097 16.1148 5.505C15.1354 5.52026 14.1594 5.38708 13.2198 5.11C12.4946 4.92296 11.7362 4.90446 11.0028 5.05594C10.2693 5.20742 9.58028 5.52485 8.9885 5.98388C8.39673 6.44292 7.91793 7.03137 7.58881 7.70412C7.2597 8.37688 7.08902 9.11606 7.08985 9.865V8.395C7.09382 7.09539 7.61287 5.85036 8.53325 4.9328C9.45362 4.01524 10.7002 3.49999 11.9998 3.5Z" fill="#DE926A"/>
<path d="M11.9998 3.5C12.4114 3.50039 12.8213 3.55246 13.2198 3.655C14.1498 3.865 15.3598 4.215 16.4548 4.005C16.4975 4.28703 16.4823 4.57479 16.4101 4.85073C16.3378 5.12668 16.2102 5.38502 16.0348 5.61C16.6053 6.43222 16.9106 7.40926 16.9098 8.41V10.98H7.08984V8.395C7.09381 7.09539 7.61287 5.85036 8.53324 4.9328C9.45362 4.01524 10.7002 3.49999 11.9998 3.5V3.5Z" stroke="#45413C" stroke-width="0.5" stroke-linecap="round" stroke-linejoin="round"/>
<path d="M6.56477 10.5875C6.58907 10.4039 6.66852 10.232 6.79262 10.0945C6.91671 9.95702 7.07961 9.86043 7.25977 9.8175L7.55477 9.7375C7.77213 9.67611 7.96329 9.54497 8.09881 9.36428C8.23432 9.18359 8.30669 8.96336 8.30477 8.7375V7.7175C8.30532 7.51131 8.37365 7.31102 8.49924 7.14748C8.62483 6.98395 8.8007 6.86624 8.99977 6.8125C9.95322 7.19311 10.9734 7.37844 11.9998 7.3575C13.0262 7.37844 14.0463 7.19311 14.9998 6.8125C15.1998 6.86531 15.3768 6.98262 15.5033 7.14624C15.6299 7.30985 15.6989 7.51065 15.6998 7.7175V8.7475C15.6978 8.97336 15.7702 9.19359 15.9057 9.37428C16.0413 9.55497 16.2324 9.68611 16.4498 9.7475L16.7448 9.8275C16.9249 9.87043 17.0878 9.96702 17.2119 10.1045C17.336 10.242 17.4155 10.4139 17.4398 10.5975C17.4531 10.7241 17.4396 10.8521 17.4002 10.9731C17.3607 11.0941 17.2962 11.2054 17.2108 11.2998C17.1254 11.3942 17.021 11.4694 16.9045 11.5207C16.788 11.5721 16.662 11.5982 16.5348 11.5975H16.4998C16.3828 12.7028 15.8609 13.7257 15.0346 14.4691C14.2084 15.2125 13.1362 15.6238 12.0248 15.6238C10.9133 15.6238 9.84117 15.2125 9.01492 14.4691C8.18866 13.7257 7.66676 12.7028 7.54977 11.5975H7.49477C7.36446 11.602 7.23473 11.5783 7.11444 11.528C6.99415 11.4777 6.88616 11.402 6.79784 11.3061C6.70952 11.2101 6.64297 11.0963 6.60275 10.9723C6.56252 10.8482 6.54956 10.717 6.56477 10.5875Z" fill="#FFCEBF" stroke="#45413C" stroke-width="0.5" stroke-linecap="round" stroke-linejoin="round"/>
<path d="M14.7153 10.5022C14.7153 10.5784 14.6927 10.6528 14.6504 10.7161C14.6081 10.7794 14.548 10.8288 14.4776 10.8579C14.4073 10.8871 14.3299 10.8947 14.2552 10.8798C14.1805 10.865 14.1119 10.8283 14.0581 10.7745C14.0042 10.7206 13.9676 10.652 13.9527 10.5773C13.9379 10.5026 13.9455 10.4252 13.9746 10.3549C14.0038 10.2845 14.0531 10.2244 14.1164 10.1821C14.1797 10.1398 14.2542 10.1172 14.3303 10.1172C14.3811 10.1165 14.4314 10.126 14.4784 10.1452C14.5255 10.1643 14.5682 10.1926 14.604 10.2285C14.6399 10.2644 14.6683 10.3071 14.6874 10.3541C14.7065 10.4011 14.716 10.4515 14.7153 10.5022Z" fill="#45413C" stroke="#45413C" stroke-width="0.5" stroke-linecap="round" stroke-linejoin="round"/>
<path d="M9.28519 10.5022C9.28519 10.5784 9.30777 10.6528 9.35007 10.7161C9.39238 10.7794 9.45251 10.8288 9.52286 10.8579C9.59321 10.8871 9.67062 10.8947 9.7453 10.8798C9.81998 10.865 9.88858 10.8283 9.94243 10.7745C9.99627 10.7206 10.0329 10.652 10.0478 10.5773C10.0626 10.5026 10.055 10.4252 10.0259 10.3549C9.99674 10.2845 9.9474 10.2244 9.88408 10.1821C9.82077 10.1398 9.74634 10.1172 9.67019 10.1172C9.61944 10.1165 9.56908 10.126 9.52207 10.1452C9.47505 10.1643 9.43234 10.1926 9.39646 10.2285C9.36057 10.2644 9.33224 10.3071 9.31313 10.3541C9.29402 10.4011 9.28452 10.4515 9.28519 10.5022Z" fill="#45413C" stroke="#45413C" stroke-width="0.5" stroke-linecap="round" stroke-linejoin="round"/>
<path d="M13.4213 12.8281C13.4529 12.8288 13.4841 12.8363 13.5125 12.8501C13.541 12.8639 13.5662 12.8837 13.5863 12.9081C13.6072 12.9317 13.6226 12.9596 13.6312 12.9899C13.6399 13.0202 13.6416 13.0521 13.6363 13.0831C13.5688 13.4677 13.3679 13.8162 13.0688 14.0673C12.7698 14.3185 12.3918 14.4561 12.0013 14.4561C11.6108 14.4561 11.2328 14.3185 10.9338 14.0673C10.6348 13.8162 10.4338 13.4677 10.3663 13.0831C10.361 13.0521 10.3627 13.0202 10.3714 12.9899C10.38 12.9596 10.3954 12.9317 10.4163 12.9081C10.436 12.8832 10.461 12.863 10.4896 12.8492C10.5182 12.8353 10.5495 12.8281 10.5813 12.8281H13.4213Z" fill="#FF6242"/>
<path d="M11.9978 13.5015C12.4492 13.4839 12.8934 13.6196 13.2578 13.8865C13.1003 14.062 12.9075 14.2023 12.6922 14.2984C12.4768 14.3944 12.2436 14.4441 12.0078 14.4441C11.772 14.4441 11.5388 14.3944 11.3235 14.2984C11.1081 14.2023 10.9154 14.062 10.7578 13.8865C11.1168 13.6239 11.5532 13.4884 11.9978 13.5015Z" fill="#FFA694"/>
<path d="M13.4213 12.8281C13.4529 12.8288 13.4841 12.8363 13.5125 12.8501C13.541 12.8639 13.5662 12.8837 13.5863 12.9081C13.6072 12.9317 13.6226 12.9596 13.6312 12.9899C13.6399 13.0202 13.6416 13.0521 13.6363 13.0831C13.5688 13.4677 13.3679 13.8162 13.0688 14.0673C12.7698 14.3185 12.3918 14.4561 12.0013 14.4561C11.6108 14.4561 11.2328 14.3185 10.9338 14.0673C10.6348 13.8162 10.4338 13.4677 10.3663 13.0831C10.361 13.0521 10.3627 13.0202 10.3714 12.9899C10.38 12.9596 10.3954 12.9317 10.4163 12.9081C10.436 12.8832 10.461 12.863 10.4896 12.8492C10.5182 12.8353 10.5495 12.8281 10.5813 12.8281H13.4213Z" stroke="#45413C" stroke-width="0.5" stroke-linecap="round" stroke-linejoin="round"/>
<path d="M14.4688 12.1281C14.4688 12.2077 14.5214 12.284 14.6152 12.3403C14.709 12.3965 14.8361 12.4281 14.9688 12.4281C15.1014 12.4281 15.2285 12.3965 15.3223 12.3403C15.4161 12.284 15.4688 12.2077 15.4688 12.1281C15.4688 12.0486 15.4161 11.9723 15.3223 11.916C15.2285 11.8597 15.1014 11.8281 14.9688 11.8281C14.8361 11.8281 14.709 11.8597 14.6152 11.916C14.5214 11.9723 14.4688 12.0486 14.4688 12.1281Z" fill="#FFB59E"/>
<path d="M8.53125 12.1281C8.53125 12.2077 8.58393 12.284 8.6777 12.3403C8.77147 12.3965 8.89864 12.4281 9.03125 12.4281C9.16386 12.4281 9.29104 12.3965 9.3848 12.3403C9.47857 12.284 9.53125 12.2077 9.53125 12.1281C9.53125 12.0486 9.47857 11.9723 9.3848 11.916C9.29104 11.8597 9.16386 11.8281 9.03125 11.8281C8.89864 11.8281 8.77147 11.8597 8.6777 11.916C8.58393 11.9723 8.53125 12.0486 8.53125 12.1281Z" fill="#FFB59E"/>
<path d="M8.33563 5.35123C8.43231 5.28337 8.50458 5.18619 8.54173 5.07408C8.57889 4.96196 8.57897 4.84086 8.54195 4.72869C8.50494 4.61653 8.4328 4.51926 8.33621 4.45128C8.23962 4.38329 8.12371 4.34821 8.00563 4.35123H7.61063C7.5905 4.35206 7.57042 4.34855 7.55177 4.34091C7.53312 4.33328 7.51634 4.32171 7.50258 4.30699C7.48881 4.29227 7.47838 4.27476 7.47201 4.25564C7.46563 4.23653 7.46346 4.21626 7.46563 4.19623L7.58063 3.04123C7.60193 2.87555 7.57535 2.70724 7.50405 2.55618C7.43274 2.40513 7.31969 2.27764 7.17825 2.18877C7.03681 2.09991 6.87289 2.05339 6.70585 2.05471C6.53882 2.05604 6.37565 2.10514 6.23563 2.19623C6.0267 2.35876 5.76451 2.43724 5.50063 2.41623C5.3447 2.39935 5.18808 2.44124 5.0614 2.53371C4.93472 2.62618 4.84709 2.76257 4.81563 2.91623C4.51734 4.3392 4.39476 5.7934 4.45063 7.24623L6.88063 7.42123L6.94063 6.38623L8.33563 5.35123Z" fill="#FFCEBF"/>
<path d="M5.27594 3.37685C5.57269 3.40861 5.87093 3.33227 6.11594 3.16185C6.23018 3.08645 6.35868 3.0353 6.49349 3.01158C6.6283 2.98785 6.76655 2.99206 6.89967 3.02393C7.03278 3.0558 7.15794 3.11467 7.26739 3.19687C7.37683 3.27908 7.46824 3.38288 7.53594 3.50185L7.58094 3.05685C7.60223 2.89118 7.57566 2.72287 7.50435 2.57181C7.43305 2.42075 7.32 2.29326 7.17856 2.2044C7.03711 2.11554 6.87319 2.06902 6.70616 2.07034C6.53912 2.07166 6.37596 2.12077 6.23594 2.21185C6.02488 2.36906 5.76289 2.44213 5.50094 2.41685C5.34501 2.39997 5.18839 2.44186 5.06171 2.53433C4.93503 2.6268 4.84739 2.7632 4.81594 2.91685C4.77594 3.13185 4.74594 3.34185 4.71094 3.55185C4.78718 3.48406 4.87704 3.43337 4.97449 3.40319C5.07194 3.37301 5.17473 3.36403 5.27594 3.37685Z" fill="#FFDCD1"/>
<path d="M8.33563 5.35123C8.43231 5.28337 8.50458 5.18619 8.54173 5.07408C8.57889 4.96196 8.57897 4.84086 8.54195 4.72869C8.50494 4.61653 8.4328 4.51926 8.33621 4.45128C8.23962 4.38329 8.12371 4.34821 8.00563 4.35123H7.61063C7.5905 4.35206 7.57042 4.34855 7.55177 4.34091C7.53312 4.33328 7.51634 4.32171 7.50258 4.30699C7.48881 4.29227 7.47838 4.27476 7.47201 4.25564C7.46563 4.23653 7.46346 4.21626 7.46563 4.19623L7.58063 3.04123C7.60193 2.87555 7.57535 2.70724 7.50405 2.55618C7.43274 2.40513 7.31969 2.27764 7.17825 2.18877C7.03681 2.09991 6.87289 2.05339 6.70585 2.05471C6.53882 2.05604 6.37565 2.10514 6.23563 2.19623C6.0267 2.35876 5.76451 2.43724 5.50063 2.41623C5.3447 2.39935 5.18808 2.44124 5.0614 2.53371C4.93472 2.62618 4.84709 2.76257 4.81563 2.91623C4.51734 4.3392 4.39476 5.7934 4.45063 7.24623L6.88063 7.42123L6.94063 6.38623L8.33563 5.35123Z" stroke="#45413C" stroke-width="0.5" stroke-linecap="round" stroke-linejoin="round"/>
<path opacity="0.15" d="M4.5 22.75C4.5 22.9489 5.29018 23.1397 6.6967 23.2803C8.10322 23.421 10.0109 23.5 12 23.5C13.9891 23.5 15.8968 23.421 17.3033 23.2803C18.7098 23.1397 19.5 22.9489 19.5 22.75C19.5 22.5511 18.7098 22.3603 17.3033 22.2197C15.8968 22.079 13.9891 22 12 22C10.0109 22 8.10322 22.079 6.6967 22.2197C5.29018 22.3603 4.5 22.5511 4.5 22.75Z" fill="#45413C"/>
<path d="M12.0744 15.6125C11.3623 15.6021 10.6542 15.7207 9.98436 15.9625C9.76263 16.0481 9.52575 16.0875 9.28825 16.0783C9.05076 16.069 8.81765 16.0114 8.60322 15.9088C8.3888 15.8063 8.19758 15.6611 8.04129 15.482C7.88501 15.3029 7.76695 15.0938 7.69436 14.8675C6.94494 12.3373 6.74548 9.67611 7.10936 7.0625H4.07936C3.91625 9.35961 3.91625 11.6654 4.07936 13.9625C4.26887 16.9002 4.94473 19.7861 6.07936 22.5025H17.9394V21.7475C17.9573 20.1613 17.3535 18.6312 16.2573 17.4845C15.1612 16.3379 13.6597 15.666 12.0744 15.6125Z" fill="#00B8F0"/>
<path d="M12.0752 15.6087C11.3631 15.5983 10.655 15.7169 9.98515 15.9587C9.76342 16.0443 9.52654 16.0837 9.28904 16.0745C9.05155 16.0653 8.81844 16.0076 8.60401 15.9051C8.38959 15.8026 8.19837 15.6573 8.04208 15.4782C7.8858 15.2992 7.76774 15.0901 7.69515 14.8637C7.25293 13.4383 7.0024 11.9603 6.95015 10.4688C6.85256 12.5065 7.10453 14.546 7.69515 16.4987C7.76754 16.7269 7.88608 16.9377 8.0434 17.1181C8.20073 17.2984 8.39348 17.4445 8.60967 17.5472C8.82586 17.6499 9.06086 17.707 9.30007 17.715C9.53928 17.7231 9.77758 17.6818 10.0002 17.5937C10.67 17.3519 11.3781 17.2333 12.0902 17.2438C13.521 17.2912 14.8885 17.8457 15.9482 18.8083C17.0079 19.771 17.6909 21.079 17.8752 22.4987H17.9402V21.7438C17.958 20.1576 17.3543 18.6274 16.2581 17.4808C15.162 16.3342 13.6605 15.6622 12.0752 15.6087Z" fill="#009FD9"/>
<path d="M12.0744 15.6125C11.3623 15.6021 10.6542 15.7207 9.98436 15.9625C9.76263 16.0481 9.52575 16.0875 9.28825 16.0783C9.05076 16.069 8.81765 16.0114 8.60322 15.9088C8.3888 15.8063 8.19758 15.6611 8.04129 15.482C7.88501 15.3029 7.76695 15.0938 7.69436 14.8675C6.94494 12.3373 6.74548 9.67611 7.10936 7.0625H4.07936C3.91625 9.35961 3.91625 11.6654 4.07936 13.9625C4.26887 16.9002 4.94473 19.7861 6.07936 22.5025H17.9394V21.7475C17.9573 20.1613 17.3535 18.6312 16.2573 17.4845C15.1612 16.3379 13.6597 15.666 12.0744 15.6125V15.6125Z" stroke="#45413C" stroke-width="0.5" stroke-linecap="round" stroke-linejoin="round"/>
<path d="M12.0005 15.435C11.5704 15.4353 11.1426 15.373 10.7305 15.25V16.32C10.7305 16.6568 10.8643 16.9799 11.1024 17.218C11.3406 17.4562 11.6636 17.59 12.0005 17.59C12.3373 17.59 12.6603 17.4562 12.8985 17.218C13.1367 16.9799 13.2705 16.6568 13.2705 16.32V15.25C12.8584 15.373 12.4305 15.4353 12.0005 15.435Z" fill="#FFCEBF"/>
<path d="M12.0005 15.435C11.5704 15.4353 11.1426 15.373 10.7305 15.25C10.7305 15.5868 10.8643 15.9099 11.1024 16.148C11.3406 16.3862 11.6636 16.52 12.0005 16.52C12.3373 16.52 12.6603 16.3862 12.8985 16.148C13.1367 15.9099 13.2705 15.5868 13.2705 15.25C12.8584 15.373 12.4305 15.4353 12.0005 15.435Z" fill="#FFB59E"/>
<path d="M12.0005 15.435C11.5704 15.4353 11.1426 15.373 10.7305 15.25V16.32C10.7305 16.6568 10.8643 16.9799 11.1024 17.218C11.3406 17.4562 11.6636 17.59 12.0005 17.59C12.3373 17.59 12.6603 17.4562 12.8985 17.218C13.1367 16.9799 13.2705 16.6568 13.2705 16.32V15.25C12.8584 15.373 12.4305 15.4353 12.0005 15.435V15.435Z" stroke="#45413C" stroke-width="0.5" stroke-linecap="round" stroke-linejoin="round"/>
</svg>
