<svg width="44" height="44" viewBox="0 0 44 44" fill="none" xmlns="http://www.w3.org/2000/svg">
<path fill-rule="evenodd" clip-rule="evenodd" d="M12.4381 22.7899C12.4381 21.8153 13.2282 21.0252 14.2028 21.0252H14.22C15.1947 21.0252 15.9848 21.8153 15.9848 22.7899C15.9848 23.7646 15.1947 24.5546 14.22 24.5546H14.2028C13.2282 24.5546 12.4381 23.7646 12.4381 22.7899ZM20.1024 22.7899C20.1024 21.8153 20.8925 21.0252 21.8671 21.0252H21.8843C22.859 21.0252 23.649 21.8153 23.649 22.7899C23.649 23.7646 22.859 24.5546 21.8843 24.5546H21.8671C20.8925 24.5546 20.1024 23.7646 20.1024 22.7899ZM27.7667 22.7899C27.7667 21.8153 28.5568 21.0252 29.5314 21.0252H29.5486C30.5232 21.0252 31.3133 21.8153 31.3133 22.7899C31.3133 23.7646 30.5232 24.5546 29.5486 24.5546H29.5314C28.5568 24.5546 27.7667 23.7646 27.7667 22.7899Z" fill="#BD9268"/>
<path fill-rule="evenodd" clip-rule="evenodd" d="M34.894 9.1021C27.7803 1.98558 16.2218 1.98558 9.10811 9.1021C3.5364 14.6727 2.328 22.9295 5.45385 29.6845C5.46012 29.698 5.46604 29.7117 5.47161 29.7256C5.60028 30.0452 5.60427 30.4352 5.59626 30.7186C5.587 31.0461 5.55032 31.4328 5.5027 31.8415C5.45781 32.2269 5.40066 32.6524 5.34174 33.0911L5.32972 33.1807C5.26615 33.6543 5.20078 34.1451 5.14362 34.6377C5.02833 35.6314 4.95186 36.5899 4.98588 37.3736C5.00285 37.7648 5.04637 38.082 5.11258 38.3229C5.18061 38.5704 5.25569 38.6754 5.29049 38.7102C5.32563 38.7451 5.43076 38.8198 5.67734 38.8875C5.91827 38.9536 6.23551 38.9971 6.62662 39.014C7.41037 39.0479 8.36878 38.9715 9.36229 38.8563C9.85483 38.7992 10.3457 38.7339 10.8192 38.6704L10.9081 38.6585C11.347 38.5996 11.7726 38.5425 12.1582 38.4976C12.5669 38.4501 12.9535 38.4135 13.281 38.4043C13.5644 38.3963 13.9543 38.4003 14.2738 38.529C14.2876 38.5346 14.3012 38.5404 14.3147 38.5467C21.0708 41.6712 29.3243 40.4646 34.894 34.8922C42.0083 27.777 42.0226 16.2298 34.894 9.1021ZM36.142 7.85435C28.3391 0.0485593 15.6631 0.0485512 7.86021 7.85432C1.76293 13.9504 0.43366 22.9752 3.82535 30.3671C3.82643 30.3859 3.83779 30.473 3.83225 30.6687C3.82524 30.917 3.79592 31.2419 3.74985 31.6373C3.70682 32.0067 3.65164 32.4175 3.59204 32.8614L3.5807 32.9459C3.51722 33.4188 3.44987 33.9241 3.39067 34.4343C3.27325 35.4463 3.18245 36.5198 3.22283 37.4501C3.24305 37.9161 3.29714 38.3764 3.41098 38.7906C3.523 39.1982 3.71041 39.6258 4.04257 39.958C4.3748 40.2898 4.80272 40.4774 5.21016 40.5892C5.62421 40.7029 6.08444 40.7569 6.55027 40.7771C7.48041 40.8173 8.55373 40.7266 9.56553 40.6093C10.0757 40.5501 10.5809 40.4829 11.0537 40.4194L11.1373 40.4082C11.5814 40.3487 11.9925 40.2935 12.3621 40.2505C12.7575 40.2045 13.0823 40.1753 13.3305 40.1683C13.5264 40.1628 13.6135 40.1742 13.6322 40.1752C21.0249 43.5654 30.0466 42.2381 36.1422 36.1398C43.9445 28.3364 43.9608 15.6722 36.142 7.85435Z" fill="#BD9268"/>
</svg>
