<svg width="40" height="40" viewBox="0 0 40 41" fill="none" xmlns="http://www.w3.org/2000/svg">
<path fill-rule="evenodd" clip-rule="evenodd" d="M2 20.7188C2 30.6599 10.0589 38.7188 20 38.7188C29.9411 38.7188 38 30.6599 38 20.7188C38 10.7776 29.9411 2.71875 20 2.71875C10.0589 2.71875 2 10.7776 2 20.7188ZM20 0.71875C8.95431 0.71875 0 9.67306 0 20.7188C0 31.7644 8.95431 40.7188 20 40.7188C31.0457 40.7188 40 31.7644 40 20.7188C40 9.67306 31.0457 0.71875 20 0.71875Z" fill="#BD9268"/>
<path d="M26.2376 23.5116C26.7624 22.9869 26.8373 22.2372 26.3876 21.4876C26.0128 20.8879 25.3381 20.5881 24.5885 20.738C24.2887 20.813 23.9888 20.9629 23.689 21.1878C21.3652 22.762 18.2168 22.687 15.893 21.1128C15.7431 21.0379 15.5932 20.9629 15.4433 20.8879C14.6187 20.5131 13.7941 20.6631 13.3444 21.4127C12.8196 22.1623 12.8946 22.9869 13.5692 23.6615C13.7192 23.8114 13.8691 23.8864 13.944 24.0363L14.019 24.1113C15.0685 24.9358 16.3428 25.4606 17.9919 25.6855L17.0174 26.66C16.1929 27.4845 15.2933 28.384 14.4688 29.2086C14.2439 29.4335 13.944 29.8083 13.944 30.333C13.944 31.0077 14.3188 31.6823 14.9935 31.9822C15.2184 32.1321 15.4433 32.1321 15.6681 32.1321C16.0429 32.1321 16.4927 31.9822 16.7926 31.6074C17.917 30.483 18.8165 29.5834 19.716 28.6839C19.791 28.6089 19.791 28.6089 19.791 28.6089C19.791 28.6089 19.866 28.6089 19.866 28.6839C20.4656 29.3585 21.1403 29.9582 21.74 30.6329C22.0398 30.9327 22.3397 31.2326 22.6395 31.5324C23.0143 31.9072 23.3142 32.0571 23.7639 32.0571C24.4386 32.1321 25.1882 31.6823 25.488 31.0077C25.7879 30.408 25.638 29.6584 25.1132 29.2086C24.3636 28.459 23.614 27.6344 22.7894 26.8848L21.5151 25.6105C22.1898 25.5355 22.9394 25.3856 23.614 25.0858C24.7384 24.711 25.563 24.1862 26.2376 23.5116Z" fill="#BD9268"/>
<path d="M19.791 21.4127C23.0143 21.4127 25.638 18.864 25.638 15.6407C25.638 14.0665 25.0383 12.5673 23.9138 11.4429C22.7894 10.3184 21.3652 9.71875 19.866 9.71875C16.6426 9.71875 14.094 12.3424 14.019 15.4907C14.019 17.0649 14.6187 18.4892 15.7431 19.6136C16.7926 20.813 18.2168 21.4127 19.791 21.4127ZM18.1419 13.9166C18.5916 13.4668 19.1913 13.2419 19.791 13.2419C21.1403 13.2419 22.1148 14.2914 22.1148 15.5657C22.1148 16.915 21.0653 17.8895 19.791 17.8895C18.4417 17.8895 17.4672 16.84 17.4672 15.5657C17.4672 14.966 17.6921 14.3663 18.1419 13.9166Z" fill="#BD9268"/>
<path d="M26.2376 23.5116C26.7624 22.9869 26.8373 22.2372 26.3876 21.4876C26.0128 20.8879 25.3381 20.5881 24.5885 20.738C24.2887 20.813 23.9888 20.9629 23.689 21.1878C21.3652 22.762 18.2168 22.687 15.893 21.1128C15.7431 21.0379 15.5932 20.9629 15.4433 20.8879C14.6187 20.5131 13.7941 20.6631 13.3444 21.4127C12.8196 22.1623 12.8946 22.9869 13.5692 23.6615C13.7192 23.8114 13.8691 23.8864 13.944 24.0363L14.019 24.1113C15.0685 24.9358 16.3428 25.4606 17.9919 25.6855L17.0174 26.66C16.1929 27.4845 15.2933 28.384 14.4688 29.2086C14.2439 29.4335 13.944 29.8083 13.944 30.333C13.944 31.0077 14.3188 31.6823 14.9935 31.9822C15.2184 32.1321 15.4433 32.1321 15.6681 32.1321C16.0429 32.1321 16.4927 31.9822 16.7926 31.6074C17.917 30.483 18.8165 29.5834 19.716 28.6839C19.791 28.6089 19.791 28.6089 19.791 28.6089C19.791 28.6089 19.866 28.6089 19.866 28.6839C20.4656 29.3585 21.1403 29.9582 21.74 30.6329C22.0398 30.9327 22.3397 31.2326 22.6395 31.5324C23.0143 31.9072 23.3142 32.0571 23.7639 32.0571C24.4386 32.1321 25.1882 31.6823 25.488 31.0077C25.7879 30.408 25.638 29.6584 25.1132 29.2086C24.3636 28.459 23.614 27.6344 22.7894 26.8848L21.5151 25.6105C22.1898 25.5355 22.9394 25.3856 23.614 25.0858C24.7384 24.711 25.563 24.1862 26.2376 23.5116Z" fill="#BD9268"/>
</svg>
