<svg width="24" height="24" viewBox="0 0 45 45" fill="none" xmlns="http://www.w3.org/2000/svg">
<path fill-rule="evenodd" clip-rule="evenodd" d="M2.28906 5.86508C2.28906 5.10038 2.81579 4.48047 3.46553 4.48047H41.1126C41.7623 4.48047 42.2891 5.10038 42.2891 5.86508C42.2891 6.62979 41.7623 7.2497 41.1126 7.2497H3.46553C2.81579 7.2497 2.28906 6.62979 2.28906 5.86508ZM2.28906 16.942C2.28906 16.1773 2.81579 15.5574 3.46553 15.5574H32.8773C33.527 15.5574 34.0538 16.1773 34.0538 16.942C34.0538 17.7067 33.527 18.3266 32.8773 18.3266H3.46553C2.81579 18.3266 2.28906 17.7067 2.28906 16.942ZM2.28906 28.0189C2.28906 27.2542 2.81579 26.6343 3.46553 26.6343H41.1126C41.7623 26.6343 42.2891 27.2542 42.2891 28.0189C42.2891 28.7836 41.7623 29.4035 41.1126 29.4035H3.46553C2.81579 29.4035 2.28906 28.7836 2.28906 28.0189ZM2.28906 39.0959C2.28906 38.3312 2.81579 37.7112 3.46553 37.7112H25.8185C26.4682 37.7112 26.9949 38.3312 26.9949 39.0959C26.9949 39.8606 26.4682 40.4805 25.8185 40.4805H3.46553C2.81579 40.4805 2.28906 39.8606 2.28906 39.0959Z" fill="#BD9268"/>
</svg>
