<svg width="20" height="20" viewBox="0 0 20 20" fill="none" xmlns="http://www.w3.org/2000/svg">
	<path fill-rule="evenodd" clip-rule="evenodd" d="M15.3186 2.55993C14.3047 1.48864 12.67 1.48864 11.6561 2.55993L3.87269 10.784C2.25747 12.4906 2.25747 15.266 3.87269 16.9727C5.4766 18.6674 8.06791 18.6674 9.67181 16.9727L17.4552 8.74867C17.6156 8.57915 17.8824 8.57246 18.051 8.73372C18.2197 8.89499 18.2263 9.16314 18.0659 9.33266L10.2825 17.5567C8.34638 19.6024 5.19813 19.6024 3.26198 17.5567C1.33715 15.5229 1.33715 12.2338 3.26198 10.2L11.0453 1.97594C12.3915 0.553592 14.5831 0.553592 15.9293 1.97594C17.2641 3.38633 17.2641 5.66469 15.9293 7.07508L8.45114 14.9766C7.69501 15.7755 6.45995 15.7755 5.70382 14.9766C4.95901 14.1896 4.95901 12.922 5.70382 12.135L12.2663 5.20105C12.4267 5.03153 12.6935 5.02484 12.8621 5.18611C13.0308 5.34737 13.0374 5.61552 12.877 5.78504L6.31453 12.719C5.87933 13.1789 5.87933 13.9328 6.31453 14.3926C6.73842 14.8405 7.41655 14.8405 7.84043 14.3926L15.3186 6.49109C16.3438 5.40784 16.3438 3.64319 15.3186 2.55993Z" fill="#444444" />
</svg>
