<svg width="44" height="44" viewBox="0 0 44 44" fill="none" xmlns="http://www.w3.org/2000/svg">
<path fill-rule="evenodd" clip-rule="evenodd" d="M13.9292 12.8471C13.9298 7.96146 17.5436 4 22 4C26.4568 4 30.0708 7.96219 30.0708 12.8484C30.0708 17.735 26.4566 21.6948 22 21.6948H21.9495L21.9466 21.6948C17.5026 21.6787 13.9172 17.7152 13.9292 12.8471ZM22 5.8944C18.4975 5.8944 15.6571 9.00843 15.6571 12.8484L15.6571 12.8511C15.6472 16.6753 18.4628 19.7869 21.9509 19.8004H22C25.5028 19.8004 28.3429 16.6881 28.3429 12.8484C28.3429 9.00843 25.5025 5.8944 22 5.8944ZM11.1962 6.80753C11.2918 7.32006 10.9903 7.82047 10.5228 7.92522C8.44452 8.39092 6.88023 10.4109 6.88023 12.8277C6.88023 15.1437 8.31451 17.0916 10.264 17.6631C10.725 17.7982 10.9988 18.3174 10.8755 18.8228C10.7523 19.3282 10.2787 19.6283 9.81773 19.4932C7.1324 18.7061 5.15231 16.0241 5.15231 12.8277C5.15231 9.49402 7.30939 6.71172 10.1767 6.0692C10.6442 5.96444 11.1007 6.295 11.1962 6.80753ZM32.8038 6.80767C32.8992 6.29513 33.3556 5.96449 33.8231 6.06917C36.6927 6.71171 38.8477 9.49432 38.8477 12.8277C38.8477 16.0239 36.8678 18.7059 34.1843 19.4932C33.7234 19.6284 33.2497 19.3283 33.1264 18.823C33.003 18.3176 33.2767 17.7984 33.7377 17.6631C35.6853 17.0918 37.1198 15.1439 37.1198 12.8277C37.1198 10.4106 35.5571 8.39093 33.4774 7.92525C33.0099 7.82057 32.7083 7.32021 32.8038 6.80767ZM4.16969 25.7739C5.4225 24.7792 7.12044 24.1013 8.95143 24.1013C9.42859 24.1013 9.81539 24.5254 9.81539 25.0485C9.81539 25.5717 9.42859 25.9957 8.95143 25.9957C7.49908 25.9957 6.15329 26.538 5.1832 27.3082C4.18151 28.1035 3.72792 29.0096 3.72792 29.6682C3.72792 30.468 4.38003 31.5165 5.49836 31.8039C5.96292 31.9232 6.25125 32.4329 6.14236 32.9422C6.03347 33.4515 5.56859 33.7677 5.10403 33.6483C3.28345 33.1804 2 31.4337 2 29.6682C2 28.1472 2.94848 26.7435 4.16969 25.7739ZM34.1846 25.0485C34.1846 24.5254 34.5714 24.1013 35.0486 24.1013C36.8796 24.1013 38.5775 24.7792 39.8303 25.7739C41.0515 26.7435 42 28.1472 42 29.6682C42 31.4334 40.7169 33.1802 38.8981 33.6482C38.4335 33.7677 37.9686 33.4518 37.8596 32.9425C37.7505 32.4332 38.0387 31.9235 38.5033 31.8039C39.6196 31.5167 40.2721 30.4683 40.2721 29.6682C40.2721 29.0096 39.8185 28.1035 38.8168 27.3082C37.8467 26.538 36.5009 25.9957 35.0486 25.9957C34.5714 25.9957 34.1846 25.5717 34.1846 25.0485ZM14.5445 29.5519C12.6216 30.8469 11.6212 32.4751 11.6212 34.0206C11.6212 34.7772 11.8551 35.3609 12.2836 35.8485C12.7325 36.3594 13.4272 36.7985 14.3797 37.1486C16.2933 37.8522 18.9868 38.1056 22 38.1056C25.0286 38.1056 27.7212 37.8431 29.6295 37.1317C30.5792 36.7777 31.2713 36.3351 31.7184 35.8214C32.1456 35.3306 32.3788 34.7438 32.3788 33.9858C32.3788 32.4451 31.3743 30.8253 29.4455 29.537C27.5429 28.2661 24.8911 27.436 22 27.436C19.0929 27.436 16.4423 28.2738 14.5445 29.5519ZM13.6401 27.9377C15.8396 26.4565 18.8103 25.5416 22 25.5416C25.172 25.5416 28.1416 26.4478 30.3446 27.9192C32.5213 29.3732 34.1067 31.5019 34.1067 33.9858C34.1067 35.24 33.6966 36.2927 32.9684 37.1292C32.2602 37.9429 31.2847 38.5156 30.1858 38.9252C27.997 39.7412 25.0682 40 22 40C18.9501 40 16.0222 39.7506 13.8303 38.9447C12.7299 38.5402 11.7508 37.9728 11.0391 37.1627C10.3068 36.3293 9.89331 35.2773 9.89331 34.0206C9.89331 31.5396 11.4659 29.4019 13.6401 27.9377Z" fill="#BD9268"/>
</svg>
