<svg width="40" height="40" viewBox="0 0 40 40" fill="none" xmlns="http://www.w3.org/2000/svg">
<path d="M40 20C40 31.0457 31.0457 40 20 40C8.9543 40 0 31.0457 0 20C0 8.9543 8.9543 0 20 0C31.0457 0 40 8.9543 40 20Z" fill="#BD9268"/>
<path d="M24.6961 21.6325L24.1273 22.1987C24.1273 22.1987 22.7736 23.5437 19.0798 19.8712C15.3861 16.1987 16.7398 14.8537 16.7398 14.8537L17.0973 14.4962C17.9811 13.6187 18.0648 12.2087 17.2936 11.1787L15.7186 9.07497C14.7636 7.79997 12.9198 7.63122 11.8261 8.71872L9.86357 10.6687C9.32232 11.2087 8.95982 11.9062 9.00357 12.6812C9.11607 14.665 10.0136 18.9312 15.0186 23.9087C20.3273 29.1862 25.3086 29.3962 27.3448 29.2062C27.9898 29.1462 28.5498 28.8187 29.0011 28.3687L30.7761 26.6037C31.9761 25.4125 31.6386 23.3687 30.1036 22.535L27.7161 21.2362C26.7086 20.69 25.4836 20.85 24.6961 21.6325Z" fill="white"/>
</svg>
