<svg width="24" height="24" viewBox="0 0 24 24" fill="none" xmlns="http://www.w3.org/2000/svg">
<path d="M18.7653 6.07594C18.5101 5.77435 18.3384 5.41112 18.2673 5.02247C18.1963 4.63382 18.2283 4.23333 18.3603 3.86094C18.7111 3.04619 19.3606 2.39671 20.1753 2.04594C20.3965 1.92107 20.5859 1.74698 20.7289 1.53716C20.872 1.32733 20.9649 1.0874 21.0003 0.835938C21.0003 0.835938 22.6503 3.12594 21.8053 5.07094C21.0003 6.91594 19.8053 6.48094 19.8053 6.48094L18.7653 6.07594Z" fill="#F7E5C6"/>
<path d="M20.1739 2.04594C19.3756 2.39371 18.7356 3.02658 18.3789 3.82094C18.9795 3.59583 19.6436 3.61015 20.2339 3.86094C20.559 3.96316 20.8597 4.13077 21.1177 4.35347C21.3756 4.57616 21.5853 4.84924 21.7339 5.15594L21.7739 5.07094C22.6339 3.12594 20.9989 0.835938 20.9989 0.835938C20.9634 1.0874 20.8706 1.32733 20.7275 1.53716C20.5845 1.74698 20.395 1.92107 20.1739 2.04594Z" fill="#FFF5E3"/>
<path d="M18.7653 6.07594C18.5101 5.77435 18.3384 5.41112 18.2673 5.02247C18.1963 4.63382 18.2283 4.23333 18.3603 3.86094C18.7111 3.04619 19.3606 2.39671 20.1753 2.04594C20.3965 1.92107 20.5859 1.74698 20.7289 1.53716C20.872 1.32733 20.9649 1.0874 21.0003 0.835938C21.0003 0.835938 22.6503 3.12594 21.8053 5.07094C21.0003 6.91594 19.8053 6.48094 19.8053 6.48094L18.7653 6.07594Z" stroke="#45413C" stroke-width="0.5" stroke-linecap="round" stroke-linejoin="round"/>
<path d="M19.6484 6.36062C20.1897 5.91221 20.5863 5.3138 20.7884 4.64062" stroke="#45413C" stroke-width="0.5" stroke-linecap="round" stroke-linejoin="round"/>
<path d="M19.1604 6.21281C19.0661 5.59415 19.1422 4.96151 19.3804 4.38281" stroke="#45413C" stroke-width="0.5" stroke-linecap="round" stroke-linejoin="round"/>
<path opacity="0.15" d="M6.25 22.75C6.25 22.9489 6.8558 23.1397 7.93414 23.2803C9.01247 23.421 10.475 23.5 12 23.5C13.525 23.5 14.9875 23.421 16.0659 23.2803C17.1442 23.1397 17.75 22.9489 17.75 22.75C17.75 22.5511 17.1442 22.3603 16.0659 22.2197C14.9875 22.079 13.525 22 12 22C10.475 22 9.01247 22.079 7.93414 22.2197C6.8558 22.3603 6.25 22.5511 6.25 22.75Z" fill="#45413C"/>
<path d="M10.5 3.30469C5.665 3.30469 1.75 5.66469 1.75 9.80469V9.83969C1.75713 10.1719 1.85082 10.4966 2.02183 10.7816C2.19284 11.0665 2.43525 11.3019 2.72509 11.4645C3.01494 11.6271 3.34219 11.7113 3.67452 11.7087C4.00684 11.7061 4.33274 11.6168 4.62 11.4497L6.18 10.5797C6.2859 10.5221 6.40778 10.5009 6.52689 10.5194C6.64601 10.5379 6.75576 10.5949 6.83927 10.6819C6.92278 10.7688 6.97542 10.8807 6.98911 11.0005C7.00279 11.1202 6.97675 11.2412 6.915 11.3447L4.755 14.8447C4.62719 15.0492 4.54355 15.2782 4.50946 15.5169C4.47536 15.7556 4.49155 15.9989 4.55699 16.231C4.62243 16.4631 4.73568 16.679 4.88947 16.8647C5.04326 17.0505 5.23419 17.2021 5.45 17.3097C6.79305 17.9683 8.26916 18.3104 9.765 18.3097C14.595 18.3097 18.515 14.9547 18.515 10.8097C18.515 6.66469 15.345 3.30469 10.5 3.30469ZM9 16.5547C8.17 16.5547 7.5 16.0547 7.5 15.4297C7.5 14.8047 8.17 14.3047 9 14.3047C9.83 14.3047 10.5 14.8047 10.5 15.4297C10.5 16.0547 9.84 16.5547 9 16.5547Z" fill="#F0D5A8"/>
<path d="M10.5 4.80469C15 4.80469 18.075 7.73969 18.455 11.5097C18.4826 11.2757 18.4976 11.0403 18.5 10.8047C18.5 6.66469 15.33 3.30469 10.5 3.30469C5.67 3.30469 1.75 5.66469 1.75 9.80469V9.83969C1.75056 10.0177 1.77752 10.1946 1.83 10.3647C2.395 6.80969 6.06 4.80469 10.5 4.80469Z" fill="#F7E5C6"/>
<path d="M10.5 3.30469C5.665 3.30469 1.75 5.66469 1.75 9.80469V9.83969C1.75713 10.1719 1.85082 10.4966 2.02183 10.7816C2.19284 11.0665 2.43525 11.3019 2.72509 11.4645C3.01494 11.6271 3.34219 11.7113 3.67452 11.7087C4.00684 11.7061 4.33274 11.6168 4.62 11.4497L6.18 10.5797C6.2859 10.5221 6.40778 10.5009 6.52689 10.5194C6.64601 10.5379 6.75576 10.5949 6.83927 10.6819C6.92278 10.7688 6.97542 10.8807 6.98911 11.0005C7.00279 11.1202 6.97675 11.2412 6.915 11.3447L4.755 14.8447C4.62719 15.0492 4.54355 15.2782 4.50946 15.5169C4.47536 15.7556 4.49155 15.9989 4.55699 16.231C4.62243 16.4631 4.73568 16.679 4.88947 16.8647C5.04326 17.0505 5.23419 17.2021 5.45 17.3097C6.79305 17.9683 8.26916 18.3104 9.765 18.3097C14.595 18.3097 18.515 14.9547 18.515 10.8097C18.515 6.66469 15.345 3.30469 10.5 3.30469ZM9 16.5547C8.17 16.5547 7.5 16.0547 7.5 15.4297C7.5 14.8047 8.17 14.3047 9 14.3047C9.83 14.3047 10.5 14.8047 10.5 15.4297C10.5 16.0547 9.84 16.5547 9 16.5547Z" stroke="#45413C" stroke-width="0.5" stroke-linecap="round" stroke-linejoin="round"/>
<path d="M12.6133 13.6797C12.6133 13.9781 12.7792 14.2642 13.0746 14.4752C13.37 14.6862 13.7706 14.8047 14.1883 14.8047C14.606 14.8047 15.0066 14.6862 15.302 14.4752C15.5973 14.2642 15.7633 13.9781 15.7633 13.6797C15.7633 13.3813 15.5973 13.0952 15.302 12.8842C15.0066 12.6732 14.606 12.5547 14.1883 12.5547C13.7706 12.5547 13.37 12.6732 13.0746 12.8842C12.7792 13.0952 12.6133 13.3813 12.6133 13.6797Z" fill="#FF6242"/>
<path d="M13.5156 8.66062C13.5156 8.9643 13.6605 9.25553 13.9184 9.47026C14.1762 9.68499 14.526 9.80563 14.8906 9.80563C15.2553 9.80563 15.605 9.68499 15.8629 9.47026C16.1208 9.25553 16.2656 8.9643 16.2656 8.66062C16.2656 8.35695 16.1208 8.06572 15.8629 7.85099C15.605 7.63626 15.2553 7.51563 14.8906 7.51562C14.526 7.51563 14.1762 7.63626 13.9184 7.85099C13.6605 8.06572 13.5156 8.35695 13.5156 8.66062Z" fill="#FF8A14"/>
<path d="M4.26562 7.17969C4.26562 7.47806 4.40786 7.7642 4.66103 7.97518C4.9142 8.18616 5.25758 8.30469 5.61562 8.30469C5.97367 8.30469 6.31705 8.18616 6.57022 7.97518C6.82339 7.7642 6.96563 7.47806 6.96563 7.17969C6.96563 6.88132 6.82339 6.59517 6.57022 6.38419C6.31705 6.17321 5.97367 6.05469 5.61562 6.05469C5.25758 6.05469 4.9142 6.17321 4.66103 6.38419C4.40786 6.59517 4.26562 6.88132 4.26562 7.17969Z" fill="#6DD627"/>
<path d="M9.01172 5.92969C9.01172 6.22806 9.16607 6.5142 9.44081 6.72518C9.71555 6.93616 10.0882 7.05469 10.4767 7.05469C10.8653 7.05469 11.2379 6.93616 11.5126 6.72518C11.7874 6.5142 11.9417 6.22806 11.9417 5.92969C11.9417 5.63132 11.7874 5.34517 11.5126 5.13419C11.2379 4.92321 10.8653 4.80469 10.4767 4.80469C10.0882 4.80469 9.71555 4.92321 9.44081 5.13419C9.16607 5.34517 9.01172 5.63132 9.01172 5.92969Z" fill="#FFE500"/>
<path d="M14.19 13.2397C14.4885 13.2166 14.7875 13.2779 15.0527 13.4167C15.318 13.5556 15.5389 13.7662 15.69 14.0247C15.7428 13.9171 15.7717 13.7995 15.775 13.6797C15.775 13.0597 15.07 12.5547 14.2 12.5547C13.33 12.5547 12.625 13.0547 12.625 13.6797C12.6265 13.7991 12.6538 13.9168 12.705 14.0247C12.8554 13.7691 13.074 13.5603 13.3362 13.4216C13.5984 13.283 13.894 13.22 14.19 13.2397Z" fill="#E04122"/>
<path d="M14.89 8.20563C15.1627 8.19259 15.433 8.26193 15.6657 8.40461C15.8985 8.54729 16.0829 8.75671 16.195 9.00563C16.2388 8.89749 16.2625 8.78228 16.265 8.66563C16.2357 8.32977 16.0746 8.01918 15.817 7.80179C15.5593 7.5844 15.226 7.47792 14.89 7.50563C14.7224 7.48983 14.5534 7.50736 14.3926 7.55721C14.2319 7.60707 14.0826 7.68826 13.9534 7.7961C13.8242 7.90393 13.7176 8.03629 13.6397 8.18553C13.5619 8.33477 13.5144 8.49794 13.5 8.66563C13.5 8.78254 13.5238 8.89823 13.57 9.00563C13.683 8.75423 13.8698 8.5431 14.1055 8.40023C14.3412 8.25736 14.6148 8.1895 14.89 8.20563Z" fill="#EB6D00"/>
<path d="M5.61562 6.73598C5.88298 6.72405 6.14777 6.79244 6.37591 6.93235C6.60404 7.07226 6.78505 7.27727 6.89563 7.52098C6.93918 7.41102 6.96288 7.29421 6.96563 7.17598C6.93266 6.84906 6.77281 6.54811 6.52039 6.33776C6.26797 6.12741 5.94313 6.02445 5.61562 6.05098C5.28812 6.02445 4.96328 6.12741 4.71086 6.33776C4.45845 6.54811 4.29859 6.84906 4.26562 7.17598C4.26615 7.29445 4.28993 7.41167 4.33563 7.52098C4.44565 7.27685 4.62654 7.07145 4.8548 6.93146C5.08306 6.79147 5.34815 6.72336 5.61562 6.73598Z" fill="#46B000"/>
<path d="M10.5 5.4975C10.7827 5.48055 11.0643 5.54562 11.3108 5.68488C11.5574 5.82414 11.7585 6.03166 11.89 6.2825C11.9373 6.1735 11.9628 6.05629 11.965 5.9375C11.965 5.3175 11.31 4.8125 10.5 4.8125C9.69 4.8125 9 5.3075 9 5.9275C9.00224 6.04629 9.02772 6.1635 9.075 6.2725C9.20979 6.01733 9.41693 5.80765 9.67045 5.66978C9.92396 5.5319 10.2126 5.47197 10.5 5.4975Z" fill="#EBCB00"/>
<path d="M12.6133 13.6797C12.6133 13.9781 12.7792 14.2642 13.0746 14.4752C13.37 14.6862 13.7706 14.8047 14.1883 14.8047C14.606 14.8047 15.0066 14.6862 15.302 14.4752C15.5973 14.2642 15.7633 13.9781 15.7633 13.6797C15.7633 13.3813 15.5973 13.0952 15.302 12.8842C15.0066 12.6732 14.606 12.5547 14.1883 12.5547C13.7706 12.5547 13.37 12.6732 13.0746 12.8842C12.7792 13.0952 12.6133 13.3813 12.6133 13.6797V13.6797Z" stroke="#45413C" stroke-width="0.5" stroke-linecap="round" stroke-linejoin="round"/>
<path d="M13.5156 8.66062C13.5156 8.9643 13.6605 9.25553 13.9184 9.47026C14.1762 9.68499 14.526 9.80563 14.8906 9.80563C15.2553 9.80563 15.605 9.68499 15.8629 9.47026C16.1208 9.25553 16.2656 8.9643 16.2656 8.66062C16.2656 8.35695 16.1208 8.06572 15.8629 7.85099C15.605 7.63626 15.2553 7.51563 14.8906 7.51562C14.526 7.51563 14.1762 7.63626 13.9184 7.85099C13.6605 8.06572 13.5156 8.35695 13.5156 8.66062Z" stroke="#45413C" stroke-width="0.5" stroke-linecap="round" stroke-linejoin="round"/>
<path d="M4.26562 7.17969C4.26562 7.47806 4.40786 7.7642 4.66103 7.97518C4.9142 8.18616 5.25758 8.30469 5.61562 8.30469C5.97367 8.30469 6.31705 8.18616 6.57022 7.97518C6.82339 7.7642 6.96563 7.47806 6.96563 7.17969C6.96563 6.88132 6.82339 6.59517 6.57022 6.38419C6.31705 6.17321 5.97367 6.05469 5.61562 6.05469C5.25758 6.05469 4.9142 6.17321 4.66103 6.38419C4.40786 6.59517 4.26562 6.88132 4.26562 7.17969V7.17969Z" stroke="#45413C" stroke-width="0.5" stroke-linecap="round" stroke-linejoin="round"/>
<path d="M9.01172 5.92969C9.01172 6.22806 9.16607 6.5142 9.44081 6.72518C9.71555 6.93616 10.0882 7.05469 10.4767 7.05469C10.8653 7.05469 11.2379 6.93616 11.5126 6.72518C11.7874 6.5142 11.9417 6.22806 11.9417 5.92969C11.9417 5.63132 11.7874 5.34517 11.5126 5.13419C11.2379 4.92321 10.8653 4.80469 10.4767 4.80469C10.0882 4.80469 9.71555 4.92321 9.44081 5.13419C9.16607 5.34517 9.01172 5.63132 9.01172 5.92969V5.92969Z" stroke="#45413C" stroke-width="0.5" stroke-linecap="round" stroke-linejoin="round"/>
<path d="M18.6707 8.58144C18.4088 8.50025 18.1261 8.51803 17.8763 8.63138C17.6266 8.74474 17.4271 8.9458 17.3157 9.19643L17.0557 9.79144C16.2819 11.5423 15.6742 13.3619 15.2407 15.2264L13.7857 21.4614C13.7274 21.6634 13.7498 21.8802 13.8484 22.0659C13.9469 22.2516 14.1138 22.3918 14.3138 22.4567C14.5137 22.5216 14.7311 22.5062 14.92 22.4138C15.1088 22.3214 15.2543 22.1592 15.3257 21.9614L17.6907 16.0014C18.3995 14.2221 18.9418 12.3809 19.3107 10.5014L19.4357 9.86643C19.4901 9.59553 19.442 9.31409 19.3006 9.07667C19.1593 8.83925 18.9348 8.66277 18.6707 8.58144Z" fill="#4ACFFF"/>
<path d="M14.6765 22.0014L16.1315 15.7514C16.568 13.8862 17.1755 12.0651 17.9465 10.3114L18.2065 9.72144C18.2976 9.51398 18.4498 9.33922 18.6427 9.22042C18.8357 9.10162 19.0602 9.04442 19.2865 9.05644C19.1465 8.82824 18.9277 8.65926 18.6715 8.58144C18.4095 8.50025 18.1268 8.51803 17.8771 8.63138C17.6273 8.74474 17.4279 8.9458 17.3165 9.19643L17.0565 9.79144C16.2826 11.5423 15.6749 13.3619 15.2415 15.2264L13.7865 21.4614C13.7405 21.66 13.7711 21.8686 13.8721 22.0456C13.9731 22.2226 14.1372 22.355 14.3315 22.4164C14.4547 22.4463 14.5833 22.4463 14.7065 22.4164C14.6589 22.2834 14.6485 22.1399 14.6765 22.0014Z" fill="#80DDFF"/>
<path d="M18.6707 8.58144C18.4088 8.50025 18.1261 8.51803 17.8763 8.63138C17.6266 8.74474 17.4271 8.9458 17.3157 9.19643L17.0557 9.79144C16.2819 11.5423 15.6742 13.3619 15.2407 15.2264L13.7857 21.4614C13.7274 21.6634 13.7498 21.8802 13.8484 22.0659C13.9469 22.2516 14.1138 22.3918 14.3138 22.4567C14.5137 22.5216 14.7311 22.5062 14.92 22.4138C15.1088 22.3214 15.2543 22.1592 15.3257 21.9614L17.6907 16.0014C18.3995 14.2221 18.9418 12.3809 19.3107 10.5014L19.4357 9.86643C19.4901 9.59553 19.442 9.31409 19.3006 9.07667C19.1593 8.83925 18.9348 8.66277 18.6707 8.58144V8.58144Z" stroke="#45413C" stroke-width="0.5" stroke-linecap="round" stroke-linejoin="round"/>
<path d="M19.2584 9.80966C19.294 9.82206 19.332 9.82607 19.3694 9.82138C19.4068 9.81669 19.4427 9.80342 19.4741 9.78262C19.5056 9.76181 19.5318 9.73403 19.5508 9.70143C19.5697 9.66883 19.5809 9.63229 19.5834 9.59466C19.6163 9.03293 19.7017 8.47551 19.8384 7.92966C19.9616 7.56531 20.1296 7.21766 20.3384 6.89466C20.4534 6.71966 20.2984 6.47466 20.0234 6.39466L18.7984 5.99966C18.5234 5.90966 18.2584 6.02466 18.2484 6.23466C18.2437 6.62191 18.1883 7.00686 18.0834 7.37966C17.8821 7.90166 17.6327 8.40382 17.3384 8.87966C17.3194 8.91237 17.3081 8.94896 17.3054 8.98666C17.3026 9.02436 17.3084 9.06221 17.3224 9.09734C17.3363 9.13248 17.3581 9.16399 17.3859 9.18951C17.4138 9.21503 17.4472 9.23388 17.4834 9.24466L19.2584 9.80966Z" fill="#DAEDF7"/>
<path d="M18.0684 9.24966C18.3636 8.77437 18.6131 8.27212 18.8134 7.74966C18.9234 7.37399 18.9856 6.98592 18.9984 6.59466C18.9984 6.38466 19.2684 6.27466 19.5434 6.35966L20.3684 6.61966C20.2969 6.50742 20.1865 6.42552 20.0584 6.38966L18.7984 5.99966C18.5184 5.90966 18.2584 6.02466 18.2484 6.23466C18.2437 6.62191 18.1883 7.00686 18.0834 7.37966C17.8821 7.90166 17.6327 8.40382 17.3384 8.87966C17.3194 8.91237 17.3081 8.94896 17.3054 8.98666C17.3026 9.02436 17.3084 9.06221 17.3224 9.09734C17.3363 9.13248 17.3581 9.16399 17.3859 9.18951C17.4138 9.21503 17.4472 9.23388 17.4834 9.24466L18.0434 9.41966C18.0318 9.36181 18.0407 9.30173 18.0684 9.24966Z" fill="#E8F4FA"/>
<path d="M19.2584 9.80966C19.294 9.82206 19.332 9.82607 19.3694 9.82138C19.4068 9.81669 19.4427 9.80342 19.4741 9.78262C19.5056 9.76181 19.5318 9.73403 19.5508 9.70143C19.5697 9.66883 19.5809 9.63229 19.5834 9.59466C19.6163 9.03293 19.7017 8.47551 19.8384 7.92966C19.9616 7.56531 20.1296 7.21766 20.3384 6.89466C20.4534 6.71966 20.2984 6.47466 20.0234 6.39466L18.7984 5.99966C18.5234 5.90966 18.2584 6.02466 18.2484 6.23466C18.2437 6.62191 18.1883 7.00686 18.0834 7.37966C17.8821 7.90166 17.6327 8.40382 17.3384 8.87966C17.3194 8.91237 17.3081 8.94896 17.3054 8.98666C17.3026 9.02436 17.3084 9.06221 17.3224 9.09734C17.3363 9.13248 17.3581 9.16399 17.3859 9.18951C17.4138 9.21503 17.4472 9.23388 17.4834 9.24466L19.2584 9.80966Z" stroke="#45413C" stroke-width="0.5" stroke-linecap="round" stroke-linejoin="round"/>
</svg>
