<svg width="24" height="24" viewBox="0 0 24 24" fill="none" xmlns="http://www.w3.org/2000/svg">
<g clip-path="url(#clip0_8096_8090)">
<path d="M14.93 13.3906C14.038 15.1028 12.6929 16.537 11.0414 17.5369C9.38993 18.5368 7.49556 19.0638 5.565 19.0606C3.69543 19.0621 1.85978 18.5614 0.25 17.6106V22.8056C1.95143 23.4346 3.75105 23.7562 5.565 23.7556C8.35246 23.7592 11.0875 22.9979 13.4722 21.5547C15.857 20.1115 17.8001 18.0417 19.09 15.5706L14.93 13.3906Z" fill="#00B8F0"/>
<path d="M12.1953 16.7191C13.1931 18.0145 14.5413 18.9966 16.0803 19.5491C17.2919 18.3884 18.3053 17.0372 19.0803 15.5491L17.3703 14.6541L14.6853 13.7891C14.0412 14.9096 13.1973 15.9027 12.1953 16.7191Z" fill="#009FD9"/>
<path d="M14.93 13.3906C14.038 15.1028 12.6929 16.537 11.0414 17.5369C9.38993 18.5368 7.49556 19.0638 5.565 19.0606C3.69543 19.0621 1.85978 18.5614 0.25 17.6106V22.8056C1.95143 23.4346 3.75105 23.7562 5.565 23.7556C8.35246 23.7592 11.0875 22.9979 13.4722 21.5547C15.857 20.1115 17.8001 18.0417 19.09 15.5706L14.93 13.3906Z" stroke="#45413C" stroke-width="0.5" stroke-linecap="round" stroke-linejoin="round"/>
<path d="M19.5508 1.58594H20.7658C21.031 1.58594 21.2854 1.69129 21.4729 1.87883C21.6604 2.06637 21.7658 2.32072 21.7658 2.58594V12.8609H19.5508V1.58594Z" fill="#ADC4D9" stroke="#45413C" stroke-width="0.5" stroke-linecap="round" stroke-linejoin="round"/>
<path d="M16.9431 9.23941L16.0381 7.65441C15.8241 7.28237 15.4781 7.00439 15.0687 6.87564C14.6593 6.74689 14.2164 6.77679 13.8281 6.95941C13.6979 7.0234 13.5964 7.13386 13.5436 7.269C13.4909 7.40413 13.4907 7.55413 13.5431 7.68941L13.9631 8.75941C14.2991 9.61197 14.4076 10.5372 14.2781 11.4444L14.1581 12.3194C14.0441 13.1183 14.1877 13.9327 14.5681 14.6444C14.8128 15.0839 15.191 15.4341 15.6481 15.6444L17.6481 16.5744C17.8956 16.6902 18.1689 16.7399 18.4413 16.7189C18.7138 16.6979 18.9762 16.6068 19.2031 16.4544C20.2375 15.77 21.0751 14.8272 21.6331 13.7194L22.2481 12.5044L16.9431 9.23941Z" fill="#FFCEBF"/>
<path d="M13.7531 8.22941C14.1431 8.01665 14.6011 7.96555 15.0285 8.08712C15.4558 8.20869 15.8184 8.4932 16.0381 8.87941L16.9431 10.4594L21.7781 13.4594L22.2481 12.5044L16.9431 9.23941L16.0381 7.65441C15.8241 7.28237 15.4781 7.00439 15.0687 6.87564C14.6593 6.74689 14.2164 6.77679 13.8281 6.95941C13.6979 7.0234 13.5964 7.13386 13.5436 7.269C13.4909 7.40413 13.4907 7.55413 13.5431 7.68941L13.7531 8.22941Z" fill="#FFDCD1"/>
<path d="M16.9431 9.23941L16.0381 7.65441C15.8241 7.28237 15.4781 7.00439 15.0687 6.87564C14.6593 6.74689 14.2164 6.77679 13.8281 6.95941C13.6979 7.0234 13.5964 7.13386 13.5436 7.269C13.4909 7.40413 13.4907 7.55413 13.5431 7.68941L13.9631 8.75941C14.2991 9.61197 14.4076 10.5372 14.2781 11.4444L14.1581 12.3194C14.0441 13.1183 14.1877 13.9327 14.5681 14.6444C14.8128 15.0839 15.191 15.4341 15.6481 15.6444L17.6481 16.5744C17.8956 16.6902 18.1689 16.7399 18.4413 16.7189C18.7138 16.6979 18.9762 16.6068 19.2031 16.4544C20.2375 15.77 21.0751 14.8272 21.6331 13.7194L22.2481 12.5044L16.9431 9.23941Z" stroke="#45413C" stroke-width="0.5" stroke-linecap="round" stroke-linejoin="round"/>
<path d="M15.3047 1.58594H20.5197V12.8559H15.3047V1.58594Z" fill="#C0DCEB" stroke="#45413C" stroke-width="0.5" stroke-linecap="round" stroke-linejoin="round"/>
<path d="M15.3047 2.89062H20.5197V10.0606H15.3047V2.89062Z" fill="#00B8F0"/>
<path d="M20.5197 3.57031L15.3047 8.92531V10.0553H20.5197V3.57031Z" fill="#4ACFFF"/>
<path d="M15.3047 2.89062H20.5197V10.0606H15.3047V2.89062Z" stroke="#45413C" stroke-width="0.5" stroke-linecap="round" stroke-linejoin="round"/>
<path d="M19.0703 6.76562H22.2503V8.40562H19.0703V6.76562Z" fill="#FFCEBF"/>
<path d="M21.5503 6.76562H19.7703C19.5847 6.76562 19.4066 6.83937 19.2753 6.97065C19.1441 7.10193 19.0703 7.27997 19.0703 7.46562V7.71063C19.0711 7.80921 19.0932 7.90646 19.1353 7.99563C19.1913 7.87405 19.2808 7.77094 19.3932 7.69833C19.5057 7.62573 19.6365 7.58664 19.7703 7.58563H21.5503C21.6843 7.58603 21.8153 7.62487 21.9279 7.69755C22.0405 7.77023 22.1298 7.87368 22.1853 7.99563C22.2298 7.9073 22.2521 7.80949 22.2503 7.71063V7.46562C22.2503 7.3737 22.2322 7.28267 22.197 7.19775C22.1619 7.11282 22.1103 7.03565 22.0453 6.97065C21.9803 6.90565 21.9031 6.85409 21.8182 6.81891C21.7333 6.78373 21.6422 6.76562 21.5503 6.76562Z" fill="#FFDCD1"/>
<path d="M19.0703 6.76562H22.2503V8.40562H19.0703V6.76562Z" stroke="#45413C" stroke-width="0.5" stroke-linecap="round" stroke-linejoin="round"/>
<path d="M18.7891 8.40625H22.2491V10.0463H18.7891V8.40625Z" fill="#FFCEBF" stroke="#45413C" stroke-width="0.5" stroke-linecap="round" stroke-linejoin="round"/>
<path d="M19.0703 10.0547H22.2503V11.6947H19.0703V10.0547Z" fill="#FFCEBF" stroke="#45413C" stroke-width="0.5" stroke-linecap="round" stroke-linejoin="round"/>
<path d="M19.6953 11.6953H22.2503V13.3353H19.6953V11.6953Z" fill="#FFCEBF" stroke="#45413C" stroke-width="0.5" stroke-linecap="round" stroke-linejoin="round"/>
<path d="M12.6443 2.70518L11.2893 0.780183C11.2762 0.759351 11.2585 0.74172 11.2377 0.728582C11.2169 0.715444 11.1934 0.707132 11.169 0.704255C11.1445 0.701379 11.1197 0.70401 11.0964 0.711957C11.0731 0.719904 11.0519 0.732965 11.0343 0.750183L10.2793 1.60018C10.2643 1.62045 10.2541 1.64378 10.2492 1.66849C10.2444 1.69321 10.2451 1.71868 10.2514 1.74308C10.2576 1.76749 10.2691 1.7902 10.2852 1.80959C10.3013 1.82897 10.3215 1.84455 10.3443 1.85518L12.4493 2.92518C12.4792 2.94251 12.5142 2.94895 12.5484 2.94343C12.5825 2.9379 12.6137 2.92074 12.6367 2.89485C12.6596 2.86896 12.6729 2.83594 12.6743 2.80137C12.6757 2.76681 12.6651 2.73283 12.6443 2.70518Z" fill="#FFE500" stroke="#45413C" stroke-width="0.5" stroke-linecap="round" stroke-linejoin="round"/>
<path d="M12.3417 3.99989L9.96672 3.65989C9.94208 3.65471 9.91659 3.65506 9.8921 3.66093C9.86762 3.6668 9.84474 3.67803 9.82512 3.69382C9.80551 3.70961 9.78964 3.72956 9.77868 3.75222C9.76771 3.77489 9.76192 3.79971 9.76172 3.82489L9.86172 4.95989C9.86637 4.98505 9.87663 5.00884 9.89176 5.02948C9.90688 5.05012 9.92647 5.06708 9.94906 5.0791C9.97165 5.09112 9.99666 5.09788 10.0222 5.09888C10.0478 5.09988 10.0733 5.0951 10.0967 5.08489L12.3667 4.28989C12.4052 4.28658 12.4407 4.26812 12.4656 4.23858C12.4904 4.20905 12.5025 4.17085 12.4992 4.13239C12.4959 4.09394 12.4774 4.05837 12.4479 4.03352C12.4184 4.00868 12.3802 3.99658 12.3417 3.99989Z" fill="#FFE500" stroke="#45413C" stroke-width="0.5" stroke-linecap="round" stroke-linejoin="round"/>
<path d="M12.3309 5.7154L10.3759 6.5654C10.3543 6.57467 10.3352 6.58888 10.3202 6.60688C10.3051 6.62487 10.2945 6.64616 10.2891 6.66902C10.2838 6.69188 10.2838 6.71567 10.2894 6.73849C10.2949 6.76131 10.3057 6.78252 10.3209 6.8004L11.0259 7.6904C11.0398 7.71 11.0581 7.72599 11.0794 7.73703C11.1007 7.74807 11.1244 7.75383 11.1484 7.75383C11.1724 7.75383 11.1961 7.74807 11.2174 7.73703C11.2387 7.72599 11.2571 7.71 11.2709 7.6904L12.5009 5.9454C12.5166 5.91915 12.5241 5.88886 12.5226 5.85833C12.5211 5.8278 12.5106 5.79839 12.4925 5.77381C12.4743 5.74922 12.4493 5.73056 12.4205 5.72017C12.3918 5.70978 12.3606 5.70812 12.3309 5.7154Z" fill="#FFE500" stroke="#45413C" stroke-width="0.5" stroke-linecap="round" stroke-linejoin="round"/>
<path d="M17.3438 11.4137C17.3438 11.5649 17.4038 11.7099 17.5107 11.8168C17.6176 11.9237 17.7626 11.9837 17.9138 11.9837C18.0649 11.9837 18.2099 11.9237 18.3168 11.8168C18.4237 11.7099 18.4838 11.5649 18.4838 11.4137C18.4838 11.2626 18.4237 11.1176 18.3168 11.0107C18.2099 10.9038 18.0649 10.8438 17.9138 10.8438C17.7626 10.8438 17.6176 10.9038 17.5107 11.0107C17.4038 11.1176 17.3438 11.2626 17.3438 11.4137Z" fill="#45413C"/>
</g>
<defs>
<clipPath id="clip0_8096_8090">
<rect width="24" height="24" fill="white"/>
</clipPath>
</defs>
</svg>
