<svg width="27" height="26" viewBox="0 0 27 26" fill="none" xmlns="http://www.w3.org/2000/svg">
<path d="M24.8305 7.14441C25.8643 10.6883 25.1993 14.966 23.3624 17.8973C21.3941 21.0382 18.7096 22.8358 15.8193 24.1391C15.8193 24.1391 14.9768 24.4287 14.846 23.9581C14.7126 23.4781 15.546 23.0221 15.546 23.0221C18.341 21.7561 20.8239 20.0591 22.6304 17.1765C23.8957 15.1573 24.536 12.4256 24.3579 9.85004C23.9072 13.0226 21.7735 15.4253 19.2093 15.4253C16.3173 15.4253 13.9729 12.369 13.9729 8.59898C13.9729 7.15827 14.3152 5.82182 14.8997 4.72035C14.9796 4.56974 15.0344 4.46436 15.0745 4.38723C15.1824 4.17979 15.184 4.17682 15.282 4.04815C15.3147 4.0052 15.3491 3.95792 15.3861 3.90706C15.5579 3.67072 15.7857 3.3576 16.1611 3.04786C17.0197 2.24523 18.0721 1.77271 19.2093 1.77271C19.2476 1.77271 19.2857 1.77324 19.3238 1.77431C19.5642 1.76783 19.8002 1.78089 20.0255 1.81504C20.7849 1.93016 21.4655 2.3042 22.0746 2.76976C23.4198 3.79803 24.3056 5.34511 24.8305 7.14441Z" fill="#BD9268"/>
<path d="M12.5396 7.14441C13.5734 10.6883 12.9084 14.966 11.0715 17.8973C9.10321 21.0382 6.41873 22.8358 3.52835 24.1391C3.52835 24.1391 2.68588 24.4287 2.55506 23.9581C2.4217 23.4781 3.25512 23.0221 3.25512 23.0221C6.05005 21.7561 8.53299 20.0591 10.3395 17.1765C11.6047 15.1573 12.2451 12.4256 12.067 9.85004C11.6163 13.0226 9.48255 15.4253 6.91835 15.4253C4.02639 15.4253 1.682 12.369 1.682 8.59898C1.682 7.15827 2.02434 5.82182 2.60881 4.72035C2.90366 4.16464 2.85657 4.22464 2.99108 4.04815C3.0238 4.0052 3.0582 3.95792 3.09516 3.90706C3.26703 3.67072 3.49477 3.3576 3.8702 3.04786C4.72878 2.24523 5.78123 1.77271 6.91835 1.77271C6.95667 1.77271 6.99475 1.77324 7.03287 1.77431C7.27327 1.76783 7.50926 1.78089 7.7346 1.81504C8.49398 1.93016 9.17454 2.3042 9.78366 2.76976C11.1289 3.79803 12.0147 5.34511 12.5396 7.14441Z" fill="#BD9268"/>
</svg>
