<svg width="26" height="26" viewBox="0 0 26 26" fill="none" xmlns="http://www.w3.org/2000/svg">
<path d="M1.67146 18.8553C0.63763 15.3115 1.30261 11.0338 3.13956 8.10247C5.10782 4.96155 7.79231 3.16393 10.6827 1.86064C10.6827 1.86064 11.5252 1.57108 11.656 2.04166C11.7893 2.52161 10.9559 2.97761 10.9559 2.97761C8.16099 4.2437 5.67805 5.94063 3.87159 8.82328C2.6063 10.8424 1.96591 13.5741 2.14404 16.1497C2.59479 12.9772 4.72849 10.5745 7.29269 10.5745C10.1847 10.5745 12.529 13.6307 12.529 17.4008C12.529 18.8415 12.1867 20.1779 11.6022 21.2794C11.5223 21.43 11.4675 21.5354 11.4274 21.6125C11.3196 21.82 11.318 21.8229 11.22 21.9516C11.1872 21.9946 11.1528 22.0418 11.1159 22.0927C10.944 22.329 10.7163 22.6422 10.3408 22.9519C9.48226 23.7545 8.42981 24.227 7.29269 24.227C7.25437 24.227 7.21629 24.2265 7.17817 24.2254C6.93777 24.2319 6.70178 24.2189 6.47644 24.1847C5.71706 24.0696 5.0365 23.6956 4.42738 23.23C3.08211 22.2017 2.19633 20.6546 1.67146 18.8553Z" fill="#BD9268"/>
<path d="M13.9624 18.8553C12.9285 15.3115 13.5935 11.0338 15.4305 8.10247C17.3987 4.96155 20.0832 3.16393 22.9736 1.86064C22.9736 1.86064 23.8161 1.57108 23.9469 2.04166C24.0803 2.52161 23.2468 2.97761 23.2468 2.97761C20.4519 4.2437 17.969 5.94063 16.1625 8.82328C14.8972 10.8424 14.2568 13.5741 14.435 16.1497C14.8857 12.9772 17.0194 10.5745 19.5836 10.5745C22.4756 10.5745 24.82 13.6307 24.82 17.4008C24.82 18.8415 24.4776 20.1779 23.8931 21.2794C23.5983 21.8351 23.6454 21.7751 23.5109 21.9516C23.4782 21.9946 23.4438 22.0418 23.4068 22.0927C23.2349 22.329 23.0072 22.6422 22.6317 22.9519C21.7732 23.7545 20.7207 24.227 19.5836 24.227C19.5453 24.227 19.5072 24.2265 19.4691 24.2254C19.2287 24.2319 18.9927 24.2189 18.7674 24.1847C18.008 24.0696 17.3274 23.6956 16.7183 23.23C15.373 22.2017 14.4872 20.6546 13.9624 18.8553Z" fill="#BD9268"/>
</svg>
