<svg width="24" height="24" viewBox="0 0 24 24" fill="none" xmlns="http://www.w3.org/2000/svg">
<path fill-rule="evenodd" clip-rule="evenodd" d="M21.8992 22.2836L18.3538 18.7381L18.7395 18.3524L22.2849 21.8979C22.3914 22.0044 22.3914 22.1771 22.2849 22.2836C22.1784 22.3901 22.0057 22.3901 21.8992 22.2836Z" fill="#AAAAAA"/>
<path fill-rule="evenodd" clip-rule="evenodd" d="M11.4557 21.2725C16.8781 21.2725 21.2739 16.8768 21.2739 11.4544C21.2739 6.03192 16.8781 1.63617 11.4557 1.63617C6.03327 1.63617 1.63752 6.03192 1.63752 11.4544C1.63752 16.8768 6.03327 21.2725 11.4557 21.2725ZM11.4557 21.818C17.1794 21.818 21.8193 17.178 21.8193 11.4544C21.8193 5.73068 17.1794 1.09072 11.4557 1.09072C5.73202 1.09072 1.09206 5.73068 1.09206 11.4544C1.09206 17.178 5.73202 21.818 11.4557 21.818Z" fill="#AAAAAA"/>
<path fill-rule="evenodd" clip-rule="evenodd" d="M18.7732 18.0005C20.3283 16.2634 21.2739 13.9693 21.2739 11.4544C21.2739 6.03192 16.8781 1.63617 11.4557 1.63617C6.03327 1.63617 1.63752 6.03192 1.63752 11.4544C1.63752 16.8768 6.03327 21.2725 11.4557 21.2725C13.9707 21.2725 16.2647 20.3269 18.0019 18.7719C18.0697 18.7112 18.1366 18.6496 18.2027 18.587C18.3348 18.4621 18.4634 18.3334 18.5884 18.2013C18.6509 18.1353 18.7125 18.0683 18.7732 18.0005ZM19.1595 18.3868C20.813 16.5505 21.8193 14.1199 21.8193 11.4544C21.8193 5.73068 17.1794 1.09072 11.4557 1.09072C5.73202 1.09072 1.09206 5.73068 1.09206 11.4544C1.09206 17.178 5.73202 21.818 11.4557 21.818C14.1213 21.818 16.5518 20.8116 18.3881 19.1582C18.4557 19.0973 18.5225 19.0355 18.5885 18.9729L21.8992 22.2836C22.0057 22.3901 22.1784 22.3901 22.2849 22.2836C22.3914 22.1771 22.3914 22.0044 22.2849 21.8979L18.9742 18.5872C19.0368 18.5212 19.0986 18.4544 19.1595 18.3868ZM19.3526 18.5799C21.0553 16.694 22.0921 14.1953 22.0921 11.4544C22.0921 5.58006 17.33 0.817993 11.4557 0.817993C5.5814 0.817993 0.819336 5.58006 0.819336 11.4544C0.819336 17.3287 5.5814 22.0907 11.4557 22.0907C14.1966 22.0907 16.6954 21.054 18.5812 19.3513L21.7064 22.4764C21.9194 22.6894 22.2647 22.6894 22.4778 22.4764C22.6908 22.2634 22.6908 21.918 22.4778 21.705L19.3526 18.5799ZM11.4557 20.9998C16.7275 20.9998 21.0012 16.7262 21.0012 11.4544C21.0012 6.18255 16.7275 1.9089 11.4557 1.9089C6.18389 1.9089 1.91025 6.18255 1.91025 11.4544C1.91025 16.7262 6.18389 20.9998 11.4557 20.9998Z" fill="#AAAAAA"/>
</svg>
