<svg width="48" height="48" viewBox="0 0 48 48" fill="none" xmlns="http://www.w3.org/2000/svg">
<circle cx="24" cy="24" r="23.5" fill="#E6E6E6" stroke="#444444"/>
<path fill-rule="evenodd" clip-rule="evenodd" d="M33.8992 34.2839L30.3538 30.7385L30.7395 30.3528L34.2849 33.8982C34.3914 34.0047 34.3914 34.1774 34.2849 34.2839C34.1784 34.3904 34.0057 34.3904 33.8992 34.2839Z" fill="#444444"/>
<path fill-rule="evenodd" clip-rule="evenodd" d="M23.4557 33.2729C28.8781 33.2729 33.2739 28.8772 33.2739 23.4547C33.2739 18.0323 28.8781 13.6365 23.4557 13.6365C18.0333 13.6365 13.6375 18.0323 13.6375 23.4547C13.6375 28.8772 18.0333 33.2729 23.4557 33.2729ZM23.4557 33.8184C29.1794 33.8184 33.8193 29.1784 33.8193 23.4547C33.8193 17.731 29.1794 13.0911 23.4557 13.0911C17.732 13.0911 13.0921 17.731 13.0921 23.4547C13.0921 29.1784 17.732 33.8184 23.4557 33.8184Z" fill="#444444"/>
<path fill-rule="evenodd" clip-rule="evenodd" d="M30.7732 30.0009C32.3283 28.2638 33.2739 25.9697 33.2739 23.4547C33.2739 18.0323 28.8781 13.6365 23.4557 13.6365C18.0333 13.6365 13.6375 18.0323 13.6375 23.4547C13.6375 28.8772 18.0333 33.2729 23.4557 33.2729C25.9707 33.2729 28.2647 32.3273 30.0019 30.7723C30.0697 30.7116 30.1366 30.6499 30.2027 30.5874C30.3348 30.4624 30.4634 30.3338 30.5884 30.2017C30.6509 30.1356 30.7125 30.0687 30.7732 30.0009ZM31.1595 30.3871C32.813 28.5508 33.8193 26.1203 33.8193 23.4547C33.8193 17.731 29.1794 13.0911 23.4557 13.0911C17.732 13.0911 13.0921 17.731 13.0921 23.4547C13.0921 29.1784 17.732 33.8184 23.4557 33.8184C26.1213 33.8184 28.5518 32.812 30.3881 31.1585C30.4557 31.0976 30.5225 31.0359 30.5885 30.9732L33.8992 34.2839C34.0057 34.3904 34.1784 34.3904 34.2849 34.2839C34.3914 34.1774 34.3914 34.0047 34.2849 33.8982L30.9742 30.5875C31.0368 30.5216 31.0986 30.4547 31.1595 30.3871ZM31.3526 30.5802C33.0553 28.6944 34.0921 26.1956 34.0921 23.4547C34.0921 17.5804 29.33 12.8184 23.4557 12.8184C17.5814 12.8184 12.8193 17.5804 12.8193 23.4547C12.8193 29.329 17.5814 34.0911 23.4557 34.0911C26.1966 34.0911 28.6954 33.0543 30.5812 31.3516L33.7064 34.4768C33.9194 34.6898 34.2647 34.6898 34.4778 34.4768C34.6908 34.2638 34.6908 33.9184 34.4778 33.7054L31.3526 30.5802ZM23.4557 33.0002C28.7275 33.0002 33.0012 28.7265 33.0012 23.4547C33.0012 18.1829 28.7275 13.9093 23.4557 13.9093C18.1839 13.9093 13.9102 18.1829 13.9102 23.4547C13.9102 28.7265 18.1839 33.0002 23.4557 33.0002Z" fill="#444444"/>
</svg>
