<svg width="40" height="40" viewBox="0 0 40 40" fill="none" xmlns="http://www.w3.org/2000/svg">
<path fill-rule="evenodd" clip-rule="evenodd" d="M16.691 1.52846C17.5165 0.629611 18.595 0 20.0015 0C21.4081 0 22.4866 0.629582 23.3123 1.52835C24.1104 2.39716 24.6974 3.54148 25.187 4.66547C25.4349 5.23461 25.6674 5.82201 25.8913 6.38838L25.9025 6.41683C26.1246 6.97871 26.3381 7.5188 26.5599 8.03053C27.0195 9.09114 27.4686 9.91567 27.9785 10.4428L27.9788 10.4431C28.3845 10.8629 29.0864 11.1325 30.1589 11.287C30.8958 11.3932 31.6757 11.4317 32.512 11.473C32.897 11.492 33.2939 11.5116 33.704 11.5387C34.9346 11.6199 36.2684 11.7698 37.383 12.265C38.5615 12.7884 39.5044 13.7041 39.8604 15.2196L39.8604 15.2197C40.5602 18.2 38.5485 20.1394 36.8142 21.606C36.559 21.8218 36.3085 22.0282 36.064 22.2297C35.4156 22.7641 34.8099 23.2633 34.2743 23.8069C33.5519 24.5401 33.0825 25.2376 32.918 25.9873C32.74 26.7978 32.8162 27.75 33.0351 28.8511C33.1432 29.3951 33.2811 29.953 33.4282 30.5306C33.4523 30.6254 33.4768 30.721 33.5014 30.8171C33.6245 31.2985 33.7512 31.7938 33.8617 32.2813C34.1243 33.4395 34.3276 34.6803 34.1743 35.8518C34.0146 37.0728 33.4688 38.204 32.3014 39.0845L32.3011 39.0847C31.1164 39.9774 29.8693 40.1461 28.6604 39.8934C27.5112 39.6532 26.4074 39.0351 25.4125 38.4066C25.0287 38.1641 24.6661 37.924 24.3137 37.6906C23.6955 37.2812 23.1086 36.8924 22.4928 36.5479C21.5487 36.0197 20.7353 35.7191 20.0015 35.7191C19.2677 35.7191 18.4544 36.0197 17.5102 36.5479C16.8945 36.8924 16.3076 37.2811 15.6893 37.6906C15.3369 37.924 14.9744 38.1641 14.5905 38.4066C13.5957 39.0351 12.4919 39.6532 11.3426 39.8934C10.1337 40.1461 8.88663 39.9774 7.70199 39.0847L7.70167 39.0845C6.5342 38.204 5.98855 37.0726 5.82903 35.8516C5.67599 34.6801 5.87955 33.4393 6.14221 32.2812C6.25263 31.7944 6.37916 31.2999 6.50215 30.8192C6.52693 30.7224 6.55156 30.6261 6.57589 30.5306C6.72296 29.953 6.86086 29.3952 6.96894 28.8511C7.18768 27.7501 7.26357 26.7982 7.08521 25.9878L7.08498 25.9868C6.92089 25.2374 6.45188 24.54 5.72966 23.8068C5.19396 23.2631 4.58801 22.7637 3.93919 22.229C3.69498 22.0278 3.44469 21.8215 3.18979 21.606C1.45531 20.1396 -0.55718 18.2001 0.14265 15.2197L0.14278 15.2192C0.499514 13.7039 1.44262 12.7883 2.62111 12.2649C3.73586 11.7699 5.06956 11.6199 6.30018 11.5387C6.71036 11.5116 7.10727 11.492 7.49223 11.473C8.32857 11.4317 9.10849 11.3932 9.8455 11.287C10.918 11.1325 11.6205 10.8629 12.0269 10.4428C12.5368 9.91573 12.9857 9.09126 13.4451 8.03069C13.6668 7.51876 13.8803 6.97844 14.1023 6.41632L14.1133 6.38856C14.337 5.82221 14.5694 5.2348 14.8172 4.66566C15.3065 3.54169 15.8931 2.39732 16.691 1.52846ZM15.2356 8.8062C14.7635 9.89623 14.2006 11.0021 13.4293 11.7995C12.5545 12.7037 11.3002 13.0488 10.1238 13.2183C9.29294 13.338 8.36136 13.3843 7.48025 13.428C7.11764 13.446 6.76359 13.4636 6.42862 13.4857C5.209 13.5661 4.18341 13.7061 3.4131 14.0482C2.70668 14.3619 2.23897 14.8307 2.04222 15.6658C1.63754 17.3892 2.65605 18.5996 4.44958 20.116C4.66003 20.2939 4.88238 20.4771 5.11043 20.665C5.78382 21.2197 6.50686 21.8154 7.1197 22.4375C7.95503 23.2855 8.71306 24.3007 8.9909 25.5687C8.99095 25.569 8.991 25.5692 8.99105 25.5695L8.03806 25.7781L8.99082 25.5684C8.99085 25.5685 8.99087 25.5686 8.9909 25.5687C9.25657 26.7761 9.11824 28.0461 8.88277 29.2314C8.76374 29.8305 8.61453 30.4318 8.46677 31.0121C8.44124 31.1123 8.41579 31.2118 8.39053 31.3106C8.26765 31.7909 8.14905 32.2546 8.04511 32.7128C7.79186 33.8294 7.65782 34.7875 7.76382 35.5988C7.86335 36.3607 8.17341 36.9963 8.87661 37.5267C8.87651 37.5266 8.8764 37.5265 8.8763 37.5264L8.28914 38.3056L8.87661 37.5267C9.56254 38.0434 10.2218 38.1343 10.9434 37.9835C11.7248 37.8201 12.5758 37.3714 13.5484 36.757C13.8553 36.5631 14.182 36.3471 14.5192 36.1242C15.182 35.6861 15.8851 35.2213 16.5575 34.8451C17.5946 34.2649 18.7635 33.7679 20.0015 33.7679C21.2395 33.7679 22.4085 34.2649 23.4455 34.8451C24.118 35.2213 24.8211 35.6861 25.4839 36.1242C25.821 36.3471 26.1477 36.5631 26.4547 36.757C27.4272 37.3714 28.2783 37.8201 29.0597 37.9835C29.7813 38.1343 30.4405 38.0434 31.1264 37.5267L31.7139 38.3056L31.1268 37.5264C31.1267 37.5265 31.1266 37.5266 31.1264 37.5267C31.8297 36.9963 32.1399 36.3606 32.2396 35.5987C32.3457 34.7873 32.2119 33.8293 31.9588 32.7127C31.8548 32.2538 31.736 31.7894 31.613 31.3083C31.5879 31.2103 31.5626 31.1116 31.5373 31.012C31.3896 30.4318 31.2404 29.8305 31.1213 29.2314C30.8857 28.0462 30.7471 26.7762 31.0121 25.5689C31.2905 24.3008 32.0488 23.2855 32.8844 22.4375C33.497 21.8157 34.2197 21.2202 34.8927 20.6657C35.121 20.4776 35.3436 20.2942 35.5543 20.116C37.3474 18.5998 38.3655 17.3893 37.9608 15.6658C37.9608 15.6658 37.9609 15.6658 37.9609 15.6659L38.9106 15.4427L37.9608 15.6658C37.7646 14.8306 37.2972 14.3619 36.5909 14.0482C35.8208 13.7061 34.7952 13.5661 33.5756 13.4857C33.2406 13.4636 32.8866 13.446 32.524 13.428C31.6429 13.3843 30.7113 13.338 29.8806 13.2183C28.7045 13.0488 27.4504 12.7038 26.5761 11.7995L27.2773 11.1211L26.5758 11.7991C26.5759 11.7993 26.576 11.7994 26.5761 11.7995C25.8048 11.0022 25.2418 9.89635 24.7695 8.80635C24.535 8.2651 24.3114 7.69937 24.0932 7.14749L24.0767 7.10566C23.851 6.53483 23.6305 5.97821 23.3981 5.44471C22.9271 4.36341 22.4445 3.468 21.8753 2.84839C21.3337 2.25874 20.747 1.95123 20.0015 1.95123C19.256 1.95123 18.6696 2.25871 18.1282 2.84828C17.5592 3.46783 17.077 4.3632 16.6062 5.44451C16.374 5.97801 16.1535 6.53463 15.928 7.10547L15.9118 7.14665C15.6937 7.69874 15.4701 8.26472 15.2356 8.8062Z" fill="#BD9268"/>
</svg>
