<svg width="48" height="48" viewBox="0 0 48 48" fill="none" xmlns="http://www.w3.org/2000/svg">
<circle cx="24" cy="24" r="23.5" stroke="#444444"/>
<path fill-rule="evenodd" clip-rule="evenodd" d="M14.7165 14.9197C15.7794 13.7814 17.3007 13.1334 19.1246 13.1334H23.2531C23.5345 13.1334 23.7627 13.3612 23.7627 13.6421C23.7627 13.9231 23.5345 14.1509 23.2531 14.1509H19.1246C17.5532 14.1509 16.3124 14.7027 15.4621 15.6135C14.608 16.5282 14.1101 17.846 14.1101 19.439V28.6035C14.1101 30.1971 14.6059 31.5148 15.4586 32.4292C16.3074 33.3396 17.5479 33.8916 19.1246 33.8916H28.8678C30.4451 33.8916 31.6858 33.3395 32.5348 32.4292C33.3876 31.5148 33.8834 30.1971 33.8834 28.6035V24.1634C33.8834 23.8825 34.1116 23.6547 34.393 23.6547C34.6745 23.6547 34.9027 23.8825 34.9027 24.1634V28.6035C34.9027 30.4071 34.339 31.9878 33.2808 33.1225C32.2187 34.2614 30.6968 34.9091 28.8678 34.9091H19.1246C17.2961 34.9091 15.7744 34.2613 14.7125 33.1225C13.6544 31.9878 13.0908 30.4071 13.0908 28.6035V19.439C13.0908 17.6348 13.6573 16.0542 14.7165 14.9197Z" fill="#444444"/>
<path fill-rule="evenodd" clip-rule="evenodd" d="M28.9228 14.7283C29.7518 13.9018 31.0953 13.9018 31.9243 14.7283H28.9228ZM28.9228 14.7283L28.0188 15.6308L32.364 19.9686L33.268 19.0661C34.0966 18.2398 34.0971 16.8974 33.268 16.0698L31.9243 14.7283M31.6433 20.688L27.2981 16.3502L20.6714 22.9657C20.3289 23.3076 20.1315 23.7675 20.1193 24.2499L20.0285 27.8952H23.6423C24.143 27.8952 24.6229 27.6965 24.9768 27.3431L31.6433 20.688ZM28.2023 14.0086C29.4293 12.7851 31.4178 12.7851 32.6448 14.0086L33.9888 15.3503C35.2156 16.575 35.2159 18.5616 33.9888 19.7856L25.6975 28.0626C25.1527 28.6065 24.4136 28.9127 23.6423 28.9127H19.5061C19.3687 28.9127 19.2372 28.8573 19.1413 28.7592C19.0454 28.661 18.9932 28.5284 18.9966 28.3913L19.1004 24.2247C19.1192 23.4814 19.4231 22.7728 19.9507 22.2462L28.2023 14.0086Z" fill="#444444"/>
</svg>
