<svg width="40" height="40" viewBox="0 0 40 41" fill="none" xmlns="http://www.w3.org/2000/svg">
<path fill-rule="evenodd" clip-rule="evenodd" d="M2 20.7188C2 30.6599 10.0589 38.7188 20 38.7188C29.9411 38.7188 38 30.6599 38 20.7188C38 10.7776 29.9411 2.71875 20 2.71875C10.0589 2.71875 2 10.7776 2 20.7188ZM20 0.71875C8.95431 0.71875 0 9.67306 0 20.7188C0 31.7644 8.95431 40.7188 20 40.7188C31.0457 40.7188 40 31.7644 40 20.7188C40 9.67306 31.0457 0.71875 20 0.71875Z" fill="#BD9268"/>
<path d="M28 13.321L24.9946 29.011C24.9946 29.011 24.5741 30.0989 23.4189 29.5771L16.4846 24.0713L16.4524 24.0551C17.3891 23.1841 24.6524 16.4214 24.9698 16.1149C25.4613 15.6401 25.1562 15.3575 24.5856 15.7161L13.8568 22.7717L9.71764 21.3295C9.71764 21.3295 9.06626 21.0896 9.00359 20.5679C8.9401 20.0453 9.73908 19.7626 9.73908 19.7626L26.6131 12.9077C26.6131 12.9077 28 12.2767 28 13.321Z" fill="#BD9268"/>
</svg>
