<svg width="48" height="48" viewBox="0 0 48 48" fill="none" xmlns="http://www.w3.org/2000/svg">
<circle cx="24" cy="24" r="23.5" stroke="#EABB8D"/>
<path fill-rule="evenodd" clip-rule="evenodd" d="M14.7175 14.9206C15.7803 13.7822 17.3017 13.1342 19.1256 13.1342H23.2541C23.5355 13.1342 23.7637 13.362 23.7637 13.643C23.7637 13.924 23.5355 14.1517 23.2541 14.1517H19.1256C17.5541 14.1517 16.3134 14.7036 15.463 15.6144C14.609 16.5291 14.111 17.8469 14.111 19.4399V28.6043C14.111 30.1979 14.6069 31.5157 15.4595 32.4301C16.3084 33.3404 17.5488 33.8925 19.1256 33.8925H28.8688C30.4461 33.8925 31.6868 33.3404 32.5358 32.4301C33.3886 31.5156 33.8844 30.1979 33.8844 28.6043V24.1643C33.8844 23.8833 34.1126 23.6556 34.394 23.6556C34.6755 23.6556 34.9036 23.8833 34.9036 24.1643V28.6043C34.9036 30.4079 34.34 31.9887 33.2818 33.1234C32.2197 34.2622 30.6978 34.91 28.8688 34.91H19.1256C17.297 34.91 15.7754 34.2622 14.7135 33.1234C13.6554 31.9887 13.0918 30.4079 13.0918 28.6043V19.4399C13.0918 17.6357 13.6583 16.055 14.7175 14.9206Z" fill="#EABB8D"/>
<path fill-rule="evenodd" clip-rule="evenodd" d="M28.9238 14.7291C29.7528 13.9027 31.0963 13.9027 31.9252 14.7291H28.9238ZM28.9238 14.7291L28.0198 15.6316L32.365 19.9694L33.269 19.0669C34.0976 18.2406 34.0981 16.8983 33.269 16.0706L31.9252 14.7291M31.6443 20.6889L27.2991 16.3511L20.6723 22.9665C20.3299 23.3084 20.1325 23.7683 20.1203 24.2508L20.0295 27.896H23.6433C24.144 27.896 24.6239 27.6973 24.9778 27.344L31.6443 20.6889ZM28.2033 14.0095C29.4302 12.7859 31.4188 12.7859 32.6458 14.0095L33.9897 15.3511C35.2166 16.5759 35.2169 18.5624 33.9897 19.7864L25.6985 28.0635C25.1537 28.6074 24.4146 28.9135 23.6433 28.9135H19.5071C19.3697 28.9135 19.2382 28.8582 19.1423 28.76C19.0463 28.6619 18.9942 28.5292 18.9976 28.3921L19.1014 24.2255C19.1201 23.4823 19.4241 22.7737 19.9516 22.247L28.2033 14.0095Z" fill="#EABB8D"/>
</svg>
