<svg width="24" height="24" viewBox="0 0 24 24" fill="none" xmlns="http://www.w3.org/2000/svg">
<path opacity="0.15" d="M4.5 22.75C4.5 22.9489 5.29018 23.1397 6.6967 23.2803C8.10322 23.421 10.0109 23.5 12 23.5C13.9891 23.5 15.8968 23.421 17.3033 23.2803C18.7098 23.1397 19.5 22.9489 19.5 22.75C19.5 22.5511 18.7098 22.3603 17.3033 22.2197C15.8968 22.079 13.9891 22 12 22C10.0109 22 8.10322 22.079 6.6967 22.2197C5.29018 22.3603 4.5 22.5511 4.5 22.75Z" fill="#45413C"/>
<path d="M2.33594 2H21.6709V14.605H2.33594V2Z" fill="#525252" stroke="#45413C" stroke-width="0.5" stroke-linecap="round" stroke-linejoin="round"/>
<path d="M3.78125 3.29688H8.14625V4.63188H3.78125V3.29688Z" fill="#6DD627"/>
<path d="M8.8125 3.29688H17.5175V4.63188H8.8125V3.29688Z" fill="#6DD627"/>
<path d="M18.0117 3.29688H20.2217V4.63188H18.0117V3.29688Z" fill="#6DD627"/>
<path d="M3.78125 5.46875H4.83625V6.80375H3.78125V5.46875Z" fill="#6DD627"/>
<path d="M5.53516 5.46875H10.0552V6.80375H5.53516V5.46875Z" fill="#6DD627"/>
<path d="M10.7305 5.46875H12.9905V6.80375H10.7305V5.46875Z" fill="#6DD627"/>
<path d="M13.5859 5.46875H20.2159V6.80375H13.5859V5.46875Z" fill="#6DD627"/>
<path d="M3.71094 7.64062H8.74094V8.97563H3.71094V7.64062Z" fill="#6DD627"/>
<path d="M9.28516 7.64062H20.2202V8.97563H9.28516V7.64062Z" fill="#6DD627"/>
<path d="M3.71094 9.80469H7.09094V11.1397H3.71094V9.80469Z" fill="#6DD627"/>
<path d="M7.83984 9.80469H15.4698V11.1397H7.83984V9.80469Z" fill="#6DD627"/>
<path d="M16.0898 9.80469H17.4148V11.1397H16.0898V9.80469Z" fill="#6DD627"/>
<path d="M18.0117 9.80469H20.2217V11.1397H18.0117V9.80469Z" fill="#6DD627"/>
<path d="M3.71094 11.9766H16.0909V13.3116H3.71094V11.9766Z" fill="#6DD627"/>
<path d="M16.75 11.9766H20.22V13.3116H16.75V11.9766Z" fill="#6DD627"/>
<path d="M12.0025 15.6094C13.5779 15.6094 15.0887 16.2352 16.2027 17.3492C17.3167 18.4631 17.9425 19.974 17.9425 21.5494V22.4994H6.0625V21.5494C6.0625 19.974 6.68832 18.4631 7.80229 17.3492C8.91625 16.2352 10.4271 15.6094 12.0025 15.6094Z" fill="#00B8F0"/>
<path d="M12.0025 15.6094C10.4271 15.6094 8.91625 16.2352 7.80229 17.3492C6.68832 18.4631 6.0625 19.974 6.0625 21.5494V22.4994H6.1275C6.32957 21.0848 7.03481 19.7905 8.11389 18.8537C9.19297 17.917 10.5736 17.4007 12.0025 17.3994C13.4314 17.4007 14.812 17.917 15.8911 18.8537C16.9702 19.7905 17.6754 21.0848 17.8775 22.4994H17.9425V21.5494C17.9425 19.974 17.3167 18.4631 16.2027 17.3492C15.0887 16.2352 13.5779 15.6094 12.0025 15.6094Z" fill="#009FD9"/>
<path d="M12.0025 15.6094C13.5779 15.6094 15.0887 16.2352 16.2027 17.3492C17.3167 18.4631 17.9425 19.974 17.9425 21.5494V22.4994H6.0625V21.5494C6.0625 19.974 6.68832 18.4631 7.80229 17.3492C8.91625 16.2352 10.4271 15.6094 12.0025 15.6094V15.6094Z" stroke="#45413C" stroke-width="0.5" stroke-linecap="round" stroke-linejoin="round"/>
<path d="M10.7305 13.5859H13.2755V17.5559H10.7305V13.5859Z" fill="#FFCEBF"/>
<path d="M12.0005 13.5859C11.6636 13.5859 11.3406 13.7197 11.1024 13.9579C10.8643 14.1961 10.7305 14.5191 10.7305 14.8559V15.1559C10.7305 15.4928 10.8643 15.8158 11.1024 16.054C11.3406 16.2921 11.6636 16.4259 12.0005 16.4259C12.3373 16.4259 12.6603 16.2921 12.8985 16.054C13.1367 15.8158 13.2705 15.4928 13.2705 15.1559V14.8609C13.2711 14.6937 13.2388 14.5281 13.1752 14.3734C13.1117 14.2187 13.0183 14.0781 12.9003 13.9597C12.7823 13.8412 12.642 13.7472 12.4876 13.6831C12.3332 13.619 12.1677 13.5859 12.0005 13.5859Z" fill="#FFB59E"/>
<path d="M10.7305 13.5859H13.2755V17.5559H10.7305V13.5859Z" stroke="#45413C" stroke-width="0.5" stroke-linecap="round" stroke-linejoin="round"/>
<path d="M8.53125 22.5019V21.2969" stroke="#45413C" stroke-width="0.5" stroke-linecap="round" stroke-linejoin="round"/>
<path d="M15.4727 22.5019V21.2969" stroke="#45413C" stroke-width="0.5" stroke-linecap="round" stroke-linejoin="round"/>
<path d="M11.9998 3.45312C11.5883 3.45351 11.1784 3.50558 10.7798 3.60812C9.84984 3.81812 8.63985 4.16813 7.54485 3.95813C7.50218 4.24015 7.51742 4.52791 7.58963 4.80386C7.66184 5.0798 7.78951 5.33815 7.96485 5.56313C7.39437 6.38534 7.08905 7.36238 7.08985 8.36312V10.9331H16.9098V8.36312C16.9098 7.06091 16.3925 5.81203 15.4717 4.89123C14.5509 3.97043 13.3021 3.45312 11.9998 3.45312Z" fill="#A86C4D"/>
<path d="M12.0007 3.45312C11.5892 3.45351 11.1793 3.50558 10.7807 3.60812C9.85074 3.81812 8.64074 4.16813 7.54574 3.95813C7.47804 4.4826 7.59851 5.0141 7.88574 5.45813C8.86514 5.47339 9.84121 5.34021 10.7807 5.06313C11.5059 4.87608 12.2644 4.85759 12.9978 5.00907C13.7313 5.16055 14.4203 5.47797 15.0121 5.93701C15.6039 6.39604 16.0827 6.9845 16.4118 7.65725C16.7409 8.33 16.9116 9.06919 16.9107 9.81812V8.36312C16.9107 7.06091 16.3934 5.81203 15.4726 4.89123C14.5518 3.97043 13.3029 3.45312 12.0007 3.45312Z" fill="#DE926A"/>
<path d="M11.9998 3.45312C11.5883 3.45351 11.1784 3.50558 10.7798 3.60812C9.84984 3.81812 8.63985 4.16813 7.54485 3.95813C7.50218 4.24015 7.51742 4.52791 7.58963 4.80386C7.66184 5.0798 7.78951 5.33815 7.96485 5.56313C7.39437 6.38534 7.08905 7.36238 7.08985 8.36312V10.9331H16.9098V8.36312C16.9098 7.06091 16.3925 5.81203 15.4717 4.89123C14.5509 3.97043 13.3021 3.45312 11.9998 3.45312V3.45312Z" stroke="#45413C" stroke-width="0.5" stroke-linecap="round" stroke-linejoin="round"/>
<path d="M17.4347 10.5563C17.4104 10.3726 17.3309 10.2007 17.2068 10.0633C17.0827 9.92577 16.9199 9.82918 16.7397 9.78625L16.4447 9.70625C16.2273 9.64486 16.0362 9.51372 15.9007 9.33303C15.7651 9.15234 15.6928 8.93211 15.6947 8.70625V7.68625C15.6941 7.48006 15.6258 7.27977 15.5002 7.11623C15.3746 6.9527 15.1988 6.83499 14.9997 6.78125C14.0462 7.16186 13.0261 7.34719 11.9997 7.32625C10.9733 7.34719 9.95314 7.16186 8.99969 6.78125C8.79969 6.83406 8.6227 6.95137 8.49614 7.11499C8.36959 7.27861 8.30054 7.4794 8.29969 7.68625V8.71625C8.30161 8.94211 8.22925 9.16234 8.09373 9.34303C7.95821 9.52372 7.76705 9.65486 7.54969 9.71625L7.25469 9.79625C7.07453 9.83918 6.91163 9.93577 6.78754 10.0733C6.66345 10.2107 6.58399 10.3826 6.55969 10.5662C6.54633 10.6928 6.55981 10.8208 6.59927 10.9418C6.63873 11.0628 6.70327 11.1742 6.78868 11.2685C6.87409 11.3629 6.97844 11.4382 7.09493 11.4895C7.21141 11.5408 7.33741 11.567 7.46469 11.5662H7.51969C7.63668 12.6715 8.15859 13.6944 8.98484 14.4378C9.81109 15.1812 10.8832 15.5926 11.9947 15.5926C13.1062 15.5926 14.1783 15.1812 15.0045 14.4378C15.8308 13.6944 16.3527 12.6715 16.4697 11.5662H16.5247C16.6533 11.5678 16.7808 11.542 16.8987 11.4904C17.0165 11.4388 17.122 11.3627 17.2082 11.2671C17.2943 11.1715 17.359 11.0587 17.3981 10.9361C17.4371 10.8135 17.4496 10.684 17.4347 10.5563Z" fill="#FFCEBF" stroke="#45413C" stroke-width="0.5" stroke-linecap="round" stroke-linejoin="round"/>
<path d="M9.28519 10.4553C9.28519 10.5315 9.30777 10.6059 9.35007 10.6692C9.39238 10.7326 9.45251 10.7819 9.52286 10.811C9.59321 10.8402 9.67062 10.8478 9.7453 10.8329C9.81998 10.8181 9.88858 10.7814 9.94243 10.7276C9.99627 10.6737 10.0329 10.6051 10.0478 10.5305C10.0626 10.4558 10.055 10.3784 10.0259 10.308C9.99674 10.2377 9.9474 10.1775 9.88408 10.1352C9.82077 10.0929 9.74634 10.0703 9.67019 10.0703C9.61944 10.0697 9.56908 10.0792 9.52207 10.0983C9.47505 10.1174 9.43234 10.1457 9.39646 10.1816C9.36057 10.2175 9.33224 10.2602 9.31313 10.3072C9.29402 10.3542 9.28452 10.4046 9.28519 10.4553Z" fill="#45413C" stroke="#45413C" stroke-width="0.5" stroke-linecap="round" stroke-linejoin="round"/>
<path d="M14.7153 10.4553C14.7153 10.5315 14.6927 10.6059 14.6504 10.6692C14.6081 10.7326 14.548 10.7819 14.4776 10.811C14.4073 10.8402 14.3299 10.8478 14.2552 10.8329C14.1805 10.8181 14.1119 10.7814 14.0581 10.7276C14.0042 10.6737 13.9676 10.6051 13.9527 10.5305C13.9379 10.4558 13.9455 10.3784 13.9746 10.308C14.0038 10.2377 14.0531 10.1775 14.1164 10.1352C14.1797 10.0929 14.2542 10.0703 14.3303 10.0703C14.3811 10.0697 14.4314 10.0792 14.4784 10.0983C14.5255 10.1174 14.5682 10.1457 14.604 10.1816C14.6399 10.2175 14.6683 10.2602 14.6874 10.3072C14.7065 10.3542 14.716 10.4046 14.7153 10.4553Z" fill="#45413C" stroke="#45413C" stroke-width="0.5" stroke-linecap="round" stroke-linejoin="round"/>
<path d="M10.5813 12.7969C10.5497 12.7976 10.5185 12.8051 10.4901 12.8189C10.4616 12.8327 10.4364 12.8525 10.4163 12.8769C10.3954 12.9004 10.38 12.9284 10.3714 12.9587C10.3627 12.989 10.361 13.0208 10.3663 13.0519C10.4338 13.4365 10.6348 13.785 10.9338 14.0361C11.2328 14.2872 11.6108 14.4249 12.0013 14.4249C12.3918 14.4249 12.7698 14.2872 13.0688 14.0361C13.3679 13.785 13.5688 13.4365 13.6363 13.0519C13.6416 13.0208 13.6399 12.989 13.6312 12.9587C13.6226 12.9284 13.6072 12.9004 13.5863 12.8769C13.5662 12.8525 13.541 12.8327 13.5125 12.8189C13.4841 12.8051 13.4529 12.7976 13.4213 12.7969H10.5813Z" fill="#FF6242"/>
<path d="M12.0022 13.5015C11.5508 13.4839 11.1066 13.6196 10.7422 13.8865C10.8997 14.062 11.0925 14.2023 11.3078 14.2984C11.5232 14.3944 11.7564 14.4441 11.9922 14.4441C12.228 14.4441 12.4612 14.3944 12.6765 14.2984C12.8919 14.2023 13.0846 14.062 13.2422 13.8865C12.8832 13.6239 12.4468 13.4884 12.0022 13.5015Z" fill="#FFA694"/>
<path d="M10.5813 12.7969C10.5497 12.7976 10.5185 12.8051 10.4901 12.8189C10.4616 12.8327 10.4364 12.8525 10.4163 12.8769C10.3954 12.9004 10.38 12.9284 10.3714 12.9587C10.3627 12.989 10.361 13.0208 10.3663 13.0519C10.4338 13.4365 10.6348 13.785 10.9338 14.0361C11.2328 14.2872 11.6108 14.4249 12.0013 14.4249C12.3918 14.4249 12.7698 14.2872 13.0688 14.0361C13.3679 13.785 13.5688 13.4365 13.6363 13.0519C13.6416 13.0208 13.6399 12.989 13.6312 12.9587C13.6226 12.9284 13.6072 12.9004 13.5863 12.8769C13.5662 12.8525 13.541 12.8327 13.5125 12.8189C13.4841 12.8051 13.4529 12.7976 13.4213 12.7969H10.5813Z" stroke="#45413C" stroke-width="0.5" stroke-linecap="round" stroke-linejoin="round"/>
<path d="M8.53125 12.0969C8.53125 12.1764 8.58393 12.2527 8.6777 12.309C8.77147 12.3653 8.89864 12.3969 9.03125 12.3969C9.16386 12.3969 9.29104 12.3653 9.3848 12.309C9.47857 12.2527 9.53125 12.1764 9.53125 12.0969C9.53125 12.0173 9.47857 11.941 9.3848 11.8847C9.29104 11.8285 9.16386 11.7969 9.03125 11.7969C8.89864 11.7969 8.77147 11.8285 8.6777 11.8847C8.58393 11.941 8.53125 12.0173 8.53125 12.0969Z" fill="#FFB59E"/>
<path d="M14.4727 12.0969C14.4727 12.1764 14.5253 12.2527 14.6191 12.309C14.7129 12.3653 14.84 12.3969 14.9727 12.3969C15.1053 12.3969 15.2324 12.3653 15.3262 12.309C15.42 12.2527 15.4727 12.1764 15.4727 12.0969C15.4727 12.0173 15.42 11.941 15.3262 11.8847C15.2324 11.8285 15.1053 11.7969 14.9727 11.7969C14.84 11.7969 14.7129 11.8285 14.6191 11.8847C14.5253 11.941 14.4727 12.0173 14.4727 12.0969Z" fill="#FFB59E"/>
<path d="M16.2601 22.5053H7.76013C7.66953 22.508 7.58094 22.4783 7.51034 22.4214C7.43974 22.3646 7.39179 22.2844 7.37513 22.1953L6.77013 17.2453C6.76716 17.1935 6.77526 17.1417 6.79387 17.0933C6.81249 17.0449 6.84121 17.001 6.87811 16.9646C6.91501 16.9282 6.95925 16.9 7.00787 16.8821C7.0565 16.8641 7.10841 16.8566 7.16013 16.8603H16.8601C16.9119 16.8566 16.9638 16.8641 17.0124 16.8821C17.061 16.9 17.1053 16.9282 17.1422 16.9646C17.1791 17.001 17.2078 17.0449 17.2264 17.0933C17.245 17.1417 17.2531 17.1935 17.2501 17.2453L16.6451 22.1953C16.6285 22.2844 16.5805 22.3646 16.5099 22.4214C16.4393 22.4783 16.3507 22.508 16.2601 22.5053Z" fill="#ADC4D9"/>
<path d="M7.1406 18.4753H16.8606C16.9432 18.4756 17.0237 18.5018 17.0906 18.5503L17.2506 17.2453C17.2536 17.1935 17.2455 17.1417 17.2269 17.0933C17.2082 17.0449 17.1795 17.001 17.1426 16.9646C17.1057 16.9282 17.0615 16.9 17.0129 16.8821C16.9642 16.8641 16.9123 16.8566 16.8606 16.8603H7.1406C7.08888 16.8566 7.03697 16.8641 6.98834 16.8821C6.93971 16.9 6.89548 16.9282 6.85858 16.9646C6.82168 17.001 6.79296 17.0449 6.77434 17.0933C6.75572 17.1417 6.74763 17.1935 6.7506 17.2453L6.9106 18.5503C6.97753 18.5018 7.05797 18.4756 7.1406 18.4753Z" fill="#C0DCEB"/>
<path d="M16.2601 22.5053H7.76013C7.66953 22.508 7.58094 22.4783 7.51034 22.4214C7.43974 22.3646 7.39179 22.2844 7.37513 22.1953L6.77013 17.2453C6.76716 17.1935 6.77526 17.1417 6.79387 17.0933C6.81249 17.0449 6.84121 17.001 6.87811 16.9646C6.91501 16.9282 6.95925 16.9 7.00787 16.8821C7.0565 16.8641 7.10841 16.8566 7.16013 16.8603H16.8601C16.9119 16.8566 16.9638 16.8641 17.0124 16.8821C17.061 16.9 17.1053 16.9282 17.1422 16.9646C17.1791 17.001 17.2078 17.0449 17.2264 17.0933C17.245 17.1417 17.2531 17.1935 17.2501 17.2453L16.6451 22.1953C16.6285 22.2844 16.5805 22.3646 16.5099 22.4214C16.4393 22.4783 16.3507 22.508 16.2601 22.5053Z" stroke="#45413C" stroke-width="0.5" stroke-linecap="round" stroke-linejoin="round"/>
<path d="M12.5963 19.6822C12.5905 19.5314 12.6325 19.3827 12.7163 19.2572C12.6705 19.1969 12.6051 19.1544 12.5313 19.1372C12.4451 19.1072 12.3513 19.1071 12.2651 19.1371C12.1789 19.167 12.1053 19.2252 12.0563 19.3022C12.0049 19.2211 11.927 19.1604 11.8358 19.1303C11.7447 19.1002 11.6459 19.1026 11.5563 19.1372C11.3063 19.1872 11.1813 19.5472 11.2713 19.9322C11.3613 20.3172 11.6413 20.5922 11.8963 20.5422C11.9481 20.5283 11.996 20.5026 12.0363 20.4672C12.0741 20.5034 12.1206 20.5292 12.1713 20.5422C12.3763 20.5822 12.5963 20.4122 12.7213 20.1422C12.6242 20.0096 12.5797 19.8457 12.5963 19.6822Z" fill="white"/>
<path d="M12.0979 19.0558C12.1218 19.0769 12.1663 19.0725 12.2216 19.0437C12.2769 19.015 12.3385 18.9641 12.3928 18.9024C12.4471 18.8407 12.4897 18.7731 12.5112 18.7146C12.5327 18.6561 12.5314 18.6114 12.5075 18.5904C12.4836 18.5694 12.4391 18.5737 12.3838 18.6025C12.3285 18.6313 12.2669 18.6821 12.2126 18.7438C12.1583 18.8056 12.1157 18.8731 12.0942 18.9316C12.0727 18.9901 12.074 19.0348 12.0979 19.0558Z" fill="white"/>
</svg>
