<svg width="40" height="40" viewBox="0 0 40 41" fill="none" xmlns="http://www.w3.org/2000/svg">
<path fill-rule="evenodd" clip-rule="evenodd" d="M2 20.7188C2 30.6599 10.0589 38.7188 20 38.7188C29.9411 38.7188 38 30.6599 38 20.7188C38 10.7776 29.9411 2.71875 20 2.71875C10.0589 2.71875 2 10.7776 2 20.7188ZM20 0.71875C8.95431 0.71875 0 9.67306 0 20.7188C0 31.7644 8.95431 40.7188 20 40.7188C31.0457 40.7188 40 31.7644 40 20.7188C40 9.67306 31.0457 0.71875 20 0.71875Z" fill="#BD9268"/>
<path d="M20.9825 27.7188C13.466 27.7188 9.17864 22.4635 9 13.7188H12.7651C12.8888 20.1372 15.6646 22.8559 17.8632 23.4164V13.7188H21.4085V19.2543C23.5796 19.016 25.8607 16.4935 26.6302 13.7188H30.1755C29.8855 15.1578 29.3075 16.5204 28.4776 17.7213C27.6477 18.9221 26.5837 19.9354 25.3523 20.6977C26.7269 21.3943 27.941 22.3802 28.9145 23.5905C29.888 24.8007 30.5988 26.2078 31 27.7188H27.0974C26.7373 26.4064 26.0054 25.2316 24.9934 24.3416C23.9814 23.4516 22.7343 22.886 21.4085 22.7157V27.7188H20.9825Z" fill="#BD9268"/>
</svg>
