<svg width="40" height="40" viewBox="0 0 40 40" fill="none" xmlns="http://www.w3.org/2000/svg">
<path fill-rule="evenodd" clip-rule="evenodd" d="M9.47681 16.9127C9.18999 17.892 9.03614 18.928 9.03614 20C9.03614 21.072 9.19 22.1081 9.47682 23.0873C9.48381 23.0816 9.49101 23.076 9.49841 23.0707C9.60985 22.9904 9.7531 22.9686 9.88337 23.0121C11.4829 23.5462 13.1146 23.9502 14.7626 24.224C14.3986 21.42 14.3986 18.58 14.7626 15.776C13.1146 16.0498 11.4829 16.4538 9.88337 16.9879C9.73877 17.0361 9.58657 17.0028 9.47681 16.9127ZM9.73622 16.1366C11.4256 15.5799 13.1493 15.1644 14.8899 14.8899C15.1406 13.2998 15.5091 11.7239 15.9953 10.1752H15.4436C15.3686 10.1752 15.2982 10.1559 15.2369 10.122C12.715 11.3403 10.7307 13.4959 9.73622 16.1366ZM16.9127 9.47682C17.8919 9.19 18.928 9.03614 20 9.03614C21.072 9.03614 22.108 9.18999 23.0873 9.47681C22.9972 9.58657 22.9639 9.73877 23.0121 9.88337C23.5462 11.4829 23.9502 13.1146 24.224 14.7626C21.42 14.3986 18.58 14.3986 15.776 14.7626C16.0498 13.1146 16.4538 11.4829 16.9879 9.88337C17.0314 9.7531 17.0096 9.60985 16.9293 9.49841C16.924 9.49101 16.9184 9.48381 16.9127 9.47682ZM15.6424 15.6424C15.2444 18.5335 15.2444 21.4665 15.6424 24.3576C18.5335 24.7556 21.4665 24.7556 24.3576 24.3576C24.7556 21.4665 24.7556 18.5335 24.3576 15.6424C21.4665 15.2444 18.5335 15.2444 15.6424 15.6424ZM25.2374 15.776C25.6014 18.58 25.6014 21.42 25.2374 24.224C26.8854 23.9502 28.5171 23.5462 30.1166 23.0121C30.2469 22.9686 30.3902 22.9904 30.5016 23.0707C30.509 23.076 30.5162 23.0816 30.5232 23.0873C30.81 22.1081 30.9639 21.072 30.9639 20C30.9639 18.928 30.81 17.892 30.5232 16.9127C30.4134 17.0028 30.2612 17.0361 30.1166 16.9879C28.5171 16.4538 26.8854 16.0498 25.2374 15.776ZM30.2638 16.1366C29.1538 13.1892 26.8108 10.8462 23.8634 9.73622C24.4201 11.4256 24.8356 13.1493 25.1101 14.8899C26.8507 15.1644 28.5744 15.5799 30.2638 16.1366ZM29.8248 24.0047V24.5564C29.8248 24.6314 29.8441 24.7018 29.878 24.7631C28.6597 27.285 26.5041 29.2693 23.8634 30.2638C24.4201 28.5744 24.8356 26.8507 25.1101 25.1101C26.7002 24.8594 28.2761 24.4909 29.8248 24.0047ZM24.224 25.2374C21.42 25.6014 18.58 25.6014 15.776 25.2374C16.0498 26.8854 16.4538 28.5171 16.9879 30.1166C17.0314 30.2469 17.0096 30.3902 16.9293 30.5016C16.924 30.509 16.9184 30.5162 16.9127 30.5232C17.8919 30.81 18.928 30.9639 20 30.9639C21.072 30.9639 22.108 30.81 23.0873 30.5232C22.9972 30.4134 22.9639 30.2612 23.0121 30.1166C23.5462 28.5171 23.9502 26.8854 24.224 25.2374ZM15.9953 29.8248H15.4436C15.3686 29.8248 15.2982 29.8441 15.2369 29.878C13.0079 28.8012 11.1988 26.9921 10.122 24.7631C10.1559 24.7018 10.1752 24.6314 10.1752 24.5564V24.0047C11.7239 24.4909 13.2998 24.8594 14.8899 25.1101C15.1406 26.7002 15.5091 28.2761 15.9953 29.8248ZM8.18182 20C8.18182 13.473 13.473 8.18182 20 8.18182C26.527 8.18182 31.8182 13.473 31.8182 20C31.8182 26.527 26.527 31.8182 20 31.8182C13.473 31.8182 8.18182 26.527 8.18182 20Z" fill="#BD9268"/>
<path d="M31.5685 20.0002C31.5685 13.6113 26.389 8.43191 20.0002 8.43182C13.6112 8.43182 8.43182 13.6112 8.43182 20.0002C8.43191 26.389 13.6113 31.5685 20.0002 31.5685C26.389 31.5684 31.5684 26.389 31.5685 20.0002ZM24.1916 24.9894C24.2699 24.9793 24.3486 25.0069 24.4035 25.0637C24.4584 25.1206 24.4838 25.2004 24.4709 25.2785C24.2294 26.7319 23.8869 28.1725 23.4445 29.59L23.2492 30.1955C23.2293 30.2551 23.2427 30.3183 23.2805 30.3644C23.3336 30.4293 23.351 30.5167 23.3263 30.5969C23.3016 30.677 23.2379 30.7393 23.1574 30.7629C22.1556 31.0563 21.0961 31.214 20.0002 31.214C18.9041 31.214 17.8438 31.0563 16.842 30.7629C16.7617 30.7392 16.6987 30.6769 16.674 30.5969C16.6493 30.5166 16.6666 30.4293 16.7199 30.3644C16.7223 30.3616 16.7246 30.3586 16.7267 30.3556L16.7472 30.3185C16.7576 30.2929 16.7612 30.265 16.759 30.2375L16.7512 30.1955C16.2129 28.5835 15.8054 26.9393 15.5295 25.2785C15.5165 25.2005 15.541 25.1206 15.5959 25.0637C15.6507 25.0068 15.7295 24.9794 15.8078 24.9894C18.5903 25.3506 21.409 25.3506 24.1916 24.9894ZM23.9191 25.5256C21.3155 25.8364 18.6839 25.8364 16.0803 25.5256C16.3498 27.0487 16.7305 28.5569 17.2248 30.0373L17.2463 30.1154C17.2627 30.1954 17.2636 30.2771 17.2512 30.3566C18.1282 30.5888 19.0495 30.714 20.0002 30.714C20.9507 30.714 21.8713 30.5877 22.7482 30.3556C22.7321 30.2523 22.7391 30.1434 22.7746 30.0373L22.968 29.4406C23.3699 28.1525 23.6857 26.8445 23.9191 25.5256ZM29.5744 24.342C28.1765 24.7651 26.7573 25.0927 25.3263 25.3263C25.0785 26.8448 24.7242 28.3497 24.2629 29.8303C26.5873 28.8208 28.4827 27.0116 29.6037 24.7492C29.5855 24.688 29.5744 24.6236 29.5744 24.5568V24.342ZM10.2502 23.7658C11.595 24.188 12.9605 24.5216 14.3381 24.7648L14.9289 24.8635L15.0041 24.8879C15.0737 24.9236 15.1242 24.9911 15.1369 25.0715C15.3857 26.6493 15.7511 28.2135 16.2336 29.7502C16.2573 29.8261 16.2435 29.9087 16.1965 29.9728C16.1494 30.0368 16.0748 30.0744 15.9953 30.0744H15.4435C15.412 30.0744 15.3827 30.083 15.3576 30.0969C15.2866 30.136 15.2011 30.138 15.1281 30.1027C12.9909 29.0702 11.2315 27.3798 10.1125 25.2941L9.89666 24.8722C9.86134 24.7991 9.86416 24.7128 9.9035 24.6418C9.91728 24.6168 9.92491 24.5881 9.92498 24.5568V24.0051C9.92498 23.9255 9.96337 23.85 10.0275 23.8029C10.0916 23.756 10.1744 23.742 10.2502 23.7658ZM15.6086 15.3947C18.3402 15.0188 21.1087 14.9954 23.8449 15.3244L24.3918 15.3947L24.4699 15.4191C24.5419 15.4553 24.5942 15.5254 24.6056 15.6086C25.0067 18.5223 25.0067 21.4781 24.6056 24.3918C24.5904 24.5028 24.5028 24.5904 24.3918 24.6056C21.4781 25.0067 18.5223 25.0067 15.6086 24.6056C15.4976 24.5904 15.41 24.5028 15.3947 24.3918C14.9937 21.4781 14.9937 18.5223 15.3947 15.6086L15.4191 15.5305C15.4553 15.4583 15.5253 15.4062 15.6086 15.3947ZM14.7219 15.5295C14.7997 15.5166 14.8789 15.5412 14.9357 15.5959C14.9926 15.6507 15.021 15.7295 15.0109 15.8078C14.6497 18.5904 14.6497 21.409 15.0109 24.1916C15.0211 24.2701 14.9927 24.3486 14.9357 24.4035C14.8789 24.4584 14.7998 24.4837 14.7219 24.4709C13.2685 24.2294 11.8278 23.8868 10.4103 23.4445L9.80389 23.2492C9.76359 23.2358 9.72037 23.2376 9.68182 23.2531L9.64471 23.2736C9.64176 23.2757 9.6388 23.2781 9.63592 23.2805C9.57115 23.3337 9.48364 23.3509 9.4035 23.3263C9.32327 23.3016 9.2601 23.238 9.23651 23.1574C8.94313 22.1557 8.78633 21.096 8.78631 20.0002C8.78631 18.9042 8.94307 17.8438 9.23651 16.842L9.2619 16.7853C9.29317 16.7326 9.34351 16.6925 9.4035 16.674C9.48357 16.6494 9.57017 16.6668 9.63494 16.7199C9.68096 16.7577 9.7443 16.7709 9.80389 16.7512L10.4103 16.5549C11.8277 16.1126 13.2686 15.7709 14.7219 15.5295ZM30.714 20.0002C30.714 19.0491 30.588 18.1276 30.3556 17.2502C30.2802 17.262 30.2023 17.2623 30.1242 17.2472L30.0373 17.2248C28.5569 16.7305 27.0487 16.3498 25.5256 16.0803C25.8364 18.6839 25.8364 21.3155 25.5256 23.9191C27.0487 23.6495 28.5569 23.2689 30.0373 22.7746L30.1154 22.7541C30.1951 22.7377 30.2764 22.7359 30.3556 22.7482C30.5877 21.8713 30.714 20.9507 30.714 20.0002ZM24.133 15.8644C21.3891 15.5037 18.6092 15.5045 15.8654 15.8654C15.5045 18.6092 15.5037 21.3891 15.8644 24.133C18.6088 24.494 21.3887 24.4938 24.133 24.133C24.4938 21.3887 24.494 18.6087 24.133 15.8644ZM15.1847 9.87713C15.243 9.86473 15.3043 9.87409 15.3576 9.9035L15.3986 9.91912C15.4129 9.92285 15.4278 9.92498 15.4435 9.92498H15.9953C16.0749 9.92498 16.1494 9.96339 16.1965 10.0275C16.2436 10.0917 16.2574 10.1742 16.2336 10.2502C15.7511 11.7869 15.3857 13.351 15.1369 14.9289C15.12 15.036 15.036 15.12 14.9289 15.1369C13.4174 15.3752 11.9187 15.7203 10.4445 16.173L9.81463 16.3742C9.72324 16.4043 9.62247 16.3792 9.55584 16.3097C9.48921 16.2403 9.4682 16.1381 9.50213 16.048C10.5194 13.3471 12.5489 11.1426 15.1281 9.89666L15.1847 9.87713ZM23.9513 9.50213C26.9659 10.6374 29.3629 13.0335 30.4982 16.048L30.5129 16.1174C30.5183 16.1872 30.4945 16.2576 30.4445 16.3097C30.3779 16.3792 30.2771 16.4042 30.1857 16.3742C28.7187 15.8908 27.2255 15.5142 25.718 15.2453L25.0715 15.1369C24.9644 15.12 24.8804 15.036 24.8635 14.9289C24.6251 13.4174 24.2791 11.9187 23.8263 10.4445L23.6262 9.81463C23.596 9.7232 23.6211 9.62247 23.6906 9.55584C23.76 9.48932 23.8613 9.46832 23.9513 9.50213ZM15.2492 10.3957C12.9871 11.5168 11.1764 13.4122 10.1672 15.7365C11.648 15.275 13.1533 14.9201 14.6721 14.6721C14.9057 13.2413 15.2352 11.8227 15.6584 10.425H15.4435C15.3761 10.425 15.311 10.4142 15.2492 10.3957ZM24.2629 10.1681C24.7242 11.6487 25.0784 13.1537 25.3263 14.6721C26.8451 14.92 28.3504 15.2751 29.8312 15.7365C28.7503 13.2474 26.752 11.2489 24.2629 10.1681ZM20.0002 8.78631C21.096 8.78633 22.1557 8.94313 23.1574 9.23651L23.214 9.2619C23.267 9.29316 23.3078 9.34333 23.3263 9.4035C23.3509 9.48347 23.3334 9.57021 23.2805 9.63494C23.2427 9.68098 23.2294 9.74427 23.2492 9.80389L23.4445 10.4103C23.8868 11.8278 24.2294 13.2685 24.4709 14.7219C24.4837 14.7998 24.4584 14.8789 24.4035 14.9357C24.3486 14.9927 24.2701 15.0211 24.1916 15.0109C21.409 14.6497 18.5904 14.6497 15.8078 15.0109C15.7295 15.021 15.6507 14.9926 15.5959 14.9357C15.5412 14.8789 15.5166 14.7997 15.5295 14.7219C15.8054 13.0609 16.2129 11.416 16.7512 9.80389L16.759 9.76287C16.7613 9.7353 16.7576 9.70748 16.7472 9.68182L16.7267 9.64471C16.7246 9.64181 16.7222 9.63873 16.7199 9.63592C16.6666 9.57112 16.6494 9.48367 16.674 9.4035C16.6987 9.32336 16.7615 9.26017 16.842 9.23651C17.8438 8.94306 18.9041 8.78631 20.0002 8.78631ZM20.0002 9.28631C19.0496 9.28631 18.1282 9.41061 17.2512 9.64276C17.2637 9.72226 17.2627 9.80394 17.2463 9.88397L17.2248 9.96209C16.7305 11.4423 16.3499 12.9508 16.0803 14.4738C18.6839 14.1629 21.3155 14.163 23.9191 14.4738C23.6856 13.1549 23.3699 11.8469 22.968 10.5588L22.7746 9.96209C22.7391 9.85556 22.7318 9.7464 22.7482 9.64276C21.8714 9.41072 20.9505 9.28633 20.0002 9.28631ZM10.425 24.5568C10.4249 24.624 10.4141 24.6887 10.3957 24.7502C11.4373 26.852 13.1483 28.5621 15.2502 29.6037C15.3117 29.5854 15.3765 29.5744 15.4435 29.5744H15.6574C15.2342 28.1764 14.9057 26.7573 14.6721 25.3263C13.2413 25.0927 11.8227 24.7641 10.425 24.341V24.5568ZM30.0744 24.5568C30.0745 24.5882 30.083 24.6168 30.0969 24.6418C30.1362 24.7128 30.138 24.7991 30.1027 24.8722C28.8567 27.4513 26.6523 29.4811 23.9513 30.4982C23.8614 30.5319 23.76 30.5109 23.6906 30.4445C23.6212 30.3779 23.5961 30.2771 23.6262 30.1857C24.1785 28.5093 24.5911 26.7987 24.8635 25.0715L24.8879 24.9963C24.9236 24.9265 24.991 24.8761 25.0715 24.8635L25.6623 24.7648C27.0398 24.5216 28.4055 24.188 29.7502 23.7658C29.826 23.7421 29.9088 23.7559 29.9728 23.8029C30.037 23.85 30.0744 23.9255 30.0744 24.0051V24.5568ZM9.28631 20.0002C9.28633 20.9505 9.41072 21.8714 9.64276 22.7482C9.74831 22.7316 9.85786 22.7399 9.96209 22.7746L10.5588 22.968C11.8469 23.3699 13.1549 23.6856 14.4738 23.9191C14.163 21.3155 14.1629 18.6839 14.4738 16.0803C13.1548 16.3137 11.847 16.6304 10.5588 17.0324L9.96209 17.2248C9.85542 17.2603 9.74653 17.2666 9.64276 17.2502C9.41046 18.1275 9.28631 19.0492 9.28631 20.0002ZM31.214 20.0002C31.214 21.0961 31.0563 22.1556 30.7629 23.1574C30.7393 23.238 30.6771 23.3016 30.5969 23.3263C30.5166 23.3511 30.4293 23.3338 30.3644 23.2805L30.3556 23.2736C30.3211 23.2487 30.279 23.237 30.2375 23.2404L30.1955 23.2492C28.5835 23.7874 26.9393 24.1949 25.2785 24.4709C25.2004 24.4838 25.1206 24.4584 25.0637 24.4035C25.0069 24.3486 24.9793 24.2699 24.9894 24.1916C25.3506 21.409 25.3506 18.5903 24.9894 15.8078C24.9794 15.7295 25.0068 15.6507 25.0637 15.5959C25.1206 15.541 25.2005 15.5165 25.2785 15.5295C26.9393 15.8054 28.5835 16.2129 30.1955 16.7512L30.2404 16.7599C30.2855 16.7629 30.3298 16.7482 30.3644 16.7199L30.4172 16.6867C30.4728 16.6606 30.5367 16.6555 30.5969 16.674C30.6769 16.6987 30.7392 16.7617 30.7629 16.842C31.0563 17.8438 31.214 18.9042 31.214 20.0002ZM32.0685 20.0002C32.0684 26.6651 26.6651 32.0684 20.0002 32.0685C13.3352 32.0685 7.93191 26.6652 7.93182 20.0002C7.93182 13.3351 13.3351 7.93182 20.0002 7.93182C26.6652 7.93191 32.0685 13.3352 32.0685 20.0002Z" fill="#BD9268"/>
<path d="M38 20C38 10.0589 29.9411 2 20 2C10.0589 2 2 10.0589 2 20C2 29.9411 10.0589 38 20 38C29.9411 38 38 29.9411 38 20ZM40 20C40 31.0457 31.0457 40 20 40C8.9543 40 0 31.0457 0 20C0 8.9543 8.9543 0 20 0C31.0457 0 40 8.9543 40 20Z" fill="#BD9268"/>
</svg>
