<svg width="44" height="44" viewBox="0 0 44 44" fill="none" xmlns="http://www.w3.org/2000/svg">
<path fill-rule="evenodd" clip-rule="evenodd" d="M4.98038 5.3528C6.92899 3.26577 9.71812 2.0778 13.0619 2.0778H20.6308C21.1468 2.0778 21.5651 2.49539 21.5651 3.01051C21.5651 3.52563 21.1468 3.94321 20.6308 3.94321H13.0619C10.181 3.94321 7.90628 4.95495 6.34727 6.62469C4.78147 8.30171 3.86859 10.7177 3.86859 13.6382V30.4396C3.86859 33.3613 4.7776 35.7771 6.34085 37.4536C7.89707 39.1225 10.1713 40.1346 13.0619 40.1346H30.9244C33.8162 40.1346 36.0909 39.1224 37.6473 37.4535C39.2108 35.7771 40.1198 33.3613 40.1198 30.4396V22.2996C40.1198 21.7845 40.5381 21.3669 41.0541 21.3669C41.5701 21.3669 41.9884 21.7845 41.9884 22.2996V30.4396C41.9884 33.7462 40.955 36.6443 39.0149 38.7246C37.0678 40.8125 34.2777 42 30.9244 42H13.0619C9.70961 42 6.91998 40.8124 4.97313 38.7246C3.03332 36.6442 2 33.7462 2 30.4396V13.6382C2 10.3304 3.03855 7.43255 4.98038 5.3528Z" fill="#BD9268"/>
<path fill-rule="evenodd" clip-rule="evenodd" d="M31.0253 5.00177C32.5451 3.48662 35.0082 3.48662 36.528 5.00177H31.0253ZM31.0253 5.00177L29.368 6.65633L37.3342 14.609L38.9916 12.9544C40.5107 11.4395 40.5115 8.97853 38.9916 7.46116L36.528 5.00177M36.0129 15.928L28.0467 7.97538L15.8977 20.1036C15.2698 20.7305 14.908 21.5736 14.8856 22.4582L14.7191 29.1411H21.3444C22.2623 29.1411 23.1422 28.7768 23.791 28.129L36.0129 15.928ZM29.7044 3.68238C31.9538 1.43921 35.5995 1.43921 37.8489 3.68238L40.3129 6.14211C42.5621 8.38746 42.5627 12.0295 40.3129 14.2735L25.1123 29.4481C24.1134 30.4453 22.7585 31.0065 21.3444 31.0065H13.7613C13.5095 31.0065 13.2683 30.9051 13.0925 30.7251C12.9167 30.5451 12.821 30.302 12.8273 30.0506L13.0176 22.4118C13.052 21.0492 13.6092 19.7501 14.5764 18.7846L29.7044 3.68238Z" fill="#BD9268"/>
</svg>
