<svg width="44" height="44" viewBox="0 0 44 44" fill="none" xmlns="http://www.w3.org/2000/svg">
<path fill-rule="evenodd" clip-rule="evenodd" d="M4 22C4 31.9411 12.0589 40 22 40C31.9411 40 40 31.9411 40 22C40 12.0589 31.9411 4 22 4C12.0589 4 4 12.0589 4 22ZM22 2C10.9543 2 2 10.9543 2 22C2 33.0457 10.9543 42 22 42C33.0457 42 42 33.0457 42 22C42 10.9543 33.0457 2 22 2Z" fill="#444444"/>
<path d="M29.9268 14.0625C27.9512 12.0937 25.3171 11 22.5366 11C16.7561 11 12.0732 15.6667 12.0732 21.4271C12.0732 23.25 12.5854 25.0729 13.4634 26.6042L12 32L17.561 30.5417C19.0976 31.3438 20.7805 31.7812 22.5366 31.7812C28.3171 31.7812 33 27.1146 33 21.3542C32.9268 18.6563 31.9024 16.0312 29.9268 14.0625ZM27.5854 25.1458C27.3659 25.7292 26.3415 26.3125 25.8293 26.3854C25.3902 26.4583 24.8049 26.4583 24.2195 26.3125C23.8537 26.1667 23.3415 26.0208 22.7561 25.7292C20.122 24.6354 18.439 22.0104 18.2927 21.7917C18.1463 21.6458 17.1951 20.4062 17.1951 19.0938C17.1951 17.7812 17.8537 17.1979 18.0732 16.9062C18.2927 16.6146 18.5854 16.6146 18.8049 16.6146C18.9512 16.6146 19.1707 16.6146 19.3171 16.6146C19.4634 16.6146 19.6829 16.5417 19.9024 17.0521C20.122 17.5625 20.6341 18.875 20.7073 18.9479C20.7805 19.0938 20.7805 19.2396 20.7073 19.3854C20.6341 19.5313 20.561 19.6771 20.4146 19.8229C20.2683 19.9688 20.122 20.1875 20.0488 20.2604C19.9024 20.4062 19.7561 20.5521 19.9024 20.7708C20.0488 21.0625 20.561 21.8646 21.3659 22.5938C22.3902 23.4688 23.1951 23.7604 23.4878 23.9062C23.7805 24.0521 23.9268 23.9792 24.0732 23.8333C24.2195 23.6875 24.7317 23.1042 24.878 22.8125C25.0244 22.5208 25.2439 22.5938 25.4634 22.6667C25.6829 22.7396 27 23.3958 27.2195 23.5417C27.5122 23.6875 27.6585 23.7604 27.7317 23.8333C27.8049 24.0521 27.8049 24.5625 27.5854 25.1458Z" fill="#444444"/>
</svg>
