<svg width="44" height="44" viewBox="0 0 44 44" fill="none" xmlns="http://www.w3.org/2000/svg">
<path d="M20.1119 30.5873C20.9771 30.6968 21.8312 30.8092 22.7034 30.6985C23.1854 30.6373 23.7279 30.4403 24.205 30.4524C24.4723 31.3766 24.6935 32.3066 24.8295 33.2609C25.1605 35.5814 25.1822 39.1233 24.0645 41.1931C23.8811 41.5329 23.6218 41.8955 23.2403 42.0123C22.9691 42.0952 22.6743 42.0211 22.4367 41.8754C21.9186 41.5575 21.5131 40.8585 21.307 40.2958C21.1612 39.7576 20.9497 39.2368 20.8151 38.6955C20.4221 37.1151 20.2604 35.4474 20.1786 33.8236C20.1244 32.7463 20.2431 31.6602 20.1119 30.5873Z" fill="white"/>
<path d="M24.2641 30.4549C24.4937 30.2501 25.3396 30.0234 25.6869 29.8265C25.9135 29.6981 27.2833 28.6256 27.3175 28.6185C29.5821 30.7137 31.783 34.7523 31.9184 37.8755C31.9444 38.4735 31.887 39.2664 31.4563 39.7174C31.2663 39.9162 31.0164 40.0283 30.7432 40.0315C29.9155 40.0411 29.1104 39.3472 28.5739 38.7816C26.5941 36.6941 25.2002 33.146 24.2641 30.4549Z" fill="white"/>
<path d="M23.4059 15.3464C23.6523 14.5306 23.8206 13.6899 24.0843 12.8794C24.9208 10.3085 26.9605 5.52306 29.4003 4.19146C29.7707 3.98928 30.2264 3.8302 30.6444 3.96366C30.9119 4.04909 31.1138 4.23402 31.2363 4.48903C31.7831 5.62626 31.0691 7.77282 30.652 8.91402C29.9274 10.8965 28.8789 12.7551 27.7564 14.529C27.4296 15.0454 26.5863 16.0778 26.4071 16.5424L26.3514 16.603C26.1851 16.587 25.5816 16.1401 25.3842 16.0333C25.2298 15.9494 25.0723 15.8721 24.9118 15.8012C24.7512 15.7303 24.5881 15.6661 24.4224 15.6086C24.2567 15.551 24.0891 15.5004 23.9194 15.4566C23.7497 15.4129 23.5785 15.3762 23.4059 15.3464Z" fill="white"/>
<path d="M17.0694 16.8206C15.354 14.4118 13.7268 11.7689 12.904 8.89054C12.5731 7.7331 12.2168 5.89914 12.8516 4.78158C13.003 4.51508 13.2316 4.27654 13.5342 4.201C13.9695 4.09231 14.4936 4.36057 14.8503 4.6012C17.635 6.47979 19.2917 11.8193 19.9123 14.9967C19.9358 15.1484 19.9625 15.2876 20.0105 15.4333C19.0241 15.8104 18.021 16.1743 17.1975 16.8703C17.1254 16.8627 17.1302 16.872 17.0694 16.8206Z" fill="white"/>
<path d="M19.9491 14.9805C19.8015 13.8929 19.5409 12.8285 19.4086 11.7355C19.1181 9.33411 19.0124 4.66515 20.5035 2.6971C20.7242 2.40592 21.0631 2.10041 21.4359 2.05307C21.758 2.01217 22.081 2.17943 22.3179 2.38799C23.3952 3.33627 23.8577 6.17727 23.9276 7.59349C24.0272 9.61376 23.8432 11.6012 23.5671 13.5986C23.4916 14.1456 23.4333 14.7034 23.3293 15.2454L23.3097 15.28C23.1354 15.3593 22.623 15.2544 22.4142 15.2446C21.8565 15.2183 21.2819 15.2574 20.726 15.3102C20.5375 15.3282 20.3021 15.4344 20.1223 15.4016C20.0032 15.2856 19.9928 15.1397 19.9491 14.9805Z" fill="white"/>
<path d="M11.7102 22.1721C11.1009 22.1221 10.4577 21.9492 9.86131 21.8136C8.63318 21.5345 7.39156 21.2453 6.19958 20.8326C4.89713 20.3815 2.75134 19.4997 2.14632 18.1829C2.01878 17.9054 1.94159 17.5787 2.05532 17.2834C2.164 17.0012 2.40131 16.8144 2.66647 16.6952C5.03631 15.6299 9.02844 16.5666 11.3885 17.416C11.7512 17.5465 12.1221 17.678 12.4727 17.8387C12.7181 17.9512 12.9549 18.0911 13.205 18.1906L13.2175 18.1632C12.7514 17.8696 12.264 17.6104 11.801 17.3122C11.1056 16.8672 10.433 16.3892 9.78303 15.8782C9.13314 15.3673 8.50895 14.8257 7.91047 14.2535C6.99614 13.3802 5.50037 11.7615 5.48742 10.4345C5.4847 10.1599 5.56088 9.89531 5.76313 9.7041C6.03232 9.44952 6.44333 9.40396 6.79599 9.41263C9.84734 9.48735 13.4543 12.7688 15.4429 14.9286C16.0042 15.5383 16.4911 16.2588 17.0347 16.8312L17.0575 16.8546L17.0772 16.9531C16.8505 17.2571 16.4839 17.4939 16.2202 17.7788C15.3462 18.7228 14.7258 19.9903 14.4802 21.2602C14.421 21.5498 14.3589 21.8389 14.3181 22.132C13.913 22.2048 13.5005 22.1614 13.0913 22.1616C12.6309 22.1619 12.1704 22.1908 11.7102 22.1721Z" fill="white"/>
<path d="M11.8676 22.2769C12.672 22.1865 13.4827 22.1782 14.2912 22.2003C14.2733 22.9467 14.2093 23.7641 14.3356 24.5015C14.4133 24.955 14.6345 25.4144 14.6652 25.8671C14.6171 25.9009 14.5693 25.9319 14.5261 25.9721C14.5924 26.0033 14.6431 26.0111 14.7147 26.0226C14.946 26.2972 15.1094 26.7699 15.3056 27.0852C15.9692 28.1515 16.9428 29.1097 18.0158 29.742C18.36 29.9427 18.7187 30.1115 19.0919 30.2485C19.3644 30.3494 19.7718 30.4198 20.0044 30.5798C19.9171 31.0208 19.7423 31.4622 19.6027 31.889C19.0602 33.5478 18.4181 35.2 17.5744 36.7269C16.9657 37.8285 15.5848 40.0056 14.3663 40.3196C14.109 40.3859 13.8511 40.3507 13.6259 40.2049C13.1809 39.9166 13.0323 39.4352 12.9374 38.9387C12.5068 36.6885 13.9193 32.8117 15.0454 30.8455C15.2724 30.4493 15.513 30.2258 15.744 29.8764L15.7194 29.8681C14.6565 30.9812 13.3878 32.0055 12.1351 32.8907C10.8723 33.7832 8.82692 35.178 7.23309 34.858C6.92581 34.7963 6.60549 34.694 6.43133 34.4089C6.2505 34.1129 6.28595 33.7476 6.35973 33.4235C6.90688 31.0197 10.1587 28.1829 12.1778 26.9126C10.8265 27.2728 9.5501 27.6933 8.16038 27.8965C6.68455 28.1124 4.29679 28.3235 3.06719 27.349C2.85409 27.1801 2.68209 26.9513 2.65362 26.6709C2.61204 26.262 2.84617 25.864 3.09388 25.5607C4.83564 23.4275 9.26601 22.5136 11.8676 22.2769Z" fill="white"/>
<path d="M19.9491 14.9805C19.9928 15.1397 20.0032 15.2856 20.1223 15.4016C20.3021 15.4344 20.5375 15.3282 20.726 15.3102C21.2819 15.2574 21.8565 15.2183 22.4142 15.2446C22.623 15.2544 23.1354 15.3593 23.3097 15.28L23.3293 15.2454L23.4059 15.3464C23.5785 15.3762 23.7497 15.4129 23.9194 15.4566C24.0891 15.5004 24.2567 15.551 24.4224 15.6086C24.5881 15.6661 24.7512 15.7303 24.9118 15.8012C25.0723 15.8721 25.2298 15.9494 25.3842 16.0333C25.5816 16.1401 26.1851 16.587 26.3514 16.603L26.4071 16.5424L26.4265 16.5802C26.4455 16.6645 26.4804 16.7032 26.5387 16.7632C26.8496 17.0825 27.2016 17.358 27.5168 17.6727C28.3153 18.4698 28.9098 19.5631 29.2548 20.638C29.3331 20.8823 29.4899 21.9693 29.5069 22.003C29.5508 23.388 29.5224 24.3179 29.1202 25.6739C29.2439 25.7186 29.3736 25.7577 29.4919 25.8156L29.4728 25.844L29.4173 25.8402C29.3034 25.8332 29.2078 25.8121 29.1088 25.8809C28.8236 26.3927 28.5606 26.9416 28.2337 27.426C28.0707 27.6677 27.4393 28.3503 27.3824 28.5315L27.4037 28.5984L27.3175 28.6185C27.2833 28.6256 25.9135 29.6981 25.6869 29.8265C25.3396 30.0234 24.4937 30.2501 24.2641 30.4549L24.205 30.4524C23.7279 30.4403 23.1854 30.6373 22.7034 30.6985C21.8312 30.8092 20.9771 30.6968 20.1119 30.5873L20.0696 30.7388L20.0468 30.6017L20.0044 30.5798C19.7718 30.4198 19.3644 30.3494 19.0919 30.2485C18.7187 30.1115 18.36 29.9427 18.0158 29.742C16.9428 29.1097 15.9692 28.1515 15.3056 27.0852C15.1094 26.7699 14.946 26.2972 14.7147 26.0226C14.6431 26.0111 14.5924 26.0033 14.5261 25.9721C14.5693 25.9319 14.6171 25.9009 14.6652 25.8671C14.6345 25.4144 14.4133 24.955 14.3356 24.5015C14.2093 23.7641 14.2733 22.9467 14.2912 22.2003C13.4827 22.1782 12.672 22.1865 11.8676 22.2769L11.8497 22.2297L11.7102 22.1721C12.1704 22.1908 12.6309 22.1619 13.0913 22.1616C13.5005 22.1614 13.913 22.2048 14.3181 22.132C14.3589 21.8389 14.421 21.5498 14.4802 21.2602C14.7258 19.9903 15.3462 18.7228 16.2202 17.7788C16.4839 17.4939 16.8505 17.2571 17.0772 16.9531L17.0575 16.8546L17.0694 16.8206C17.1302 16.872 17.1254 16.8627 17.1975 16.8703C18.021 16.1743 19.0241 15.8104 20.0105 15.4333C19.9625 15.2876 19.9358 15.1484 19.9123 14.9967L19.9491 14.9805Z" fill="#EABB8D"/>
<path d="M14.4802 21.2602C14.4835 21.2728 14.4871 21.2855 14.4901 21.2984C14.6076 21.7933 14.5294 22.3437 14.6271 22.8586C14.984 24.7378 16.288 26.4214 17.8638 27.425C19.6148 28.5402 21.8558 28.8312 23.8531 28.3472C23.9127 28.3326 23.9721 28.3172 24.0314 28.301C24.0906 28.2848 24.1497 28.2679 24.2085 28.2503C24.2673 28.2327 24.3259 28.2143 24.3843 28.1952C24.4426 28.1761 24.5008 28.1563 24.5587 28.1357C24.6166 28.1152 24.6742 28.0939 24.7316 28.0719C24.7891 28.0499 24.8461 28.0272 24.9029 28.0037C24.9598 27.9803 25.0163 27.9561 25.0726 27.9313C25.1288 27.9064 25.1847 27.8809 25.2404 27.8547C25.296 27.8284 25.3513 27.8014 25.4063 27.7738C25.4612 27.7462 25.5159 27.7178 25.5702 27.6888C25.6244 27.6598 25.6783 27.6301 25.7319 27.5997C25.7855 27.5693 25.8386 27.5383 25.8914 27.5066C25.9442 27.4749 25.9966 27.4426 26.0487 27.4096C26.1007 27.3765 26.1523 27.3429 26.2035 27.3085C26.2547 27.2742 26.3055 27.2393 26.3559 27.2037C26.4062 27.1681 26.4561 27.1319 26.5056 27.0951C26.5551 27.0583 26.604 27.0208 26.6526 26.9828C26.7012 26.9447 26.7493 26.906 26.7969 26.8668C26.8445 26.8275 26.8917 26.7876 26.9383 26.7472C26.985 26.7067 27.0311 26.6657 27.0768 26.6241C27.1225 26.5825 27.1676 26.5403 27.2123 26.4975C27.2569 26.4548 27.301 26.4115 27.3446 26.3677C27.3882 26.3238 27.4312 26.2794 27.4737 26.2345C27.5162 26.1896 27.5581 26.1441 27.5995 26.0981C27.6409 26.0522 27.6818 26.0057 27.722 25.9586C27.7623 25.9117 27.802 25.8642 27.8411 25.8161C27.8803 25.7682 27.9188 25.7197 27.9567 25.6707C27.9947 25.6217 28.032 25.5723 28.0687 25.5224C28.1054 25.4725 28.1416 25.4222 28.1771 25.3714C28.2126 25.3205 28.2475 25.2693 28.2817 25.2176C28.316 25.1659 28.3497 25.1138 28.3827 25.0613C28.4157 25.0087 28.448 24.9558 28.4797 24.9025C28.6165 24.6728 28.7399 24.4359 28.85 24.1918C28.9601 23.9478 29.056 23.6982 29.138 23.443C29.2616 23.0569 29.2876 22.2915 29.5069 22.003C29.5508 23.388 29.5224 24.3179 29.1202 25.6739C29.2439 25.7186 29.3736 25.7577 29.4919 25.8156L29.4728 25.844L29.4173 25.8402C29.3034 25.8332 29.2078 25.8121 29.1088 25.8809C28.8236 26.3927 28.5606 26.9416 28.2337 27.426C28.0707 27.6677 27.4393 28.3503 27.3824 28.5315L27.4037 28.5984L27.3175 28.6185C27.2833 28.6256 25.9135 29.6981 25.6869 29.8265C25.3396 30.0234 24.4937 30.2501 24.2641 30.4549L24.205 30.4524C23.7279 30.4403 23.1854 30.6373 22.7034 30.6985C21.8312 30.8092 20.9771 30.6968 20.1119 30.5873L20.0696 30.7388L20.0468 30.6017L20.0044 30.5798C19.7718 30.4198 19.3644 30.3494 19.0919 30.2485C18.7187 30.1115 18.36 29.9427 18.0158 29.742C16.9428 29.1097 15.9692 28.1515 15.3056 27.0852C15.1094 26.7699 14.6652 26.3644 14.7147 26.0226C14.7228 26.0075 14.7227 26.0075 14.6839 25.9681C14.6839 25.9681 14.6691 25.9254 14.6652 25.8671C14.6345 25.4144 14.4133 24.955 14.3356 24.5015C14.2093 23.7641 14.2733 22.9467 14.2912 22.2003C13.4827 22.1782 12.672 22.1865 11.8676 22.2769L11.8497 22.2297L11.7102 22.1721C12.1704 22.1908 12.6309 22.1619 13.0913 22.1616C13.5005 22.1614 13.913 22.2048 14.3181 22.132C14.3589 21.8389 14.421 21.5498 14.4802 21.2602Z" fill="#EABB8D"/>
<path d="M26.4265 16.5802C27.0777 15.5902 27.8843 14.7341 28.7151 13.899C30.595 12.0098 33.4041 9.60117 36.0746 9.07332C36.5538 8.97858 37.2738 8.89606 37.6944 9.1936C37.8955 9.33586 38.0032 9.55474 38.0416 9.79648C38.1911 10.7394 37.5283 11.7651 36.9965 12.4736C35.7354 14.1539 33.9392 15.5717 32.2234 16.7432C31.561 17.1954 30.8413 17.6047 30.2091 18.0962C32.9902 16.8921 35.9355 15.7349 39.0221 16.0098C39.6435 16.065 40.2755 16.1553 40.8577 16.3905C41.2549 16.5509 41.7796 16.8184 41.9558 17.2378C42.0424 17.4438 41.9894 17.6527 41.9036 17.8499C41.3749 19.0639 39.1057 19.9165 37.9223 20.3446C35.6335 21.1725 33.2635 21.6918 30.8585 22.0062L30.8321 21.9674L30.8509 22.0075L30.7396 22.0281C31.0055 22.0675 31.2895 22.0093 31.5609 22.0167C32.2483 22.0352 32.9456 22.0704 33.6308 22.1288C35.7732 22.3113 40.4696 23.2826 41.7782 25.1349C41.9237 25.3409 42.0301 25.5831 41.986 25.8414C41.937 26.1283 41.7066 26.3323 41.4793 26.4842C41.1074 26.7326 40.6472 26.8758 40.2212 26.992C37.3657 27.7711 34.0828 27.007 31.2676 26.3474L31.207 26.3326C33.5075 27.6127 35.8237 29.0079 37.4556 31.1505C37.8374 31.6518 38.219 32.2238 38.3989 32.8379C38.4829 33.1243 38.5231 33.4533 38.376 33.7272C38.2135 34.0295 37.8448 34.185 37.5323 34.2706C36.0583 34.6745 34.0205 33.6428 32.771 32.8824C30.8391 31.7066 28.991 30.2213 27.4037 28.5984L27.3824 28.5315C27.4393 28.3503 28.0707 27.6677 28.2337 27.426C28.5606 26.9416 28.8236 26.3927 29.1088 25.8809C29.2078 25.8121 29.3034 25.8332 29.4173 25.8402L29.4728 25.844L29.4919 25.8156C29.3736 25.7577 29.2439 25.7186 29.1202 25.6739C29.5224 24.3179 29.5508 23.388 29.5069 22.003C29.4899 21.9693 29.3331 20.8823 29.2548 20.638C28.9098 19.5631 28.3153 18.4698 27.5168 17.6727C27.2016 17.358 26.8496 17.0825 26.5387 16.7632C26.4804 16.7032 26.4455 16.6645 26.4265 16.5802Z" fill="white"/>
</svg>
