<?xml version="1.0" standalone="no"?>
<!DOCTYPE svg PUBLIC "-//W3C//DTD SVG 20010904//EN"
 "http://www.w3.org/TR/2001/REC-SVG-20010904/DTD/svg10.dtd">
<svg version="1.0" xmlns="http://www.w3.org/2000/svg"
 width="642.000000pt" height="642.000000pt" viewBox="0 0 642.000000 642.000000"
 preserveAspectRatio="xMidYMid meet">
<metadata>
Created by potrace 1.14, written by Peter Selinger 2001-2017
</metadata>
<g transform="translate(0.000000,642.000000) scale(0.100000,-0.100000)"
fill="#000000" stroke="none">
<path d="M3103 5980 c-13 -5 -23 -7 -23 -4 0 5 -9 -2 -53 -40 -29 -25 -70
-116 -82 -181 -4 -22 -9 -141 -11 -265 -3 -199 2 -323 21 -510 3 -30 8 -80 11
-110 2 -30 6 -73 9 -95 2 -22 7 -67 11 -100 3 -33 8 -68 10 -79 3 -17 13 -99
19 -156 4 -32 16 -119 21 -145 23 -119 42 -183 80 -259 44 -86 54 -122 20 -71
-10 15 -26 25 -41 25 -20 0 -26 7 -34 38 -5 20 -19 71 -31 112 -12 41 -22 81
-22 88 -1 6 -5 12 -10 12 -4 0 -8 8 -8 18 0 10 -4 22 -8 28 -5 5 -15 25 -22
44 -19 51 -152 343 -196 430 -84 169 -174 308 -314 484 -85 107 -234 255 -335
329 -145 108 -256 148 -310 113 -13 -9 -39 -16 -57 -16 -34 -1 -68 -19 -68
-38 0 -15 -40 -55 -73 -71 -55 -29 -117 -95 -137 -147 -29 -78 -19 -207 25
-309 7 -16 20 -50 30 -75 24 -60 100 -216 127 -260 11 -19 28 -49 37 -65 17
-32 140 -216 200 -300 31 -44 149 -191 176 -221 59 -65 153 -171 164 -187 13
-18 12 -19 -9 -12 -12 4 -50 23 -84 42 -57 32 -209 107 -496 245 -69 33 -156
76 -195 95 -94 46 -327 147 -428 185 -94 35 -137 41 -175 27 -49 -19 -66 -47
-68 -116 -1 -35 2 -66 7 -69 5 -3 9 -13 9 -23 0 -19 76 -144 91 -149 5 -2 9
-9 9 -16 0 -23 169 -180 263 -244 105 -72 368 -208 502 -259 117 -45 129 -57
45 -49 -36 4 -94 9 -130 12 -36 3 -99 9 -140 13 -85 9 -502 6 -570 -3 -25 -4
-58 -9 -75 -11 -172 -24 -285 -76 -340 -156 -23 -32 -26 -45 -20 -75 9 -50 60
-138 98 -170 65 -55 240 -117 392 -139 28 -4 61 -9 75 -11 14 -2 54 -6 90 -9
36 -4 79 -8 95 -11 17 -2 138 -7 270 -10 132 -3 246 -9 253 -13 8 -5 -17 -17
-65 -31 -43 -12 -82 -26 -88 -30 -5 -3 -30 -12 -54 -19 -42 -12 -108 -40 -231
-99 -30 -14 -107 -59 -171 -99 -172 -108 -253 -203 -278 -328 -12 -63 -4 -77
85 -140 l66 -48 72 6 c78 6 152 32 336 120 144 69 431 190 437 183 2 -2 -31
-30 -74 -62 -78 -57 -307 -238 -331 -261 -7 -7 -33 -29 -59 -50 -118 -97 -271
-274 -332 -385 -62 -113 -62 -191 0 -224 16 -8 29 -20 29 -27 0 -20 52 -54
100 -67 81 -22 227 8 327 67 24 14 43 20 43 14 0 -7 -11 -37 -24 -69 -35 -83
-48 -138 -52 -218 -3 -85 5 -103 78 -177 96 -95 157 -100 293 -20 128 75 300
253 492 508 80 105 190 262 196 277 2 7 7 11 10 8 3 -3 -12 -59 -34 -125 -74
-223 -132 -466 -154 -638 -11 -94 -14 -283 -4 -352 12 -83 49 -171 87 -207 50
-47 110 -71 160 -63 54 8 76 19 120 63 33 31 49 41 38 23 -5 -8 10 -24 85 -86
35 -29 131 -25 194 7 52 27 116 114 129 175 7 32 34 44 96 43 33 0 124 27 180
53 69 34 166 167 204 280 11 33 23 16 56 -80 33 -98 67 -172 94 -206 15 -20
116 -58 129 -50 5 3 31 5 57 4 39 0 56 6 101 37 159 111 184 319 84 683 -35
127 -48 162 -112 317 -19 46 -33 85 -31 87 2 2 24 -28 48 -68 24 -40 72 -109
105 -155 33 -46 67 -93 75 -106 82 -123 341 -406 372 -406 6 0 21 -8 32 -18
32 -28 133 -65 188 -68 40 -3 62 3 121 33 84 43 85 44 120 104 41 69 34 124
-29 253 -19 38 -33 70 -32 72 2 1 44 -17 93 -41 50 -24 103 -46 118 -49 15 -2
31 -7 36 -11 6 -3 37 -8 69 -11 47 -5 66 -2 98 14 72 37 145 135 144 194 -2
73 -70 177 -187 285 -47 42 -80 79 -75 81 5 1 40 -9 77 -23 202 -76 374 -81
451 -13 19 17 34 34 34 39 0 5 12 23 28 40 33 37 40 58 41 125 3 161 -219 334
-652 510 -61 24 -113 47 -117 50 -3 3 18 3 45 0 200 -22 314 -28 448 -23 84 3
166 8 182 12 87 18 119 26 129 33 6 3 20 8 31 9 32 5 138 63 166 92 111 112
87 261 -54 332 -43 23 -166 55 -246 64 -101 12 -118 19 -79 30 40 12 114 68
139 105 21 31 24 46 24 125 -1 100 -14 135 -65 178 -54 46 -128 62 -295 61
-182 0 -277 -12 -593 -75 -109 -22 -66 3 118 66 106 37 290 113 305 126 5 5
17 9 26 9 10 0 19 3 21 8 2 4 37 24 78 44 41 21 98 53 125 72 28 20 59 39 70
44 31 15 152 130 175 167 13 21 22 58 26 101 5 61 3 73 -18 104 -29 43 -78 76
-132 91 -39 11 -167 7 -246 -7 -53 -9 -332 -106 -442 -153 -53 -22 -100 -41
-103 -41 -6 0 -66 -28 -210 -96 -33 -16 -63 -30 -67 -32 -22 -10 -1 20 53 78
34 36 78 85 98 110 20 25 39 47 42 50 3 3 39 50 80 105 168 225 258 443 259
626 0 56 -5 75 -32 126 -45 82 -71 113 -107 123 -52 15 -99 -32 -203 -200
-138 -222 -283 -430 -387 -556 -29 -35 -41 -50 -91 -114 -42 -53 -61 -78 -75
-94 -5 -6 -28 -36 -51 -66 -22 -30 -60 -82 -85 -115 -36 -48 -195 -286 -234
-350 -10 -16 -13 -16 -48 -2 -58 25 -50 48 46 141 45 45 105 110 132 146 27
36 52 67 56 70 20 15 176 263 277 438 76 133 174 345 211 457 53 160 70 250
69 368 0 121 -17 167 -91 250 -46 53 -57 59 -99 64 -57 7 -94 -14 -159 -86
-60 -66 -64 -72 -126 -176 -18 -29 -132 -259 -170 -341 -102 -221 -133 -284
-139 -284 -3 0 -3 10 0 23 7 24 33 196 44 292 14 123 7 325 -16 412 -36 141
-80 211 -155 250 -60 30 -148 37 -192 13 -34 -18 -87 -108 -117 -199 -24 -72
-42 -89 -53 -48 -13 44 -59 152 -72 168 -7 8 -13 20 -13 25 0 16 -91 114 -121
129 -31 17 -92 19 -126 5z m549 -1942 c-4 -64 -12 -87 -33 -88 -3 0 -12 18
-19 40 -13 40 -7 60 34 107 19 22 22 14 18 -59z m-1145 -549 c-16 -22 -24 -26
-34 -18 -7 6 -13 8 -13 4 0 -4 -7 -2 -15 5 -30 25 -21 29 72 36 6 0 2 -12 -10
-27z m1838 -23 c-60 -31 -120 -56 -132 -56 -30 0 -29 24 2 48 14 11 25 27 25
36 0 12 14 16 70 18 39 2 87 4 108 6 32 2 21 -5 -73 -52z m-1790 -496 c-4 -11
-22 -28 -41 -37 -19 -9 -34 -19 -34 -23 0 -3 -13 -7 -30 -8 -41 -3 -38 8 12
49 76 62 109 69 93 19z m1156 -603 c18 -15 40 -25 49 -22 12 4 19 -9 31 -55 9
-34 13 -59 10 -58 -3 2 -41 40 -84 84 -55 57 -72 81 -59 80 11 0 34 -13 53
-29z"/>
</g>
</svg>
